<svg width="218" height="192" viewBox="0 0 218 192" fill="none" xmlns="http://www.w3.org/2000/svg">
<path d="M14.8966 136.445C11.5463 133.181 9.4914 128.723 7.3198 124.006C6.48564 122.199 5.62557 120.329 4.69312 118.553C4.50999 118.207 4.29039 117.819 4.05261 117.397C3.14957 115.79 1.8112 113.419 1.80622 111.769C3.19137 110.094 4.57901 108.764 5.9246 107.476C6.53827 106.888 7.16772 106.28 7.79465 105.65C9.85422 103.568 11.7064 101.321 13.5797 99.0094C16.5898 95.2888 20.1961 92.0067 23.6816 88.8364C24.3819 88.1978 25.0769 87.5624 25.7653 86.9302C27.2526 85.5605 28.787 84.1928 30.2689 82.8738C33.5872 79.923 37.016 76.8702 40.1973 73.5101C41.5736 72.059 42.9423 70.5602 44.2637 69.1086C46.9499 66.1712 49.7241 63.1315 52.6266 60.4077C55.671 57.5525 58.8383 54.7494 61.9017 52.0419C63.2364 50.8623 64.5711 49.6828 65.8979 48.4966C66.6073 47.8613 67.3219 47.2392 68.0378 46.6188C69.8479 45.0474 71.7197 43.4177 73.4628 41.6065C73.6021 41.4637 73.7454 41.3045 73.894 41.1421L75.6545 39.2262L73.6147 39.0323C73.2837 39.0028 72.9463 38.9323 72.5906 38.8567C72.3382 38.8034 72.0832 38.7517 71.8255 38.7115C70.3475 38.4756 68.8475 38.1527 67.3934 37.8384C64.9636 37.3146 62.4489 36.7752 59.9156 36.6108C58.8505 36.5413 57.6818 36.5018 56.2408 36.4876C55.517 36.4804 54.7945 36.4798 54.0734 36.4808C53.3535 36.4786 52.6362 36.478 51.9164 36.4709C50.5369 36.4572 48.7164 36.4179 46.9005 36.2344C44.8739 36.0291 42.8257 35.6631 40.8468 35.3076C38.7045 34.9243 36.4876 34.5304 34.2659 34.3281C33.422 34.2542 32.5662 34.2244 31.7404 34.1982C30.5534 34.1602 29.3258 34.1218 28.1604 33.9366C27.386 33.8159 26.5923 33.6212 25.8209 33.435C24.6911 33.16 23.5209 32.8764 22.3236 32.7859C20.4735 32.6446 18.7267 32.5126 16.8421 32.14C16.1791 32.0089 15.508 31.9302 14.8578 31.8516C13.9145 31.7391 13.0197 31.6335 12.1621 31.3825C9.32532 30.5483 9.15407 29.5422 8.95736 25.8242C8.82708 23.4537 8.87509 21.0129 8.92409 18.6523C8.94453 17.5023 8.97036 16.3164 8.9739 15.1416C8.97574 13.7424 8.95013 12.3331 8.92173 10.9663C8.90874 10.3075 8.89574 9.65199 8.88537 8.99158C8.87236 8.01985 8.99417 7.36239 9.25075 7.03561C9.61387 6.58044 10.4425 6.54933 11.4032 6.55885L12.6675 6.57139C15.738 6.60183 18.9154 7.05115 21.9907 7.4847L23.4218 7.68731C30.538 8.67049 37.7749 9.57459 44.7751 10.4485L50.3663 11.1462C52.8179 11.454 55.2964 11.88 57.6926 12.292C59.2189 12.5578 60.7963 12.8291 62.3581 13.0674C64.4928 13.3966 66.6531 13.8768 68.7402 14.3399C70.8455 14.8064 73.0228 15.29 75.2033 15.6262C77.3289 15.9521 79.6339 16.2453 82.2558 16.5105C82.486 16.5341 82.796 16.5994 83.1255 16.6666C83.6931 16.7836 84.3378 16.9145 84.9281 16.9204C85.3718 16.9248 85.7333 16.8595 86.0389 16.7168C86.3431 16.5789 86.5693 16.319 86.7534 16.1078C86.8191 16.0331 86.9191 15.921 86.9585 15.8935C87.238 15.7046 87.4996 15.4287 87.7533 15.1608C87.9019 15.005 88.0557 14.8427 88.1634 14.7504C88.7714 14.2567 89.3258 14.095 90.163 13.8838C91.4418 13.5622 92.7622 13.3132 94.0406 13.0719C95.4042 12.8167 96.811 12.5521 98.1933 12.1939L98.3414 12.156C100.636 11.5643 103.491 10.8275 105.647 9.34312C106.823 8.53227 107.792 8.17486 108.787 8.18472C109.588 8.19266 110.432 8.44025 111.443 8.96311C112.492 9.50765 113.48 10.181 114.527 10.8927C115.591 11.6192 116.691 12.3707 117.849 12.9622C118.585 13.3365 119.371 13.6261 120.132 13.9024C121.818 14.5221 123.411 15.1048 124.478 16.549C125.326 17.6929 125.924 18.3984 127.499 18.5123L127.914 18.5459C128.725 18.6064 129.566 18.6672 130.404 18.6755C130.578 18.6772 130.751 18.6757 130.924 18.6741C132.315 18.6469 133.776 18.5025 135.393 18.2334C137.236 17.924 139.125 17.7396 140.956 17.5578C141.911 17.4624 142.873 17.3687 143.83 17.257C147.254 16.86 150.019 16.6826 152.531 16.7026C154.659 16.7188 156.699 16.1475 158.674 15.5953C159.784 15.2819 160.93 14.9607 162.062 14.7572C163.38 14.5163 164.7 14.282 166.023 14.0461C171.099 13.1412 176.35 12.2102 181.475 11.042C182.705 10.7609 183.949 10.5979 185.154 10.4395C187.02 10.1925 188.95 9.93805 190.883 9.24448C191.703 8.95277 193.183 8.47591 194.896 7.92434C199.301 6.50159 205.335 4.55594 207.539 3.37844C208.168 3.03897 208.681 2.87037 209.059 2.87412C209.448 2.87798 209.69 3.05406 209.922 3.50201C210.917 5.42398 210.95 8.5554 210.978 11.0724C210.98 11.482 210.985 11.8802 210.993 12.2587C211.026 13.7976 211.023 15.3689 211.019 16.8893C211.019 17.6758 211.018 18.4655 211.02 19.2503C211.022 19.7681 211.041 20.2959 211.061 20.8302C211.104 22.0742 211.152 23.3576 210.958 24.4764C210.542 26.8661 209.194 27.5835 207.028 28.5598C206.543 28.7795 206.04 29.0039 205.538 29.2709C204.9 29.607 204.207 29.7853 203.478 29.9714C202.822 30.1402 202.149 30.3138 201.471 30.6134C198.738 31.8266 186.526 35.3856 183.711 36.0065C177.551 37.3594 171.177 38.4841 164.767 39.3413C162.524 39.6435 160.26 40.0421 158.07 40.4284C155.755 40.8364 153.356 41.2566 151 41.5609L148.719 41.8529L150.64 43.5235L150.685 43.5567C152.618 45.3225 154.133 46.6057 155.594 47.718L156.721 48.5729C158.664 50.0455 160.674 51.5663 162.508 53.1836C165.286 55.6361 168.177 57.9979 170.974 60.2802C174.414 63.0898 177.97 65.9957 181.321 69.0748C183.398 70.9829 185.472 73.0302 187.477 75.0064C191.071 78.55 194.787 82.2144 198.73 85.3093C200.303 86.5439 201.931 87.7135 203.508 88.8449C204.846 89.8069 206.228 90.7971 207.563 91.8212C209.072 92.9766 210.653 93.9852 212.179 94.9555L212.615 95.2351C213.132 95.563 213.684 95.8257 214.218 96.0784C215.132 96.5168 216.079 96.9669 216.397 97.5992C217.195 99.1817 215.375 103.471 213.166 106.887C211.564 109.36 210.067 112.389 208.584 116.143C208.492 116.381 208.396 116.633 208.297 116.889C207.568 118.803 206.74 120.974 205.322 121.424C205.163 121.477 204.988 121.499 204.803 121.498C203.354 121.483 201.488 119.954 199.987 118.725C199.496 118.32 199.03 117.939 198.618 117.642C195.858 115.661 193.636 113.64 191.063 111.301L190.649 110.924C189.644 110.012 188.636 109.016 187.661 108.054C186.144 106.557 184.574 105.007 182.943 103.69C181.17 102.255 179.46 100.623 177.81 99.0435C176.423 97.7157 174.989 96.3432 173.504 95.08C171.664 93.5134 169.932 91.7136 168.256 89.9733C166.983 88.6482 165.662 87.2818 164.289 86.0049C159.927 81.9442 155.796 77.3925 151.803 72.993C149.838 70.8255 147.805 68.5868 145.759 66.4185C143.234 63.7457 140.524 61.3218 137.903 58.979C136.935 58.1174 135.969 57.2509 135.006 56.373C134.408 55.8231 133.812 55.2634 133.218 54.702C132.032 53.5827 130.806 52.4285 129.546 51.3756C129.326 51.1916 129.106 51.0124 128.891 50.8317C127.924 50.0357 127.008 49.2843 126.18 48.375L125.513 47.6425L124.957 48.5021C124.76 48.8098 124.514 49.1204 124.3 49.3837C124.164 49.5544 124.026 49.7283 123.883 49.912C122.872 51.1915 121.728 52.6416 120.479 52.975C118.806 53.4221 116.904 53.6359 114.838 53.6154C113.115 53.5983 111.282 53.4097 109.539 53.0697L109.097 52.985L108.792 53.3899C108.646 53.5818 108.497 53.7721 108.344 53.9524C106.928 55.6309 105.457 56.5109 103.102 57.0873C102.539 57.2259 101.957 57.4364 101.344 57.6613C100.288 58.0441 99.2004 58.4413 98.2423 58.4318C98.0015 58.4294 97.7739 58.4009 97.5686 58.3448C96.3984 58.035 95.4335 57.1456 94.5317 55.5555C94.0757 54.7449 93.5816 53.9404 93.1044 53.1689C92.8574 52.7634 92.6078 52.3578 92.3621 51.949L91.8941 51.1694L91.2323 51.6839C90.2764 52.4265 89.3187 53.2886 88.3925 54.1232C87.9787 54.4976 87.5688 54.8671 87.1642 55.2219C85.2555 56.8906 83.6662 58.8804 82.2317 60.7815C80.8735 62.5802 79.5086 64.4247 78.1911 66.209C76.4958 68.504 74.7426 70.8739 72.9898 73.1651C71.0277 75.7295 68.8426 78.1066 66.7258 80.4024C65.5557 81.6753 64.3422 82.9937 63.1744 84.3355C61.4858 86.2751 59.7136 88.1745 58.0019 90.009C56.5913 91.5172 55.1359 93.0789 53.7302 94.6576C49.9997 98.8462 46.4054 103.336 42.9294 107.678C40.11 111.202 37.1906 114.847 34.2275 118.296C30.8922 122.178 27.5321 125.735 24.2405 128.866C22.7333 130.298 20.9424 131.965 19.0528 133.457C18.1756 134.151 17.2986 134.812 16.4833 135.424C16.3795 135.499 16.2431 135.587 16.0908 135.683C15.7339 135.917 15.3179 136.184 14.967 136.51L14.8966 136.445Z" fill="#2B2B2A"/>
<path d="M99.9448 47.356C99.6324 48.5457 98.3709 49.1165 97.5092 49.5421C96.3773 50.1011 95.2003 50.8169 93.9633 50.5408C93.7488 50.4912 93.7204 50.0813 93.9315 50.0048C95.1361 49.5645 96.323 48.9995 97.4631 48.3489C98.1965 47.9269 98.9352 47.151 99.7368 47.018C99.8927 46.9934 99.9914 47.1828 99.9448 47.356ZM95.1967 45.351C94.3902 45.3937 93.6174 45.8629 92.8621 46.188C92.4609 46.361 91.8977 46.4439 91.5484 46.737C91.2515 46.988 91.4744 47.5309 91.8102 47.3573C92.0332 47.2399 92.3874 47.3532 92.6311 47.3015C92.8643 47.253 93.1096 47.1145 93.3324 47.043C94.0441 46.8174 94.8087 46.4449 95.3453 45.8063C95.4768 45.6519 95.3826 45.3413 95.1967 45.351ZM108.253 24.9095C107.278 25.9288 106.62 27.3526 105.728 28.5022C104.041 30.681 102.599 33.1293 100.825 35.209C99.4253 36.8532 97.7363 37.9375 96.2265 39.3808C95.3277 40.2386 94.392 40.8388 93.3455 41.3216C92.981 41.4868 90.574 42.1052 90.4238 41.7301C90.3525 41.5558 90.2061 41.5068 90.0735 41.6087C90.0288 41.6427 89.9855 41.6766 89.9409 41.7106C89.7465 41.8643 89.7344 42.2755 89.9221 42.4461C92.6671 44.9081 96.6457 40.5663 98.8421 38.9397C100.915 37.4054 102.598 34.9267 104.155 32.6565C105.775 30.2935 107.608 28.1456 108.542 25.204C108.609 24.995 108.407 24.7472 108.253 24.9095ZM101.474 40.2881C100.651 40.5355 99.972 41.3988 99.2526 41.9275C98.99 42.1215 99.1933 42.656 99.4663 42.4654C100.196 41.9532 101.032 41.3651 101.621 40.6107C101.714 40.4887 101.605 40.2484 101.474 40.2881ZM103.255 44.2512C102.841 44.3454 102.565 44.7834 102.293 45.1428C102.147 45.3412 101.975 45.6672 101.758 45.7421C101.564 45.8073 101.594 46.1206 101.782 46.1617C102.127 46.234 102.392 46.1105 102.663 45.8379C102.994 45.502 103.406 45.0752 103.484 44.5254C103.507 44.3634 103.374 44.2261 103.255 44.2512ZM102.648 50.8875C101.746 51.3848 100.923 52.0582 100.041 52.6017C99.4164 52.9838 98.7502 53.2934 98.0946 53.5786C97.3813 53.8926 96.6172 53.8179 95.9052 54.1467C95.6862 54.2477 95.7588 54.722 95.9918 54.7145C98.4292 54.6485 101.261 53.7902 102.9 51.3323C103.042 51.124 102.859 50.7683 102.648 50.8875ZM103.437 54.6982C102.863 54.7367 102.353 55.2642 101.871 55.6182C101.228 56.0886 100.543 56.3079 99.8672 56.6617C99.7321 56.7341 99.7468 56.9882 99.88 57.0469C100.597 57.3653 101.416 56.9752 102.069 56.5983C102.644 56.2649 103.35 55.859 103.689 55.1627C103.794 54.9458 103.617 54.6868 103.437 54.6982ZM96.9153 19.2771C96.2579 18.1007 95.5862 16.2623 94.5077 15.6142C94.1878 15.4226 93.9148 15.9377 94.2134 16.2061C95.1027 17.0095 95.7094 18.7687 96.3265 19.8693C97.0646 21.1727 97.6145 22.7166 98.4288 23.9372C98.5368 24.0988 98.7948 24.0506 98.7697 23.7931C98.6038 22.1399 97.6598 20.6116 96.9153 19.2771ZM100.073 18.1877C99.9971 17.8347 100.085 17.498 99.9581 17.1461C99.839 16.8173 99.6976 16.5259 99.5221 16.2374C99.1697 15.6588 98.7216 14.8286 98.1637 14.5805C97.8815 14.4532 97.7174 14.8891 97.8774 15.1479C98.2648 15.7776 98.7635 16.4216 99.0773 17.1161C99.2654 17.5341 99.5862 18.1468 99.9545 18.3324C100.034 18.3741 100.093 18.2764 100.073 18.1877ZM100.854 19.9421C100.698 19.5571 100.502 19.2209 100.214 18.9756C100.068 18.8512 99.8195 19.0126 99.9141 19.2511C100.053 19.6113 100.101 20.0313 100.298 20.3511C100.551 20.7583 101.044 20.4175 100.854 19.9421ZM103.233 16.1103C103.045 15.748 102.761 15.4191 102.62 15.0245C102.43 14.5 101.835 14.3007 101.671 13.8092C101.553 13.4607 101.058 13.5655 101.08 13.9606C101.097 14.3016 101.156 14.4709 101.357 14.7138C101.504 14.8971 101.674 15.0397 101.813 15.2361C101.899 15.3582 102.063 15.83 102.15 15.9882C102.498 16.629 102.81 17.8151 103.424 18.0849C103.514 18.1252 103.644 18.097 103.677 17.9646C103.861 17.2831 103.528 16.6753 103.233 16.1103ZM105.119 12.4769C105.046 12.3107 105.011 12.1121 104.832 12.0841C104.662 12.0595 104.427 12.3308 104.554 12.5516C104.62 12.6669 104.664 12.9246 104.72 13.0677C104.777 13.2059 104.848 13.3311 104.925 13.4548C105.05 13.6526 105.218 13.864 105.435 13.8449C105.504 13.8357 105.594 13.7826 105.604 13.6844C105.657 13.2409 105.279 12.8488 105.119 12.4769ZM44.4262 12.1717C41.679 11.5186 38.885 11.0927 36.1162 10.5967C32.7941 10.0034 29.3406 9.21379 25.9727 9.58838C25.8142 9.60647 25.775 9.91411 25.9437 9.94855C29.043 10.6166 32.1755 10.823 35.2567 11.4516C38.1403 12.0438 41.4683 13.1074 44.3831 12.8037C44.6659 12.7737 44.7204 12.2418 44.4262 12.1717ZM70.5097 16.5445C68.9909 15.7037 67.2984 15.7442 65.7089 15.2402C63.6109 14.5771 61.4892 14.5839 59.3583 14.2695C57.3675 13.9762 55.368 13.5369 53.3907 13.1126C52.2164 12.8601 51.0381 12.9352 49.8566 12.835C48.6411 12.7345 47.6034 12.3621 46.367 12.5694C46.1705 12.6019 46.2058 12.9266 46.3745 12.9742C48.4584 13.5585 50.4337 13.8173 52.5506 14.0267C54.7578 14.2485 56.9588 14.9863 59.1564 15.3178C61.0308 15.5969 62.9171 15.5648 64.7884 15.9536C66.669 16.3442 68.507 16.8835 70.4229 16.9647C70.5943 16.9697 70.6742 16.6362 70.5097 16.5445ZM75.0054 17.2543C74.7459 16.9994 74.3808 17.0023 74.0616 16.9549C73.5488 16.8777 73.0245 16.7398 72.5072 16.8248C72.1928 16.8758 72.2233 17.425 72.5149 17.495C72.9739 17.6012 73.4475 17.6435 73.9078 17.7382C74.2701 17.8106 74.6924 17.923 75.0064 17.6426C75.1088 17.5502 75.1005 17.3503 75.0054 17.2543ZM35.0658 15.2051C34.9208 15.125 34.7908 14.9254 34.6141 14.9319C34.419 14.9414 34.2448 14.961 34.0523 14.9869C33.6332 15.045 33.0867 14.9004 32.6696 14.8159C32.3478 14.7521 32.285 15.3774 32.5764 15.4983C32.8704 15.6224 33.1629 15.7908 33.4502 15.9395C33.7624 16.0982 34.0448 16.1731 34.3627 16.2139C34.3823 16.2305 34.3979 16.2471 34.4149 16.2636C34.5571 16.3748 34.7767 16.4311 34.9304 16.3113C34.9999 16.258 35.0669 16.2029 35.1378 16.1495C35.4149 15.9311 35.357 15.362 35.0658 15.2051ZM68.3861 20.8195C65.9485 19.6615 63.2594 19.5185 60.7068 18.9591C58.3804 18.4494 56.0029 18.2669 53.6661 17.7489C50.9305 17.1434 48.1671 16.9013 45.4149 16.5038C42.7817 16.1221 40.0562 15.5921 37.4032 15.9017C37.0444 15.944 37.0771 16.5718 37.404 16.6537C42.2079 17.8532 47.1887 18.0238 52.0611 18.7832C55.067 19.2538 58.1904 19.4502 61.163 20.0548C63.5039 20.5302 65.8734 21.0715 68.2239 21.4307C68.4999 21.4711 68.6774 20.9567 68.3861 20.8195ZM30.2565 102.999C28.4177 104.216 26.8249 106.114 25.3723 107.959C25.2854 108.066 25.1986 108.169 25.1144 108.274C21.959 110.126 19.0134 113.128 16.4649 116.017C15.9849 116.563 15.5754 117.16 15.1671 117.785C14.6494 118.575 14.1579 119.057 13.5857 119.442C12.323 119.363 10.3354 121.44 10.4564 122.88C10.4751 123.118 10.6815 123.207 10.835 123.128C10.908 123.186 10.9864 123.228 11.0714 123.245C12.1241 123.465 13.369 122.483 13.963 121.268C14.1742 121.152 14.3815 121.023 14.572 120.861C15.3233 120.222 15.9681 119.371 16.6388 118.613C18.3614 116.667 20.3016 114.967 22.1582 113.232C23.6167 111.871 24.8928 110.602 26.1967 108.952C27.644 107.125 29.4472 105.632 30.6117 103.499C30.7634 103.215 30.4993 102.837 30.2565 102.999ZM20.4801 104.381C19.9232 104.848 19.3845 105.344 18.8523 105.856C18.0457 106.559 17.265 107.353 16.5169 108.171C15.5404 109.141 14.5496 110.088 13.486 110.912C12.5958 111.599 11.8577 112.526 10.9401 113.18C9.83084 113.97 8.68523 114.691 7.7657 115.815C7.41579 116.24 7.34288 116.78 7.49022 117.234C7.48483 117.272 7.47681 117.314 7.47534 117.352C7.46659 117.57 7.59051 117.672 7.72791 117.68C7.79431 117.765 7.86991 117.842 7.95731 117.912C8.94368 118.674 10.5736 116.052 10.8272 115.168C10.8338 115.157 10.8286 115.145 10.8339 115.132C11.0035 114.954 11.1875 114.759 11.403 114.556C12.7971 113.259 14.2847 112.116 15.6528 110.776C17.2193 109.245 19.3517 107.578 20.3698 105.406C20.3949 105.354 20.403 105.295 20.4033 105.232C20.5139 105.05 20.6208 104.858 20.7236 104.665C20.8305 104.457 20.635 104.253 20.4801 104.381ZM11.7771 104.459C11.7262 104.403 11.6794 104.348 11.6298 104.294C11.5022 104.15 11.3084 104.154 11.1563 104.22C10.3381 104.581 9.78415 105.609 9.18176 106.319C8.21506 107.455 7.09818 108.509 6.37121 109.912C6.13636 110.365 6.65817 110.788 6.96414 110.545C8.09084 109.649 9.07673 108.304 10.0552 107.168C10.3919 106.777 10.7129 106.37 11.0118 105.937C11.287 105.54 11.6753 105.333 11.8436 104.838C11.8794 104.725 11.85 104.541 11.7771 104.459ZM34.4156 106.276C32.5256 107.227 31.0524 109.962 29.4726 111.545C27.3592 113.661 25.3876 115.981 23.2755 118.111C21.3421 120.058 19.1149 121.524 17.0944 123.347C16.3836 123.989 13.5058 126.449 13.6222 127.725C13.6611 128.137 14.1432 128.037 14.1748 127.665C14.1583 127.867 15.408 126.97 15.6317 126.69C16.4592 125.656 17.4578 124.734 18.4115 123.89C20.4937 122.037 22.6502 120.563 24.6428 118.544C26.6722 116.49 28.553 114.256 30.5771 112.208C32.0821 110.69 33.8645 108.838 34.7374 106.649C34.8366 106.4 34.5901 106.187 34.4156 106.276ZM44.0426 97.3237C42.855 97.4316 41.6457 99.0023 40.7363 99.883C39.6535 100.937 38.525 101.94 37.4136 102.95C37.1771 103.164 37.352 103.602 37.5927 103.632C37.5966 103.633 37.6005 103.633 37.6071 103.634C37.6175 103.634 37.6267 103.639 37.6372 103.639C38.6496 103.8 39.4572 102.523 40.2866 101.979C41.1082 101.438 41.813 100.646 42.5684 99.9716C43.1819 99.4222 43.9509 98.94 44.3704 98.138C44.5261 97.8397 44.3739 97.2942 44.0426 97.3237ZM21.5954 127.522C20.8729 127.522 20.3061 128.167 19.7452 128.671C18.8216 129.499 17.8391 130.339 16.839 131.006C16.6605 131.124 16.6837 131.539 16.9008 131.577C18.0112 131.78 18.8785 131.257 19.8224 130.577C20.5418 130.055 21.8971 129.262 21.9296 128.04C21.9345 127.808 21.81 127.523 21.5954 127.522ZM187.279 9.91793C185.665 10.3181 184.222 10.9625 182.556 11.0229C180.823 11.086 179.116 11.3559 177.419 11.788C173.81 12.7025 170.124 13.1116 166.452 13.5045C162.981 13.8797 159.605 15.3634 156.182 16.1127C154.304 16.52 152.508 16.7202 150.616 16.9963C149.351 17.1787 147.221 17.197 146.226 18.2898C146.054 18.4781 146.111 18.9309 146.392 18.8796C149.352 18.3552 152.435 19.0116 155.364 18.0592C157.068 17.5059 158.849 17.3417 160.559 16.8393C162.555 16.2529 164.51 15.6513 166.544 15.2176C170.248 14.4236 174.01 14.3593 177.68 13.2472C179.727 12.6268 181.845 12.5511 183.939 12.4195C185.225 12.3372 186.751 11.8412 187.6 10.588C187.813 10.2739 187.597 9.83917 187.279 9.91793ZM174.667 18.0786C171.519 18.4504 168.411 19.5289 165.33 20.3126C161.561 21.2698 157.748 21.7088 153.949 22.4183C153.676 22.4696 153.664 23.043 153.94 23.1014C157.492 23.8461 160.764 22.5858 164.264 21.993C166.09 21.685 167.843 21.1175 169.677 20.8489C171.246 20.6171 173.528 20.0367 174.874 18.9949C175.187 18.7506 175.074 18.0318 174.667 18.0786ZM180.653 17.0942C180.303 16.9089 179.992 17.0353 179.638 17.1563C179.023 17.3648 178.413 17.5488 177.802 17.7672C177.572 17.8518 177.555 18.2989 177.801 18.3702C178.427 18.5533 179.055 18.5055 179.683 18.3577C180.124 18.2539 180.59 18.1308 180.796 17.5872C180.866 17.4109 180.799 17.1694 180.653 17.0942ZM169 25.4364C168.027 25.3793 167.06 25.7941 166.105 26.0041C165.136 26.2174 164.151 26.2797 163.181 26.5027C162.901 26.5671 162.908 27.1292 163.185 27.1958C164.946 27.6115 167.684 27.614 169.169 26.1885C169.423 25.9469 169.341 25.4579 169 25.4364ZM190.524 86.0518C190.677 86.1188 190.678 86.0845 190.532 85.9503C190.424 85.8149 190.299 85.7563 190.163 85.6746C190.01 85.5847 189.83 85.5435 189.689 85.4242C189.275 85.0875 188.901 84.7987 188.53 84.3772C188.111 83.9093 187.568 84.6331 187.932 85.1462C188.323 85.6941 188.734 86.2356 189.254 86.5897C189.427 86.7078 189.712 86.7679 189.85 86.9397C190.034 87.1676 190.257 87.2845 190.518 87.2429C190.729 87.2073 190.902 87.0009 190.934 86.7309C190.985 86.2726 190.719 86.27 190.524 86.0518ZM212.06 103.799C211.236 102.693 210.231 102.088 209.232 101.285C207.558 99.9412 206.116 97.9902 204.388 96.7868C202.618 95.5568 201.062 93.921 199.284 92.7253C197.389 91.4481 194.483 90.2462 193.156 87.9818C192.914 87.5649 192.423 88.0368 192.586 88.4693C193.846 91.798 198.142 93.507 200.485 95.3849C202.423 96.9394 204.347 98.5445 206.21 100.233C207.998 101.849 210.068 102.673 211.932 104.04C212.055 104.129 212.142 103.911 212.06 103.799ZM210.19 109.452C206.616 107.149 203.347 104.192 199.812 101.842C197.912 100.576 196.086 99.6095 194.373 97.9278C192.724 96.3107 190.652 94.7779 188.748 93.7022C188.342 93.4721 188.128 94.2105 188.488 94.4746C190.725 96.1352 192.918 98.192 194.98 100.175C196.638 101.77 198.705 102.5 200.469 103.87C202.229 105.236 203.882 106.708 205.736 107.876C207.116 108.747 208.506 110.571 210.104 110.092C210.327 110.026 210.42 109.6 210.19 109.452ZM207.003 115.771C206.821 114.909 206.336 114.398 205.748 113.962C203.964 112.636 202.209 111.269 200.424 109.94C198.73 108.678 196.829 107.998 195.175 106.602C193.614 105.284 191.899 104.123 190.202 103.105C189.866 102.902 189.614 103.507 189.934 103.745C191.535 104.937 193.121 106.239 194.668 107.537C196.18 108.807 197.78 109.693 199.409 110.709C200.818 111.586 202.147 112.594 203.442 113.732C204.22 114.412 205.224 114.653 205.934 115.454C206.261 115.823 206.381 115.931 206.79 116.072C206.935 116.123 207.037 115.927 207.003 115.771ZM215.844 97.505C215.644 97.0213 215.493 96.9117 215.095 96.6652C213.955 95.9576 212.843 94.9733 211.626 94.455C209.951 93.7469 208.257 92.575 206.716 91.4849C205.045 90.3018 203.219 89.6119 201.542 88.3746C201.307 88.2002 201.055 88.5467 201.226 88.8188C201.977 89.9912 202.912 90.6771 203.965 91.3806C205.377 92.3253 206.883 93.1938 208.336 94.1012C209.783 95.0036 211.344 95.7138 212.712 96.7629C212.899 96.9073 213.231 97.0908 213.582 97.3122C213.787 97.6485 213.908 98.133 214.03 98.4799C214.303 99.2527 213.946 100.391 214.412 101.01C214.62 101.291 214.907 101.289 215.115 101.012C215.187 100.915 215.239 100.797 215.279 100.671C215.393 100.637 215.501 100.595 215.613 100.544C215.861 100.425 215.943 100.128 215.901 99.8502C216.131 99.1217 216.107 98.1548 215.844 97.505Z" fill="#2B2B2A"/>
<path d="M104.404 16.9921C104.909 18.0816 105.444 19.1288 105.913 20.2425C106.219 20.9696 106.18 21.8161 106.47 22.5496C106.89 23.6137 108.218 22.8373 107.801 21.7716C107.425 20.8194 107.373 19.7606 106.958 18.7817C106.466 17.6056 105.933 16.429 105.315 15.3449C104.614 14.1142 103.735 11.8956 102.539 10.9025C102.076 11.0765 101.608 11.2389 101.143 11.3817C102.405 12.9571 103.514 15.0748 104.404 16.9921Z" fill="#2B2B2A"/>
<path d="M113.572 20.1958C112.201 16.6185 111.49 21.2369 111.562 23.1398C111.567 23.2365 111.57 23.3349 111.574 23.4349C110.954 24.2267 110.636 25.2017 110.178 26.1556C109.491 27.5743 108.51 28.718 107.602 29.9035C105.798 32.2581 103.82 34.3308 101.987 36.6507C100.494 38.5414 98.6306 40.2417 96.8706 41.7251C94.5459 43.6846 92.0266 44.2347 89.3002 44.2568C89.2096 43.0565 89.3734 41.7195 88.9127 40.7794C87.6845 40.8918 86.43 41.3659 85.1026 41.0923C83.3005 40.7205 81.4258 40.1874 79.5951 39.7679C77.7435 39.3464 75.3838 38.6529 73.3955 39.0068C73.4714 39.0157 73.5433 39.0295 73.6153 39.0352L75.655 39.2291L73.8945 41.145C73.7459 41.3074 73.6026 41.4665 73.4633 41.6093C72.6299 42.476 71.764 43.2981 70.8929 44.0989C71.7438 44.3777 72.6312 44.3832 73.5234 44.4952C73.2135 44.7347 72.8983 45.0019 72.6339 45.322C72.5892 45.3626 72.5472 45.4031 72.509 45.4437C71.886 46.0814 71.147 46.6033 70.4171 47.122C70.0999 47.2188 69.7977 47.5026 69.5494 47.7442C69.5415 47.754 69.5336 47.7654 69.5231 47.7735C69.3563 47.9013 69.1909 48.0323 69.0346 48.1651C67.2667 49.6583 65.7617 51.1999 64.1524 52.9436C60.5369 56.863 56.3571 59.8446 52.7455 63.7722C49.2285 67.6008 45.6613 71.5453 42.3108 75.6246C42.2306 75.7008 42.1465 75.7803 42.0703 75.8532C41.4658 76.4305 41.0809 77.0936 40.5873 77.7785C39.3159 79.152 38.1573 80.8101 37.0117 82.1734C36.626 82.3695 36.3073 82.8464 35.9815 83.1414C35.7043 83.3959 35.4113 83.6699 35.1221 83.9586C34.4328 84.5007 33.72 84.9917 33.0109 85.5516C31.6255 86.6504 30.4662 88.1577 29.129 89.3258C26.7106 91.4351 24.4978 94.1789 22.3383 96.7004C21.2059 98.0245 19.7579 98.736 18.5567 99.9332C18.4003 100.096 18.2321 100.254 18.0613 100.417C16.4745 101.151 14.9065 103.048 13.7462 104.48C12.4451 106.091 11.3031 107.849 10.0684 109.537C9.05878 110.918 7.29868 111.792 6.55187 113.564C6.36945 113.998 6.6629 114.571 7.07225 114.331L7.21133 114.249C7.24807 114.228 7.27434 114.204 7.29932 114.178C7.30319 114.193 7.36759 114.128 7.57384 113.945C8.54716 114.059 9.47257 113.415 10.3309 112.851C10.9267 112.459 12.44 111.127 12.5854 110.152C13.8986 108.784 15.0949 107.206 16.3898 105.832C16.4055 105.817 16.4213 105.801 16.4371 105.784C16.6417 105.68 16.8399 105.556 17.0041 105.408C17.3233 105.125 17.6533 105.081 17.9584 104.726C18.2557 104.377 18.4818 104.137 18.8428 103.882C19.0686 103.723 19.1599 103.485 19.1582 103.244C20.6556 101.974 22.2023 100.785 23.6671 99.4662C25.7284 97.604 27.5412 96.0212 29.3267 93.7385C31.2807 91.2363 33.6603 89.3199 35.7742 87.0782C35.8465 86.9986 35.8862 86.886 35.9038 86.76C36.1823 86.4957 36.4596 86.2281 36.7317 85.9571C37.5228 85.1736 38.0931 84.0078 38.7553 83.0738C39.0252 82.6898 39.3081 82.3142 39.5859 81.9368C40.8903 80.4751 42.169 78.8985 43.1641 77.2207C43.3641 76.9704 43.5667 76.7217 43.7706 76.473C44.291 75.9752 44.7723 75.4262 45.2419 74.8426C45.3182 74.7483 45.3697 74.6473 45.4054 74.5477C46.3391 73.4821 47.2872 72.4298 48.243 71.3906C49.1638 70.9181 49.7985 70.2919 50.5208 69.3946C51.3799 68.33 52.3498 67.6875 53.0252 66.4063C53.1109 66.2483 53.1508 66.0996 53.1592 65.9702C53.413 65.6811 53.6694 65.3952 53.918 65.1011C54.2692 64.6852 54.6451 64.2908 55.0237 63.9062C55.1765 63.9749 55.3546 63.9668 55.503 63.8421C56.63 62.8833 58.0114 62.4268 58.9786 61.1617C59.1931 60.8787 59.239 60.54 59.1787 60.2412C59.5767 59.9109 59.972 59.5822 60.3608 59.2453C61.099 58.607 61.8073 57.9406 62.5051 57.2627C62.67 57.2561 62.8223 57.1429 62.8822 56.8961C63.1872 56.5878 63.4921 56.2796 63.7931 55.968C63.822 55.9486 63.8508 55.9292 63.8745 55.9131C64.1987 55.6852 64.4788 55.3685 64.7965 55.1292C65.1156 54.8882 65.4746 54.4756 65.6179 53.997C65.7612 53.8394 65.9019 53.6852 66.0453 53.5228C67.6404 51.7133 69.428 50.1925 71.2494 48.7327C72.3512 47.849 73.689 46.5482 74.8607 45.8504C75.1756 45.6602 75.4527 45.4417 75.6855 45.1737C76.6795 45.6604 77.6723 46.1241 78.6665 46.573C78.257 46.8541 77.8593 47.1336 77.5896 47.4619C76.0847 49.2853 74.5601 51.1495 72.7886 52.5607C69.4689 55.2034 66.4795 58.3638 63.1806 61.0264C60.0775 63.5303 57.1876 66.0429 54.6724 69.4342C52.0189 73.0174 49.5332 76.8841 46.471 79.9078C43.5259 82.8164 40.9646 86.2596 38.1379 89.3299C35.1587 92.5626 31.9981 95.6492 28.8954 98.6807C26.3788 101.136 24.1164 103.84 21.523 106.181C18.06 109.304 15.0542 113.265 11.828 116.723C11.7521 116.714 11.671 116.715 11.5832 116.734C11.0945 116.842 10.7269 117.114 10.321 117.463C9.82321 117.894 9.26592 118.141 8.72659 118.478C8.04683 118.906 7.57293 119.565 7.07817 120.2C6.72394 119.45 6.36184 118.704 5.96564 117.974C5.76819 117.612 5.48882 117.117 5.19536 116.549C5.19277 116.541 5.18758 116.531 5.1863 116.523C5.31486 116.454 5.4395 116.381 5.57458 116.317C5.80541 116.203 5.9818 115.959 6.0576 115.67C6.10149 115.501 6.09142 115.087 5.93606 114.99C5.41125 114.66 5.08515 114.708 4.7345 114.993C4.7255 114.954 4.71258 114.914 4.70359 114.873C4.11073 112.636 4.58172 111.413 5.59045 109.608C5.91218 109.032 5.64818 108.302 5.15772 108.214C4.26543 109.078 3.3612 109.984 2.45382 111.017C2.21129 112.382 2.55257 114.052 3.15938 115.764C3.46324 116.35 3.77897 116.912 4.05314 117.4C4.29092 117.821 4.51052 118.21 4.69364 118.556C5.62609 120.332 6.48617 122.202 7.32032 124.009C8.05198 125.597 8.77068 127.153 9.5263 128.645C9.92919 129.337 10.3532 129.996 10.7712 130.499C10.7638 130.715 10.7853 130.899 10.8279 131.051C10.9071 131.188 10.9877 131.327 11.0696 131.462C11.23 131.616 11.4391 131.693 11.6851 131.715C11.7553 131.811 11.823 131.903 11.892 131.999C11.8355 132.054 11.7777 132.111 11.7198 132.166C11.6725 132.213 11.6317 132.265 11.5962 132.317C11.9109 132.807 12.2388 133.287 12.5785 133.754C12.6152 133.727 12.652 133.699 12.6875 133.662C12.7834 133.568 12.878 133.475 12.974 133.38C13.0795 133.497 13.1864 133.606 13.292 133.71C13.6605 134.16 14.0463 134.563 14.4927 134.871C14.4019 134.975 14.3463 135.13 14.3456 135.305C14.3554 135.476 14.3442 135.643 14.316 135.81C14.3147 135.824 14.3159 135.839 14.3158 135.854C14.5035 136.056 14.699 136.254 14.8972 136.448L14.9676 136.512C15.3184 136.187 15.7344 135.92 16.0914 135.686C16.2436 135.589 16.3801 135.502 16.4838 135.426C17.2991 134.815 18.1762 134.154 19.0533 133.459C19.1571 133.377 19.2595 133.293 19.3633 133.21C19.3587 132.738 18.9404 132.28 18.5 132.44C17.7908 132.692 17.092 132.988 16.3777 133.215C15.9374 133.355 15.5279 133.311 15.1463 133.152C14.7965 132.918 14.451 132.604 14.1135 132.242C16.1662 130.223 18.3038 128.273 20.7202 126.943C24.2032 125.027 27.0788 120.875 29.8601 117.726C30.0166 117.547 30.079 117.33 30.0681 117.117C30.4478 116.759 30.7804 116.406 31.1189 115.894C32.3912 113.966 33.798 112.119 35.4699 110.733C36.9658 109.499 38.3255 107.638 39.6485 106.126C41.3239 104.211 43.3312 102.433 45.2069 100.818C47.981 98.4309 50.5249 95.7068 52.5793 92.3486C55.0263 88.3505 58.1992 84.8297 61.0553 81.3009C62.1616 79.934 63.3018 78.6443 64.4068 77.2872C65.7776 75.6033 67.3677 74.364 68.8048 72.7824C71.7698 69.5201 74.9439 66.9628 77.5783 63.2172C78.7988 61.486 80.151 59.8675 81.5277 58.3197C82.6507 57.0544 84.167 56.265 85.3397 55.0199C85.83 54.5005 87.2293 53.2134 87.9179 51.9062C88.2087 52.4743 88.5202 53.1099 88.8476 53.7177C89.6319 53.0144 90.4319 52.308 91.2329 51.6867L91.7581 51.2758C91.6378 50.9256 91.5161 50.5967 91.4165 50.3204C92.605 50.306 93.7722 49.749 94.8519 49.1437C97.1542 47.8606 99.2763 46.1695 101.376 44.4241C104.902 41.4901 108.603 38.5759 111.28 34.4539C111.11 35.5893 110.871 36.6995 110.55 37.7564C109.004 40.9737 105.525 43.256 103.48 45.6213C102.851 46.3491 102.219 47.072 101.602 47.8179C100.759 48.8418 99.6814 49.1899 98.6787 49.8518C97.1707 50.8445 95.2603 50.7239 93.8697 51.8095C93.6662 51.9665 93.6289 52.4298 93.8416 52.6056C95.236 53.7565 97.0009 53.0006 98.4277 52.3283C100.462 51.367 102.062 50.0934 103.677 48.294C104.485 47.3943 105.3 46.5012 106.123 45.618C106.061 45.8714 106.048 46.1645 106.116 46.5535C106.239 47.2806 106.549 47.3263 106.434 48.0936C106.359 48.5778 105.96 49.1981 105.714 49.5807C105.59 49.7761 105.45 49.9615 105.303 50.1452C105.299 50.1468 105.294 50.1484 105.289 50.1516C105.262 50.1612 105.24 50.1724 105.215 50.1853C105.203 50.1917 105.194 50.1998 105.184 50.2063C105.148 50.2272 105.111 50.2498 105.077 50.2806C105.033 50.3162 104.991 50.3551 104.952 50.3973C103.563 51.9597 102.38 53.0359 100.542 53.7419C98.8275 54.3967 97.0193 56.1581 95.2226 55.1146C94.9405 54.9529 94.5986 55.3362 94.673 55.7007C94.6846 55.7598 94.7014 55.8042 94.7156 55.8584C95.0562 56.4188 95.4103 56.8877 95.7791 57.26C96.7932 57.6452 98.2135 56.9859 99.1118 56.5541C101.259 55.5268 103.473 54.9048 105.147 53.0568C105.526 52.864 105.91 52.74 106.318 52.8079C106.097 52.7713 106.796 53.7384 107.085 53.8281C107.591 53.9806 108.272 53.6252 108.767 53.4253C108.775 53.4139 108.782 53.4042 108.792 53.3928L109.097 52.9878L109.491 53.0638C110.412 52.488 110.811 51.6171 111.445 50.3355C114.288 44.5963 114.941 38.8878 114.93 32.2274C114.922 28.449 114.901 23.6612 113.572 20.1958ZM83.3544 54.3268C82.1438 55.252 80.95 56.2184 79.8915 57.4072C77.1419 60.4914 74.9552 64.2152 72.0169 67.037C66.5845 72.2656 61.3285 77.5761 56.6051 83.8489C54.1888 87.056 51.8846 90.3559 49.5635 93.6672C48.3219 95.4342 46.6839 96.8647 45.1483 98.1931C43.7402 99.4112 42.4866 100.919 41.0772 102.144C39.7189 103.332 38.5355 104.637 37.3047 106.029C35.7096 107.839 33.9206 109.377 32.3919 111.258C31.2618 112.651 30.2881 114.534 29.0581 115.729C28.5298 116.241 27.6248 117.027 27.2219 117.91C24.466 120.641 21.8126 123.571 18.6839 125.594C18.4792 125.727 14.4175 128.975 12.4253 129.953C12.2836 129.707 12.1458 129.478 12.0171 129.277C11.9729 129.208 11.9274 129.135 11.8831 129.068C11.6622 128.687 11.4569 128.326 11.2841 128.02C10.2498 126.168 8.9947 124.564 8.16783 122.575C8.81221 121.84 9.64275 121.35 10.3066 120.642C10.9495 119.958 11.9019 119.109 12.2998 118.17C12.3381 118.073 12.3634 117.975 12.3795 117.875C13.3163 117.336 14.2014 116.293 15.0304 115.537C16.7975 113.923 18.4471 112.248 20.0256 110.342C22.6261 107.202 25.7564 104.786 28.4363 101.768C31.3832 98.4498 34.7118 95.5516 37.7953 92.4167C40.8158 89.345 43.5134 85.8507 46.4297 82.6207C47.8288 81.0698 49.4815 79.9 50.7282 78.1346C52.1093 76.1772 53.2918 74.1196 54.8072 72.3012C56.4251 70.3609 57.7571 68.2343 59.6054 66.601C61.2094 65.1833 62.8761 63.7858 64.5255 62.4537C65.7376 61.4744 67.3489 60.1993 68.3984 58.9661C70.1346 56.9205 72.1467 55.5625 74.1375 53.9733C75.6489 52.7676 77.0981 51.114 78.3312 49.4927C78.9392 48.6943 79.8877 48.1613 80.6485 47.4479C81.2717 47.7163 81.8963 47.983 82.5286 48.2498C82.0798 48.5501 81.6362 48.8406 81.2252 49.1511C80.0672 50.0293 78.983 51.0918 78.0135 52.2749C75.3272 55.558 72.1172 57.956 69.3115 60.9987C66.9121 63.5948 64.7726 66.3393 62.6559 69.2676C60.547 72.1811 57.6039 73.9592 55.5147 76.8893C53.2898 80.0098 51.3839 83.5431 48.9338 86.3927C46.4797 89.2471 44.0593 92.1773 41.5986 95.0448C39.2983 97.7271 36.55 99.8724 34.004 102.164C32.702 103.341 31.4978 104.938 30.4119 106.41C29.6946 107.384 29.0605 108.469 28.3706 109.475C28.2994 109.579 28.1953 109.768 28.0765 109.994C26.6897 111.457 25.6506 113.305 24.17 114.647C22.4411 116.214 20.7214 117.752 18.8419 119.019C17.5754 119.869 16.1854 120.8 15.1645 122.078C14.087 123.424 12.517 123.906 11.5374 125.301C11.4692 125.343 11.4113 125.411 11.3769 125.499C11.361 125.54 11.3439 125.577 11.3319 125.617C11.2063 125.933 11.4351 126.304 11.7049 126.266C13.1337 126.065 14.5521 125.206 15.6679 124.097C17.1294 122.643 18.6004 121.417 20.2567 120.305C23.748 117.96 26.7776 114.892 29.1838 110.964C29.2338 110.884 29.2643 110.801 29.2869 110.721C29.4858 110.41 29.6781 110.117 29.8636 109.873C31.4757 107.769 32.9586 105.562 34.8102 103.758C37.541 101.103 40.5312 98.996 43.0813 96.0393C45.5801 93.141 48.0281 90.1964 50.5203 87.3079C52.9836 84.4536 54.8609 80.8561 57.1028 77.7292C59.142 74.8805 62.1556 73.1376 64.2861 70.37C65.2901 69.0643 66.2241 67.6153 67.0939 66.1706C68.2352 64.2797 70.3244 62.621 71.8717 61.301C74.6432 58.9363 77.2361 56.0521 79.6877 53.1878C81.1265 51.5095 83.225 50.4752 84.892 48.9892C85.4803 49.172 86.0355 49.42 86.5598 49.8889C86.443 50.2597 86.487 50.6992 86.8209 51.0023C86.5731 50.7721 83.8979 53.9128 83.3544 54.3268ZM111.642 30.4367C111.513 30.5239 111.394 30.6538 111.304 30.8397C108.851 35.9274 104.812 38.794 101.077 42.1633C97.845 45.0756 94.5006 47.0413 90.9025 48.9472C90.5165 47.9816 90.0728 47.0187 89.7131 46.0075C91.2805 46.4867 93.2775 45.9118 94.6304 45.3976C97.3178 44.3756 99.2471 41.8273 101.501 39.9162C102.476 39.0886 103.28 37.9218 104.105 36.883C105.264 35.4248 106.608 34.2355 107.746 32.7476C109.019 31.0874 110.635 29.2274 111.678 27.0979C111.693 28.2007 111.686 29.323 111.642 30.4367Z" fill="#2B2B2A"/>
<path d="M93.535 13.1733C93.6123 14.1064 94.3879 14.5499 94.9671 15.0292C96.0159 15.8916 96.9123 17.1916 97.5429 18.5414C97.9308 19.3743 98.1278 20.4707 98.5854 21.2339C99.3641 22.5343 99.6513 24.6049 100.22 26.0639C100.845 27.6676 101.237 29.5082 102.186 30.8775C102.878 31.8773 103.803 30.2758 103.21 29.6391C101.678 26.5912 100.672 22.857 99.5857 19.5693C98.9432 17.6246 98.063 16.197 96.9042 14.7043C96.2571 13.8754 95.4342 13.4871 94.6353 12.963C94.4388 12.9988 94.2384 13.0378 94.0432 13.0735C93.8743 13.1062 93.704 13.1406 93.535 13.1733Z" fill="#2B2B2A"/>
<path d="M108.114 23.6364L107.3 24.8211C107.604 24.4129 107.875 24.0208 108.114 23.6364Z" fill="#2B2B2A"/>
<path d="M105.151 11.3182C106.126 13.5247 107.633 15.4301 108.583 17.6461C109.629 20.0908 109.271 21.7746 108.117 23.634L108.479 23.1052C109.734 20.9388 111.596 18.5377 111.282 15.6677C111.128 14.2688 110.057 9.42557 108.948 8.19904C108.895 8.19688 108.84 8.18651 108.789 8.186C108.249 8.18064 107.714 8.28838 107.151 8.51377C106.715 8.79286 106.301 9.08691 106.065 9.20416C105.032 9.7083 104.561 9.98704 105.151 11.3182Z" fill="#2B2B2A"/>
<path d="M8.92205 10.9681C8.95045 12.3348 8.97605 13.7442 8.97421 15.1434C8.97068 16.3181 8.94485 17.5041 8.92441 18.6541C8.87541 21.0147 8.8274 23.4555 8.95768 25.826C9.14839 29.4129 9.32071 30.4747 11.8788 31.2947C11.6844 29.8673 11.8453 28.6204 12.3407 27.1998C13.0694 27.2775 13.81 27.3307 14.5897 27.4302C15.6532 27.5636 16.8239 28.0635 17.8919 28.0823C18.8735 28.0986 19.8263 28.1162 20.7696 28.509C22.3036 29.1468 24.0749 29.3806 25.6677 29.7028C27.517 30.0751 29.5921 30.5593 31.4556 30.645C34.9195 30.8055 38.3311 31.5881 41.7819 31.7681C45.319 31.9523 48.9705 32.0245 52.4228 33.0877C55.4699 34.0273 58.8669 34.2166 61.9735 34.7078C63.8623 35.0051 65.8231 35.2834 67.7298 35.3761C69.554 35.4646 71.3172 36.0506 73.1586 36.0951C80.1813 36.2696 87.0333 38.1611 94.0426 38.4076C93.1024 39.129 91.8107 39.4095 90.9423 40.52C91.0231 40.5978 91.1013 40.6968 91.169 40.7827L90.9551 40.9133C92.0251 40.1162 93.9042 40.5247 95.1344 39.9258C96.2689 39.3701 97.3681 38.4733 98.361 37.659C99.2291 36.9483 99.9291 36.0574 100.661 35.1193C101.436 34.1308 101.789 33.8787 101.31 32.4911C100.583 30.3801 99.319 28.4767 98.4359 26.4756C96.6451 22.4125 95.4086 15.6367 91.3897 13.9076C91.1845 13.8187 90.8849 13.7879 90.5341 13.8024C90.4109 13.8307 90.2839 13.8573 90.1633 13.8856C89.3261 14.0968 88.7718 14.2585 88.1637 14.7522C88.056 14.8445 87.9022 15.0068 87.7537 15.1626C87.5 15.4305 87.2384 15.7064 86.9588 15.8953C86.9286 15.9163 86.8655 15.9829 86.809 16.0479C86.7689 16.2342 86.7603 16.4324 86.7934 16.6392C86.9644 17.7141 88.3018 17.4619 88.9243 17.5926C89.8397 17.7868 90.5549 17.9725 91.1798 18.7717C91.4897 19.1631 91.7757 19.646 92.0431 20.1877C88.945 19.8703 85.8277 19.1365 82.776 18.6573C79.7231 18.1813 76.5962 18.1815 73.5634 17.5943C70.1944 16.9481 66.6609 16.5067 63.2629 16.2453C59.836 15.9869 56.4554 14.9899 53.0357 14.5825C49.7664 14.1961 46.4579 13.7979 43.1853 13.2625C41.4941 12.9852 39.7672 13.0992 38.1394 12.3654C36.4946 11.6265 34.4134 12.2973 32.6849 11.8427C31.014 11.4001 29.2215 11.5675 27.5303 11.282C25.4755 10.9356 23.391 10.4725 21.3223 10.3226C18.8362 10.1439 16.3858 9.55109 13.9007 9.44452C13.4702 9.42551 13.0451 9.35084 12.6214 9.26472C12.4161 8.27141 12.0534 7.34044 11.5318 6.56192L11.4035 6.56065C10.4428 6.55112 9.61419 6.58223 9.25107 7.0374C9.1458 7.17235 9.06385 7.36651 9.00524 7.61498C8.99291 8.06543 8.98712 8.51759 8.9735 8.96475C8.93381 9.06758 8.91632 9.1821 8.93806 9.30684C8.94308 9.35768 8.95074 9.40528 8.95708 9.45613C8.9451 9.82139 8.9292 10.1866 8.9146 10.5518C8.91665 10.6895 8.91869 10.8304 8.92205 10.9681ZM95.2322 35.8945C95.2207 36.1484 95.1883 36.3725 95.1482 36.5818C95.0815 36.5615 95.0162 36.5445 94.9442 36.5438C92.697 36.5215 90.4617 36.4534 88.2316 36.0905C87.333 35.9473 86.4271 35.6679 85.5473 35.3872C84.835 35.159 84.1334 35.483 83.4153 35.3645C79.8877 34.779 76.187 34.2655 72.6234 34.1695C70.7728 34.1217 68.9979 33.5159 67.1409 33.4254C65.2736 33.3331 63.2411 32.9689 61.3771 32.6784C57.9436 32.1364 54.5071 31.3634 51.0737 30.7739C47.8209 30.2158 44.5614 30.0016 41.2742 29.8297C39.6528 29.7481 38.0614 29.3866 36.4416 29.2608C34.4122 29.0997 32.2201 29.0387 30.2286 28.5569C28.2699 28.0836 26.2822 27.9721 24.338 27.4515C22.7129 27.0143 21.0399 26.4521 19.3851 26.2374C17.3037 25.971 15.2163 25.5981 13.1241 25.4348C13.0325 25.4289 12.9409 25.428 12.8506 25.4222C13.046 24.3837 13.1123 23.2227 13.1352 22.1154C13.6232 22.1677 14.1216 22.2169 14.6318 22.2826C16.7197 22.5556 18.7184 23.1636 20.8277 23.3058C22.801 23.44 24.7903 23.7973 26.7281 24.2687C28.5325 24.711 30.3702 24.7063 32.1609 25.2794C33.9949 25.8678 36.0388 25.6751 37.9128 26.0721C39.4755 26.4022 40.9925 26.7138 42.5814 26.7296C46.2239 26.7657 49.8709 27.2672 53.4683 27.7518C57.3156 28.2684 61.3483 28.8916 65.1 30.0397C68.4844 31.076 72.1863 30.9603 75.6445 31.5566C79.0661 32.146 82.5836 32.0072 86.0316 32.5477C87.6953 32.8116 89.4587 33.0535 91.1353 33.0816C92.3315 33.1049 93.8878 33.0843 95.1733 33.3625C95.2418 34.2004 95.2723 35.0462 95.2322 35.8945ZM94.1934 27.2233C94.2639 27.5632 94.328 27.8948 94.3883 28.2001C94.5906 29.2835 94.7955 30.3718 94.9559 31.4712C94.2546 31.4249 93.5568 31.4688 92.7992 31.4072C91.3285 31.2927 89.8664 30.9816 88.4027 30.7787C84.7948 30.2809 81.0864 29.7362 77.4584 29.7002C73.9259 29.6652 70.4456 28.7197 66.9218 28.4865C64.925 28.3553 62.9999 27.3482 60.9811 27.143C58.7295 26.9126 56.5585 26.1833 54.2961 26.0167C52.6488 25.8938 51.0557 25.3128 49.4162 25.172C47.5727 25.0161 45.7435 25.1815 43.8978 24.8977C42.2052 24.6385 40.4964 24.5134 38.805 24.277C36.9304 24.016 35.0572 23.768 33.1799 23.5397C29.5116 23.0937 25.8007 22.2229 22.145 21.5968C19.1772 21.089 16.1387 20.9343 13.1509 20.5262C13.1514 20.3902 13.152 20.251 13.1525 20.1232C13.1608 18.7535 13.1298 17.3736 13.0793 15.9919C13.2416 15.9853 13.4026 15.9787 13.5676 15.9689C15.0038 15.8782 16.468 16.2925 17.8978 16.4788C21.1866 16.903 24.4546 17.268 27.7515 17.6152C29.4432 17.7942 31.1429 18.2387 32.8328 18.5078C34.8262 18.8225 36.8223 19.129 38.8129 19.4994C40.759 19.8595 42.7013 20.1966 44.6539 20.5666C46.6418 20.9418 48.698 20.9622 50.6568 21.4126C51.3852 21.5787 52.1525 21.4978 52.8854 21.5051C53.9129 21.5153 54.8674 22.0507 55.8804 22.0706C57.5177 22.0999 59.104 22.7465 60.7141 23.0115C62.5401 23.3147 64.4019 23.4691 66.2321 23.6953C68.2337 23.938 70.3304 24.606 72.308 24.6256C76.0119 24.6591 79.6938 25.9211 83.3895 26.061C87.0708 26.2024 90.5255 27.3295 94.1934 27.2233ZM18.9946 12.0363C20.8949 12.3992 22.775 12.2753 24.6879 12.7547C26.5066 13.2085 28.4115 13.0865 30.2455 13.3587C33.8911 13.8978 37.514 14.2188 41.1445 14.9184C42.9938 15.2775 44.933 15.4131 46.7987 15.5954C48.4629 15.7561 50.5061 15.7321 52.118 16.2233C55.4605 17.2428 59.0816 17.3917 62.4914 17.9695C66.1014 18.5771 69.7655 18.7576 73.3714 19.4013C76.5927 19.9788 79.8686 20.0342 83.0981 20.5349C86.3002 21.0352 89.5679 21.7967 92.8168 22.055C93.1933 23.1238 93.5131 24.2739 93.7795 25.371C92.6553 25.3435 91.5256 25.3814 90.4003 25.3031C88.5056 25.1729 86.667 24.4534 84.7712 24.2773C81.1496 23.9432 77.5234 23.4485 73.9282 22.7673C72.5026 22.4943 70.8973 22.3292 69.4516 22.1838C67.4852 21.9857 65.5233 21.6468 63.5583 21.411C60.3009 21.0166 56.8628 20.6336 53.6968 19.6207C52.8563 19.3535 51.7334 19.6553 50.8675 19.5255C50.1677 19.4186 49.5307 19.314 48.8213 19.307C46.8921 19.2878 44.7307 18.7749 42.8509 18.1828C41.881 17.8766 40.7811 18.0017 39.7895 17.8542C38.87 17.7189 37.9328 17.4131 37.0094 17.2499C35.2803 16.9477 33.537 16.606 31.7928 16.474C30.0669 16.3454 28.3874 15.7635 26.6499 15.5956C25.025 15.4369 23.4162 15.1654 21.7979 14.9724C18.8518 14.6253 15.9287 14.3915 13.0016 14.1986C12.9509 13.1479 12.8924 12.0987 12.83 11.0543C14.8186 11.5705 16.9845 11.6526 18.9946 12.0363Z" fill="#2B2B2A"/>
<path d="M97.5226 12.3566C97.4783 12.6265 97.5661 12.932 97.8079 13.018C99.2586 13.8531 101.011 17.6039 101.656 19.2878C102.661 21.9172 103.481 24.7168 104.444 27.3851C104.82 28.4308 106.182 27.9053 105.81 26.8335C104.754 23.7908 103.999 20.3136 102.572 17.508C101.811 16.013 100.38 12.7683 98.7333 12.0541C98.6049 12.0889 98.4686 12.1235 98.3415 12.1567L98.1934 12.1945C97.9694 12.2513 97.7454 12.3031 97.5226 12.3566Z" fill="#2B2B2A"/>
<path d="M116.989 21.7188C116.644 20.067 116.287 18.3972 115.892 16.7614C115.468 15.0237 115.058 12.5996 114.066 11.3183C113.603 10.719 112.692 11.4997 113.108 12.2051C113.576 13.0043 113.645 14.3748 113.932 15.3066C114.379 16.7529 114.701 18.157 115.033 19.6513C115.823 23.2261 116.607 26.7942 117.144 30.4369C118.276 38.1047 116.371 46.5583 112.339 52.4839C111.978 53.0112 112.582 53.7201 113.009 53.3246C117.517 49.1568 119.059 40.3965 119.052 33.7262C119.05 29.7513 117.781 25.5033 116.989 21.7188Z" fill="#2B2B2A"/>
<path d="M120.461 21.5404C120.158 19.5336 120.002 17.2808 119.277 15.4205C118.956 14.5997 118.255 13.323 118.205 12.418C118.149 11.4 116.893 11.3679 116.928 12.4054C117.003 14.5623 118.335 16.8743 118.664 19.0256C119.323 23.3495 119.793 27.6027 119.711 32.0175C119.576 39.304 118.787 46.3973 115.239 52.2917C114.85 52.9367 115.532 53.8823 116.051 53.3337C120.706 48.4071 120.979 39.3507 121.162 32.2301C121.255 28.6445 120.998 25.0504 120.461 21.5404Z" fill="#2B2B2A"/>
<path d="M123.992 22.9558C123.852 21.5961 123.516 19.9773 123.115 18.6969C122.8 17.6943 122.073 15.9028 122.037 14.8457C122.008 13.9098 120.737 13.9628 120.726 14.89C120.716 15.7878 121.096 16.6272 121.326 17.4602C121.717 18.8846 121.993 20.3521 122.258 21.8163C122.893 25.3108 122.719 28.6975 122.688 32.251C122.652 36.3959 121.606 39.9459 120.961 43.9292C120.452 47.0667 119.267 50.1254 117.801 52.7374C117.52 53.2409 118.044 53.7687 118.413 53.4316C120.503 51.532 121.597 48.2496 122.283 45.2105C123.137 41.4324 124.004 37.666 124.157 33.7107C124.299 30.0861 124.359 26.5673 123.992 22.9558Z" fill="#2B2B2A"/>
<path d="M213.037 100.311C210.434 97.9963 208.024 95.3673 205.373 93.1241C202.505 90.6921 199.6 88.6054 196.572 86.5109C193.728 84.5411 191.116 82.3606 188.377 80.1936C185.437 77.8674 183.052 74.7585 180.302 72.1212C177.794 69.7156 174.933 68.075 172.294 65.9434C169.321 63.5365 166.46 60.944 163.703 58.1624C161.288 55.725 158.981 53.287 156.319 51.2437C155.124 50.3307 153.92 49.4438 152.69 48.6074C152.065 48.1818 151.303 47.7089 150.576 47.1545C151.481 46.8915 152.248 46.3797 153.052 45.6585C152.769 45.4165 152.479 45.1646 152.178 44.8994C152.173 44.8961 152.168 44.8911 152.164 44.8862C151.697 44.4752 151.208 44.0378 150.687 43.5608L150.643 43.5276L149.848 42.8364C149.347 42.566 148.853 42.4727 148.19 42.4137C146.782 42.2932 145.508 41.7219 144.07 41.7092C142.568 41.6943 141.156 41.3281 139.687 41.1251C137.843 40.8709 135.877 41.0529 134.003 41.0687C134.221 40.8907 134.308 40.6736 134.159 40.41C134.117 40.3375 134.068 40.2731 134.016 40.2152C135.726 40.0143 137.436 39.7658 139.171 39.6765C142.769 39.4877 146.635 39.1869 150.188 38.4586C153.545 37.7742 156.949 37.9702 160.305 37.2219C162.29 36.7795 164.052 35.3912 165.953 34.6449C168.095 33.8092 170.246 33.9649 172.453 33.7394C174.148 33.571 175.993 33.4091 177.644 32.8946C179.09 32.4452 180.662 32.7639 182.111 32.3294C185.498 31.3193 189.208 30.6695 192.694 30.3649C194.079 30.2427 195.54 29.8148 196.857 29.2724C198.786 28.4756 200.75 28.2099 202.763 27.8678C204.357 27.6001 205.496 27.1248 207.018 26.532C207.676 26.2748 208.442 26.1578 209.141 25.901C209.161 26.4009 209.189 26.8976 209.224 27.3944C210.123 26.7463 210.712 25.9149 210.961 24.4805C211.155 23.3617 211.107 22.0783 211.064 20.8343C211.044 20.2999 211.025 19.7721 211.023 19.2544C211.021 18.4695 211.022 17.6798 211.022 16.8933C211.026 15.3729 211.029 13.8016 210.996 12.2628C210.988 11.8842 210.983 11.486 210.981 11.0764C210.962 9.35254 210.935 7.34843 210.602 5.63457C210.581 5.64255 210.557 5.6456 210.536 5.65522C210.518 5.54035 210.502 5.42222 210.48 5.30567C210.289 4.30268 208.648 1.8959 207.976 3.74397C207.579 4.84271 207.736 6.27466 207.859 7.63252C204.013 8.09739 200.14 9.31569 196.381 10.3172C194.02 10.9426 191.663 11.4796 189.285 12.0131C187.481 12.418 185.749 13.0824 183.983 13.6269C183.781 13.4479 183.516 13.406 183.263 13.6312C182.766 14.0768 181.461 13.959 180.882 13.9533C180.026 13.9448 179.476 14.3375 178.62 14.4666C176.726 14.7608 174.475 15.0449 172.682 15.807C170.57 16.7036 168.289 16.2403 166.227 17.3405C164.183 18.4344 161.593 18.3907 159.414 19.0032C158.241 19.3291 157.052 19.2927 155.859 19.3366C154.733 19.3795 153.565 19.83 152.452 20.0499C149.963 20.5463 147.524 21.0857 145.001 21.2786C142.542 21.4656 140.255 21.9361 137.826 22.3725C137.064 22.5124 136.245 22.4715 135.44 22.4307C135.458 22.3932 135.481 22.3558 135.49 22.3149C135.717 21.2964 132.356 21.476 131.786 21.3377C130.14 20.9265 130.158 20.3745 130.097 18.6699C129.363 18.6528 128.63 18.6013 127.917 18.55L127.502 18.5164C126.914 18.4745 126.465 18.3504 126.086 18.1501C126.043 18.1758 125.999 18.1934 125.959 18.2209C127.038 20.8597 126.927 24.7303 127.429 27.6517C127.83 30.0167 127.756 32.4983 127.663 34.9157C127.579 37.1071 127.507 40.0966 126.797 42.1688C126.726 42.2484 126.663 42.3428 126.598 42.4372C126.62 42.3571 126.642 42.2819 126.664 42.2035C127.131 40.3583 127.044 38.4257 127.051 36.517C127.06 33.9692 127.12 31.3762 126.737 28.8655C126.729 28.8097 126.707 28.762 126.689 28.7143C126.654 27.762 126.609 26.8047 126.587 25.8198C126.557 24.2842 125.843 22.5666 125.447 21.1241C124.963 19.3727 124.461 17.4212 124.303 15.5764C124.235 14.7647 123.168 14.7312 123.144 15.5714C123.076 17.8122 123.945 20.4014 124.516 22.501C125.519 26.1844 125.64 30.167 125.146 33.9896C124.703 37.4505 124.202 40.7864 123.451 44.1689C123.127 45.6223 122.798 47.0822 122.347 48.4803C121.896 49.8668 121.022 50.915 120.463 52.2169C120.27 52.664 120.75 52.9849 121.03 52.7714C121.224 52.6243 121.405 52.4655 121.576 52.3017C121.726 52.4539 121.954 52.3808 122.051 52.1442C122.036 52.1817 122.191 52.0719 122.393 51.9198C123.675 51.4935 124.51 49.6666 125.225 48.3744C125.339 48.1708 125.472 47.9591 125.608 47.7474L126.183 48.379C127.011 49.2884 127.927 50.0397 128.894 50.8357C129.032 50.9518 129.177 51.0712 129.319 51.1906C129.548 50.8209 129.485 50.0289 129.8 49.3603C130.361 49.9196 130.892 50.5492 131.408 51.0606C133.314 52.9506 135.554 54.5129 137.352 56.5575C138.765 58.1658 140.43 59.3014 141.811 60.965C143.296 62.7574 145.17 64.0704 146.905 65.4492C150.772 68.5301 154.097 72.1939 157.547 75.9475C160.89 79.5819 164.608 82.55 168.17 85.8262C171.409 88.8043 173.862 92.8002 176.787 96.2061C178.265 97.9264 179.971 99.2934 181.451 101.045C182.817 102.662 185.229 103.556 186.85 104.544C190.499 106.771 193.458 110.09 196.962 112.571C198.616 113.743 200.327 115.128 201.892 116.485C203.37 117.77 205.014 118.599 206.524 119.767C206.687 119.892 206.851 119.901 206.995 119.836C207.16 119.557 207.314 119.256 207.462 118.942C207.453 118.752 207.385 118.57 207.239 118.432C206.191 117.431 204.926 116.75 203.774 115.932C202.033 114.697 200.451 113.104 198.751 111.791C195.126 108.993 191.838 105.375 187.944 103.159C186.041 102.073 183.544 100.984 182.027 99.1827C180.536 97.4082 178.824 96.0428 177.332 94.2994C174.175 90.6111 171.492 86.6391 168.022 83.3572C164.426 79.9578 160.708 76.898 157.292 73.1825C156.443 72.2598 155.596 71.3388 154.749 70.4161C154.029 69.6324 153.356 68.351 152.467 67.8522C150.55 66.783 148.744 64.6957 146.953 63.2721C144.953 61.6777 143.266 59.7964 141.395 58.0313C140.85 57.5163 140.225 57.1185 139.636 56.6883C138.754 56.0422 138.152 54.8877 137.272 54.1925C135.546 52.8318 133.967 51.176 132.284 49.7372C131.82 49.3426 131.359 48.8514 130.883 48.3961C131.9 47.9524 133.302 47.8647 134.438 47.7776C135.073 48.8702 136.092 49.7274 136.876 50.5036C138.915 52.5162 140.838 54.4539 142.983 56.2988C146.06 58.9508 149.601 60.9931 152.545 63.8781C155.698 66.9618 158.653 70.4057 161.706 73.6654C163.009 75.0562 164.162 76.5718 165.57 77.7949C167.316 79.3131 169.079 80.8068 170.786 82.3917C174.164 85.5317 177.574 88.8113 180.608 92.4493C183.401 95.7982 187.101 98.0009 190.36 100.574C193.618 103.151 196.904 105.746 200.034 108.566C201.482 109.872 202.846 111.288 204.354 112.495C205.315 113.264 206.7 114.411 207.904 114.629C207.994 114.663 208.085 114.682 208.182 114.673C208.198 114.673 208.22 114.68 208.232 114.68C208.236 114.675 208.236 114.674 208.236 114.67C209.059 114.656 208.839 114.051 208.355 113.402C208.376 113.196 208.395 112.986 208.415 112.778C208.246 112.78 208.071 112.806 207.911 112.862C207.402 112.293 206.86 111.811 206.863 111.811C206.084 111.228 205.22 110.861 204.445 110.242C203.26 109.291 202.213 108.116 201.079 107.086C199.513 105.664 197.942 104.223 196.265 103.017C192.352 100.199 188.824 96.5073 184.746 93.9977C182.821 92.8153 181.312 90.5639 179.775 88.7447C178.19 86.8759 176.301 85.5382 174.62 83.8159C171.323 80.4342 167.439 77.7135 164.356 74.0554C162.842 72.2577 161.211 70.6014 159.597 68.9503C157.978 67.2941 156.607 65.2816 154.879 63.8029C153.532 62.6525 152.278 61.385 150.92 60.2508C149.023 58.6722 147.058 57.2404 145.169 55.6454C143.307 54.077 141.28 52.869 139.534 51.0772C138.917 50.4469 138.38 49.7534 137.738 49.1604C137.237 48.6967 136.551 48.2131 135.938 47.6647C138.072 47.563 140.264 47.9485 142.418 48.0616C143.07 48.671 143.697 49.3162 144.376 49.8866C145.928 51.1849 147.003 53.0601 148.321 54.6805C149.658 56.3257 151.346 57.527 152.899 58.8204C154.492 60.1486 156.1 61.5425 157.821 62.5951C161.016 64.5437 164.388 66.812 167.147 69.6068C168.553 71.0265 170.006 72.1846 171.303 73.7916C172.544 75.3277 173.916 76.7062 175.286 78.0584C178.056 80.7942 180.74 83.7504 183.708 86.1392C186.751 88.591 189.982 90.6892 193.045 93.1133C195.853 95.3383 198.436 97.6955 201.123 100.152C203.974 102.762 207.186 104.551 209.785 107.619C210.452 108.409 211.477 107.066 210.899 106.21C210.709 105.928 210.518 105.644 210.329 105.362C210.211 105.184 210.075 105.102 209.943 105.083C207.75 102.685 205.128 100.936 202.664 99.0269C201.167 97.8684 199.737 96.396 198.379 94.9997C197.017 93.5951 195.457 92.6654 193.982 91.4825C190.733 88.8763 187.294 86.6499 184.051 84.0454C180.918 81.5288 178.031 78.274 175.127 75.3533C173.753 73.9699 172.495 72.4452 171.218 70.9235C169.826 69.2679 168.089 67.9465 166.551 66.5042C163.704 63.8347 160.193 62.1746 157.144 59.8914C153.868 57.439 150.414 54.9224 147.847 51.3432C146.867 49.9801 145.746 49.0907 144.635 48.0213C146.015 47.8711 147.36 47.5305 148.746 47.3985C149.755 48.4587 151.028 49.2594 152.08 50.0219C155.659 52.62 158.992 55.4712 162.124 58.8545C164.897 61.8427 167.881 64.4529 170.906 67.0143C173.846 69.5044 177.055 71.3615 179.88 74.0864C182.339 76.462 184.418 79.3073 187.028 81.437C189.769 83.6679 192.364 85.8777 195.24 87.8297C198.247 89.8716 201.157 91.9059 203.993 94.3098C206.987 96.8447 209.717 99.8063 212.682 102.385C213.201 102.838 213.837 102.167 213.84 101.495L213.841 101.227C213.844 100.581 213.437 100.282 213.037 100.311ZM208.861 12.3366C208.868 12.512 208.876 12.6874 208.882 12.8628C208.781 12.7995 208.674 12.7444 208.555 12.7055C208.662 12.5919 208.764 12.47 208.861 12.3366ZM131.186 23.6747C132.354 24.1566 133.785 24.0626 134.898 24.0917C136.134 24.1236 137.377 24.2309 138.607 24.0531C140.214 23.8167 141.745 23.2469 143.375 23.1877C146.279 23.0838 149.047 22.641 151.912 22.0894C154.479 21.5971 157.09 21.4624 159.631 20.8978C161.818 20.4115 164.139 20.233 166.238 19.369C167.405 18.8874 168.444 18.4799 169.677 18.4053C171.1 18.3162 172.339 17.7894 173.725 17.5083C175.806 17.0947 178.012 16.7676 180.035 16.0339C181.301 15.573 183.137 16.3219 184.139 15.0178C184.189 14.9528 184.226 14.8827 184.253 14.8076C185.533 14.7056 186.776 14.3214 188.088 14.1198C190.732 13.72 193.467 13.2474 196.044 12.4078C198.585 11.5761 201.255 11.0504 203.845 10.4813C205.172 10.1914 206.574 9.48599 207.939 9.54703C207.865 10.9259 207.343 11.9366 205.437 11.9422C205.207 11.9432 205.017 12.1101 204.899 12.34C203.457 12.5174 201.916 13.2263 200.706 13.6534C199.637 14.0311 198.596 14.5484 197.531 14.9409C197.244 15.0462 196.994 15.2207 196.757 15.4084C194.189 16.0285 191.576 16.327 189.056 17.1147C187.572 17.5751 185.951 17.9441 184.424 18.3238C182.848 18.7178 181.292 19.2037 179.717 19.619C179.022 19.8022 178.398 19.6059 177.726 19.7435C177.017 19.8855 176.095 20.4941 175.384 20.7066C173.935 21.1395 172.45 21.2444 170.976 21.4985C167.539 22.0903 164.105 22.905 160.708 23.8347C157.085 24.831 153.495 25.1264 149.806 25.4077C146.849 25.6291 144.014 26.0024 141.04 26.0728C138.148 26.1441 135.193 26.472 132.293 26.979C131.901 26.5688 130.625 26.9789 130.291 26.9035C130.1 25.6088 130.398 24.3223 131.186 23.6747ZM130.547 28.8984C131.339 28.8292 132.128 28.6683 132.94 28.6632C134.739 28.6499 136.561 28.65 138.354 28.4269C141.536 28.0292 144.786 28.2891 147.938 27.6879C151.535 26.9978 155.179 27.0503 158.791 26.3291C162.53 25.5846 166.239 24.5728 169.965 23.7725C171.279 23.4922 172.614 23.3941 173.931 23.1171C175.323 22.8278 177.032 21.724 178.415 21.741C179.887 21.7556 181.257 21.2334 182.669 20.7756C184.36 20.2254 186.083 20.0066 187.76 19.3449C188.982 18.8638 190.379 19.0251 191.631 18.6656C193.609 18.0986 195.617 17.8187 197.602 17.2584C199.293 16.7836 200.986 16.263 202.66 15.6963C203.991 15.2442 205.342 14.5219 206.714 14.3192C207.464 14.6363 208.148 15.0298 208.144 15.7048C208.141 16.0357 208.225 18.3435 208.184 18.3529C207.298 18.5293 206.517 18.3135 205.637 18.6537C205.393 18.7463 205.266 19.0105 205.24 19.297C203.356 19.7485 201.484 20.428 199.615 20.8371C196.567 21.495 193.462 22.0885 190.379 22.8149C186.66 23.6906 183.177 25.6763 179.407 26.2927C175.834 26.8766 172.219 26.9112 168.667 27.7182C165.748 28.3806 162.975 29.5263 160.004 29.8851C158.032 30.1261 156.064 30.0116 154.093 30.1641C152.857 30.26 151.387 30.1782 150.191 30.5678C147.636 31.401 144.972 31.5204 142.396 32.3682C138.479 33.6565 134.602 33.2608 130.636 33.3641C130.481 33.1217 130.397 32.7506 130.358 32.1177C130.303 31.2013 130.233 29.7391 130.547 28.8984ZM130.532 38.7487C130.006 37.5949 130.395 35.9193 131.163 34.9963C134.332 35.3521 137.502 35.6834 140.682 34.9842C142.38 34.6094 143.926 33.74 145.675 33.6574C146.776 33.606 148.131 33.3606 149.202 33.0222C152.401 32.0151 155.658 32.3538 158.938 31.9931C162.209 31.6356 165.287 30.8272 168.454 29.8821C172.021 28.8197 175.804 28.7507 179.45 28.3412C182.949 27.9499 186.142 26.0154 189.559 25.1874C191.34 24.7561 193.124 24.3626 194.92 23.9937C196.283 23.7139 197.809 22.9311 199.161 22.9085C202.066 22.8603 204.87 21.5773 207.707 20.8305C208.471 21.1346 209.084 21.6502 209.083 22.8987C209.081 23.2068 209.087 23.5165 209.091 23.8245C207.96 24.4228 206.515 24.4921 205.381 25.0887C203.651 25.9989 201.558 26.0028 199.704 26.3153C196.548 26.8477 193.649 28.1756 190.434 28.5058C187.309 28.8304 184.271 30.0389 181.166 30.3915C177.669 30.7894 174.204 31.5661 170.687 31.8278C169.108 31.9448 167.65 31.973 166.103 32.4459C164.187 33.0381 162.457 34.2973 160.572 35.0274C157.422 36.2463 153.967 35.5452 150.749 36.3161C147.299 37.1486 143.729 37.0346 140.249 37.6555C137.047 38.2251 133.777 38.4679 130.532 38.7487Z" fill="#2B2B2A"/>
<path d="M87.6926 44.8773C87.2966 45.0487 87.0868 45.4447 86.8509 45.8568C86.752 46.0262 86.6181 46.1133 86.5115 46.2646C86.3443 46.494 86.131 46.8096 85.882 46.8809C85.6461 46.9506 85.6902 47.3803 85.9244 47.399C86.9123 47.4759 87.5433 46.4927 88.0953 45.6119C88.2916 45.2977 88.0086 44.7396 87.6926 44.8773Z" fill="#464644"/>
<path d="M85.3971 41.8046C85.0118 41.9302 84.6645 42.3461 84.3908 42.6956C84.2592 42.863 84.1538 43.0422 84.0496 43.2328C83.9388 43.4348 83.8982 43.7572 83.7328 43.8948C83.6106 43.9968 83.6687 44.1972 83.7915 44.2426C84.1235 44.3655 84.378 43.9044 84.5897 43.6723C84.8277 43.4109 85.063 43.1527 85.3075 42.9029C85.4915 42.7163 85.6507 42.5213 85.7395 42.2437C85.8191 41.9922 85.5871 41.7409 85.3971 41.8046Z" fill="#464644"/>
<path d="M113.093 20.8667C113.083 20.7405 112.935 20.6915 112.866 20.7744C112.614 21.0979 112.346 21.5621 112.224 21.9901C112.112 22.3756 112.055 22.7633 111.891 23.127C111.738 23.4662 112.125 23.7813 112.302 23.4571C112.513 23.0644 112.644 22.6266 112.767 22.1855C112.902 21.7036 113.137 21.4111 113.093 20.8667Z" fill="#464644"/>
<path d="M92.1519 48.5617C91.7174 48.3248 91.2473 48.425 90.8174 48.6517C90.6123 48.7594 90.6699 49.1073 90.8466 49.2024C91.2393 49.416 91.7071 49.532 92.1107 49.3231C92.3592 49.1912 92.4386 48.7169 92.1519 48.5617Z" fill="#464644"/>
<path d="M12.9157 14.1675C12.1872 13.7147 11.3336 13.7685 10.5345 13.6279C9.94851 13.5271 9.39764 13.4872 8.80846 13.5338C8.55052 13.5558 8.54449 14.0652 8.80087 14.1038C9.52161 14.2125 10.2328 14.4194 10.9467 14.5838C11.6071 14.7345 12.2737 14.9639 12.906 14.6212C13.0437 14.5488 13.0528 14.2541 12.9157 14.1675Z" fill="#464644"/>
<path d="M76.7223 44.193C76.483 43.8335 76.1912 43.4947 75.9308 43.1547C75.6158 42.7404 75.2715 42.4323 74.8029 42.4456C74.439 42.46 74.4144 43.0184 74.6702 43.1995C74.6676 43.2044 74.6649 43.2093 74.6623 43.2126C75.3058 43.6399 75.5676 44.5779 76.2006 45.0249C76.6443 45.3356 77.0215 44.6481 76.7223 44.193Z" fill="#464644"/>
<path d="M81.4287 46.7088C80.8741 45.3338 79.687 44.385 78.7867 43.3686C77.6923 42.1405 76.8374 40.6217 75.7114 39.4359C75.5029 39.216 75.139 39.5367 75.3249 39.8334C76.161 41.1719 76.989 42.5873 77.9605 43.7748C78.8877 44.9095 79.9143 46.3907 81.0749 47.1247C81.2681 47.2429 81.5336 46.967 81.4287 46.7088Z" fill="#464644"/>
<path d="M84.3431 46.4937C83.5031 45.1388 82.2288 44.3824 81.3296 43.1022C80.5476 41.9887 79.4503 41.144 78.7168 39.9966C78.553 39.7377 78.1659 39.9616 78.2418 40.2916C78.3845 40.909 78.8868 41.3121 79.2226 41.7692C79.8187 42.5778 80.4648 43.3328 81.032 44.1707C81.5069 44.8749 82.1565 45.3957 82.7261 45.9698C83.258 46.5042 83.4995 46.9719 84.1932 46.9607C84.3765 46.9593 84.4406 46.6503 84.3431 46.4937Z" fill="#464644"/>
<path d="M86.9517 47.6596C86.4347 46.0654 85.1558 44.829 84.1973 43.6564C83.6621 43.0007 83.0125 42.4537 82.5036 41.7639C82.2563 41.4272 82.0452 41.2023 81.6803 41.1381C81.3376 41.079 81.2096 41.6364 81.5033 41.8359C81.8492 42.0735 82.3173 42.8121 82.5817 43.1407C83.0101 43.6708 83.4503 44.1978 83.8682 44.7458C84.3382 45.3598 84.82 45.9626 85.2965 46.5701C85.7327 47.1265 86.0313 47.7078 86.5966 48.0574C86.7938 48.1789 87.0383 47.9242 86.9517 47.6596Z" fill="#464644"/>
<path d="M88.3764 46.9738C88.1769 46.1478 87.487 45.5365 87.0184 44.9257C86.3791 44.097 85.7872 43.2213 85.2807 42.2612C85.0833 41.8923 84.6056 42.1857 84.7859 42.5839C85.2139 43.5416 85.7063 44.4393 86.263 45.2868C86.7442 46.014 87.3353 47.0994 88.0789 47.382C88.2723 47.4544 88.4278 47.1905 88.3764 46.9738Z" fill="#464644"/>
<path d="M110.568 48.6588C110.166 48.0519 109.234 48.0116 108.652 47.7863C108.011 47.5375 107.531 46.9741 106.873 46.866C106.5 46.805 106.449 47.4679 106.76 47.6266C106.995 47.7486 107.159 47.9369 107.352 48.1354C107.642 48.4299 108.024 48.5779 108.361 48.7565C108.973 49.0804 109.896 49.5498 110.529 49.158C110.691 49.0564 110.662 48.8006 110.568 48.6588Z" fill="#464644"/>
<path d="M108.745 49.405C108.417 49.2854 108.118 49.0744 107.786 48.9679C107.342 48.8194 107.17 49.6679 107.61 49.8295C107.984 49.9659 109.027 50.8199 109.306 50.1248C109.488 49.6728 109.003 49.5026 108.745 49.405Z" fill="#464644"/>
<path d="M112.004 46.2949C111.462 45.8816 110.817 45.8965 110.22 45.6383C109.368 45.2694 108.368 44.4093 107.421 44.413C107.137 44.4151 107.033 44.94 107.297 45.0949C108.194 45.6231 109.029 46.2883 109.956 46.7365C110.581 47.0376 111.312 47.3512 111.936 46.9478C112.118 46.8284 112.219 46.4575 112.004 46.2949Z" fill="#464644"/>
<path d="M112.98 44.1394C112.574 43.6227 111.939 43.6557 111.396 43.5062C110.673 43.3073 109.993 42.9041 109.356 42.4424C108.932 42.1368 108.511 42.8993 108.931 43.236C109.567 43.7485 110.227 44.1597 110.943 44.4666C111.539 44.7182 112.435 45.076 112.951 44.4897C113.026 44.4053 113.058 44.2402 112.98 44.1394Z" fill="#464644"/>
<path d="M114.033 42.1341C113.665 41.5407 112.968 41.4633 112.423 41.222C111.66 40.8835 110.95 40.6701 110.295 40.0689C110.079 39.8702 109.739 40.2403 109.9 40.527C110.356 41.3359 110.847 41.5815 111.573 41.9459C112.271 42.2968 113.194 43.1169 113.942 42.6639C114.105 42.5656 114.145 42.3105 114.033 42.1341Z" fill="#464644"/>
<path d="M114.332 38.3995C113.876 37.8954 113.155 37.8653 112.59 37.591C112.003 37.3133 111.441 36.9506 110.851 36.6679C110.339 36.4236 110.108 37.419 110.605 37.6778C111.545 38.1688 113.316 39.8311 114.31 38.8859C114.419 38.7837 114.439 38.5169 114.332 38.3995Z" fill="#464644"/>
<path d="M113.62 34.6823C112.995 34.3796 112.555 33.9133 111.838 34.0176C111.379 34.0851 111.362 34.8876 111.804 35.0165C112.143 35.1165 112.422 35.211 112.724 35.4548C112.985 35.6622 113.224 35.8808 113.53 35.9756C113.859 36.0788 114.756 36.1057 114.688 35.3957C114.629 34.7611 113.961 34.8479 113.62 34.6823Z" fill="#464644"/>
<path d="M115.031 33.2629C114.873 33.0451 114.828 33.0201 114.602 32.9065C114.056 32.6275 113.519 32.324 112.985 32.0091C112.629 31.8008 112.278 31.6548 111.885 31.6362C111.525 31.6178 111.439 32.3312 111.799 32.4216C112.749 32.6588 114.065 34.7539 115.033 33.7053C115.141 33.5868 115.115 33.3834 115.031 33.2629Z" fill="#464644"/>
<path d="M114.938 30.0189C114.778 29.4341 114.326 29.1757 113.902 28.9405C113.323 28.6186 112.737 28.2819 112.17 27.9191C111.828 27.7011 111.535 28.3519 111.832 28.6366C112.222 29.0074 112.706 29.4643 113.163 29.69C113.679 29.9409 114.173 30.4487 114.742 30.3888C114.886 30.3722 114.985 30.1913 114.938 30.0189Z" fill="#464644"/>
<path d="M113.478 25.7614C113.044 25.3852 112.563 25.1576 112.035 25.1426C111.741 25.1298 111.713 25.7471 112.005 25.7812C112.418 25.8344 112.753 26.1473 113.078 26.4536C113.414 26.7666 113.738 27.353 114.184 27.3574C114.303 27.3586 114.396 27.2154 114.392 27.0728C114.381 26.4878 113.823 26.0564 113.478 25.7614Z" fill="#464644"/>
<path d="M113.917 23.9267C113.583 23.1584 112.815 22.6282 112.148 22.4676C111.801 22.3872 111.628 23.0145 111.982 23.1376C112.643 23.3604 113.078 24.0822 113.729 24.2967C113.905 24.3542 113.989 24.0896 113.917 23.9267Z" fill="#464644"/>
<path d="M96.532 24.6603C95.8142 24.7842 95.461 26.0274 95.131 26.7023C94.8168 27.3463 94.331 28.041 94.3447 28.834C94.3498 29.178 94.7447 29.277 94.826 28.9338C94.9432 28.4435 95.214 28.1529 95.472 27.7902C95.6748 27.5006 95.8385 27.1582 96.0191 26.8487C96.3328 26.3112 96.7897 25.6474 96.8383 24.9664C96.8536 24.7519 96.6813 24.6323 96.532 24.6603Z" fill="#464644"/>
<path d="M95.7509 23.3177C95.6871 23.2385 95.5511 23.2191 95.4801 23.2954C94.9109 23.9024 94.4348 24.7578 94.018 25.54C93.7489 26.0435 94.3448 26.6047 94.6204 26.1062C94.925 25.544 95.2531 25.0214 95.6177 24.5189C95.8257 24.2342 95.9931 23.6216 95.7509 23.3177Z" fill="#464644"/>
<path d="M94.528 21.1932C94.3469 21.3159 94.193 21.5011 94.0456 21.6798C93.8431 21.9252 93.4254 22.2798 93.3116 22.5752C93.182 22.9081 93.0105 23.216 92.8613 23.5389C92.79 23.6873 92.7385 24.1143 92.5734 24.1684C92.3742 24.2319 92.421 24.6174 92.6265 24.6096C92.8347 24.6018 92.9699 24.5147 93.1029 24.3129C93.3479 23.9336 93.6072 23.5692 93.8457 23.1866C94.0618 22.8398 94.3506 22.6395 94.5537 22.255C94.6751 22.0235 94.7693 21.7165 94.7953 21.4415C94.8105 21.2533 94.679 21.0898 94.528 21.1932Z" fill="#464644"/>
<path d="M93.7801 18.7584C93.2175 18.7135 92.8683 19.5963 92.6071 20.1015C92.4553 20.3949 92.3402 20.7099 92.2106 21.0199C92.093 21.2989 92.0391 21.6653 91.8993 21.9244C91.7766 22.159 92.0305 22.4761 92.1976 22.2648C92.5858 21.7723 92.9139 21.2382 93.2408 20.6812C93.511 20.2153 94.0603 19.6884 94.0301 19.0721C94.0217 18.8951 93.9253 18.768 93.7801 18.7584Z" fill="#464644"/>
<path d="M97.8204 27.0306C97.165 27.26 96.7889 28.0066 96.4275 28.6829C95.9316 29.6068 95.2794 30.3179 94.6962 31.1492C94.5316 31.3835 94.7853 31.7628 94.989 31.5649C95.6434 30.9292 96.3493 30.5169 96.8749 29.6915C97.3097 29.0029 97.8809 28.2386 98.0507 27.3671C98.0828 27.1987 97.9856 26.9717 97.8204 27.0306Z" fill="#464644"/>
<path d="M98.3232 29.6787C97.5989 30.1089 97.1116 31.1558 96.5381 31.8431C96.1382 32.3207 95.7232 32.677 95.3675 33.2174C95.1963 33.4761 94.9569 33.7703 94.744 33.9779C94.585 34.1335 94.7156 34.5198 94.919 34.3957C95.6971 33.9169 96.5552 33.103 97.1917 32.3721C97.7466 31.7322 98.4672 30.9333 98.6452 29.9866C98.6867 29.7675 98.4701 29.5917 98.3232 29.6787Z" fill="#464644"/>
<path d="M98.9249 31.5683C97.9093 31.8809 97.5534 33.4386 96.6545 33.9948C96.0863 34.3463 95.4096 35.3209 95.4389 36.1485C95.4543 36.532 95.8587 36.536 95.9465 36.2043C96.1765 35.3252 97.1402 34.9367 97.6425 34.3732C98.2039 33.7481 99.0605 32.9654 99.2372 32.017C99.2814 31.7831 99.1412 31.4983 98.9249 31.5683Z" fill="#464644"/>
<path d="M99.0788 34.2454C98.5508 34.3712 98.1464 34.9979 97.7741 35.4497C97.3295 35.9858 96.92 36.5781 96.6006 37.2384C96.4778 37.496 96.7577 37.8624 96.9548 37.6596C97.4201 37.1859 97.8568 36.6709 98.3117 36.1889C98.7021 35.7799 99.2434 35.2676 99.3626 34.6267C99.3987 34.4337 99.2426 34.2061 99.0788 34.2454Z" fill="#464644"/>
<path d="M110.231 15.0452C110.032 15.0547 109.869 15.1465 109.738 15.3385C109.423 15.7973 109.115 16.3987 108.895 16.9142C108.699 17.3644 108.396 17.5645 108.399 18.1363C108.403 18.518 108.872 18.6587 108.944 18.2547C109.011 17.9032 109.26 17.809 109.43 17.5748C109.606 17.3325 109.779 17.0917 109.934 16.8262C110.178 16.4076 110.487 15.8357 110.476 15.2999C110.473 15.1426 110.346 15.0398 110.231 15.0452Z" fill="#464644"/>
<path d="M109.987 13.0136C109.942 12.9444 109.852 12.914 109.784 12.9395C109.386 13.0847 109.044 13.7333 108.813 14.1323C108.502 14.6715 108.251 15.2751 107.953 15.8341C107.822 16.0752 108.026 16.4557 108.246 16.2482C108.535 15.9725 108.789 15.6605 109.052 15.3502C109.261 15.0984 109.39 14.8064 109.595 14.5546C109.906 14.1727 110.337 13.5511 109.987 13.0136Z" fill="#464644"/>
<path d="M109.198 11.8487C109.181 11.7552 109.101 11.6855 109.033 11.6652C108.602 11.5561 108.321 12.107 108.061 12.455C107.559 13.125 107.123 13.8644 106.667 14.579C106.506 14.8346 106.78 15.1945 106.987 14.9885C107.48 14.5019 107.934 13.974 108.374 13.4132C108.699 12.9987 109.312 12.4904 109.198 11.8487Z" fill="#464644"/>
<path d="M108.004 10.2959C107.65 9.93528 107.218 10.3422 106.988 10.6675C106.768 10.9815 106.604 11.3485 106.384 11.6592C106.148 11.9911 106.497 12.4827 106.767 12.1708C106.987 11.9109 107.196 11.6328 107.419 11.373C107.613 11.1439 107.861 10.953 108.026 10.6909C108.098 10.5737 108.101 10.3984 108.004 10.2959Z" fill="#464644"/>
<path d="M132.43 42.8401C131.76 43.2463 131.261 43.9703 130.745 44.6221C130.293 45.191 129.85 45.7436 129.33 46.2266C128.896 46.6286 128.595 47.253 128.16 47.6271C128.003 47.7615 128.105 48.1033 128.295 48.0609C128.791 47.9594 129.12 47.5252 129.529 47.1738C129.919 46.8402 130.305 46.5639 130.666 46.1809C131.442 45.3547 132.29 44.3507 132.743 43.2003C132.846 42.9359 132.62 42.7257 132.43 42.8401Z" fill="#464644"/>
<path d="M129.543 43.6465C129.213 43.7857 128.874 43.8577 128.603 44.1515C128.454 44.3106 128.32 44.5353 128.195 44.6324C128.047 44.7489 127.936 44.946 127.78 45.0247C127.532 45.1451 127.499 45.4823 127.516 45.7691C127.538 46.1838 128.058 46.2282 128.168 45.8689C128.173 45.8674 128.174 45.8674 128.181 45.8642C128.292 45.8309 128.39 45.7171 128.476 45.6312C128.558 45.5468 128.69 45.5006 128.786 45.4459C128.882 45.3862 128.945 45.241 129.012 45.1483C129.28 44.7709 129.692 44.508 129.788 43.9782C129.815 43.8277 129.685 43.5889 129.543 43.6465Z" fill="#464644"/>
<path d="M134.77 43.2473C134.016 43.5052 133.452 44.1909 132.883 44.834C132.579 45.175 132.276 45.5177 131.982 45.8669C131.69 46.2146 131.523 46.688 131.142 46.9087C130.974 47.0053 131.025 47.3646 131.202 47.4024C131.925 47.5603 132.37 46.8291 132.896 46.3036C133.631 45.572 134.528 44.8224 135.066 43.8514C135.203 43.6021 135.039 43.1566 134.77 43.2473Z" fill="#464644"/>
<path d="M138.377 41.8918C137.549 42.5078 136.904 43.5662 136.182 44.3634C135.421 45.2028 134.387 45.8232 133.808 46.8758C133.588 47.2749 133.975 47.9193 134.307 47.5458C135.089 46.6591 136.099 46.0974 136.908 45.2274C137.623 44.4547 138.549 43.5596 138.802 42.3711C138.863 42.0834 138.63 41.7076 138.377 41.8918Z" fill="#464644"/>
<path d="M141.025 41.9346C140.155 42.2028 139.55 43.2436 138.928 43.991C138.249 44.805 137.686 45.7545 136.97 46.5223C136.671 46.8469 137.047 47.5109 137.382 47.2324C138.213 46.5428 138.849 45.6284 139.587 44.8035C140.198 44.1183 140.972 43.3347 141.313 42.3896C141.389 42.1741 141.219 41.8726 141.025 41.9346Z" fill="#464644"/>
<path d="M144.003 41.5148C143.072 41.7709 142.478 42.7168 141.836 43.5296C141.091 44.4772 140.239 45.2846 139.512 46.2505C139.256 46.5887 139.676 47.1678 139.957 46.8594C140.744 45.9957 141.631 45.2968 142.399 44.4001C143.008 43.6919 143.95 42.8608 144.233 41.8529C144.281 41.6748 144.157 41.4737 144.003 41.5148Z" fill="#464644"/>
<path d="M146.08 41.7348C145.228 42.1359 144.572 43.2024 143.949 44.0055C143.639 44.4021 143.391 44.8387 143.103 45.2585C142.837 45.6457 142.462 46.3956 142.07 46.5424C141.747 46.667 141.875 47.3432 142.207 47.2679C142.953 47.0983 143.584 45.9988 144.049 45.3154C144.779 44.2381 145.929 43.3977 146.358 42.0488C146.43 41.8267 146.237 41.661 146.08 41.7348Z" fill="#464644"/>
<path d="M147.291 43.7888C146.783 43.8525 146.392 44.4417 146.064 44.8807C145.736 45.3198 145.547 45.5964 145.33 46.1103C145.232 46.3436 145.028 46.72 144.821 46.8031C144.571 46.9022 144.571 47.3855 144.859 47.4047C145.619 47.4499 145.894 46.5074 146.374 45.9666C146.788 45.4973 147.501 44.8688 147.549 44.0993C147.56 43.9372 147.418 43.772 147.291 43.7888Z" fill="#464644"/>
<path d="M149.188 44.6425C148.684 45.0028 148.304 45.6183 147.907 46.1418C147.619 46.5207 148.071 47.0543 148.373 46.7018C148.804 46.2015 149.363 45.655 149.463 44.8877C149.49 44.6897 149.33 44.5374 149.188 44.6425Z" fill="#464644"/>
<path d="M130.537 36.7055C129.733 36.2126 129.095 35.6231 128.448 34.8434C128.071 34.3925 127.567 35.1247 127.916 35.5868C128.569 36.4533 129.303 37.5467 130.306 37.6861C130.721 37.7443 130.908 36.9303 130.537 36.7055Z" fill="#464644"/>
<path d="M131.173 34.4496C130.88 33.7815 130.247 33.3837 129.815 32.8585C129.631 32.6355 129.449 32.4208 129.261 32.2125C128.961 31.8901 128.462 31.6951 128.239 31.3046C128.061 30.99 127.723 31.3552 127.875 31.6647C127.989 31.8984 128.127 32.0309 128.321 32.1573C128.636 32.3603 128.911 32.7119 129.161 33.0257C129.665 33.6581 130.285 34.5407 131.006 34.7346C131.122 34.7669 131.228 34.5811 131.173 34.4496Z" fill="#464644"/>
<path d="M130.875 31.1474C130.733 30.9772 130.598 30.8973 130.42 30.7874C130.012 30.5343 129.697 30.1233 129.381 29.7204C128.882 29.0832 128.197 28.6373 127.669 28.0276C127.453 27.7781 127.087 28.2037 127.292 28.476C127.953 29.3557 128.718 30.0956 129.401 30.9493C129.774 31.4199 130.353 31.9646 130.869 31.529C130.978 31.4367 130.962 31.2498 130.875 31.1474Z" fill="#464644"/>
<path d="M130.494 28.2039C130.182 27.6274 129.602 27.2367 129.154 26.8293C128.926 26.6223 128.667 26.4772 128.451 26.2473C128.177 25.9628 127.961 25.6789 127.643 25.4677C127.306 25.2481 127.06 25.8895 127.385 26.1253C127.675 26.3363 127.879 26.6512 128.121 26.937C128.339 27.1914 128.623 27.3613 128.863 27.5767C129.303 27.9775 129.797 28.6655 130.384 28.5255C130.489 28.4987 130.556 28.3192 130.494 28.2039Z" fill="#464644"/>
<path d="M129.271 24.0727C128.882 23.7756 128.496 23.4687 128.155 23.0852C127.897 22.796 127.492 23.2146 127.742 23.5448C128.065 23.9657 128.427 24.31 128.796 24.6528C129.142 24.974 129.602 25.5405 130.053 25.5433C130.178 25.5429 130.304 25.4131 130.269 25.2408C130.156 24.6696 129.643 24.3614 129.271 24.0727Z" fill="#464644"/>
<path d="M129.972 23.0733C129.722 22.4155 129.156 21.9446 128.681 21.555C128.332 21.2665 128.036 21.9483 128.364 22.2464C128.8 22.6439 129.186 23.3292 129.76 23.389C129.89 23.4017 130.04 23.2525 129.972 23.0733Z" fill="#464644"/>
<path d="M129.668 39.5168C129.442 39.3769 129.211 39.2567 128.994 39.0989C128.696 38.883 128.44 38.6183 128.11 38.4889C127.925 38.415 127.7 38.652 127.813 38.8939L127.85 38.9893C127.862 39.05 127.902 39.0864 127.945 39.1114C128.331 39.7165 128.929 40.2827 129.557 40.2217C129.818 40.1981 129.908 39.6633 129.668 39.5168Z" fill="#464644"/>
<path d="M210.578 17.2582C209.665 17.7996 209.223 19.0976 208.566 19.9904C208.163 20.5369 207.678 21.2283 207.694 22.0164C207.701 22.3441 208.124 22.4187 208.202 22.1066C208.391 21.3549 209.019 20.8894 209.424 20.3299C209.985 19.5573 210.727 18.6571 210.929 17.6205C210.974 17.3867 210.753 17.1535 210.578 17.2582Z" fill="#464644"/>
<path d="M209.758 15.8747C209.299 16.0668 208.956 16.5647 208.624 16.984C208.226 17.4879 207.934 18.0404 207.619 18.6204C207.487 18.8632 207.749 19.2344 207.951 19.0496C208.353 18.6785 208.68 18.1772 209.04 17.7433C209.417 17.2917 209.86 16.8341 210.041 16.2003C210.097 15.9961 209.904 15.8172 209.758 15.8747Z" fill="#464644"/>
<path d="M209.56 13.5205C209.036 13.5432 208.538 14.241 208.176 14.6634C207.867 15.0256 207.404 15.4994 207.424 16.0926C207.436 16.4597 207.865 16.6294 207.959 16.2257C208.008 16.0263 208.264 15.8388 208.397 15.7173C208.574 15.5552 208.734 15.3668 208.907 15.1965C209.259 14.851 209.763 14.4399 209.798 13.8358C209.808 13.677 209.687 13.512 209.56 13.5205Z" fill="#464644"/>
<path d="M209.655 9.66241C209.202 9.77259 208.833 10.3996 208.531 10.7947C208.306 11.0841 208.162 11.407 207.978 11.7263C207.852 11.7742 207.782 11.8767 207.683 12.0297C207.524 12.2738 207.78 12.6384 207.989 12.439C208.081 12.3498 208.163 12.4014 208.26 12.345C208.35 12.2919 208.42 12.1762 208.485 12.0901C208.651 11.8689 208.784 11.6294 208.961 11.4248C209.288 11.0398 209.825 10.5733 209.915 9.99263C209.948 9.78818 209.82 9.62146 209.655 9.66241Z" fill="#464644"/>
<path d="M209.092 7.91957C208.611 8.06388 208.181 8.5347 208.012 9.11458C207.902 9.49845 208.431 9.74615 208.552 9.36401C208.617 9.1648 208.711 9.03304 208.848 8.90334C209.058 8.70229 209.257 8.5126 209.335 8.18573C209.381 8.00435 209.215 7.87984 209.092 7.91957Z" fill="#464644"/>
<path d="M210.132 21.1596C209.793 21.2152 209.444 21.5017 209.181 21.7612C208.929 22.0077 208.768 22.3026 208.766 22.7056C208.764 23.1708 209.311 23.2319 209.403 22.7922C209.444 22.5878 209.708 22.4643 209.837 22.3689C210.076 22.1862 210.325 22.0068 210.447 21.6804C210.542 21.4225 210.351 21.1224 210.132 21.1596Z" fill="#464644"/>
<path d="M12.7303 26.602C12.5479 26.4003 12.352 26.3001 12.1327 26.1652C11.6587 25.8804 11.2614 25.4161 10.8403 25.0269C10.2274 24.4606 9.51438 24.0784 8.89896 23.5055C8.69034 23.3101 8.50025 23.703 8.6394 23.9206C9.26368 24.8852 10.1817 25.3988 10.9166 26.2056C11.3935 26.7279 12.0868 27.4507 12.7222 26.9852C12.8338 26.9028 12.815 26.6978 12.7303 26.602Z" fill="#464644"/>
<path d="M12.1206 24.7199C11.9806 24.0616 11.4012 23.6463 10.9799 23.2785C10.4713 22.8344 9.93143 22.349 9.47679 21.8252C9.1394 21.4369 8.64213 22.0463 8.97029 22.4525C9.40395 22.9843 9.93304 23.5466 10.4299 23.9791C10.8734 24.3668 11.3435 24.9481 11.8729 25.1122C12.0637 25.1698 12.159 24.9087 12.1206 24.7199Z" fill="#464644"/>
<path d="M12.4956 22.2482C12.2374 21.7034 11.8185 21.3912 11.4129 21.035C11.0203 20.692 10.6567 20.3214 10.2826 19.9475C10.001 19.6662 9.64461 20.0853 9.88134 20.4448C10.4615 21.3172 11.406 22.3913 12.3359 22.5644C12.4654 22.5886 12.5565 22.3798 12.4956 22.2482Z" fill="#464644"/>
<path d="M12.51 19.3847C12.0762 18.5711 11.2778 18.2585 10.7111 17.6156C10.4271 17.2934 10.0663 17.8271 10.324 18.1655C10.8708 18.877 11.5582 19.4457 12.3149 19.73C12.4665 19.7872 12.5944 19.5477 12.51 19.3847Z" fill="#464644"/>
<path d="M12.663 17.5936C12.5499 17.3566 12.3417 17.2694 12.1758 17.099C12.0112 16.927 11.8584 16.7485 11.7083 16.557C11.4408 16.2218 11.0568 16.7717 11.3217 17.1069C11.6206 17.4834 12.1045 18.1582 12.5724 17.9531C12.6933 17.9003 12.7242 17.7236 12.663 17.5936Z" fill="#464644"/>
<path d="M11.2811 28.2064C11.0114 27.9751 10.7376 27.7633 10.5153 27.459C10.3046 27.1646 9.93012 27.6002 10.1553 27.8506C10.4417 28.1703 10.7612 28.4005 11.1241 28.5592C11.2938 28.6327 11.4375 28.3402 11.2811 28.2064Z" fill="#464644"/>
<path d="M12.9277 14.3776C12.5751 13.863 12.0608 13.5286 11.5962 13.1931C11.1851 12.8942 10.1892 12.2225 10.0172 11.7211C9.91892 11.4318 9.5922 11.6301 9.63033 11.9057C9.73826 12.7111 10.4869 13.0363 10.9141 13.5566C11.1563 13.8539 11.5899 14.0744 11.8756 14.3098C12.1626 14.5437 12.4655 14.7138 12.8043 14.7614C12.9757 14.786 13.0161 14.5079 12.9277 14.3776Z" fill="#464644"/>
<path d="M12.963 12.8122C12.4058 11.7763 11.3588 11.1122 10.5343 10.4586C10.2538 10.2363 9.94776 10.8132 10.2124 11.0616C10.9935 11.7885 11.7899 12.8939 12.7704 13.1691C12.9286 13.2149 13.0526 12.9785 12.963 12.8122Z" fill="#464644"/>
<path d="M205.39 91.4707L205.384 89.9365L203.461 88.3935L201.535 86.138L199.638 91.4431C199.638 91.4431 198.649 93.498 193.916 99.085C186.11 108.309 184.354 105.174 184.354 105.174C184.354 105.174 187.377 109.421 190.123 109.804C190.123 109.804 197.775 105.239 201.591 100.656C205.407 96.0725 205.39 91.4707 205.39 91.4707Z" fill="#BF9978"/>
<path d="M12.516 101.593L12.4061 99.9258L14.2784 98.3512L16.0994 96.0022L18.4624 101.87C18.4624 101.87 19.641 104.157 24.9587 110.483C33.7305 120.926 35.3095 117.612 35.3095 117.612C35.3095 117.612 32.505 122.067 29.693 122.337C29.693 122.337 21.434 116.966 17.1401 111.78C12.8462 106.594 12.516 101.593 12.516 101.593Z" fill="#BF9978"/>
<path d="M217.123 97.1236C216.43 95.7461 214.484 95.3193 213.006 94.3789C211.313 93.3037 209.63 92.2516 208.01 91.012C205.098 88.7831 202.08 86.7854 199.186 84.5191C193.081 79.7362 187.624 73.6728 181.828 68.355C175.731 62.7594 169.185 57.928 163.002 52.4788C160.783 50.525 158.353 48.7442 156.035 46.9824C154.359 45.7096 152.742 44.2966 151.16 42.8563C151.137 42.8332 151.113 42.8231 151.091 42.8033C155.69 42.2131 160.254 41.2072 164.86 40.5877C171.207 39.7387 177.571 38.6298 183.861 37.2519C186.736 36.6216 199.01 33.0418 201.759 31.8248C203.118 31.2218 204.553 31.1577 205.872 30.4644C208.4 29.1339 211.129 28.7262 211.791 24.9254C212.096 23.1834 211.881 21.2497 211.874 19.48C211.864 17.1461 211.894 14.8125 211.845 12.4798C211.788 9.66295 211.94 5.6935 210.636 3.18468C209.935 1.83492 208.85 1.78153 207.203 2.658C204.2 4.26178 193.55 7.43425 190.648 8.47152C187.556 9.57557 184.492 9.51544 181.319 10.2376C174.901 11.696 168.398 12.7691 161.94 13.936C158.774 14.5094 155.749 15.8921 152.533 15.8665C149.638 15.8456 146.638 16.0871 143.748 16.4245C140.923 16.7527 138.093 16.9321 135.277 17.401C133.826 17.6433 132.375 17.8054 130.91 17.8316C129.787 17.8547 128.67 17.7552 127.546 17.6736C126.28 17.5824 125.886 17.1074 125.104 16.0529C123.339 13.6768 120.464 13.3765 118.169 12.2071C115.961 11.0843 113.974 9.35691 111.766 8.21939C109.322 6.95684 107.521 7.07618 105.236 8.64462C103.146 10.0809 100.343 10.7823 98.0178 11.3837C95.3579 12.0669 92.6511 12.3996 89.9913 13.0696C89.1109 13.2898 88.436 13.4858 87.6993 14.0836C87.35 14.3679 86.9105 14.9343 86.5522 15.1793C86.2752 15.3646 86.0116 15.8167 85.7467 15.9399C84.8852 16.332 83.2396 15.7676 82.3224 15.6718C79.9792 15.4324 77.6401 15.1506 75.3065 14.7935C70.9833 14.1271 66.7737 12.8992 62.457 12.2361C58.4426 11.6202 54.476 10.8183 50.4467 10.3135C41.4553 9.18325 32.4847 8.09901 23.512 6.85938C19.8348 6.34988 16.0389 5.73616 12.3439 5.73677C9.91204 5.7353 7.97649 5.34138 8.03263 9.23114C8.06359 11.2709 8.12598 13.3061 8.12028 15.3488C8.10832 18.9271 7.91309 22.5118 8.10533 26.0872C8.31816 30.0718 8.65213 31.6289 11.9701 32.6025C13.5062 33.0529 15.141 33.0628 16.7117 33.3745C18.612 33.7485 20.347 33.8836 22.2744 34.0321C24.2227 34.1776 26.1231 34.8688 28.0563 35.1744C30.0825 35.4939 32.1667 35.3889 34.2078 35.5729C38.4484 35.9556 42.5852 37.0453 46.8348 37.4739C51.1745 37.9148 55.5319 37.5708 59.8723 37.8547C63.8686 38.1155 67.7616 39.3141 71.7211 39.9425C72.3398 40.042 72.9372 40.2148 73.5548 40.2733C73.3339 40.5131 73.1196 40.7547 72.9185 40.962C70.5301 43.4387 67.9313 45.5356 65.4025 47.7918C60.9741 51.7413 56.4754 55.6132 52.1146 59.6959C47.7564 63.7753 43.8108 68.4231 39.6516 72.807C35.0771 77.6317 30.0748 81.7292 25.261 86.1606C21.1251 89.9626 16.6462 93.7971 12.9826 98.3119C11.1356 100.59 9.28093 102.835 7.26218 104.872C5.19875 106.953 3.12365 108.687 0.98596 111.325C0.68912 113.827 2.96325 117.218 3.98674 119.161C7.26372 125.383 9.53807 132.574 14.3827 137.278C14.3747 137.323 14.3732 137.37 14.3678 137.416C14.637 137.505 14.9063 137.606 15.1702 137.72C15.5285 137.159 16.4926 136.654 16.9258 136.332C17.7936 135.684 18.6589 135.033 19.5163 134.357C21.3258 132.926 23.056 131.342 24.7616 129.725C28.2567 126.406 31.5998 122.839 34.8126 119.105C41.4368 111.413 47.5649 103.079 54.3024 95.5269C57.4174 92.0385 60.6676 88.7526 63.754 85.2149C67.0311 81.4567 70.528 78.0343 73.6097 74.0157C76.7297 69.9467 79.7533 65.7509 82.8511 61.6523C84.3487 59.6737 85.8641 57.808 87.6519 56.2444C88.9628 55.1013 90.3307 53.7935 91.6831 52.7456C92.4034 53.9435 93.1564 55.1122 93.8413 56.3195C94.7458 57.9134 95.8482 59.12 97.395 59.5329C99.2503 60.0258 101.498 58.7153 103.272 58.2817C105.533 57.7254 107.249 56.8692 108.932 54.8826C109.098 54.6864 109.257 54.4852 109.411 54.279C113.017 54.9792 117.164 55.1041 120.66 54.1742C122.353 53.725 123.737 51.7518 124.905 50.3046C125.156 49.9931 125.405 49.6751 125.622 49.342C126.688 50.5122 127.881 51.4253 129.077 52.4235C130.936 53.9729 132.705 55.7374 134.508 57.3844C138.111 60.6735 141.803 63.7655 145.215 67.37C151.425 73.9316 157.248 80.8868 163.788 86.9579C166.955 89.9008 169.756 93.2603 173.032 96.0473C176.263 98.7962 179.19 102 182.49 104.658C185.13 106.786 187.581 109.509 190.156 111.848C192.936 114.373 195.256 116.504 198.203 118.616C200.058 119.946 203.221 123.237 205.542 122.5C207.567 121.856 208.516 118.798 209.356 116.673C210.599 113.526 212.061 110.361 213.834 107.63C215.125 105.636 218.484 99.8243 217.123 97.1236ZM135.469 19.3214C138.273 18.9079 141.084 18.8265 143.884 18.3982C145.242 18.1878 146.636 18.3293 148.006 18.2351C149.721 18.1198 151.378 17.842 153.107 17.8626C156.2 17.8985 159.153 16.4823 162.211 15.916C168.396 14.7709 174.59 13.6571 180.762 12.3827C183.822 11.7477 186.802 10.8028 189.883 10.3021C192.469 9.88156 209.316 2.54179 209.589 4.84893C210.639 8.31524 210.129 11.4127 210.447 16.6232C210.594 19.024 211.251 21.7749 210.547 24.1148C209.79 26.6291 208.21 27.9004 206.443 28.4797C204.125 29.2382 195.859 32.3626 192.877 32.861C191.083 33.1669 186.807 34.5518 185.028 34.9707C182.02 35.6765 178.994 36.4198 175.942 36.7654C172.421 37.1619 169.005 38.1057 165.49 38.5202C162.103 38.923 158.726 39.5826 155.364 40.2244C152.132 40.8429 148.882 40.9576 145.623 41.3174C142.264 41.6845 138.849 40.8881 135.473 41.1798C133.715 41.3306 131.984 41.6584 130.22 41.7486C129.911 41.7635 128.406 41.9398 127.492 42.0059C127.959 38.6529 128.077 35.2277 127.909 31.8111C127.715 27.7924 127.465 23.2613 126.488 19.3197C129.36 20.1188 132.591 19.7456 135.469 19.3214ZM94.7446 14.5058C96.1219 14.4182 97.5649 13.6394 98.9222 13.3243C100.73 12.9025 102.508 11.4876 104.351 11.0906C104.49 11.2212 104.671 11.2459 104.861 11.063C104.88 11.0452 104.904 11.0209 104.924 11.0015C105.042 10.9912 105.162 10.9826 105.28 10.9805C106.549 10.9785 107.248 10.1923 108.234 9.39754C108.476 9.63385 108.712 9.99928 108.937 10.5413C109.495 11.8994 109.968 13.3548 110.495 14.7306C110.583 14.9621 110.666 15.187 110.751 15.4152C110.643 15.6104 110.587 15.8535 110.625 16.145C110.935 18.4558 108.793 21.1362 107.979 23.0432C106.744 25.9387 105.256 28.3312 103.425 30.6925C102.964 31.2832 102.495 31.8657 102.02 32.4399C100.915 29.7597 99.655 27.1744 98.6925 24.4074C97.6833 21.5057 96.2802 19.5847 94.6629 17.2117C94.0254 16.2747 93.4115 15.3216 92.7079 14.5361C93.3897 14.5544 94.069 14.5514 94.7446 14.5058ZM87.7616 16.1237C87.8402 15.1644 89.9952 15.3316 90.5458 15.4548C91.0689 15.568 91.78 16.4321 92.1843 16.4558C91.2317 16.4005 87.7616 16.1302 87.7616 16.1237ZM72.2996 37.7012C67.9989 36.9696 63.7434 35.7592 59.5213 36.3138C56.7365 36.1764 53.8749 36.2687 51.0795 36.1769C47.0343 36.0448 42.9775 35.5495 39.0189 34.6954C35.1964 33.8655 31.3356 34.0902 27.5069 33.4859C25.8209 33.2237 24.2079 32.6695 22.5098 32.4709C20.6926 32.2565 18.9011 32.1698 17.0817 31.8703C15.7868 31.6562 14.6291 31.4728 13.3155 31.3648C11.447 31.2071 9.75193 30.2595 9.50697 27.7384C9.17142 24.3201 9.66416 20.3165 9.68747 16.8429C9.70986 13.9173 9.08117 9.84351 10.0178 7.09218C10.6221 7.18492 11.2371 7.22379 11.847 7.2299C13.7173 7.25845 15.5272 7.65765 17.3933 7.74994C22.0101 7.97936 26.6489 8.92208 31.2046 9.69714C39.3128 11.0786 47.7588 10.8214 55.7689 12.8119C59.3974 13.7134 63.1284 13.8685 66.7821 14.6983C70.7221 15.5932 74.6298 16.3814 78.6328 16.917C83.5712 17.5782 88.4752 18.0116 93.4025 18.1706C93.3999 18.164 93.3986 18.1574 93.3973 18.1509C94.3917 19.5232 95.42 20.9253 96.2451 22.4137C97.0988 23.9563 97.5147 25.9574 98.1898 27.634C99.0294 29.7326 99.9924 31.7523 100.84 33.846C99.9679 34.8758 99.0829 35.8875 98.207 36.9075C96.1528 39.3025 93.699 40.4784 90.8548 40.1718C87.4597 39.8075 86.8093 39.4575 83.4073 39.1764C81.6645 39.0347 79.9686 38.6039 78.2217 38.4834C76.2694 38.351 74.289 38.0384 72.2996 37.7012ZM89.9798 51.5821C89.0309 52.5146 87.3299 54.0088 87.1867 54.1267C85.5004 55.5163 84.0541 57.1308 82.6423 58.9255C79.4873 62.9434 76.4337 67.0931 73.4024 71.2545C70.3988 75.3688 66.9412 78.7801 63.6642 82.5253C59.9927 86.7211 56.1651 90.6816 52.4636 94.8313C45.7906 102.307 39.7073 110.568 33.1865 118.24C29.796 122.226 26.2076 125.942 22.4944 129.449C21.48 130.404 20.4631 131.357 19.4383 132.298C18.5922 133.075 16.6866 135.288 15.6069 135.577C15.3842 135.637 15.1913 135.748 15.0324 135.892C14.4313 134.348 13.1557 132.602 12.1832 131.639C10.4324 129.907 8.97263 126.147 7.9275 123.732C6.78252 121.089 5.48225 118.651 4.21389 116.093C3.57124 114.805 2.46991 113.654 2.95194 111.961C3.27995 110.803 4.17271 109.814 5.00248 109.188C5.02479 109.174 5.04191 109.148 5.06032 109.127C5.06945 109.135 5.07857 109.145 5.0864 109.151C6.24429 107.982 7.63819 107.033 8.72904 105.935C10.4665 104.184 12.0622 102.218 13.6526 100.267C17.4201 95.6366 21.9308 91.7157 26.164 87.7904C30.1516 84.0949 34.3081 80.6824 38.1968 76.824C42.4574 72.6013 46.3238 67.8006 50.5935 63.6025C55.2693 58.9997 60.3284 55.0663 65.0197 50.511C67.1708 48.4244 69.4625 46.5584 71.676 44.5722C72.8373 43.5256 73.6578 41.9638 74.7866 40.8679C75.4726 40.1977 76.1067 40.3675 76.8805 40.6304C77.6609 40.8934 78.4004 40.8926 79.1836 41.0804C80.6338 41.4285 82.1297 41.4615 83.6034 41.4894C85.2145 41.5202 86.8046 41.8845 88.3971 41.9904C88.2708 42.1511 88.1667 42.3168 88.1097 42.4913C87.4207 44.5598 88.842 46.8506 89.5455 48.6109C89.8565 49.3844 90.2174 50.1289 90.6045 50.8524C90.6343 50.9083 90.3727 51.1968 89.9798 51.5821ZM107.908 53.4299C105.733 56.2375 100.086 58.8255 96.9872 57.4468C95.4194 56.7507 94.3053 53.9167 93.3222 52.345C92.0061 50.2433 87.7487 44.6841 90.1561 42.0309C91.9169 43.5467 96.1102 41.4037 97.6842 39.9459C100.119 37.6904 102.361 34.7935 104.492 32.1114C106.609 29.4406 108.183 26.6973 109.589 23.4011C110.258 21.8296 111.303 20.2879 111.842 18.5859C112.455 20.5579 112.946 22.5614 113.28 24.735C114.532 32.876 114.779 40.755 111 47.8642C109.965 49.8131 109.237 51.7145 107.908 53.4299ZM125.097 45.7386C123.883 49.5273 121.687 52.4427 117.903 52.758C115.377 52.9683 112.844 52.7057 110.325 52.934C111.048 52.8676 115.555 43.2748 115.712 42.0122C116.693 34.1618 115.428 22.8855 112.621 15.8101C111.896 13.9793 111.093 12.1869 110.455 10.303C110.382 10.0782 110.3 9.86636 110.216 9.66108C112.33 10.6407 114.35 11.9399 116.363 13.2259C117.647 14.0434 118.951 14.6714 120.317 15.2314C122.692 16.1988 124.254 16.8409 125.02 19.987C125.99 23.971 126.183 28.657 126.382 32.7968C126.573 36.719 126.386 41.72 125.097 45.7386ZM213.691 103.515C211.428 108.906 209.093 114.338 206.472 119.372C204.748 122.674 198.547 115.721 196.677 114.531C192.641 111.959 189.6 107.994 185.829 104.96C179.098 99.541 172.541 93.6268 166.474 87.1025C163.404 83.7992 160.005 80.9995 156.919 77.6976C153.705 74.257 150.618 70.6329 147.426 67.1615C144.288 63.7512 140.917 60.8504 137.552 57.8237C135.698 56.1549 133.845 54.4796 131.989 52.8141C130.113 51.1304 128.024 49.7193 126.202 47.9445C126.221 47.8384 126.233 47.7339 126.24 47.6227C126.351 47.4979 126.435 47.3286 126.49 47.1264C126.808 45.9046 127.07 44.6675 127.281 43.4168C129.905 44.0564 132.883 43.3388 135.459 43.0392C138.827 42.6477 142.205 43.3439 145.576 43.2567C146.741 43.2242 147.904 43.1442 149.061 43.0332C149.564 43.2884 150.076 43.5274 150.532 44.0096C151.836 45.3801 153.201 46.6776 154.596 47.897C157.617 50.5424 160.732 53.0334 163.822 55.5421C170.018 60.5744 176.297 65.7008 182.217 71.2275C188.214 76.8254 193.945 82.9946 200.377 87.8167C202.88 89.6931 205.552 91.622 208.176 93.3933C210.411 94.904 213.366 97.6436 215.883 98.2822C215.154 100.01 214.427 101.761 213.691 103.515Z" fill="#464644"/>
</svg>
