<svg width="218" height="192" viewBox="0 0 218 192" fill="none" xmlns="http://www.w3.org/2000/svg">
<path d="M14.8966 136.446C11.5463 133.181 9.4914 128.724 7.31979 124.007C6.48564 122.199 5.62556 120.329 4.69311 118.554C4.50999 118.208 4.29039 117.819 4.05261 117.397C3.14956 115.791 1.8112 113.42 1.80622 111.77C3.19136 110.094 4.57901 108.765 5.9246 107.477C6.53826 106.888 7.16772 106.28 7.79464 105.651C9.85422 103.569 11.7064 101.321 13.5797 99.01C16.5897 95.2894 20.1961 92.0072 23.6816 88.837C24.3819 88.1984 25.0769 87.563 25.7653 86.9308C27.2526 85.561 28.787 84.1934 30.2688 82.8744C33.5872 79.9236 37.0159 76.8708 40.1972 73.5107C41.5736 72.0595 42.9423 70.5608 44.2637 69.1091C46.9498 66.1718 49.7241 63.1321 52.6266 60.4082C55.671 57.5531 58.8382 54.7499 61.9017 52.0424C63.2363 50.8629 64.571 49.6833 65.8979 48.4971C66.6073 47.8619 67.3219 47.2398 68.0377 46.6193C69.8478 45.048 71.7197 43.4182 73.4627 41.607C73.6021 41.4642 73.7454 41.305 73.8939 41.1427L75.6544 39.2267L73.6147 39.0328C73.2837 39.0033 72.9463 38.9328 72.5906 38.8572C72.3382 38.8039 72.0832 38.7522 71.8255 38.712C70.3474 38.4761 68.8475 38.1532 67.3933 37.839C64.9636 37.3152 62.4489 36.7757 59.9156 36.6114C58.8504 36.5418 57.6818 36.5024 56.2408 36.4881C55.517 36.4809 54.7945 36.4803 54.0733 36.4813C53.3535 36.4791 52.6362 36.4786 51.9164 36.4714C50.5369 36.4577 48.7164 36.4184 46.9004 36.2349C44.8738 36.0297 42.8257 35.6636 40.8468 35.3081C38.7045 34.9248 36.4876 34.5309 34.2659 34.3286C33.422 34.2547 32.5661 34.2249 31.7403 34.1987C30.5534 34.1607 29.3258 34.1223 28.1604 33.9371C27.386 33.8164 26.5923 33.6217 25.8209 33.4355C24.6911 33.1605 23.5209 32.8769 22.3236 32.7864C20.4735 32.6452 18.7267 32.5131 16.8421 32.1406C16.1791 32.0095 15.5079 31.9307 14.8578 31.8522C13.9145 31.7396 13.0197 31.6341 12.1621 31.3831C9.32531 30.5488 9.15407 29.5427 8.95735 25.8247C8.82707 23.4542 8.87509 21.0134 8.92408 18.6529C8.94453 17.5029 8.97036 16.3169 8.97389 15.1421C8.97573 13.7429 8.95013 12.3336 8.92173 10.9668C8.90874 10.308 8.89573 9.65249 8.88536 8.99208C8.87235 8.02034 8.99417 7.36289 9.25075 7.0361C9.61387 6.58093 10.4425 6.54982 11.4032 6.55935L12.6675 6.57189C15.738 6.60233 18.9154 7.05164 21.9907 7.4852L23.4218 7.68781C30.538 8.67099 37.7749 9.57509 44.7751 10.449L50.3663 11.1467C52.8179 11.4545 55.2964 11.8805 57.6926 12.2925C59.2189 12.5583 60.7963 12.8296 62.3581 13.0679C64.4928 13.3971 66.6531 13.8773 68.7401 14.3404C70.8455 14.8069 73.0228 15.2905 75.2033 15.6267C77.3288 15.9526 79.6338 16.2458 82.2557 16.511C82.486 16.5346 82.7959 16.5999 83.1255 16.6671C83.693 16.7841 84.3378 16.915 84.928 16.9209C85.3717 16.9253 85.7333 16.8601 86.0388 16.7173C86.343 16.5794 86.5692 16.3195 86.7533 16.1083C86.8191 16.0336 86.919 15.9215 86.9584 15.894C87.238 15.7051 87.4996 15.4292 87.7533 15.1613C87.9018 15.0055 88.0556 14.8432 88.1634 14.7509C88.7714 14.2572 89.3257 14.0955 90.1629 13.8843C91.4417 13.5627 92.7621 13.3137 94.0405 13.0724C95.4041 12.8172 96.8109 12.5526 98.1933 12.1944L98.3413 12.1565C100.636 11.5648 103.491 10.828 105.647 9.34361C106.823 8.53276 107.792 8.17535 108.787 8.18522C109.588 8.19316 110.432 8.44075 111.443 8.96361C112.492 9.50815 113.48 10.1815 114.527 10.8932C115.591 11.6197 116.691 12.3712 117.849 12.9627C118.585 13.337 119.371 13.6266 120.132 13.9029C121.818 14.5226 123.411 15.1053 124.478 16.5495C125.326 17.6934 125.924 18.3989 127.499 18.5128L127.914 18.5464C128.725 18.6069 129.566 18.6677 130.404 18.676C130.578 18.6777 130.751 18.6762 130.924 18.6746C132.315 18.6474 133.776 18.503 135.393 18.2339C137.235 17.9245 139.125 17.7401 140.955 17.5583C141.911 17.4629 142.872 17.3692 143.83 17.2575C147.254 16.8605 150.019 16.6831 152.531 16.7031C154.659 16.7193 156.699 16.1481 158.674 15.5958C159.784 15.2824 160.93 14.9612 162.062 14.7577C163.38 14.5168 164.7 14.2825 166.023 14.0466C171.099 13.1417 176.35 12.2107 181.475 11.0425C182.705 10.7614 183.949 10.5984 185.154 10.44C187.02 10.193 188.95 9.93855 190.882 9.24497C191.703 8.95327 193.183 8.4764 194.896 7.92484C199.301 6.50209 205.335 4.55643 207.538 3.37893C208.168 3.03946 208.681 2.87086 209.059 2.87461C209.448 2.87846 209.69 3.05455 209.921 3.5025C210.917 5.42446 210.95 8.5559 210.978 11.0729C210.98 11.4825 210.985 11.8807 210.993 12.2592C211.026 13.7981 211.023 15.3694 211.019 16.8898C211.019 17.6763 211.018 18.466 211.02 19.2508C211.022 19.7686 211.041 20.2964 211.061 20.8307C211.104 22.0748 211.152 23.3581 210.958 24.4769C210.542 26.8666 209.194 27.584 207.028 28.5603C206.542 28.78 206.04 29.0044 205.538 29.2714C204.9 29.6075 204.207 29.7858 203.477 29.9719C202.822 30.1407 202.149 30.3143 201.471 30.6139C198.738 31.8272 186.526 35.3861 183.711 36.007C177.551 37.3599 171.177 38.4846 164.767 39.3419C162.524 39.644 160.26 40.0427 158.07 40.4289C155.754 40.8369 153.356 41.2571 151 41.5615L148.719 41.8534L150.64 43.5241L150.684 43.5573C152.618 45.323 154.133 46.6062 155.594 47.7185L156.721 48.5735C158.664 50.0461 160.673 51.5668 162.508 53.1842C165.286 55.6366 168.177 57.9985 170.974 60.2807C174.414 63.0904 177.97 65.9962 181.321 69.0754C183.398 70.9835 185.472 73.0308 187.477 75.007C191.071 78.5506 194.787 82.215 198.73 85.3098C200.303 86.5445 201.931 87.7141 203.508 88.8455C204.846 89.8074 206.228 90.7977 207.563 91.8218C209.072 92.9772 210.653 93.9858 212.179 94.9561L212.615 95.2357C213.132 95.5636 213.683 95.8263 214.218 96.079C215.132 96.5174 216.079 96.9675 216.397 97.5998C217.194 99.1823 215.374 103.472 213.165 106.887C211.564 109.36 210.067 112.39 208.584 116.143C208.492 116.382 208.396 116.633 208.297 116.889C207.568 118.804 206.74 120.975 205.322 121.425C205.163 121.477 204.988 121.5 204.803 121.498C203.354 121.484 201.487 119.955 199.987 118.726C199.496 118.321 199.03 117.94 198.618 117.642C195.857 115.662 193.635 113.641 191.063 111.302L190.649 110.924C189.644 110.013 188.636 109.017 187.661 108.055C186.144 106.557 184.574 105.008 182.942 103.691C181.17 102.256 179.46 100.624 177.81 99.0441C176.423 97.7163 174.989 96.3438 173.504 95.0806C171.664 93.514 169.932 91.7142 168.256 89.9739C166.983 88.6488 165.662 87.2824 164.289 86.0055C159.927 81.9447 155.796 77.3931 151.803 72.9935C149.838 70.826 147.805 68.5874 145.759 66.4191C143.234 63.7463 140.524 61.3223 137.903 58.9796C136.935 58.118 135.969 57.2515 135.006 56.3735C134.408 55.8236 133.812 55.2639 133.217 54.7026C132.032 53.5832 130.805 52.4291 129.545 51.3761C129.326 51.1921 129.106 51.013 128.891 50.8322C127.924 50.0362 127.008 49.2849 126.18 48.3755L125.512 47.6431L124.957 48.5027C124.76 48.8104 124.514 49.1209 124.3 49.3842C124.164 49.5549 124.026 49.7288 123.883 49.9126C122.872 51.192 121.728 52.6422 120.479 52.9755C118.806 53.4226 116.904 53.6364 114.838 53.6159C113.115 53.5988 111.282 53.4103 109.539 53.0702L109.097 52.9855L108.792 53.3905C108.645 53.5824 108.497 53.7726 108.344 53.953C106.928 55.6315 105.457 56.5115 103.102 57.0878C102.539 57.2264 101.957 57.4369 101.344 57.6619C100.288 58.0446 99.2003 58.4418 98.2423 58.4323C98.0014 58.4299 97.7738 58.4015 97.5685 58.3453C96.3984 58.0355 95.4335 57.1461 94.5317 55.5561C94.0756 54.7454 93.5816 53.9409 93.1044 53.1694C92.8574 52.7639 92.6077 52.3584 92.362 51.9496L91.8941 51.17L91.2323 51.6844C90.2764 52.427 89.3186 53.2892 88.3924 54.1238C87.9786 54.4982 87.5687 54.8677 87.1641 55.2225C85.2555 56.8912 83.6662 58.8809 82.2317 60.7821C80.8735 62.5807 79.5086 64.4252 78.1911 66.2095C76.4958 68.5046 74.7426 70.8745 72.9897 73.1657C71.0277 75.7301 68.8425 78.1071 66.7258 80.4029C65.5556 81.6759 64.3421 82.9943 63.1743 84.3361C61.4857 86.2757 59.7136 88.1751 58.0018 90.0096C56.5912 91.5177 55.1359 93.0795 53.7302 94.6582C49.9997 98.8468 46.4053 103.337 42.9294 107.678C40.11 111.203 37.1906 114.847 34.2275 118.296C30.8922 122.179 27.5321 125.736 24.2404 128.867C22.7333 130.299 20.9424 131.965 19.0528 133.457C18.1756 134.151 17.2986 134.813 16.4832 135.424C16.3795 135.5 16.2431 135.587 16.0908 135.684C15.7338 135.918 15.3178 136.184 14.967 136.51L14.8966 136.446Z" fill="#2B2B2A"/>
<path d="M99.9443 47.356C99.6318 48.5457 98.3703 49.1165 97.5086 49.5422C96.3768 50.1011 95.1998 50.8169 93.9627 50.5409C93.7483 50.4912 93.7199 50.0813 93.9309 50.0048C95.1356 49.5645 96.3224 48.9996 97.4625 48.3489C98.1959 47.9269 98.9347 47.151 99.7363 47.0181C99.8921 46.9934 99.9908 47.1828 99.9443 47.356ZM95.1961 45.351C94.3897 45.3938 93.6168 45.8629 92.8616 46.188C92.4604 46.361 91.8972 46.4439 91.5478 46.737C91.251 46.988 91.4739 47.5309 91.8097 47.3573C92.0327 47.2399 92.3869 47.3532 92.6306 47.3015C92.8637 47.2531 93.1091 47.1146 93.3319 47.0431C94.0435 46.8175 94.8081 46.4449 95.3448 45.8063C95.4763 45.652 95.382 45.3414 95.1961 45.351ZM108.253 24.9095C107.277 25.9288 106.62 27.3527 105.727 28.5022C104.04 30.681 102.598 33.1293 100.824 35.209C99.4248 36.8532 97.7358 37.9375 96.2259 39.3808C95.3271 40.2386 94.3915 40.8389 93.345 41.3217C92.9804 41.4868 90.5735 42.1052 90.4232 41.7302C90.3519 41.5558 90.2056 41.5068 90.0729 41.6087C90.0283 41.6427 89.985 41.6767 89.9403 41.7106C89.746 41.8644 89.7338 42.2755 89.9216 42.4461C92.6666 44.9081 96.6451 40.5663 98.8416 38.9398C100.915 37.4054 102.598 34.9267 104.154 32.6565C105.775 30.2935 107.607 28.1456 108.542 25.204C108.608 24.995 108.406 24.7472 108.253 24.9095ZM101.473 40.2881C100.65 40.5356 99.9715 41.3988 99.252 41.9275C98.9895 42.1215 99.1927 42.656 99.4658 42.4654C100.196 41.9532 101.032 41.3651 101.62 40.6107C101.713 40.4887 101.604 40.2485 101.473 40.2881ZM103.254 44.2512C102.84 44.3454 102.565 44.7834 102.292 45.1428C102.146 45.3413 101.975 45.6672 101.757 45.7421C101.563 45.8074 101.593 46.1206 101.782 46.1618C102.127 46.234 102.392 46.1105 102.663 45.8379C102.994 45.502 103.405 45.0752 103.483 44.5255C103.506 44.3635 103.373 44.2262 103.254 44.2512ZM102.647 50.8875C101.746 51.3849 100.922 52.0583 100.04 52.6017C99.4159 52.9838 98.7497 53.2935 98.0941 53.5786C97.3808 53.8927 96.6167 53.8179 95.9046 54.1467C95.6856 54.2478 95.7583 54.722 95.9913 54.7145C98.4287 54.6486 101.261 53.7902 102.899 51.3324C103.041 51.1241 102.858 50.7684 102.647 50.8875ZM103.436 54.6982C102.863 54.7368 102.353 55.2642 101.871 55.6183C101.228 56.0887 100.542 56.308 99.8667 56.6617C99.7316 56.7341 99.7462 56.9882 99.8795 57.0469C100.597 57.3653 101.415 56.9753 102.068 56.5984C102.643 56.2649 103.349 55.859 103.688 55.1628C103.794 54.9459 103.617 54.6869 103.436 54.6982ZM96.9148 19.2771C96.2574 18.1007 95.5856 16.2623 94.5072 15.6142C94.1873 15.4226 93.9142 15.9377 94.2129 16.2061C95.1022 17.0095 95.7088 18.7687 96.326 19.8693C97.0641 21.1727 97.614 22.7166 98.4283 23.9372C98.5363 24.0988 98.7943 24.0506 98.7692 23.7931C98.6032 22.1399 97.6593 20.6117 96.9148 19.2771ZM100.072 18.1877C99.9966 17.8347 100.084 17.498 99.9575 17.1462C99.8385 16.8173 99.697 16.5259 99.5215 16.2374C99.1692 15.6588 98.721 14.8286 98.1632 14.5806C97.881 14.4532 97.7169 14.8891 97.8768 15.1479C98.2643 15.7776 98.7629 16.4216 99.0768 17.1161C99.2649 17.5342 99.5856 18.1468 99.954 18.3324C100.034 18.3741 100.093 18.2764 100.072 18.1877ZM100.853 19.9421C100.698 19.5571 100.501 19.2209 100.213 18.9756C100.067 18.8512 99.819 19.0126 99.9135 19.2511C100.052 19.6113 100.1 20.0313 100.298 20.3511C100.55 20.7583 101.044 20.4175 100.853 19.9421ZM103.233 16.1103C103.044 15.748 102.76 15.4192 102.619 15.0245C102.429 14.5 101.834 14.3007 101.67 13.8092C101.553 13.4607 101.057 13.5655 101.079 13.9606C101.096 14.3016 101.156 14.471 101.356 14.7138C101.503 14.8971 101.673 15.0397 101.812 15.2361C101.898 15.3582 102.062 15.83 102.149 15.9882C102.498 16.629 102.809 17.8151 103.423 18.085C103.514 18.1252 103.643 18.097 103.677 17.9646C103.86 17.2832 103.527 16.6753 103.233 16.1103ZM105.118 12.4769C105.045 12.3107 105.011 12.1121 104.832 12.0841C104.662 12.0595 104.426 12.3308 104.554 12.5516C104.62 12.6669 104.663 12.9246 104.719 13.0677C104.776 13.2059 104.847 13.3311 104.924 13.4548C105.049 13.6526 105.217 13.864 105.434 13.8449C105.504 13.8357 105.593 13.7826 105.604 13.6844C105.657 13.2409 105.279 12.8488 105.118 12.4769ZM44.4257 12.1717C41.6785 11.5186 38.8845 11.0927 36.1157 10.5967C32.7936 10.0034 29.3401 9.2138 25.9722 9.58838C25.8137 9.60647 25.7745 9.91411 25.9432 9.94855C29.0425 10.6166 32.175 10.823 35.2561 11.4516C38.1398 12.0438 41.4678 13.1074 44.3826 12.8037C44.6654 12.7738 44.7199 12.2418 44.4257 12.1717ZM70.5092 16.5445C68.9904 15.7037 67.2979 15.7442 65.7084 15.2402C63.6104 14.5771 61.4887 14.5839 59.3578 14.2695C57.3669 13.9762 55.3675 13.5369 53.3902 13.1126C52.2159 12.8601 51.0376 12.9352 49.8561 12.8351C48.6406 12.7345 47.6029 12.3621 46.3665 12.5694C46.17 12.6019 46.2053 12.9267 46.3739 12.9742C48.4579 13.5585 50.4332 13.8173 52.5501 14.0267C54.7572 14.2485 56.9583 14.9863 59.1559 15.3178C61.0303 15.5969 62.9165 15.5648 64.7879 15.9536C66.6685 16.3442 68.5065 16.8835 70.4224 16.9647C70.5938 16.9697 70.6737 16.6363 70.5092 16.5445ZM75.0048 17.2543C74.7454 16.9994 74.3802 17.0023 74.0611 16.9549C73.5483 16.8778 73.024 16.7398 72.5067 16.8248C72.1923 16.8758 72.2228 17.425 72.5144 17.495C72.9733 17.6012 73.447 17.6435 73.9073 17.7382C74.2696 17.8106 74.6919 17.923 75.0058 17.6426C75.1083 17.5502 75.1 17.3503 75.0048 17.2543ZM35.0653 15.2051C34.9203 15.125 34.7903 14.9255 34.6135 14.9319C34.4185 14.9414 34.2443 14.961 34.0518 14.9869C33.6327 15.0451 33.0862 14.9004 32.669 14.8159C32.3473 14.7521 32.2845 15.3774 32.5759 15.4983C32.8699 15.6224 33.1624 15.7908 33.4497 15.9395C33.7619 16.0982 34.0443 16.1731 34.3622 16.214C34.3818 16.2305 34.3974 16.2471 34.4143 16.2636C34.5566 16.3748 34.7762 16.4311 34.9298 16.3113C34.9994 16.258 35.0664 16.2029 35.1373 16.1495C35.4144 15.9311 35.3565 15.362 35.0653 15.2051ZM68.3856 20.8195C65.948 19.6615 63.2589 19.5185 60.7063 18.9591C58.3799 18.4494 56.0024 18.2669 53.6656 17.7489C50.93 17.1434 48.1666 16.9014 45.4144 16.5038C42.7812 16.1221 40.0557 15.5921 37.4027 15.9017C37.0439 15.944 37.0766 16.5718 37.4035 16.6537C42.2073 17.8532 47.1882 18.0238 52.0606 18.7832C55.0664 19.2538 58.1899 19.4502 61.1625 20.0548C63.5034 20.5302 65.8728 21.0715 68.2234 21.4307C68.4994 21.4711 68.6769 20.9567 68.3856 20.8195ZM30.256 102.999C28.4172 104.216 26.8244 106.114 25.3718 107.959C25.2849 108.066 25.1981 108.169 25.1139 108.274C21.9585 110.126 19.0129 113.128 16.4644 116.017C15.9844 116.563 15.5749 117.16 15.1666 117.785C14.649 118.575 14.1575 119.057 13.5852 119.443C12.3225 119.363 10.3349 121.44 10.4559 122.88C10.4746 123.118 10.681 123.207 10.8345 123.128C10.9075 123.186 10.9859 123.228 11.0709 123.245C12.1236 123.465 13.3685 122.483 13.9625 121.268C14.1737 121.152 14.381 121.023 14.5715 120.861C15.3228 120.222 15.9676 119.371 16.6383 118.613C18.3609 116.667 20.3011 114.967 22.1577 113.233C23.6162 111.871 24.8923 110.602 26.1962 108.952C27.6435 107.125 29.4467 105.632 30.6112 103.499C30.7629 103.215 30.4988 102.837 30.256 102.999ZM20.4796 104.381C19.9227 104.848 19.384 105.344 18.8518 105.856C18.0452 106.559 17.2645 107.353 16.5164 108.171C15.5399 109.141 14.5491 110.088 13.4855 110.912C12.5953 111.599 11.8572 112.526 10.9396 113.18C9.83035 113.971 8.68474 114.692 7.76521 115.815C7.4153 116.24 7.34239 116.78 7.48973 117.234C7.48434 117.272 7.47632 117.314 7.47485 117.352C7.4661 117.57 7.59002 117.673 7.72742 117.68C7.79382 117.765 7.86942 117.842 7.95682 117.912C8.94319 118.674 10.5731 116.052 10.8267 115.168C10.8333 115.157 10.8281 115.145 10.8334 115.132C11.003 114.954 11.187 114.759 11.4025 114.556C12.7966 113.259 14.2842 112.116 15.6523 110.776C17.2188 109.245 19.3512 107.578 20.3693 105.406C20.3944 105.354 20.4025 105.295 20.4028 105.233C20.5134 105.05 20.6203 104.858 20.7231 104.666C20.83 104.457 20.6345 104.253 20.4796 104.381ZM11.7766 104.459C11.7258 104.403 11.6789 104.348 11.6294 104.294C11.5017 104.15 11.3079 104.154 11.1558 104.22C10.3376 104.581 9.78366 105.609 9.18127 106.319C8.21457 107.455 7.09769 108.509 6.37072 109.912C6.13588 110.365 6.65768 110.788 6.96365 110.546C8.09035 109.649 9.07624 108.304 10.0547 107.168C10.3914 106.777 10.7124 106.37 11.0113 105.937C11.2865 105.54 11.6748 105.333 11.8431 104.838C11.8789 104.725 11.8495 104.542 11.7766 104.459ZM34.4151 106.276C32.5251 107.227 31.0518 109.962 29.4721 111.545C27.3587 113.661 25.3871 115.981 23.275 118.112C21.3416 120.059 19.1144 121.524 17.0939 123.347C16.3831 123.989 13.5053 126.45 13.6217 127.725C13.6606 128.137 14.1427 128.037 14.1743 127.665C14.1578 127.867 15.4075 126.97 15.6312 126.69C16.4587 125.656 17.4573 124.734 18.411 123.89C20.4932 122.038 22.6497 120.563 24.6423 118.545C26.6717 116.49 28.5525 114.256 30.5766 112.208C32.0815 110.69 33.864 108.838 34.7369 106.649C34.8361 106.4 34.5896 106.188 34.4151 106.276ZM44.0421 97.3238C42.8545 97.4316 41.6452 99.0024 40.7358 99.8831C39.653 100.937 38.5245 101.94 37.4131 102.95C37.1766 103.164 37.3515 103.602 37.5922 103.632C37.5961 103.634 37.6 103.634 37.6066 103.634C37.617 103.634 37.6262 103.639 37.6366 103.639C38.649 103.8 39.4566 102.523 40.2861 101.979C41.1077 101.438 41.8125 100.646 42.5679 99.9717C43.1814 99.4223 43.9504 98.9401 44.3699 98.1381C44.5256 97.8398 44.3734 97.2943 44.0421 97.3238ZM21.5949 127.523C20.8724 127.522 20.3056 128.167 19.7447 128.671C18.8211 129.499 17.8386 130.34 16.8385 131.006C16.66 131.124 16.6832 131.539 16.9003 131.577C18.0107 131.78 18.878 131.258 19.8219 130.577C20.5413 130.055 21.8966 129.262 21.9291 128.04C21.934 127.808 21.8095 127.523 21.5949 127.523ZM187.278 9.91793C185.664 10.3181 184.222 10.9625 182.555 11.0229C180.822 11.086 179.116 11.3559 177.419 11.788C173.809 12.7025 170.123 13.1116 166.451 13.5045C162.98 13.8797 159.605 15.3634 156.182 16.1127C154.303 16.52 152.508 16.7202 150.615 16.9963C149.35 17.1788 147.221 17.197 146.225 18.2898C146.053 18.4781 146.11 18.9309 146.392 18.8796C149.352 18.3552 152.434 19.0116 155.363 18.0592C157.067 17.506 158.848 17.3417 160.558 16.8393C162.554 16.2529 164.509 15.6513 166.544 15.2176C170.247 14.4236 174.009 14.3593 177.68 13.2472C179.727 12.6268 181.845 12.5511 183.938 12.4195C185.224 12.3372 186.751 11.8412 187.599 10.588C187.812 10.2739 187.597 9.83917 187.278 9.91793ZM174.667 18.0786C171.518 18.4505 168.411 19.5289 165.329 20.3126C161.561 21.2698 157.748 21.7088 153.949 22.4183C153.675 22.4696 153.664 23.043 153.94 23.1014C157.491 23.8461 160.763 22.5858 164.263 21.993C166.089 21.685 167.843 21.1175 169.676 20.8489C171.245 20.6171 173.528 20.0367 174.873 18.9949C175.186 18.7506 175.074 18.0318 174.667 18.0786ZM180.652 17.0942C180.302 16.9089 179.991 17.0353 179.637 17.1563C179.023 17.3648 178.412 17.5488 177.801 17.7672C177.572 17.8518 177.554 18.2989 177.8 18.3702C178.426 18.5533 179.055 18.5055 179.682 18.3577C180.124 18.254 180.589 18.1308 180.795 17.5872C180.865 17.4109 180.798 17.1694 180.652 17.0942ZM168.999 25.4365C168.027 25.3793 167.059 25.7941 166.104 26.0042C165.136 26.2174 164.15 26.2797 163.181 26.5028C162.9 26.5672 162.907 27.1292 163.184 27.1959C164.946 27.6115 167.684 27.614 169.169 26.1886C169.422 25.9469 169.34 25.4579 168.999 25.4365ZM190.523 86.0519C190.676 86.1189 190.678 86.0845 190.532 85.9504C190.424 85.8149 190.298 85.7564 190.162 85.6747C190.01 85.5847 189.829 85.5436 189.688 85.4243C189.275 85.0875 188.9 84.7987 188.529 84.3772C188.111 83.9094 187.567 84.6331 187.932 85.1463C188.322 85.6942 188.733 86.2357 189.253 86.5898C189.427 86.7079 189.712 86.768 189.85 86.9398C190.033 87.1677 190.257 87.2846 190.517 87.243C190.728 87.2074 190.902 87.001 190.933 86.731C190.985 86.2727 190.719 86.2701 190.523 86.0519ZM212.06 103.799C211.236 102.693 210.23 102.088 209.231 101.285C207.557 99.9413 206.115 97.9903 204.387 96.7869C202.617 95.5569 201.061 93.921 199.284 92.7254C197.388 91.4482 194.483 90.2463 193.155 87.9819C192.914 87.5649 192.422 88.0369 192.585 88.4694C193.845 91.7981 198.142 93.5071 200.485 95.385C202.422 96.9395 204.346 98.5446 206.209 100.233C207.997 101.85 210.067 102.673 211.932 104.04C212.054 104.13 212.142 103.911 212.06 103.799ZM210.19 109.452C206.615 107.149 203.346 104.192 199.812 101.842C197.911 100.576 196.085 99.6096 194.372 97.9279C192.723 96.3108 190.651 94.778 188.747 93.7023C188.341 93.4721 188.127 94.2106 188.487 94.4747C190.724 96.1353 192.917 98.192 194.98 100.175C196.638 101.77 198.704 102.5 200.468 103.87C202.228 105.236 203.882 106.708 205.735 107.876C207.115 108.747 208.506 110.571 210.103 110.092C210.326 110.026 210.419 109.601 210.19 109.452ZM207.003 115.772C206.82 114.91 206.336 114.398 205.747 113.962C203.963 112.637 202.209 111.269 200.423 109.941C198.73 108.679 196.828 107.998 195.174 106.602C193.613 105.284 191.898 104.123 190.202 103.105C189.865 102.902 189.614 103.507 189.934 103.745C191.535 104.937 193.121 106.239 194.668 107.537C196.18 108.807 197.779 109.693 199.409 110.709C200.817 111.586 202.147 112.594 203.442 113.732C204.219 114.412 205.223 114.653 205.933 115.455C206.26 115.823 206.38 115.931 206.789 116.073C206.934 116.123 207.036 115.928 207.003 115.772ZM215.843 97.5051C215.644 97.0214 215.492 96.9118 215.094 96.6653C213.955 95.9577 212.842 94.9734 211.626 94.4551C209.951 93.747 208.257 92.5751 206.715 91.485C205.045 90.3018 203.218 89.612 201.541 88.3747C201.306 88.2003 201.055 88.5468 201.225 88.8188C201.977 89.9912 202.911 90.6772 203.965 91.3807C205.377 92.3254 206.882 93.1939 208.335 94.1013C209.782 95.0037 211.343 95.7139 212.712 96.763C212.898 96.9074 213.23 97.0909 213.581 97.3123C213.787 97.6486 213.908 98.1331 214.029 98.48C214.302 99.2528 213.945 100.391 214.411 101.01C214.62 101.291 214.906 101.289 215.114 101.012C215.187 100.915 215.238 100.797 215.278 100.672C215.392 100.637 215.501 100.595 215.612 100.544C215.86 100.425 215.943 100.128 215.901 99.8503C216.13 99.1218 216.106 98.1549 215.843 97.5051Z" fill="#2B2B2A"/>
<path d="M104.404 16.9921C104.909 18.0816 105.444 19.1288 105.913 20.2425C106.219 20.9696 106.18 21.8161 106.47 22.5497C106.89 23.6137 108.218 22.8373 107.801 21.7716C107.425 20.8194 107.373 19.7606 106.958 18.7818C106.466 17.6056 105.933 16.429 105.315 15.3449C104.614 14.1142 103.735 11.8956 102.539 10.9025C102.076 11.0765 101.608 11.2389 101.143 11.3817C102.405 12.9571 103.514 15.0748 104.404 16.9921Z" fill="#2B2B2A"/>
<path d="M113.572 20.1958C112.202 16.6185 111.49 21.2369 111.562 23.1398C111.567 23.2365 111.571 23.3349 111.574 23.4349C110.955 24.2267 110.636 25.2017 110.178 26.1556C109.492 27.5743 108.511 28.718 107.603 29.9035C105.799 32.2581 103.82 34.3308 101.987 36.6507C100.494 38.5414 98.6311 40.2417 96.8711 41.7251C94.5463 43.6846 92.0271 44.2347 89.3006 44.2568C89.21 43.0566 89.3739 41.7196 88.9131 40.7794C87.6849 40.8918 86.4304 41.366 85.103 41.0923C83.3009 40.7205 81.4262 40.1875 79.5955 39.7679C77.7439 39.3465 75.3843 38.6529 73.3959 39.0068C73.4718 39.0157 73.5437 39.0296 73.6157 39.0352L75.6554 39.2291L73.895 41.145C73.7464 41.3074 73.6031 41.4665 73.4637 41.6093C72.6303 42.476 71.7644 43.2981 70.8933 44.0989C71.7443 44.3777 72.6316 44.3832 73.5238 44.4953C73.214 44.7347 72.8987 45.0019 72.6343 45.3221C72.5897 45.3626 72.5476 45.4031 72.5095 45.4437C71.8864 46.0815 71.1474 46.6034 70.4175 47.1221C70.1004 47.2189 69.7982 47.5026 69.5498 47.7443C69.5419 47.754 69.534 47.7654 69.5235 47.7735C69.3568 47.9013 69.1913 48.0324 69.035 48.1652C67.2671 49.6583 65.7621 51.1999 64.1529 52.9437C60.5373 56.8631 56.3576 59.8446 52.7459 63.7722C49.2289 67.6009 45.6617 71.5453 42.3112 75.6247C42.2311 75.7009 42.147 75.7803 42.0708 75.8533C41.4663 76.4306 41.0814 77.0936 40.5877 77.7785C39.3164 79.1521 38.1578 80.8102 37.0121 82.1735C36.6265 82.3696 36.3078 82.8465 35.982 83.1414C35.7048 83.3959 35.4118 83.6699 35.1226 83.9587C34.4332 84.5008 33.7205 84.9918 33.0114 85.5517C31.626 86.6504 30.4667 88.1578 29.1294 89.3259C26.7111 91.4352 24.4983 94.179 22.3387 96.7005C21.2063 98.0246 19.7584 98.7361 18.5572 99.9333C18.4008 100.096 18.2326 100.255 18.0618 100.417C16.475 101.151 14.907 103.048 13.7467 104.48C12.4456 106.091 11.3035 107.849 10.0689 109.537C9.05927 110.918 7.29917 111.792 6.55235 113.564C6.36994 113.998 6.66338 114.571 7.07274 114.331L7.21182 114.249C7.24855 114.228 7.27483 114.204 7.29981 114.178C7.30367 114.193 7.36807 114.128 7.57432 113.945C8.54765 114.059 9.47305 113.415 10.3314 112.851C10.9272 112.459 12.4405 111.127 12.5859 110.152C13.8991 108.784 15.0954 107.207 16.3903 105.832C16.406 105.817 16.4218 105.801 16.4376 105.785C16.6422 105.68 16.8403 105.556 17.0046 105.408C17.3238 105.125 17.6538 105.081 17.9589 104.726C18.2562 104.377 18.4823 104.137 18.8433 103.882C19.069 103.723 19.1603 103.485 19.1587 103.244C20.6561 101.974 22.2028 100.785 23.6676 99.4663C25.7289 97.6041 27.5417 96.0213 29.3272 93.7386C31.2812 91.2364 33.6608 89.32 35.7747 87.0783C35.847 86.9987 35.8867 86.886 35.9042 86.76C36.1828 86.4957 36.4601 86.2281 36.7321 85.9572C37.5233 85.1737 38.0935 84.0078 38.7557 83.0739C39.0257 82.6899 39.3086 82.3142 39.5863 81.9369C40.8908 80.4752 42.1695 78.8985 43.1646 77.2208C43.3646 76.9705 43.5671 76.7218 43.771 76.4731C44.2914 75.9753 44.7727 75.4262 45.2424 74.8427C45.3187 74.7484 45.3702 74.6473 45.4059 74.5477C46.3396 73.4822 47.2876 72.4298 48.2435 71.3907C49.1642 70.9181 49.799 70.292 50.5213 69.3947C51.3803 68.33 52.3502 67.6875 53.0257 66.4064C53.1114 66.2483 53.1513 66.0996 53.1597 65.9703C53.4135 65.6811 53.6699 65.3953 53.9185 65.1012C54.2696 64.6852 54.6456 64.2908 55.0241 63.9062C55.177 63.9749 55.355 63.9669 55.5034 63.8422C56.6304 62.8834 58.0118 62.4268 58.9791 61.1617C59.1936 60.8787 59.2395 60.54 59.1792 60.2412C59.5771 59.9109 59.9725 59.5822 60.3613 59.2453C61.0995 58.6071 61.8077 57.9407 62.5055 57.2627C62.6705 57.2562 62.8228 57.143 62.8827 56.8962C63.1876 56.5879 63.4925 56.2796 63.7935 55.968C63.8224 55.9486 63.8513 55.9292 63.8749 55.9131C64.1992 55.6853 64.4792 55.3686 64.797 55.1292C65.116 54.8883 65.475 54.4756 65.6184 53.997C65.7617 53.8395 65.9024 53.6852 66.0457 53.5228C67.6408 51.7134 69.4285 50.1926 71.2499 48.7327C72.3517 47.8491 73.6895 46.5483 74.8611 45.8504C75.1761 45.6602 75.4531 45.4418 75.6859 45.1737C76.6799 45.6604 77.6728 46.1241 78.667 46.573C78.2575 46.8541 77.8597 47.1336 77.59 47.4619C76.0852 49.2853 74.5605 51.1495 72.789 52.5607C69.4693 55.2034 66.4799 58.3639 63.1811 61.0264C60.0779 63.5304 57.1881 66.043 54.6728 69.4342C52.0194 73.0175 49.5336 76.8842 46.4715 79.9079C43.5263 82.8165 40.9651 86.2597 38.1384 89.33C35.1591 92.5626 31.9986 95.6493 28.8959 98.6808C26.3793 101.137 24.1169 103.84 21.5235 106.181C18.0605 109.304 15.0547 113.265 11.8285 116.723C11.7526 116.714 11.6714 116.715 11.5837 116.734C11.095 116.842 10.7274 117.114 10.3215 117.464C9.82369 117.894 9.26641 118.141 8.72707 118.478C8.04732 118.906 7.57341 119.565 7.07866 120.2C6.72443 119.45 6.36233 118.704 5.96613 117.974C5.76868 117.612 5.48931 117.117 5.19584 116.549C5.19326 116.541 5.18806 116.531 5.18679 116.523C5.31534 116.454 5.43999 116.381 5.57506 116.317C5.80589 116.203 5.98229 115.959 6.05809 115.67C6.10197 115.501 6.0919 115.087 5.93654 114.99C5.41174 114.661 5.08563 114.708 4.73499 114.993C4.72599 114.954 4.71306 114.914 4.70407 114.873C4.11121 112.636 4.58221 111.413 5.59093 109.608C5.91267 109.033 5.64867 108.302 5.15821 108.214C4.26592 109.078 3.36169 109.984 2.45431 111.017C2.21178 112.383 2.55306 114.052 3.15986 115.764C3.46372 116.35 3.77946 116.912 4.05362 117.4C4.29141 117.822 4.511 118.21 4.69413 118.556C5.62658 120.332 6.48665 122.202 7.32081 124.009C8.05246 125.597 8.77117 127.153 9.52678 128.645C9.92968 129.337 10.3537 129.996 10.7717 130.499C10.7643 130.715 10.7858 130.899 10.8283 131.051C10.9076 131.188 10.9882 131.327 11.0701 131.462C11.2305 131.616 11.4396 131.693 11.6855 131.715C11.7558 131.811 11.8235 131.903 11.8925 131.999C11.836 132.054 11.7781 132.111 11.7203 132.166C11.673 132.213 11.6322 132.265 11.5967 132.317C11.9114 132.807 12.2393 133.287 12.5789 133.754C12.6157 133.727 12.6525 133.699 12.688 133.662C12.7839 133.568 12.8785 133.475 12.9745 133.38C13.08 133.497 13.1869 133.606 13.2925 133.711C13.661 134.16 14.0468 134.563 14.4931 134.871C14.4024 134.975 14.3468 135.13 14.3461 135.305C14.3558 135.476 14.3447 135.643 14.3165 135.81C14.3151 135.824 14.3164 135.839 14.3163 135.854C14.504 136.056 14.6995 136.254 14.8976 136.448L14.968 136.513C15.3189 136.187 15.7349 135.92 16.0918 135.686C16.2441 135.59 16.3806 135.502 16.4843 135.427C17.2996 134.815 18.1766 134.154 19.0538 133.46C19.1576 133.377 19.26 133.293 19.3637 133.21C19.3591 132.738 18.9409 132.28 18.5004 132.44C17.7913 132.692 17.0925 132.988 16.3782 133.215C15.9378 133.355 15.5283 133.312 15.1468 133.152C14.797 132.918 14.4514 132.605 14.1139 132.242C16.1667 130.223 18.3043 128.273 20.7207 126.944C24.2036 125.027 27.0793 120.875 29.8605 117.726C30.017 117.547 30.0794 117.33 30.0685 117.117C30.4483 116.759 30.7809 116.406 31.1194 115.894C32.3917 113.966 33.7985 112.119 35.4704 110.733C36.9663 109.499 38.326 107.638 39.6489 106.126C41.3243 104.211 43.3316 102.434 45.2073 100.819C47.9815 98.431 50.5254 95.7068 52.5798 92.3487C55.0268 88.3505 58.1996 84.8298 61.0557 81.301C62.1621 79.934 63.3022 78.6444 64.4072 77.2872C65.778 75.6034 67.3682 74.3641 68.8053 72.7825C71.7702 69.5202 74.9443 66.9629 77.5788 63.2173C78.7992 61.486 80.1514 59.8675 81.5282 58.3197C82.6512 57.0545 84.1675 56.265 85.3401 55.02C85.8305 54.5005 87.2297 53.2134 87.9183 51.9062C88.2092 52.4744 88.5207 53.1099 88.848 53.7178C89.6323 53.0144 90.4323 52.308 91.2333 51.6868L91.7585 51.2758C91.6382 50.9256 91.5166 50.5967 91.4169 50.3205C92.6054 50.306 93.7726 49.7491 94.8523 49.1437C97.1547 47.8607 99.2768 46.1695 101.377 44.4241C104.902 41.4901 108.604 38.576 111.28 34.4539C111.111 35.5893 110.872 36.6995 110.551 37.7564C109.005 40.9737 105.526 43.256 103.48 45.6214C102.852 46.3492 102.219 47.072 101.602 47.8179C100.759 48.8418 99.6819 49.19 98.6791 49.8518C97.1712 50.8445 95.2607 50.724 93.8702 51.8096C93.6666 51.9665 93.6294 52.4298 93.842 52.6056C95.2364 53.7565 97.0013 53.0007 98.4281 52.3283C100.462 51.367 102.063 50.0934 103.678 48.294C104.485 47.3943 105.3 46.5012 106.123 45.6181C106.062 45.8714 106.049 46.1646 106.117 46.5536C106.239 47.2806 106.549 47.3263 106.435 48.0936C106.36 48.5778 105.96 49.1981 105.714 49.5807C105.59 49.7761 105.451 49.9615 105.303 50.1452C105.299 50.1468 105.294 50.1484 105.289 50.1516C105.263 50.1612 105.24 50.1724 105.216 50.1853C105.204 50.1917 105.195 50.1998 105.184 50.2063C105.149 50.2272 105.112 50.2498 105.078 50.2806C105.033 50.3162 104.991 50.3551 104.953 50.3973C103.563 51.9598 102.381 53.036 100.543 53.742C98.828 54.3967 97.0197 56.1582 95.223 55.1147C94.9409 54.9529 94.5991 55.3362 94.6735 55.7007C94.685 55.7598 94.7018 55.8042 94.716 55.8584C95.0566 56.4189 95.4107 56.8877 95.7796 57.26C96.7937 57.6453 98.2139 56.986 99.1122 56.5541C101.259 55.5268 103.474 54.9048 105.147 53.0569C105.527 52.864 105.911 52.74 106.319 52.808C106.098 52.7714 106.796 53.7384 107.085 53.8281C107.591 53.9806 108.272 53.6253 108.768 53.4254C108.775 53.414 108.782 53.4042 108.793 53.3928L109.098 52.9879L109.492 53.0639C110.413 52.4881 110.812 51.6171 111.445 50.3355C114.288 44.5963 114.941 38.8878 114.931 32.2274C114.923 28.449 114.902 23.6612 113.572 20.1958ZM83.3548 54.3269C82.1442 55.2521 80.9505 56.2184 79.8919 57.4073C77.1424 60.4914 74.9556 64.2153 72.0174 67.0371C66.585 72.2656 61.3289 77.5762 56.6055 83.8489C54.1892 87.056 51.8851 90.356 49.5639 93.6673C48.3224 95.4343 46.6843 96.8648 45.1488 98.1932C43.7407 99.4113 42.4871 100.919 41.0776 102.144C39.7194 103.332 38.536 104.637 37.3052 106.029C35.71 107.839 33.921 109.377 32.3924 111.258C31.2623 112.651 30.2886 114.534 29.0586 115.729C28.5303 116.242 27.6253 117.027 27.2224 117.91C24.4665 120.642 21.8131 123.571 18.6844 125.595C18.4797 125.727 14.418 128.975 12.4258 129.953C12.2841 129.708 12.1463 129.478 12.0176 129.277C11.9734 129.208 11.9278 129.135 11.8836 129.068C11.6627 128.687 11.4574 128.326 11.2845 128.02C10.2503 126.168 8.99518 124.565 8.16832 122.576C8.8127 121.84 9.64323 121.35 10.3071 120.642C10.95 119.959 11.9024 119.109 12.3002 118.17C12.3386 118.073 12.3639 117.975 12.38 117.876C13.3167 117.336 14.2019 116.293 15.0309 115.538C16.798 113.923 18.4475 112.249 20.026 110.342C22.6266 107.203 25.7569 104.786 28.4368 101.768C31.3837 98.4499 34.7123 95.5517 37.7958 92.4168C40.8162 89.3451 43.5138 85.8508 46.4302 82.6208C47.8292 81.0699 49.4819 79.9001 50.7287 78.1347C52.1098 76.1773 53.2923 74.1197 54.8076 72.3012C56.4255 70.3609 57.7575 68.2343 59.6058 66.6011C61.2098 65.1833 62.8765 63.7859 64.526 62.4537C65.7381 61.4745 67.3493 60.1994 68.3989 58.9662C70.135 56.9206 72.1471 55.5626 74.1379 53.9733C75.6494 52.7677 77.0986 51.1141 78.3317 49.4927C78.9396 48.6943 79.8882 48.1614 80.6489 47.448C81.2721 47.7163 81.8967 47.983 82.5291 48.2498C82.0802 48.5501 81.6366 48.8406 81.2257 49.1511C80.0676 50.0294 78.9834 51.0918 78.0139 52.275C75.3277 55.5581 72.1176 57.9561 69.3119 60.9987C66.9126 63.5948 64.773 66.3394 62.6563 69.2676C60.5475 72.1812 57.6044 73.9592 55.5151 76.8894C53.2903 80.0099 51.3844 83.5432 48.9342 86.3928C46.4801 89.2472 44.0597 92.1774 41.599 95.0449C39.2988 97.7272 36.5504 99.8725 34.0044 102.164C32.7025 103.341 31.4983 104.938 30.4124 106.41C29.6951 107.384 29.061 108.469 28.371 109.475C28.2999 109.579 28.1957 109.768 28.077 109.995C26.6901 111.457 25.6511 113.305 24.1705 114.647C22.4416 116.214 20.7219 117.752 18.8424 119.019C17.5758 119.869 16.1859 120.8 15.165 122.078C14.0875 123.424 12.5174 123.906 11.5379 125.301C11.4697 125.343 11.4118 125.411 11.3774 125.499C11.3615 125.54 11.3444 125.578 11.3324 125.617C11.2068 125.933 11.4356 126.304 11.7054 126.266C13.1342 126.066 14.5526 125.206 15.6684 124.097C17.1299 122.643 18.6008 121.417 20.2572 120.305C23.7485 117.96 26.7781 114.892 29.1842 110.964C29.2343 110.884 29.2648 110.801 29.2873 110.721C29.4863 110.41 29.6786 110.117 29.8641 109.873C31.4761 107.769 32.959 105.562 34.8107 103.758C37.5414 101.103 40.5317 98.9961 43.0818 96.0394C45.5806 93.1411 48.0285 90.1965 50.5207 87.308C52.984 84.4537 54.8614 80.8562 57.1032 77.7293C59.1424 74.8806 62.1561 73.1376 64.2865 70.3701C65.2906 69.0643 66.2245 67.6154 67.0944 66.1707C68.2356 64.2797 70.3249 62.621 71.8722 61.301C74.6436 58.9363 77.2366 56.0521 79.6881 53.1878C81.1269 51.5096 83.2254 50.4752 84.8925 48.9892C85.4807 49.172 86.036 49.42 86.5602 49.8889C86.4435 50.2597 86.4875 50.6992 86.8213 51.0024C86.5736 50.7722 83.8984 53.9128 83.3548 54.3269ZM111.642 30.4367C111.514 30.5239 111.394 30.6538 111.304 30.8397C108.851 35.9274 104.812 38.794 101.077 42.1633C97.8454 45.0756 94.501 47.0414 90.903 48.9473C90.5169 47.9817 90.0732 47.0188 89.7135 46.0075C91.2809 46.4868 93.278 45.9118 94.6308 45.3976C97.3182 44.3756 99.2475 41.8273 101.501 39.9163C102.476 39.0887 103.281 37.9219 104.105 36.8831C105.265 35.4249 106.608 34.2355 107.747 32.7476C109.019 31.0874 110.636 29.2274 111.678 27.0979C111.693 28.2007 111.686 29.323 111.642 30.4367Z" fill="#2B2B2A"/>
<path d="M93.5345 13.1733C93.6118 14.1064 94.3874 14.5499 94.9666 15.0292C96.0154 15.8916 96.9118 17.1916 97.5424 18.5414C97.9303 19.3743 98.1273 20.4707 98.5849 21.2339C99.3636 22.5343 99.6508 24.6049 100.219 26.0639C100.845 27.6676 101.237 29.5082 102.185 30.8775C102.877 31.8773 103.803 30.2759 103.21 29.6392C101.678 26.5912 100.671 22.857 99.5852 19.5693C98.9427 17.6246 98.0625 16.197 96.9038 14.7043C96.2567 13.8754 95.4337 13.4871 94.6348 12.963C94.4383 12.9988 94.2379 13.0378 94.0427 13.0735C93.8738 13.1062 93.7035 13.1406 93.5345 13.1733Z" fill="#2B2B2A"/>
<path d="M108.117 23.637L107.3 24.8263C107.604 24.4165 107.876 24.0228 108.117 23.637Z" fill="#2B2B2A"/>
<path d="M105.151 11.3182C106.127 13.5247 107.633 15.4301 108.583 17.6461C109.63 20.0908 109.272 21.7746 108.118 23.634L108.48 23.1052C109.735 20.9388 111.597 18.5377 111.283 15.6677C111.129 14.2688 110.057 9.42557 108.948 8.19904C108.896 8.19688 108.841 8.18651 108.79 8.186C108.249 8.18064 107.715 8.28838 107.151 8.51377C106.715 8.79286 106.302 9.08691 106.066 9.20416C105.032 9.7083 104.561 9.98704 105.151 11.3182Z" fill="#2B2B2A"/>
<path d="M8.92254 10.9681C8.95094 12.3349 8.97654 13.7442 8.9747 15.1434C8.97117 16.3182 8.94534 17.5042 8.92489 18.6542C8.8759 21.0147 8.82789 23.4555 8.95817 25.826C9.14888 29.4129 9.3212 30.4747 11.8793 31.2947C11.6849 29.8673 11.8458 28.6204 12.3412 27.1998C13.0699 27.2775 13.8105 27.3307 14.5902 27.4302C15.6537 27.5637 16.8244 28.0635 17.8924 28.0823C18.874 28.0986 19.8267 28.1162 20.7701 28.509C22.3041 29.1468 24.0753 29.3807 25.6682 29.7028C27.5174 30.0751 29.5926 30.5593 31.4561 30.645C34.92 30.8055 38.3316 31.5881 41.7824 31.7682C45.3195 31.9523 48.9709 32.0246 52.4233 33.0878C55.4704 34.0273 58.8674 34.2167 61.9739 34.7079C63.8627 35.0051 65.8236 35.2835 67.7302 35.3761C69.5544 35.4646 71.3177 36.0507 73.159 36.0951C80.1817 36.2696 87.0337 38.1612 94.043 38.4076C93.1029 39.1291 91.8112 39.4095 90.9427 40.52C91.0236 40.5978 91.1017 40.6969 91.1694 40.7828L90.9555 40.9134C92.0255 40.1162 93.9047 40.5248 95.1349 39.9258C96.2693 39.3702 97.3686 38.4734 98.3614 37.6591C99.2295 36.9484 99.9295 36.0574 100.661 35.1193C101.436 34.1308 101.789 33.8787 101.311 32.4911C100.584 30.3801 99.3194 28.4768 98.4363 26.4756C96.6455 22.4125 95.409 15.6367 91.3901 13.9076C91.185 13.8187 90.8854 13.7879 90.5345 13.8024C90.4114 13.8307 90.2843 13.8573 90.1638 13.8856C89.3265 14.0968 88.7722 14.2585 88.1642 14.7522C88.0565 14.8445 87.9027 15.0068 87.7541 15.1626C87.5004 15.4305 87.2388 15.7064 86.9592 15.8953C86.929 15.9163 86.8659 15.9829 86.8094 16.0479C86.7694 16.2343 86.7607 16.4324 86.7939 16.6392C86.9648 17.7141 88.3022 17.4619 88.9247 17.5926C89.8401 17.7868 90.5553 17.9725 91.1803 18.7717C91.4902 19.1631 91.7761 19.646 92.0435 20.1877C88.9454 19.8703 85.8281 19.1365 82.7765 18.6573C79.7235 18.1813 76.5967 18.1815 73.5638 17.5943C70.1948 16.9481 66.6614 16.5068 63.2633 16.2453C59.8365 15.9869 56.4559 14.9899 53.0362 14.5825C49.7669 14.1961 46.4584 13.798 43.1858 13.2625C41.4946 12.9852 39.7677 13.0992 38.1399 12.3654C36.4951 11.6265 34.4138 12.2973 32.6854 11.8427C31.0145 11.4001 29.2219 11.5675 27.5307 11.282C25.4759 10.9356 23.3915 10.4725 21.3228 10.3226C18.8367 10.1439 16.3863 9.55109 13.9012 9.44453C13.4707 9.42551 13.0456 9.35084 12.6219 9.26472C12.4166 8.27141 12.0539 7.34045 11.5323 6.56192L11.404 6.56065C10.4433 6.55112 9.61468 6.58223 9.25156 7.0374C9.14629 7.17235 9.06434 7.36651 9.00573 7.61498C8.9934 8.06543 8.98761 8.51759 8.97399 8.96476C8.9343 9.06759 8.91681 9.18211 8.93855 9.30685C8.94357 9.35769 8.95123 9.40528 8.95756 9.45613C8.94559 9.82139 8.92969 10.1866 8.91509 10.5518C8.91714 10.6895 8.91918 10.8304 8.92254 10.9681ZM95.2326 35.8945C95.2211 36.1484 95.1888 36.3725 95.1487 36.5819C95.082 36.5615 95.0166 36.5445 94.9446 36.5438C92.6974 36.5215 90.4621 36.4535 88.232 36.0906C87.3334 35.9473 86.4275 35.668 85.5478 35.3873C84.8354 35.159 84.1338 35.483 83.4157 35.3645C79.8881 34.779 76.1875 34.2655 72.6238 34.1695C70.7733 34.1217 68.9983 33.5159 67.1414 33.4254C65.274 33.3331 63.2415 32.9689 61.3776 32.6784C57.9441 32.1365 54.5075 31.3635 51.0742 30.774C47.8213 30.2158 44.5618 30.0016 41.2746 29.8297C39.6533 29.7481 38.0619 29.3866 36.442 29.2608C34.4126 29.0998 32.2205 29.0387 30.2291 28.5569C28.2704 28.0836 26.2827 27.9722 24.3385 27.4515C22.7134 27.0143 21.0404 26.4521 19.3855 26.2375C17.3042 25.9711 15.2168 25.5981 13.1246 25.4348C13.033 25.429 12.9414 25.4281 12.8511 25.4223C13.0465 24.3838 13.1128 23.2228 13.1357 22.1154C13.6237 22.1677 14.1221 22.2169 14.6323 22.2826C16.7201 22.5556 18.7189 23.1636 20.8282 23.3058C22.8014 23.4401 24.7907 23.7973 26.7285 24.2687C28.533 24.711 30.3706 24.7063 32.1614 25.2795C33.9953 25.8678 36.0393 25.6751 37.9133 26.0722C39.476 26.4023 40.993 26.7139 42.5819 26.7296C46.2243 26.7657 49.8714 27.2672 53.4688 27.7518C57.316 28.2684 61.3487 28.8917 65.1004 30.0397C68.4848 31.076 72.1868 30.9604 75.645 31.5567C79.0665 32.146 82.584 32.0072 86.032 32.5477C87.6958 32.8116 89.4591 33.0535 91.1357 33.0816C92.3319 33.105 93.8882 33.0844 95.1737 33.3625C95.2422 34.2005 95.2728 35.0462 95.2326 35.8945ZM94.1938 27.2233C94.2644 27.5632 94.3285 27.8948 94.3887 28.2001C94.591 29.2835 94.796 30.3719 94.9564 31.4712C94.255 31.425 93.5572 31.4688 92.7996 31.4072C91.3289 31.2927 89.8669 30.9817 88.4031 30.7787C84.7953 30.2809 81.0869 29.7362 77.4589 29.7002C73.9264 29.6652 70.4461 28.7197 66.9222 28.4865C64.9254 28.3553 63.0003 27.3482 60.9816 27.1431C58.73 26.9127 56.5589 26.1833 54.2966 26.0167C52.6492 25.8939 51.0561 25.3128 49.4167 25.172C47.5731 25.0161 45.744 25.1815 43.8983 24.8977C42.2057 24.6385 40.4968 24.5134 38.8054 24.2771C36.9309 24.016 35.0576 23.768 33.1803 23.5397C29.5121 23.0937 25.8011 22.2229 22.1454 21.5968C19.1777 21.089 16.1391 20.9343 13.1514 20.5262C13.1519 20.3902 13.1525 20.251 13.153 20.1232C13.1613 18.7535 13.1303 17.3736 13.0797 15.9919C13.2421 15.9853 13.4031 15.9787 13.568 15.9689C15.0042 15.8782 16.4685 16.2925 17.8983 16.4788C21.187 16.903 24.4551 17.268 27.752 17.6153C29.4436 17.7942 31.1433 18.2387 32.8333 18.5078C34.8267 18.8225 36.8228 19.129 38.8134 19.4994C40.7595 19.8595 42.7017 20.1966 44.6544 20.5666C46.6423 20.9418 48.6984 20.9622 50.6573 21.4126C51.3856 21.5787 52.153 21.4979 52.8859 21.5051C53.9133 21.5153 54.8679 22.0507 55.8809 22.0706C57.5181 22.0999 59.1045 22.7465 60.7146 23.0115C62.5405 23.3147 64.4024 23.4691 66.2326 23.6954C68.2341 23.938 70.3308 24.606 72.3084 24.6256C76.0124 24.6591 79.6943 25.9212 83.3899 26.061C87.0712 26.2024 90.5259 27.3295 94.1938 27.2233ZM18.9951 12.0363C20.8954 12.3992 22.7755 12.2753 24.6884 12.7547C26.5071 13.2085 28.412 13.0865 30.2459 13.3587C33.8915 13.8978 37.5145 14.2188 41.145 14.9184C42.9943 15.2776 44.9334 15.4131 46.7991 15.5955C48.4634 15.7561 50.5066 15.7322 52.1184 16.2233C55.461 17.2428 59.082 17.3918 62.4919 17.9695C66.1018 18.5771 69.7659 18.7577 73.3718 19.4013C76.5932 19.9788 79.8691 20.0343 83.0986 20.5349C86.3006 21.0352 89.5684 21.7967 92.8172 22.0551C93.1937 23.1238 93.5136 24.2739 93.78 25.371C92.6558 25.3435 91.526 25.3815 90.4007 25.3031C88.506 25.1729 86.6674 24.4534 84.7716 24.2773C81.15 23.9432 77.5239 23.4485 73.9286 22.7673C72.5031 22.4943 70.8978 22.3293 69.4521 22.1839C67.4857 21.9858 65.5237 21.6468 63.5588 21.4111C60.3013 21.0167 56.8632 20.6336 53.6973 19.6207C52.8568 19.3535 51.7339 19.6553 50.8679 19.5255C50.1681 19.4186 49.5311 19.314 48.8218 19.307C46.8926 19.2878 44.7311 18.7749 42.8514 18.1828C41.8815 17.8766 40.7815 18.0017 39.79 17.8542C38.8704 17.7189 37.9332 17.4131 37.0098 17.2499C35.2808 16.9477 33.5374 16.606 31.7933 16.474C30.0674 16.3455 28.3879 15.7635 26.6504 15.5956C25.0255 15.4369 23.4167 15.1654 21.7984 14.9724C18.8523 14.6253 15.9292 14.3915 13.0021 14.1986C12.9514 13.1479 12.8929 12.0987 12.8305 11.0544C14.8191 11.5705 16.985 11.6526 18.9951 12.0363Z" fill="#2B2B2A"/>
<path d="M97.5231 12.3571C97.4788 12.627 97.5666 12.9325 97.8083 13.0185C99.2591 13.8536 101.012 17.6044 101.657 19.2883C102.662 21.9177 103.481 24.7173 104.444 27.3856C104.821 28.4313 106.183 27.9058 105.81 26.834C104.755 23.7913 103.999 20.3141 102.572 17.5085C101.812 16.0135 100.38 12.7688 98.7338 12.0546C98.6053 12.0893 98.4691 12.124 98.342 12.1572L98.1939 12.195C97.9699 12.2518 97.7458 12.3036 97.5231 12.3571Z" fill="#2B2B2A"/>
<path d="M116.989 21.7188C116.644 20.0671 116.287 18.3972 115.892 16.7614C115.468 15.0237 115.058 12.5996 114.066 11.3183C113.603 10.719 112.692 11.4997 113.108 12.2051C113.576 13.0043 113.645 14.3748 113.932 15.3066C114.379 16.7529 114.701 18.157 115.033 19.6513C115.823 23.2261 116.607 26.7942 117.144 30.4369C118.276 38.1047 116.371 46.5583 112.339 52.484C111.978 53.0113 112.582 53.7202 113.009 53.3246C117.517 49.1568 119.059 40.3965 119.052 33.7262C119.05 29.7513 117.781 25.5033 116.989 21.7188Z" fill="#2B2B2A"/>
<path d="M120.461 21.5399C120.157 19.5331 120.002 17.2803 119.276 15.42C118.955 14.5992 118.255 13.3225 118.205 12.4175C118.149 11.3995 116.893 11.3674 116.928 12.4049C117.002 14.5618 118.335 16.8738 118.663 19.0251C119.322 23.349 119.793 27.6022 119.711 32.017C119.576 39.3036 118.786 46.3969 115.238 52.2913C114.85 52.9363 115.532 53.8819 116.051 53.3332C120.706 48.4066 120.979 39.3503 121.161 32.2297C121.255 28.644 120.997 25.0499 120.461 21.5399Z" fill="#2B2B2A"/>
<path d="M123.992 22.9558C123.852 21.5961 123.516 19.9773 123.115 18.6969C122.8 17.6943 122.073 15.9028 122.037 14.8457C122.008 13.9098 120.737 13.9628 120.726 14.89C120.716 15.7878 121.096 16.6272 121.326 17.4602C121.717 18.8846 121.993 20.3521 122.258 21.8163C122.893 25.3108 122.719 28.6975 122.688 32.251C122.652 36.3959 121.606 39.946 120.961 43.9292C120.452 47.0668 119.267 50.1255 117.801 52.7374C117.52 53.2409 118.044 53.7688 118.413 53.4316C120.503 51.5321 121.597 48.2496 122.283 45.2105C123.137 41.4325 124.004 37.6661 124.157 33.7107C124.299 30.0862 124.359 26.5673 123.992 22.9558Z" fill="#2B2B2A"/>
<path d="M213.038 100.31C210.435 97.9955 208.024 95.3664 205.374 93.1233C202.506 90.6912 199.601 88.6045 196.573 86.51C193.729 84.5402 191.116 82.3597 188.378 80.1928C185.437 77.8665 183.052 74.7576 180.303 72.1203C177.794 69.7147 174.933 68.0741 172.294 65.9425C169.321 63.5356 166.46 60.943 163.703 58.1614C161.288 55.724 158.981 53.2861 156.32 51.2427C155.125 50.3297 153.92 49.4429 152.691 48.6065C152.065 48.1809 151.303 47.708 150.576 47.1535C151.482 46.8905 152.248 46.3787 153.052 45.6576C152.769 45.4156 152.48 45.1636 152.178 44.8985C152.173 44.8952 152.168 44.8902 152.164 44.8853C151.697 44.4743 151.208 44.0369 150.688 43.5598L150.644 43.5266L149.848 42.8355C149.348 42.5651 148.853 42.4717 148.19 42.4127C146.782 42.2923 145.508 41.7209 144.07 41.7083C142.569 41.6934 141.157 41.3271 139.688 41.1242C137.843 40.8699 135.878 41.052 134.004 41.0678C134.222 40.8897 134.309 40.6727 134.159 40.409C134.118 40.3365 134.068 40.2721 134.016 40.2143C135.726 40.0133 137.437 39.7649 139.172 39.6756C142.769 39.4868 146.635 39.1859 150.188 38.4576C153.545 37.7733 156.949 37.9692 160.305 37.221C162.29 36.7786 164.052 35.3903 165.953 34.6439C168.096 33.8083 170.247 33.9639 172.453 33.7384C174.149 33.5701 175.994 33.4081 177.645 32.8937C179.09 32.4443 180.662 32.763 182.112 32.3284C185.498 31.3183 189.209 30.6686 192.694 30.364C194.079 30.2417 195.541 29.8138 196.857 29.2714C198.787 28.4746 200.75 28.209 202.763 27.8668C204.357 27.5992 205.496 27.1239 207.019 26.5311C207.677 26.2738 208.443 26.1569 209.141 25.9C209.162 26.4 209.19 26.8967 209.224 27.3935C210.124 26.7454 210.712 25.914 210.961 24.4795C211.156 23.3607 211.107 22.0773 211.064 20.8333C211.044 20.299 211.025 19.7712 211.024 19.2534C211.022 18.4686 211.022 17.6788 211.023 16.8924C211.026 15.3719 211.029 13.8007 210.996 12.2618C210.988 11.8833 210.984 11.4851 210.981 11.0754C210.962 9.35157 210.935 7.34746 210.602 5.6336C210.581 5.64158 210.557 5.64462 210.536 5.65425C210.519 5.53938 210.502 5.42124 210.48 5.3047C210.289 4.3017 208.649 1.89492 207.976 3.74299C207.579 4.84174 207.737 6.27368 207.859 7.63155C204.013 8.09642 200.141 9.31472 196.381 10.3162C194.02 10.9417 191.663 11.4786 189.286 12.0121C187.482 12.417 185.75 13.0814 183.983 13.6259C183.781 13.4469 183.517 13.405 183.263 13.6302C182.767 14.0759 181.461 13.9581 180.883 13.9523C180.027 13.9438 179.477 14.3365 178.62 14.4657C176.726 14.7598 174.475 15.0439 172.683 15.8061C170.57 16.7027 168.29 16.2393 166.228 17.3396C164.184 18.4335 161.594 18.3897 159.415 19.0022C158.242 19.3281 157.052 19.2917 155.86 19.3356C154.734 19.3785 153.566 19.829 152.452 20.049C149.963 20.5453 147.524 21.0848 145.001 21.2777C142.542 21.4647 140.255 21.9352 137.827 22.3715C137.064 22.5114 136.245 22.4705 135.44 22.4298C135.459 22.3923 135.481 22.3548 135.491 22.3139C135.717 21.2954 132.357 21.4751 131.787 21.3367C130.14 20.9255 130.158 20.3735 130.097 18.6689C129.363 18.6518 128.63 18.6003 127.917 18.549L127.502 18.5154C126.915 18.4735 126.465 18.3495 126.086 18.1491C126.043 18.1749 126 18.1925 125.959 18.2199C127.039 20.8587 126.927 24.7293 127.429 27.6508C127.831 30.0158 127.756 32.4973 127.664 34.9148C127.579 37.1062 127.508 40.0957 126.798 42.1679C126.727 42.2474 126.663 42.3418 126.599 42.4362C126.62 42.3562 126.643 42.281 126.664 42.2026C127.131 40.3574 127.045 38.4248 127.051 36.516C127.061 33.9683 127.121 31.3752 126.737 28.8646C126.73 28.8088 126.708 28.761 126.69 28.7133C126.654 27.761 126.61 26.8037 126.588 25.8188C126.557 24.2833 125.843 22.5656 125.447 21.1231C124.964 19.3717 124.461 17.4203 124.304 15.5754C124.235 14.7637 123.169 14.7302 123.144 15.5705C123.076 17.8112 123.945 20.4004 124.516 22.5C125.519 26.1834 125.64 30.1661 125.147 33.9887C124.703 37.4496 124.203 40.7855 123.452 44.168C123.128 45.6214 122.798 47.0813 122.348 48.4793C121.897 49.8659 121.022 50.9141 120.463 52.216C120.27 52.663 120.751 52.984 121.03 52.7705C121.225 52.6233 121.406 52.4646 121.577 52.3008C121.727 52.453 121.955 52.3799 122.051 52.1433C122.037 52.1808 122.192 52.0709 122.394 51.9189C123.676 51.4925 124.51 49.6657 125.225 48.3735C125.34 48.1698 125.473 47.9582 125.608 47.7465L126.183 48.3781C127.012 49.2875 127.928 50.0388 128.894 50.8348C129.032 50.9509 129.177 51.0703 129.319 51.1897C129.549 50.82 129.485 50.028 129.801 49.3594C130.361 49.9187 130.893 50.5482 131.409 51.0596C133.315 52.9497 135.554 54.512 137.352 56.5566C138.765 58.1649 140.431 59.3005 141.811 60.9641C143.296 62.7565 145.17 64.0695 146.905 65.4483C150.772 68.5292 154.097 72.193 157.548 75.9466C160.89 79.5811 164.608 82.5491 168.17 85.8253C171.409 88.8034 173.863 92.7994 176.787 96.2052C178.266 97.9255 179.972 99.2926 181.452 101.044C182.818 102.662 185.229 103.556 186.851 104.543C190.5 106.77 193.459 110.089 196.963 112.57C198.616 113.742 200.328 115.127 201.893 116.484C203.37 117.769 205.015 118.598 206.524 119.766C206.687 119.891 206.851 119.901 206.995 119.835C207.16 119.556 207.314 119.255 207.462 118.942C207.454 118.751 207.385 118.569 207.239 118.431C206.191 117.43 204.927 116.749 203.775 115.931C202.034 114.697 200.451 113.103 198.751 111.79C195.127 108.992 191.838 105.374 187.944 103.158C186.041 102.073 183.545 100.983 182.027 99.1819C180.536 97.4074 178.824 96.0419 177.333 94.2986C174.175 90.6102 171.493 86.6382 168.022 83.3563C164.426 79.9569 160.709 76.8971 157.292 73.1816C156.444 72.2589 155.597 71.3379 154.75 70.4152C154.029 69.6315 153.357 68.3501 152.467 67.8513C150.55 66.7821 148.745 64.6948 146.954 63.2712C144.954 61.6768 143.267 59.7955 141.396 58.0304C140.851 57.5154 140.225 57.1176 139.637 56.6874C138.755 56.0413 138.152 54.8868 137.273 54.1915C135.547 52.8309 133.967 51.1751 132.285 49.7363C131.82 49.3417 131.359 48.8505 130.883 48.3952C131.901 47.9514 133.303 47.8638 134.438 47.7767C135.074 48.8693 136.092 49.7265 136.877 50.5027C138.916 52.5153 140.838 54.453 142.984 56.2979C146.061 58.9499 149.602 60.9922 152.545 63.8772C155.699 66.9609 158.653 70.4048 161.706 73.6645C163.009 75.0553 164.163 76.5709 165.57 77.794C167.316 79.3122 169.08 80.8059 170.787 82.3908C174.165 85.5309 177.574 88.8105 180.609 92.4485C183.401 95.7973 187.101 98 190.36 100.574C193.618 103.15 196.904 105.746 200.034 108.565C201.483 109.871 202.846 111.287 204.354 112.495C205.316 113.263 206.701 114.41 207.904 114.629C207.994 114.662 208.086 114.681 208.183 114.672C208.198 114.673 208.221 114.679 208.232 114.679C208.236 114.675 208.236 114.673 208.236 114.67C209.06 114.655 208.84 114.05 208.356 113.401C208.376 113.195 208.395 112.985 208.416 112.777C208.247 112.779 208.071 112.805 207.911 112.861C207.402 112.292 206.861 111.81 206.863 111.81C206.084 111.227 205.221 110.86 204.446 110.241C203.26 109.29 202.214 108.115 201.079 107.085C199.513 105.663 197.942 104.222 196.265 103.016C192.353 100.198 188.825 96.5065 184.746 93.9969C182.822 92.8145 181.313 90.563 179.776 88.7438C178.191 86.875 176.301 85.5373 174.621 83.815C171.323 80.4333 167.439 77.7126 164.356 74.0545C162.843 72.2568 161.211 70.6005 159.597 68.9494C157.979 67.2932 156.607 65.2807 154.879 63.802C153.532 62.6516 152.278 61.3841 150.92 60.2499C149.024 58.6713 147.058 57.2394 145.17 55.6445C143.307 54.0761 141.281 52.8681 139.534 51.0763C138.918 50.4459 138.38 49.7525 137.738 49.1595C137.238 48.6958 136.551 48.2122 135.938 47.6638C138.072 47.5621 140.264 47.9475 142.418 48.0606C143.07 48.6701 143.697 49.3153 144.377 49.8856C145.929 51.184 147.004 53.0592 148.322 54.6796C149.659 56.3248 151.346 57.5261 152.9 58.8195C154.493 60.1477 156.101 61.5416 157.821 62.5942C161.016 64.5428 164.389 66.8111 167.147 69.6059C168.553 71.0256 170.007 72.1837 171.304 73.7908C172.545 75.3268 173.916 76.7053 175.286 78.0575C178.056 80.7933 180.74 83.7495 183.708 86.1383C186.751 88.5902 189.982 90.6883 193.046 93.1125C195.853 95.3375 198.436 97.6946 201.124 100.151C203.974 102.762 207.187 104.55 209.785 107.618C210.452 108.408 211.477 107.065 210.9 106.209C210.71 105.927 210.518 105.643 210.33 105.361C210.211 105.183 210.076 105.101 209.943 105.082C207.75 102.684 205.128 100.935 202.665 99.026C201.167 97.8675 199.737 96.3951 198.379 94.9988C197.017 93.5942 195.457 92.6645 193.983 91.4817C190.733 88.8754 187.295 86.649 184.052 84.0445C180.918 81.5279 178.031 78.2731 175.127 75.3524C173.753 73.9691 172.495 72.4443 171.219 70.9226C169.826 69.267 168.09 67.9456 166.551 66.5033C163.705 63.8338 160.193 62.1737 157.144 59.8905C153.869 57.438 150.415 54.9215 147.847 51.3422C146.867 49.9792 145.746 49.0898 144.636 48.0204C146.016 47.8702 147.36 47.5296 148.747 47.3975C149.755 48.4578 151.028 49.2585 152.08 50.021C155.66 52.6191 158.992 55.4703 162.125 58.8536C164.898 61.8418 167.882 64.452 170.906 67.0134C173.846 69.5035 177.056 71.3606 179.881 74.0855C182.34 76.4611 184.418 79.3064 187.028 81.4361C189.769 83.667 192.365 85.8768 195.24 87.8289C198.247 89.8707 201.158 91.9051 203.993 94.3089C206.988 96.8438 209.718 99.8054 212.682 102.384C213.201 102.837 213.838 102.166 213.84 101.495L213.841 101.226C213.844 100.58 213.437 100.281 213.038 100.31ZM208.861 12.3357C208.868 12.5111 208.877 12.6865 208.882 12.8618C208.782 12.7986 208.675 12.7434 208.556 12.7046C208.662 12.5909 208.765 12.4691 208.861 12.3357ZM131.187 23.6738C132.355 24.1556 133.786 24.0617 134.898 24.0907C136.135 24.1226 137.378 24.23 138.608 24.0521C140.215 23.8157 141.746 23.246 143.375 23.1868C146.279 23.0828 149.048 22.6401 151.913 22.0884C154.48 21.5961 157.09 21.4615 159.632 20.8968C161.818 20.4106 164.14 20.232 166.239 19.3681C167.406 18.8865 168.444 18.479 169.677 18.4044C171.1 18.3152 172.339 17.7885 173.725 17.5073C175.807 17.0937 178.012 16.7666 180.035 16.033C181.301 15.572 183.137 16.321 184.14 15.0169C184.19 14.9518 184.227 14.8817 184.253 14.8066C185.534 14.7046 186.776 14.3204 188.088 14.1188C190.733 13.719 193.468 13.2464 196.044 12.4069C198.586 11.5751 201.255 11.0494 203.845 10.4804C205.172 10.1904 206.574 9.48502 207.939 9.54606C207.866 10.9249 207.343 11.9356 205.437 11.9413C205.207 11.9423 205.018 12.1091 204.899 12.339C203.457 12.5164 201.916 13.2253 200.707 13.6524C199.637 14.0301 198.597 14.5474 197.531 14.9399C197.244 15.0452 196.995 15.2197 196.757 15.4074C194.189 16.0275 191.577 16.326 189.056 17.1137C187.573 17.5741 185.951 17.9431 184.425 18.3228C182.848 18.7168 181.293 19.2028 179.718 19.6181C179.022 19.8012 178.399 19.605 177.727 19.7425C177.018 19.8846 176.095 20.4931 175.385 20.7056C173.936 21.1386 172.451 21.2435 170.976 21.4975C167.539 22.0894 164.105 22.904 160.709 23.8338C157.086 24.8301 153.496 25.1255 149.806 25.4067C146.85 25.6281 144.014 26.0014 141.04 26.0719C138.149 26.1432 135.193 26.471 132.293 26.9781C131.901 26.5678 130.626 26.9779 130.291 26.9025C130.1 25.6079 130.399 24.3214 131.187 23.6738ZM130.547 28.8974C131.339 28.8283 132.128 28.6673 132.941 28.6623C134.739 28.649 136.561 28.649 138.354 28.4259C141.536 28.0282 144.786 28.2882 147.938 27.687C151.535 26.9968 155.18 27.0493 158.791 26.3282C162.53 25.5837 166.24 24.5719 169.965 23.7715C171.279 23.4913 172.615 23.3931 173.931 23.1162C175.324 22.8269 177.033 21.7231 178.416 21.7401C179.887 21.7547 181.257 21.2325 182.67 20.7746C184.361 20.2245 186.084 20.0056 187.761 19.3439C188.983 18.8628 190.38 19.0242 191.631 18.6646C193.61 18.0977 195.618 17.8177 197.603 17.2574C199.293 16.7826 200.986 16.262 202.66 15.6953C203.992 15.2432 205.343 14.5209 206.714 14.3182C207.464 14.6353 208.148 15.0288 208.144 15.7038C208.142 16.0348 208.225 18.3425 208.184 18.352C207.299 18.5283 206.517 18.3125 205.637 18.6528C205.394 18.7454 205.267 19.0096 205.241 19.296C203.357 19.7476 201.485 20.427 199.615 20.8361C196.567 21.494 193.463 22.0875 190.38 22.8139C186.66 23.6897 183.177 25.6754 179.408 26.2917C175.835 26.8756 172.219 26.9103 168.668 27.7172C165.749 28.3797 162.976 29.5253 160.005 29.8842C158.032 30.1252 156.064 30.0106 154.094 30.1631C152.858 30.259 151.387 30.1772 150.192 30.5668C147.636 31.4 144.972 31.5194 142.397 32.3672C138.479 33.6555 134.603 33.2599 130.636 33.3631C130.481 33.1207 130.398 32.7496 130.359 32.1168C130.304 31.2003 130.234 29.7381 130.547 28.8974ZM130.533 38.7477C130.006 37.5939 130.395 35.9184 131.164 34.9953C134.332 35.3512 137.502 35.6824 140.683 34.9832C142.381 34.6085 143.926 33.739 145.675 33.6564C146.776 33.6051 148.132 33.3596 149.203 33.0213C152.402 32.0142 155.658 32.3529 158.938 31.9922C162.209 31.6346 165.287 30.8263 168.455 29.8811C172.022 28.8187 175.805 28.7498 179.45 28.3402C182.949 27.9489 186.143 26.0144 189.56 25.1865C191.34 24.7552 193.125 24.3616 194.921 23.9928C196.283 23.713 197.81 22.9302 199.162 22.9076C202.066 22.8593 204.87 21.5764 207.707 20.8295C208.471 21.1336 209.084 21.6493 209.083 22.8978C209.082 23.2058 209.087 23.5155 209.091 23.8236C207.96 24.4219 206.515 24.4911 205.382 25.0878C203.652 25.998 201.559 26.0018 199.704 26.3144C196.549 26.8467 193.65 28.1746 190.435 28.5049C187.309 28.8294 184.272 30.038 181.167 30.3906C177.669 30.7885 174.204 31.5651 170.687 31.8268C169.108 31.9439 167.65 31.972 166.104 32.445C164.188 33.0371 162.458 34.2963 160.572 35.0264C157.422 36.2453 153.967 35.5442 150.749 36.3152C147.3 37.1477 143.729 37.0337 140.249 37.6545C137.048 38.2241 133.777 38.467 130.533 38.7477Z" fill="#2B2B2A"/>
<path d="M87.6931 44.8773C87.2971 45.0487 87.0873 45.4447 86.8514 45.8568C86.7525 46.0262 86.6186 46.1133 86.512 46.2646C86.3448 46.494 86.1315 46.8096 85.8825 46.8809C85.6466 46.9506 85.6907 47.3803 85.9249 47.399C86.9127 47.4759 87.5437 46.4927 88.0958 45.6119C88.2921 45.2977 88.0091 44.7396 87.6931 44.8773Z" fill="#464644"/>
<path d="M85.3971 41.8046C85.0118 41.9302 84.6645 42.3461 84.3908 42.6956C84.2592 42.863 84.1538 43.0422 84.0496 43.2328C83.9388 43.4348 83.8982 43.7572 83.7328 43.8948C83.6106 43.9968 83.6687 44.1972 83.7915 44.2426C84.1235 44.3655 84.378 43.9044 84.5897 43.6723C84.8277 43.4109 85.063 43.1527 85.3075 42.9029C85.4915 42.7163 85.6507 42.5213 85.7395 42.2437C85.8191 41.9922 85.5871 41.7409 85.3971 41.8046Z" fill="#464644"/>
<path d="M113.093 20.8667C113.083 20.7405 112.935 20.6915 112.867 20.7744C112.615 21.0979 112.347 21.5621 112.224 21.9901C112.113 22.3756 112.056 22.7633 111.892 23.127C111.738 23.4662 112.125 23.7813 112.302 23.4571C112.514 23.0644 112.644 22.6266 112.768 22.1855C112.902 21.7036 113.137 21.4111 113.093 20.8667Z" fill="#464644"/>
<path d="M92.1524 48.5612C91.7179 48.3243 91.2478 48.4245 90.8179 48.6512C90.6128 48.7589 90.6704 49.1068 90.8471 49.2019C91.2398 49.4155 91.7076 49.5316 92.1112 49.3226C92.3597 49.1907 92.4391 48.7164 92.1524 48.5612Z" fill="#464644"/>
<path d="M12.9152 14.167C12.1867 13.7142 11.3331 13.768 10.534 13.6274C9.94802 13.5266 9.39715 13.4867 8.80797 13.5333C8.55003 13.5553 8.544 14.0647 8.80038 14.1033C9.52112 14.212 10.2323 14.4189 10.9463 14.5833C11.6066 14.734 12.2732 14.9634 12.9055 14.6207C13.0432 14.5484 13.0523 14.2536 12.9152 14.167Z" fill="#464644"/>
<path d="M76.7228 44.193C76.4835 43.8335 76.1917 43.4947 75.9313 43.1547C75.6163 42.7404 75.272 42.4323 74.8034 42.4456C74.4394 42.46 74.4149 43.0184 74.6707 43.1995C74.668 43.2044 74.6654 43.2093 74.6628 43.2126C75.3063 43.6399 75.5681 44.5779 76.2011 45.0249C76.6448 45.3356 77.022 44.6481 76.7228 44.193Z" fill="#464644"/>
<path d="M81.4282 46.7093C80.8736 45.3343 79.6865 44.3855 78.7862 43.3691C77.6919 42.141 76.8369 40.6222 75.7109 39.4364C75.5024 39.2165 75.1385 39.5372 75.3245 39.8339C76.1605 41.1724 76.9885 42.5878 77.96 43.7753C78.8872 44.91 79.9138 46.3912 81.0744 47.1252C81.2676 47.2434 81.5331 46.9675 81.4282 46.7093Z" fill="#464644"/>
<path d="M84.3431 46.4942C83.5031 45.1393 82.2288 44.3829 81.3296 43.1027C80.5476 41.9892 79.4503 41.1445 78.7168 39.997C78.553 39.7382 78.1659 39.9621 78.2418 40.2921C78.3845 40.9095 78.8868 41.3126 79.2226 41.7697C79.8187 42.5783 80.4648 43.3333 81.032 44.1712C81.5069 44.8754 82.1565 45.3962 82.7261 45.9703C83.258 46.5047 83.4995 46.9724 84.1932 46.9612C84.3765 46.9598 84.4406 46.6508 84.3431 46.4942Z" fill="#464644"/>
<path d="M86.9522 47.6601C86.4352 46.0659 85.1563 44.8295 84.1978 43.6569C83.6625 43.0012 83.013 42.4542 82.5041 41.7644C82.2568 41.4277 82.0456 41.2028 81.6807 41.1386C81.3381 41.0795 81.2101 41.6368 81.5038 41.8363C81.8497 42.074 82.3178 42.8126 82.5822 43.1412C83.0106 43.6713 83.4508 44.1983 83.8687 44.7463C84.3387 45.3603 84.8205 45.9631 85.297 46.5706C85.7332 47.127 86.0318 47.7083 86.5971 48.0579C86.7943 48.1794 87.0388 47.9247 86.9522 47.6601Z" fill="#464644"/>
<path d="M88.3759 46.9738C88.1764 46.1478 87.4865 45.5365 87.0179 44.9257C86.3786 44.097 85.7867 43.2213 85.2802 42.2612C85.0828 41.8923 84.6051 42.1857 84.7854 42.5839C85.2134 43.5416 85.7058 44.4393 86.2625 45.2868C86.7438 46.014 87.3348 47.0995 88.0784 47.382C88.2718 47.4544 88.4273 47.1906 88.3759 46.9738Z" fill="#464644"/>
<path d="M110.568 48.6593C110.166 48.0524 109.234 48.0121 108.651 47.7868C108.011 47.538 107.53 46.9746 106.872 46.8665C106.499 46.8055 106.448 47.4684 106.759 47.6271C106.994 47.749 107.158 47.9374 107.351 48.1359C107.642 48.4304 108.023 48.5783 108.36 48.757C108.973 49.0808 109.895 49.5503 110.529 49.1585C110.69 49.0569 110.661 48.8011 110.568 48.6593Z" fill="#464644"/>
<path d="M108.745 49.4055C108.417 49.2859 108.118 49.0749 107.786 48.9684C107.342 48.8198 107.17 49.6684 107.61 49.83C107.984 49.9664 109.027 50.8204 109.306 50.1253C109.488 49.6733 109.003 49.5031 108.745 49.4055Z" fill="#464644"/>
<path d="M112.003 46.2949C111.462 45.8816 110.817 45.8965 110.219 45.6383C109.368 45.2694 108.367 44.4093 107.421 44.413C107.137 44.4151 107.033 44.94 107.296 45.0949C108.193 45.6231 109.028 46.2883 109.956 46.7365C110.58 47.0376 111.312 47.3512 111.935 46.9478C112.118 46.8284 112.219 46.4576 112.003 46.2949Z" fill="#464644"/>
<path d="M112.98 44.1395C112.574 43.6227 111.939 43.6557 111.397 43.5062C110.674 43.3073 109.993 42.9041 109.356 42.4424C108.932 42.1368 108.512 42.8993 108.932 43.236C109.567 43.7485 110.228 44.1597 110.944 44.4666C111.539 44.7182 112.436 45.076 112.951 44.4897C113.026 44.4053 113.058 44.2402 112.98 44.1395Z" fill="#464644"/>
<path d="M114.033 42.1341C113.665 41.5407 112.968 41.4633 112.423 41.222C111.66 40.8835 110.95 40.6701 110.295 40.0689C110.079 39.8702 109.739 40.2403 109.9 40.527C110.356 41.3359 110.847 41.5815 111.573 41.9459C112.271 42.2968 113.194 43.1169 113.942 42.6639C114.105 42.5656 114.145 42.3105 114.033 42.1341Z" fill="#464644"/>
<path d="M114.332 38.399C113.876 37.8949 113.155 37.8648 112.59 37.5905C112.002 37.3128 111.441 36.9501 110.851 36.6674C110.339 36.4231 110.108 37.4185 110.604 37.6773C111.545 38.1683 113.315 39.8306 114.31 38.8854C114.419 38.7832 114.438 38.5164 114.332 38.399Z" fill="#464644"/>
<path d="M113.62 34.6818C112.994 34.3791 112.555 33.9128 111.837 34.0171C111.379 34.0846 111.361 34.8871 111.803 35.016C112.143 35.116 112.421 35.2105 112.724 35.4544C112.985 35.6617 113.224 35.8803 113.529 35.9751C113.859 36.0783 114.755 36.1052 114.688 35.3952C114.629 34.7606 113.961 34.8474 113.62 34.6818Z" fill="#464644"/>
<path d="M115.031 33.2629C114.873 33.0451 114.828 33.0201 114.602 32.9065C114.056 32.6275 113.519 32.324 112.985 32.0091C112.629 31.8008 112.278 31.6548 111.885 31.6362C111.525 31.6178 111.439 32.3312 111.799 32.4216C112.749 32.6588 114.065 34.754 115.033 33.7053C115.141 33.5868 115.115 33.3834 115.031 33.2629Z" fill="#464644"/>
<path d="M114.938 30.0184C114.778 29.4336 114.326 29.1752 113.902 28.94C113.323 28.6181 112.737 28.2814 112.17 27.9186C111.828 27.7006 111.535 28.3514 111.832 28.6361C112.222 29.0069 112.706 29.4638 113.163 29.6895C113.679 29.9404 114.173 30.4482 114.742 30.3883C114.886 30.3717 114.985 30.1909 114.938 30.0184Z" fill="#464644"/>
<path d="M113.479 25.7614C113.045 25.3852 112.564 25.1576 112.035 25.1426C111.742 25.1298 111.713 25.7471 112.005 25.7812C112.418 25.8344 112.753 26.1473 113.078 26.4536C113.415 26.7666 113.738 27.353 114.184 27.3574C114.303 27.3586 114.397 27.2154 114.392 27.0728C114.382 26.4879 113.823 26.0564 113.479 25.7614Z" fill="#464644"/>
<path d="M113.917 23.9267C113.583 23.1584 112.815 22.6282 112.148 22.4676C111.801 22.3872 111.628 23.0145 111.982 23.1376C112.643 23.3604 113.078 24.0822 113.729 24.2967C113.905 24.3542 113.989 24.0896 113.917 23.9267Z" fill="#464644"/>
<path d="M96.5325 24.6603C95.8147 24.7842 95.4614 26.0274 95.1314 26.7023C94.8173 27.3463 94.3314 28.041 94.3452 28.834C94.3503 29.1781 94.7452 29.277 94.8264 28.9338C94.9436 28.4435 95.2145 28.1529 95.4725 27.7902C95.6753 27.5006 95.839 27.1582 96.0196 26.8487C96.3333 26.3112 96.7902 25.6474 96.8388 24.9664C96.8541 24.7519 96.6818 24.6323 96.5325 24.6603Z" fill="#464644"/>
<path d="M95.7505 23.3177C95.6866 23.2385 95.5506 23.2191 95.4796 23.2954C94.9104 23.9024 94.4343 24.7578 94.0175 25.54C93.7484 26.0435 94.3443 26.6048 94.6199 26.1062C94.9245 25.544 95.2526 25.0214 95.6172 24.5189C95.8252 24.2342 95.9927 23.6216 95.7505 23.3177Z" fill="#464644"/>
<path d="M94.5285 21.1932C94.3474 21.3159 94.1935 21.5011 94.0461 21.6798C93.8436 21.9252 93.4259 22.2798 93.3121 22.5752C93.1825 22.9081 93.011 23.216 92.8618 23.5389C92.7905 23.6873 92.739 24.1143 92.5739 24.1684C92.3747 24.2319 92.4215 24.6174 92.627 24.6096C92.8352 24.6018 92.9703 24.5147 93.1034 24.3129C93.3484 23.9336 93.6077 23.5692 93.8462 23.1866C94.0623 22.8398 94.3511 22.6396 94.5542 22.255C94.6756 22.0235 94.7698 21.7165 94.7958 21.4415C94.811 21.2533 94.6794 21.0898 94.5285 21.1932Z" fill="#464644"/>
<path d="M93.7806 18.7584C93.218 18.7135 92.8688 19.5963 92.6075 20.1015C92.4558 20.3949 92.3406 20.7099 92.2111 21.0199C92.0935 21.2989 92.0396 21.6653 91.8998 21.9244C91.7771 22.159 92.031 22.4761 92.1981 22.2648C92.5863 21.7723 92.9144 21.2382 93.2413 20.6812C93.5115 20.2153 94.0608 19.6884 94.0306 19.0721C94.0222 18.8951 93.9258 18.768 93.7806 18.7584Z" fill="#464644"/>
<path d="M97.8199 27.0306C97.1645 27.26 96.7884 28.0066 96.427 28.6829C95.9311 29.6068 95.279 30.3179 94.6957 31.1492C94.5311 31.3835 94.7848 31.7628 94.9885 31.5649C95.6429 30.9292 96.3488 30.5169 96.8744 29.6915C97.3092 29.0029 97.8804 28.2386 98.0502 27.3671C98.0823 27.1987 97.9851 26.9717 97.8199 27.0306Z" fill="#464644"/>
<path d="M98.3227 29.6787C97.5984 30.1089 97.1111 31.1558 96.5376 31.8431C96.1377 32.3207 95.7227 32.677 95.367 33.2174C95.1958 33.4761 94.9564 33.7703 94.7435 33.9779C94.5845 34.1335 94.7151 34.5198 94.9185 34.3957C95.6966 33.9169 96.5547 33.103 97.1912 32.3721C97.7461 31.7322 98.4667 30.9333 98.6447 29.9866C98.6862 29.7675 98.4696 29.5917 98.3227 29.6787Z" fill="#464644"/>
<path d="M98.9245 31.5678C97.9088 31.8804 97.5529 33.4381 96.654 33.9944C96.0858 34.3459 95.4091 35.3204 95.4384 36.148C95.4538 36.5315 95.8582 36.5355 95.946 36.2038C96.1761 35.3247 97.1397 34.9362 97.642 34.3727C98.2034 33.7476 99.0601 32.9649 99.2367 32.0165C99.2809 31.7826 99.1407 31.4978 98.9245 31.5678Z" fill="#464644"/>
<path d="M99.0786 34.2459C98.5506 34.3717 98.1462 34.9984 97.7739 35.4501C97.3293 35.9863 96.9198 36.5786 96.6003 37.2389C96.4775 37.4965 96.7574 37.8629 96.9546 37.6601C97.4199 37.1864 97.8566 36.6714 98.3114 36.1894C98.7018 35.7804 99.2432 35.2681 99.3623 34.6271C99.3985 34.4342 99.2423 34.2066 99.0786 34.2459Z" fill="#464644"/>
<path d="M110.23 15.0452C110.031 15.0547 109.869 15.1465 109.737 15.3385C109.422 15.7973 109.115 16.3987 108.894 16.9142C108.699 17.3644 108.396 17.5646 108.398 18.1363C108.402 18.518 108.871 18.6587 108.944 18.2547C109.011 17.9032 109.26 17.809 109.429 17.5748C109.606 17.3325 109.778 17.0917 109.934 16.8262C110.178 16.4076 110.486 15.8357 110.475 15.2999C110.472 15.1426 110.346 15.0398 110.23 15.0452Z" fill="#464644"/>
<path d="M109.986 13.0131C109.942 12.9439 109.852 12.9135 109.784 12.939C109.385 13.0842 109.043 13.7328 108.813 14.1318C108.502 14.671 108.25 15.2746 107.952 15.8336C107.822 16.0747 108.026 16.4552 108.245 16.2477C108.534 15.972 108.788 15.66 109.051 15.3497C109.26 15.0979 109.39 14.806 109.595 14.5541C109.905 14.1722 110.336 13.5507 109.986 13.0131Z" fill="#464644"/>
<path d="M109.198 11.8482C109.181 11.7547 109.1 11.6851 109.032 11.6647C108.602 11.5556 108.321 12.1065 108.06 12.4545C107.559 13.1245 107.123 13.8639 106.667 14.5785C106.506 14.8341 106.779 15.194 106.987 14.988C107.48 14.5014 107.934 13.9735 108.373 13.4127C108.698 12.9982 109.311 12.4899 109.198 11.8482Z" fill="#464644"/>
<path d="M108.004 10.2964C107.651 9.93577 107.219 10.3427 106.988 10.668C106.768 10.982 106.605 11.349 106.385 11.6597C106.149 11.9915 106.498 12.4832 106.767 12.1713C106.987 11.9114 107.196 11.6333 107.42 11.3734C107.613 11.1444 107.861 10.9535 108.026 10.6914C108.098 10.5742 108.102 10.3989 108.004 10.2964Z" fill="#464644"/>
<path d="M132.431 42.8401C131.761 43.2463 131.261 43.9703 130.746 44.6221C130.294 45.191 129.851 45.7436 129.331 46.2266C128.897 46.6286 128.596 47.253 128.161 47.6271C128.004 47.7615 128.106 48.1033 128.296 48.0609C128.792 47.9594 129.121 47.5252 129.53 47.1738C129.92 46.8402 130.306 46.5639 130.667 46.1809C131.443 45.3547 132.291 44.3507 132.744 43.2003C132.847 42.9359 132.621 42.7257 132.431 42.8401Z" fill="#464644"/>
<path d="M129.543 43.6469C129.213 43.7862 128.874 43.8582 128.603 44.152C128.454 44.3111 128.32 44.5358 128.195 44.6329C128.047 44.7493 127.936 44.9465 127.78 45.0252C127.532 45.1456 127.499 45.4827 127.516 45.7696C127.538 46.1843 128.058 46.2287 128.168 45.8694C128.173 45.8678 128.174 45.8679 128.181 45.8646C128.292 45.8313 128.389 45.7176 128.476 45.6317C128.558 45.5473 128.69 45.5011 128.786 45.4464C128.882 45.3867 128.945 45.2415 129.012 45.1488C129.279 44.7714 129.692 44.5085 129.788 43.9786C129.815 43.8282 129.685 43.5894 129.543 43.6469Z" fill="#464644"/>
<path d="M134.77 43.2473C134.016 43.5052 133.452 44.1909 132.883 44.834C132.579 45.175 132.276 45.5177 131.982 45.8669C131.69 46.2146 131.523 46.688 131.142 46.9087C130.974 47.0053 131.025 47.3646 131.202 47.4024C131.925 47.5603 132.37 46.8291 132.896 46.3036C133.631 45.572 134.528 44.8225 135.066 43.8514C135.203 43.6021 135.039 43.1566 134.77 43.2473Z" fill="#464644"/>
<path d="M138.377 41.8918C137.549 42.5078 136.904 43.5662 136.183 44.3634C135.421 45.2028 134.387 45.8232 133.808 46.8758C133.588 47.2749 133.976 47.9193 134.307 47.5458C135.089 46.6591 136.1 46.0974 136.908 45.2274C137.623 44.4547 138.55 43.5596 138.802 42.3711C138.863 42.0834 138.631 41.7076 138.377 41.8918Z" fill="#464644"/>
<path d="M141.025 41.9346C140.155 42.2028 139.55 43.2436 138.928 43.991C138.249 44.805 137.686 45.7545 136.97 46.5223C136.672 46.8469 137.047 47.5109 137.382 47.2324C138.213 46.5428 138.849 45.6284 139.587 44.8035C140.198 44.1183 140.973 43.3347 141.313 42.3896C141.39 42.1741 141.219 41.8726 141.025 41.9346Z" fill="#464644"/>
<path d="M144.002 41.5148C143.072 41.7709 142.478 42.7168 141.836 43.5296C141.091 44.4772 140.238 45.2846 139.512 46.2505C139.255 46.5887 139.675 47.1679 139.957 46.8594C140.743 45.9957 141.631 45.2968 142.399 44.4001C143.008 43.6919 143.95 42.8608 144.233 41.8529C144.28 41.6748 144.157 41.4737 144.002 41.5148Z" fill="#464644"/>
<path d="M146.08 41.7348C145.229 42.1359 144.573 43.2024 143.949 44.0055C143.64 44.4021 143.392 44.8387 143.103 45.2585C142.837 45.6458 142.463 46.3956 142.071 46.5424C141.747 46.667 141.875 47.3432 142.208 47.2679C142.953 47.0983 143.585 45.9988 144.049 45.3154C144.779 44.2381 145.929 43.3977 146.359 42.0488C146.43 41.8267 146.237 41.661 146.08 41.7348Z" fill="#464644"/>
<path d="M147.291 43.7888C146.783 43.8525 146.392 44.4417 146.064 44.8807C145.736 45.3198 145.547 45.5964 145.33 46.1103C145.232 46.3436 145.028 46.72 144.821 46.8031C144.571 46.9022 144.571 47.3855 144.859 47.4047C145.619 47.4499 145.894 46.5074 146.374 45.9666C146.788 45.4973 147.501 44.8688 147.549 44.0993C147.56 43.9372 147.418 43.772 147.291 43.7888Z" fill="#464644"/>
<path d="M149.188 44.643C148.684 45.0033 148.304 45.6188 147.907 46.1423C147.619 46.5212 148.071 47.0548 148.373 46.7023C148.804 46.202 149.362 45.6555 149.463 44.8882C149.49 44.6902 149.33 44.5379 149.188 44.643Z" fill="#464644"/>
<path d="M130.536 36.705C129.732 36.2121 129.095 35.6226 128.447 34.8429C128.071 34.392 127.567 35.1242 127.915 35.5863C128.569 36.4529 129.303 37.5462 130.306 37.6856C130.721 37.7438 130.907 36.9298 130.536 36.705Z" fill="#464644"/>
<path d="M131.173 34.4496C130.88 33.7815 130.247 33.3837 129.814 32.8585C129.631 32.6355 129.448 32.4208 129.261 32.2125C128.961 31.8901 128.462 31.6951 128.238 31.3046C128.06 30.99 127.722 31.3552 127.874 31.6647C127.989 31.8985 128.127 32.0309 128.321 32.1573C128.636 32.3603 128.911 32.7119 129.161 33.0257C129.664 33.6581 130.285 34.5407 131.006 34.7346C131.122 34.7669 131.227 34.5812 131.173 34.4496Z" fill="#464644"/>
<path d="M130.874 31.1474C130.732 30.9772 130.598 30.8973 130.419 30.7874C130.012 30.5343 129.697 30.1233 129.38 29.7204C128.882 29.0832 128.196 28.6373 127.669 28.0276C127.453 27.7781 127.087 28.2037 127.291 28.476C127.953 29.3557 128.718 30.0956 129.4 30.9493C129.774 31.4199 130.353 31.9646 130.869 31.529C130.978 31.4367 130.962 31.2498 130.874 31.1474Z" fill="#464644"/>
<path d="M130.494 28.2034C130.182 27.627 129.601 27.2362 129.154 26.8288C128.926 26.6218 128.667 26.4767 128.451 26.2468C128.177 25.9623 127.961 25.6784 127.642 25.4672C127.306 25.2476 127.06 25.889 127.384 26.1249C127.674 26.3358 127.878 26.6507 128.121 26.9365C128.338 27.1909 128.623 27.3609 128.863 27.5762C129.302 27.977 129.797 28.665 130.384 28.525C130.488 28.4982 130.556 28.3187 130.494 28.2034Z" fill="#464644"/>
<path d="M129.271 24.0727C128.882 23.7756 128.496 23.4687 128.154 23.0852C127.897 22.796 127.492 23.2146 127.742 23.5448C128.064 23.9657 128.427 24.31 128.796 24.6528C129.141 24.974 129.601 25.5405 130.053 25.5433C130.177 25.5429 130.303 25.4131 130.269 25.2408C130.156 24.6696 129.643 24.3614 129.271 24.0727Z" fill="#464644"/>
<path d="M129.972 23.0733C129.722 22.4155 129.156 21.9446 128.681 21.555C128.332 21.2665 128.036 21.9483 128.364 22.2464C128.8 22.6439 129.186 23.3292 129.76 23.389C129.89 23.4017 130.04 23.2525 129.972 23.0733Z" fill="#464644"/>
<path d="M129.668 39.5163C129.442 39.3764 129.211 39.2562 128.994 39.0984C128.696 38.8825 128.44 38.6179 128.11 38.4884C127.925 38.4145 127.7 38.6515 127.813 38.8934L127.85 38.9888C127.862 39.0495 127.902 39.086 127.945 39.111C128.331 39.716 128.929 40.2822 129.557 40.2212C129.818 40.1976 129.908 39.6628 129.668 39.5163Z" fill="#464644"/>
<path d="M210.578 17.2573C209.665 17.7986 209.223 19.0966 208.566 19.9895C208.163 20.5359 207.678 21.2273 207.694 22.0154C207.701 22.3431 208.124 22.4178 208.202 22.1057C208.391 21.354 209.019 20.8884 209.424 20.3289C209.985 19.5563 210.727 18.6561 210.929 17.6195C210.974 17.3857 210.753 17.1525 210.578 17.2573Z" fill="#464644"/>
<path d="M209.758 15.8752C209.299 16.0673 208.955 16.5651 208.624 16.9845C208.225 17.4884 207.934 18.0408 207.618 18.6209C207.486 18.8637 207.748 19.2349 207.95 19.0501C208.352 18.679 208.679 18.1777 209.039 17.7438C209.417 17.2922 209.86 16.8346 210.041 16.2008C210.096 15.9965 209.903 15.8177 209.758 15.8752Z" fill="#464644"/>
<path d="M209.56 13.52C209.036 13.5427 208.538 14.2405 208.176 14.6629C207.867 15.0251 207.404 15.4989 207.424 16.0921C207.436 16.4592 207.865 16.6289 207.959 16.2252C208.008 16.0258 208.264 15.8383 208.397 15.7168C208.574 15.5547 208.734 15.3663 208.907 15.196C209.259 14.8505 209.763 14.4394 209.798 13.8353C209.808 13.6765 209.687 13.5115 209.56 13.52Z" fill="#464644"/>
<path d="M209.655 9.66193C209.202 9.7721 208.833 10.3991 208.531 10.7942C208.306 11.0836 208.162 11.4065 207.978 11.7258C207.852 11.7737 207.782 11.8762 207.683 12.0292C207.524 12.2734 207.78 12.6379 207.989 12.4385C208.081 12.3493 208.163 12.4009 208.26 12.3446C208.35 12.2914 208.42 12.1758 208.485 12.0896C208.651 11.8684 208.784 11.6289 208.961 11.4243C209.288 11.0393 209.825 10.5728 209.915 9.99215C209.948 9.78769 209.82 9.62097 209.655 9.66193Z" fill="#464644"/>
<path d="M209.091 7.91957C208.61 8.06388 208.181 8.5347 208.012 9.11458C207.901 9.49846 208.43 9.74615 208.551 9.36402C208.616 9.1648 208.71 9.03304 208.847 8.90334C209.058 8.7023 209.257 8.5126 209.334 8.18573C209.381 8.00435 209.215 7.87984 209.091 7.91957Z" fill="#464644"/>
<path d="M210.132 21.1591C209.793 21.2147 209.443 21.5012 209.181 21.7607C208.928 22.0072 208.767 22.3021 208.766 22.7051C208.764 23.1703 209.311 23.2314 209.403 22.7917C209.444 22.5873 209.708 22.4638 209.837 22.3684C210.075 22.1857 210.325 22.0063 210.447 21.6799C210.542 21.422 210.351 21.1219 210.132 21.1591Z" fill="#464644"/>
<path d="M12.7299 26.6015C12.5474 26.3998 12.3515 26.2996 12.1322 26.1647C11.6582 25.8799 11.261 25.4156 10.8398 25.0265C10.227 24.4601 9.51389 24.0779 8.89847 23.505C8.68985 23.3096 8.49976 23.7025 8.63891 23.9202C9.26319 24.8847 10.1812 25.3983 10.9161 26.2051C11.393 26.7275 12.0863 27.4502 12.7217 26.9847C12.8333 26.9023 12.8145 26.6973 12.7299 26.6015Z" fill="#464644"/>
<path d="M12.1206 24.7199C11.9806 24.0616 11.4012 23.6463 10.9799 23.2785C10.4713 22.8344 9.93143 22.349 9.47679 21.8252C9.1394 21.4369 8.64213 22.0463 8.97029 22.4525C9.40395 22.9843 9.93304 23.5466 10.4299 23.9791C10.8734 24.3668 11.3435 24.9481 11.8729 25.1123C12.0637 25.1698 12.159 24.9087 12.1206 24.7199Z" fill="#464644"/>
<path d="M12.4956 22.2487C12.2374 21.7039 11.8185 21.3917 11.4129 21.0355C11.0203 20.6925 10.6567 20.3219 10.2826 19.948C10.001 19.6667 9.64461 20.0858 9.88134 20.4453C10.4615 21.3177 11.406 22.3918 12.3359 22.5649C12.4654 22.5891 12.5565 22.3803 12.4956 22.2487Z" fill="#464644"/>
<path d="M12.5105 19.3847C12.0767 18.5711 11.2783 18.2585 10.7116 17.6156C10.4276 17.2934 10.0667 17.8271 10.3245 18.1655C10.8713 18.877 11.5587 19.4457 12.3154 19.73C12.467 19.7872 12.5949 19.5477 12.5105 19.3847Z" fill="#464644"/>
<path d="M12.6628 17.5941C12.5496 17.3571 12.3414 17.2698 12.1755 17.0995C12.0109 16.9275 11.8582 16.749 11.7081 16.5575C11.4405 16.2223 11.0565 16.7722 11.3215 17.1074C11.6203 17.4838 12.1042 18.1587 12.5721 17.9536C12.693 17.9008 12.7239 17.7241 12.6628 17.5941Z" fill="#464644"/>
<path d="M11.2858 28.2097C11.015 27.9775 10.7402 27.7649 10.5169 27.4594C10.3055 27.1638 9.9295 27.6011 10.1556 27.8526C10.4431 28.1735 10.7638 28.4045 11.1281 28.5639C11.2985 28.6377 11.4428 28.3441 11.2858 28.2097Z" fill="#464644"/>
<path d="M12.9281 14.3771C12.5756 13.8625 12.0612 13.5281 11.5967 13.1926C11.1856 12.8937 10.1897 12.222 10.0177 11.7206C9.91941 11.4313 9.59269 11.6296 9.63082 11.9052C9.73875 12.7106 10.4874 13.0358 10.9146 13.5561C11.1568 13.8534 11.5904 14.0739 11.8761 14.3094C12.1631 14.5432 12.466 14.7133 12.8048 14.7609C12.9762 14.7855 13.0166 14.5074 12.9281 14.3771Z" fill="#464644"/>
<path d="M12.963 12.8117C12.4058 11.7758 11.3588 11.1118 10.5343 10.4581C10.2538 10.2358 9.94776 10.8127 10.2124 11.0611C10.9935 11.788 11.7899 12.8935 12.7704 13.1686C12.9286 13.2144 13.0526 12.9781 12.963 12.8117Z" fill="#464644"/>
<path d="M205.39 91.4702L205.384 89.936L203.461 88.393L201.535 86.1375L199.638 91.4426C199.638 91.4426 198.649 93.4975 193.916 99.0846C186.11 108.308 184.354 105.174 184.354 105.174C184.354 105.174 187.377 109.42 190.123 109.803C190.123 109.803 197.775 105.239 201.591 100.655C205.407 96.072 205.39 91.4702 205.39 91.4702Z" fill="#BF9978"/>
<path d="M196.843 84.0927L196.796 82.6107L194.858 81.0874L192.898 78.8758L191.168 83.9672C191.168 83.9672 190.246 85.9349 185.726 91.2499C178.27 100.024 176.454 96.9671 176.454 96.9671C176.454 96.9671 179.549 101.12 182.269 101.538C182.269 101.538 189.696 97.2602 193.339 92.8989C196.983 88.5376 196.843 84.0927 196.843 84.0927Z" fill="#BF9978"/>
<path d="M12.5164 101.593L12.4066 99.9258L14.2789 98.3512L16.0998 96.0022L18.4629 101.87C18.4629 101.87 19.6415 104.157 24.9592 110.483C33.731 120.926 35.31 117.612 35.31 117.612C35.31 117.612 32.5055 122.067 29.6935 122.337C29.6935 122.337 21.4345 116.966 17.1406 111.78C12.8467 106.594 12.5164 101.593 12.5164 101.593Z" fill="#BF9978"/>
<path d="M20.6548 93.2699L20.5749 91.6408L22.4585 90.0807L24.3047 87.7639L26.545 93.475C26.545 93.475 27.6737 95.6975 32.8352 101.823C41.3492 111.937 42.9723 108.68 42.9723 108.68C42.9723 108.68 40.1144 113.066 37.322 113.361C37.322 113.361 29.228 108.201 25.0615 103.179C20.895 98.1559 20.6548 93.2699 20.6548 93.2699Z" fill="#BF9978"/>
<path d="M217.123 97.1237C216.43 95.7462 214.484 95.3194 213.006 94.379C211.313 93.3038 209.63 92.2517 208.011 91.0121C205.098 88.7832 202.08 86.7855 199.186 84.5191C193.082 79.7363 187.625 73.6729 181.828 68.355C175.731 62.7595 169.185 57.9281 163.002 52.4788C160.783 50.5251 158.353 48.7442 156.035 46.9824C154.359 45.7096 152.742 44.2967 151.16 42.8563C151.137 42.8332 151.113 42.8232 151.091 42.8033C155.69 42.2132 160.254 41.2073 164.86 40.5878C171.207 39.7387 177.571 38.6298 183.861 37.252C186.736 36.6217 199.01 33.0419 201.76 31.8248C203.118 31.2218 204.553 31.1577 205.872 30.4644C208.4 29.1339 211.129 28.7262 211.791 24.9254C212.096 23.1834 211.881 21.2497 211.874 19.48C211.864 17.1461 211.894 14.8125 211.845 12.4798C211.788 9.66295 211.94 5.6935 210.637 3.18468C209.935 1.83491 208.85 1.78152 207.203 2.658C204.2 4.26178 193.55 7.43425 190.648 8.47152C187.556 9.57558 184.492 9.51545 181.319 10.2376C174.901 11.696 168.398 12.7691 161.94 13.936C158.774 14.5094 155.749 15.8921 152.533 15.8665C149.638 15.8456 146.638 16.0871 143.748 16.4245C140.924 16.7527 138.093 16.9321 135.277 17.4011C133.826 17.6433 132.375 17.8054 130.91 17.8316C129.787 17.8547 128.67 17.7552 127.546 17.6736C126.28 17.5824 125.886 17.1075 125.105 16.0529C123.339 13.6769 120.464 13.3766 118.169 12.2071C115.961 11.0843 113.974 9.35692 111.766 8.2194C109.323 6.95685 107.521 7.07618 105.236 8.64463C103.146 10.0809 100.344 10.7823 98.018 11.3837C95.3581 12.0669 92.6513 12.3996 89.9915 13.0697C89.1111 13.2898 88.4362 13.4859 87.6995 14.0836C87.3501 14.368 86.9107 14.9343 86.5523 15.1793C86.2754 15.3646 86.0118 15.8167 85.7469 15.94C84.8854 16.332 83.2398 15.7676 82.3226 15.6718C79.9794 15.4324 77.6403 15.1506 75.3067 14.7936C70.9835 14.1271 66.7739 12.8992 62.4573 12.2361C58.4428 11.6202 54.4762 10.8183 50.4469 10.3135C41.4555 9.18326 32.4849 8.09902 23.5123 6.85938C19.8351 6.34989 16.0392 5.73617 12.3442 5.73677C9.91227 5.73531 7.97673 5.34139 8.03287 9.23115C8.06383 11.2709 8.12622 13.3061 8.12052 15.3488C8.10856 18.9271 7.91333 22.5118 8.10557 26.0873C8.3184 30.0718 8.65237 31.6289 11.9704 32.6025C13.5065 33.053 15.1412 33.0628 16.7119 33.3746C18.6122 33.7485 20.3473 33.8836 22.2746 34.0321C24.223 34.1776 26.1233 34.8688 28.0566 35.1744C30.0827 35.494 32.1669 35.3889 34.208 35.5729C38.4486 35.9556 42.5855 37.0454 46.835 37.4739C51.1748 37.9148 55.5321 37.5709 59.8726 37.8548C63.8688 38.1156 67.7618 39.3141 71.7213 39.9426C72.34 40.042 72.9374 40.2148 73.555 40.2733C73.3341 40.5132 73.1198 40.7547 72.9187 40.962C70.5303 43.4388 67.9315 45.5356 65.4027 47.7918C60.9744 51.7413 56.4757 55.6133 52.1148 59.6959C47.7566 63.7753 43.811 68.4231 39.6519 72.8071C35.0773 77.6318 30.075 81.7293 25.2612 86.1607C21.1254 89.9627 16.6464 93.7972 12.9828 98.3121C11.1358 100.59 9.28117 102.835 7.26242 104.872C5.19899 106.953 3.12389 108.687 0.986204 111.325C0.689364 113.827 2.96349 117.218 3.98698 119.161C7.26396 125.383 9.53831 132.574 14.383 137.279C14.3749 137.323 14.3734 137.37 14.368 137.416C14.6373 137.505 14.9065 137.606 15.1704 137.72C15.5287 137.159 16.4928 136.654 16.9261 136.333C17.7939 135.684 18.6591 135.033 19.5165 134.357C21.326 132.926 23.0563 131.342 24.7618 129.725C28.257 126.406 31.6 122.84 34.8128 119.105C41.437 111.413 47.5651 103.079 54.3026 95.527C57.4176 92.0386 60.6679 88.7527 63.7542 85.215C67.0313 81.4568 70.5282 78.0343 73.6099 74.0157C76.7299 69.9468 79.7535 65.751 82.8513 61.6524C84.3489 59.6737 85.8643 57.8081 87.6521 56.2445C88.963 55.1013 90.3309 53.7935 91.6833 52.7457C92.4036 53.9435 93.1566 55.1123 93.8415 56.3196C94.746 57.9134 95.8484 59.12 97.3951 59.5329C99.2504 60.0258 101.498 58.7154 103.272 58.2818C105.533 57.7255 107.249 56.8693 108.932 54.8827C109.098 54.6865 109.257 54.4852 109.411 54.2791C113.017 54.9792 117.164 55.1042 120.66 54.1742C122.353 53.7251 123.737 51.7518 124.905 50.3047C125.156 49.9932 125.405 49.6751 125.622 49.342C126.688 50.5123 127.881 51.4254 129.077 52.4235C130.936 53.973 132.705 55.7374 134.508 57.3844C138.111 60.6735 141.803 63.7656 145.215 67.3701C151.425 73.9317 157.249 80.8869 163.788 86.958C166.955 89.9009 169.756 93.2604 173.032 96.0474C176.263 98.7963 179.19 102 182.491 104.658C185.13 106.786 187.581 109.509 190.156 111.848C192.936 114.373 195.256 116.504 198.203 118.616C200.058 119.946 203.221 123.237 205.542 122.5C207.567 121.856 208.516 118.798 209.356 116.673C210.599 113.526 212.061 110.361 213.834 107.63C215.125 105.636 218.484 99.8244 217.123 97.1237ZM135.47 19.3214C138.274 18.9079 141.084 18.8265 143.884 18.3983C145.242 18.1878 146.636 18.3293 148.007 18.2351C149.722 18.1198 151.379 17.842 153.107 17.8626C156.2 17.8985 159.154 16.4823 162.211 15.916C168.396 14.771 174.59 13.6571 180.762 12.3827C183.822 11.7477 186.802 10.8028 189.883 10.3021C192.469 9.88157 209.316 2.54179 209.589 4.84893C210.639 8.31525 210.129 11.4127 210.447 16.6233C210.594 19.024 211.251 21.7749 210.547 24.1148C209.79 26.6292 208.21 27.9005 206.443 28.4797C204.125 29.2383 195.86 32.3627 192.877 32.8611C191.083 33.1669 186.808 34.5519 185.028 34.9707C182.02 35.6766 178.994 36.4198 175.943 36.7654C172.421 37.1619 169.005 38.1057 165.49 38.5203C162.103 38.923 158.726 39.5826 155.365 40.2244C152.132 40.843 148.883 40.9576 145.623 41.3175C142.265 41.6845 138.849 40.8882 135.473 41.1798C133.715 41.3307 131.985 41.6584 130.22 41.7487C129.911 41.7636 128.406 41.9399 127.492 42.0059C127.959 38.6529 128.078 35.2278 127.91 31.8112C127.715 27.7925 127.465 23.2613 126.488 19.3198C129.36 20.1189 132.591 19.7456 135.47 19.3214ZM94.7448 14.5058C96.1221 14.4182 97.5651 13.6394 98.9223 13.3243C100.73 12.9025 102.508 11.4876 104.352 11.0906C104.49 11.2212 104.672 11.246 104.861 11.063C104.881 11.0452 104.904 11.0209 104.924 11.0015C105.042 10.9912 105.162 10.9826 105.28 10.9806C106.55 10.9786 107.248 10.1923 108.234 9.39755C108.477 9.63385 108.712 9.99929 108.938 10.5413C109.495 11.8994 109.968 13.3548 110.495 14.7306C110.583 14.9621 110.666 15.187 110.751 15.4152C110.643 15.6104 110.587 15.8535 110.625 16.145C110.935 18.4558 108.794 21.1362 107.98 23.0432C106.744 25.9387 105.256 28.3313 103.425 30.6926C102.964 31.2833 102.495 31.8657 102.02 32.4399C100.916 29.7597 99.6552 27.1745 98.6927 24.4074C97.6835 21.5057 96.2804 19.5847 94.6631 17.2117C94.0256 16.2748 93.4116 15.3216 92.708 14.5361C93.3899 14.5544 94.0692 14.5514 94.7448 14.5058ZM87.7618 16.1237C87.8404 15.1644 89.9954 15.3316 90.546 15.4549C91.069 15.568 91.7802 16.4322 92.1845 16.4558C91.2319 16.4005 87.7618 16.1302 87.7618 16.1237ZM72.2998 37.7012C67.9991 36.9696 63.7436 35.7592 59.5215 36.3139C56.7368 36.1764 53.8752 36.2688 51.0797 36.177C47.0345 36.0449 42.9777 35.5496 39.0191 34.6954C35.1967 33.8656 31.3358 34.0902 27.5072 33.486C25.8211 33.2238 24.2082 32.6695 22.5101 32.471C20.6929 32.2565 18.9014 32.1699 17.0819 31.8703C15.787 31.6562 14.6294 31.4729 13.3157 31.3649C11.4473 31.2071 9.75217 30.2595 9.50721 27.7384C9.17166 24.3202 9.6644 20.3165 9.68771 16.843C9.7101 13.9173 9.08141 9.84352 10.018 7.09219C10.6223 7.18493 11.2373 7.2238 11.8473 7.22991C13.7175 7.25845 15.5274 7.65765 17.3935 7.74995C22.0103 7.97937 26.6491 8.92209 31.2048 9.69715C39.313 11.0786 47.759 10.8214 55.7691 12.8119C59.3976 13.7134 63.1286 13.8685 66.7823 14.6984C70.7223 15.5932 74.63 16.3814 78.633 16.917C83.5714 17.5782 88.4754 18.0117 93.4027 18.1706C93.4001 18.164 93.3988 18.1575 93.3975 18.1509C94.3919 19.5232 95.4202 20.9253 96.2453 22.4137C97.099 23.9564 97.5149 25.9575 98.19 27.6341C99.0296 29.7326 99.9926 31.7523 100.84 33.8461C99.9681 34.8759 99.0831 35.8875 98.2072 36.9075C96.1529 39.3025 93.6992 40.4784 90.855 40.1719C87.4599 39.8075 86.8095 39.4575 83.4075 39.1765C81.6647 39.0347 79.9688 38.604 78.2219 38.4834C76.2696 38.351 74.2892 38.0384 72.2998 37.7012ZM89.98 51.5821C89.0311 52.5147 87.33 54.0088 87.1869 54.1268C85.5006 55.5164 84.0543 57.1309 82.6425 58.9256C79.4875 62.9435 76.4339 67.0932 73.4026 71.2546C70.399 75.3688 66.9414 78.7802 63.6644 82.5253C59.9929 86.7212 56.1653 90.6817 52.4639 94.8314C45.7908 102.307 39.7075 110.568 33.1868 118.24C29.7962 122.226 26.2078 125.942 22.4946 129.449C21.4803 130.404 20.4633 131.357 19.4385 132.298C18.5925 133.075 16.6869 135.288 15.6072 135.577C15.3844 135.637 15.1916 135.748 15.0326 135.892C14.4316 134.348 13.156 132.602 12.1835 131.639C10.4327 129.907 8.97287 126.147 7.92774 123.733C6.78276 121.09 5.48249 118.651 4.21413 116.094C3.57148 114.805 2.47016 113.654 2.95218 111.961C3.28019 110.803 4.17295 109.815 5.00272 109.188C5.02503 109.174 5.04215 109.148 5.06056 109.127C5.06969 109.135 5.07881 109.145 5.08664 109.152C6.24453 107.982 7.63843 107.033 8.72928 105.935C10.4668 104.184 12.0625 102.218 13.6528 100.267C17.4204 95.6367 21.931 91.7158 26.1643 87.7905C30.1518 84.095 34.3083 80.6825 38.197 76.824C42.4576 72.6014 46.324 67.8007 50.5937 63.6026C55.2695 58.9997 60.3286 55.0664 65.0199 50.5111C67.1711 48.4245 69.4627 46.5584 71.6762 44.5722C72.8375 43.5257 73.658 41.9638 74.7868 40.8679C75.4728 40.1977 76.1069 40.3676 76.8807 40.6305C77.6611 40.8934 78.4006 40.8927 79.1838 41.0804C80.634 41.4286 82.1299 41.4616 83.6036 41.4894C85.2147 41.5203 86.8048 41.8846 88.3973 41.9905C88.271 42.1511 88.1669 42.3169 88.1099 42.4913C87.4209 44.5599 88.8422 46.8507 89.5457 48.611C89.8567 49.3844 90.2176 50.1289 90.6047 50.8524C90.6345 50.9083 90.3729 51.1968 89.98 51.5821ZM107.908 53.4299C105.733 56.2375 100.086 58.8256 96.9874 57.4469C95.4196 56.7508 94.3055 53.9168 93.3224 52.345C92.0063 50.2433 87.7489 44.6842 90.1563 42.031C91.9171 43.5467 96.1104 41.4037 97.6843 39.9459C100.119 37.6904 102.361 34.7935 104.492 32.1114C106.609 29.4406 108.183 26.6973 109.589 23.4011C110.258 21.8296 111.304 20.288 111.842 18.5859C112.456 20.5579 112.946 22.5614 113.28 24.735C114.532 32.876 114.779 40.755 111 47.8642C109.965 49.8132 109.237 51.7145 107.908 53.4299ZM125.098 45.7387C123.883 49.5274 121.687 52.4427 117.903 52.7581C115.377 52.9683 112.844 52.7058 110.325 52.934C111.048 52.8677 115.555 43.2749 115.712 42.0122C116.693 34.1619 115.428 22.8856 112.622 15.8101C111.896 13.9793 111.093 12.1869 110.455 10.303C110.382 10.0782 110.3 9.86637 110.216 9.66109C112.33 10.6407 114.351 11.9399 116.364 13.2259C117.647 14.0434 118.951 14.6714 120.317 15.2314C122.692 16.1988 124.255 16.8409 125.021 19.9871C125.99 23.971 126.183 28.657 126.382 32.7968C126.573 36.719 126.386 41.7201 125.098 45.7387ZM213.691 103.515C211.428 108.906 209.094 114.339 206.472 119.373C204.748 122.674 198.547 115.721 196.677 114.531C192.641 111.959 189.6 107.994 185.83 104.96C179.098 99.5411 172.541 93.6269 166.475 87.1026C163.404 83.7993 160.005 80.9996 156.919 77.6977C153.705 74.2571 150.618 70.633 147.426 67.1616C144.288 63.7512 140.917 60.8505 137.552 57.8238C135.698 56.155 133.845 54.4797 131.989 52.8142C130.114 51.1304 128.024 49.7193 126.203 47.9446C126.221 47.8385 126.233 47.7339 126.24 47.6228C126.351 47.4979 126.435 47.3287 126.49 47.1264C126.808 45.9046 127.071 44.6676 127.281 43.4169C129.905 44.0565 132.884 43.3389 135.459 43.0392C138.827 42.6477 142.205 43.344 145.576 43.2567C146.741 43.2242 147.904 43.1443 149.061 43.0332C149.564 43.2885 150.076 43.5275 150.532 44.0096C151.836 45.3801 153.201 46.6777 154.596 47.897C157.617 50.5424 160.732 53.0334 163.822 55.5421C170.018 60.5745 176.297 65.7008 182.217 71.2276C188.214 76.8255 193.945 82.9947 200.377 87.8168C202.88 89.6932 205.553 91.6221 208.176 93.3934C210.411 94.9041 213.366 97.6437 215.883 98.2823C215.154 100.01 214.427 101.761 213.691 103.515Z" fill="#464644"/>
</svg>
