<svg width="163" height="60" viewBox="0 0 163 60" fill="none" xmlns="http://www.w3.org/2000/svg">
<path d="M147.939 57.4399C144.467 57.4399 141.565 56.8193 139.235 55.5781C136.905 54.3369 135.146 52.4292 133.958 49.8548C132.77 47.2345 132.107 43.8557 131.97 39.7184L142.456 38.1324C142.502 40.5228 142.708 42.4536 143.073 43.9246C143.484 45.3957 144.033 46.453 144.718 47.0966C145.449 47.7402 146.317 48.062 147.322 48.062C148.602 48.062 149.424 47.6253 149.79 46.7518C150.201 45.8784 150.407 44.959 150.407 43.9936C150.407 41.6951 149.858 39.7643 148.762 38.2013C147.665 36.5924 146.18 34.9834 144.307 33.3745L139.509 29.1682C137.407 27.3753 135.625 25.3526 134.163 23.1001C132.747 20.8016 132.039 17.9744 132.039 14.6186C132.039 9.88362 133.432 6.27495 136.219 3.79255C139.007 1.26418 142.799 0 147.597 0C150.567 0 152.943 0.505672 154.725 1.51702C156.552 2.52837 157.923 3.86151 158.837 5.51644C159.796 7.1254 160.436 8.84929 160.756 10.6881C161.121 12.4809 161.327 14.2048 161.373 15.8598L150.818 17.1699C150.772 15.515 150.658 14.0899 150.475 12.8947C150.338 11.6535 150.018 10.7111 149.516 10.0675C149.013 9.37795 148.236 9.03317 147.185 9.03317C146.043 9.03317 145.198 9.51586 144.649 10.4812C144.147 11.4466 143.896 12.412 143.896 13.3774C143.896 15.446 144.375 17.1469 145.335 18.4801C146.34 19.7672 147.642 21.1234 149.242 22.5484L153.834 26.6168C156.255 28.6855 158.289 31.03 159.933 33.6503C161.624 36.2706 162.469 39.5115 162.469 43.373C162.469 45.9933 161.875 48.3838 160.687 50.5444C159.499 52.659 157.809 54.3369 155.616 55.5781C153.468 56.8193 150.909 57.4399 147.939 57.4399Z" fill="#F9F6F2"/>
<path d="M0 56.8539V1H15.284C19.0307 1 22.2748 1.41373 25.0163 2.2412C27.7578 3.06866 29.8825 4.5627 31.3904 6.72331C32.9439 8.83794 33.7206 11.849 33.7206 15.7565C33.7206 18.055 33.5379 20.1007 33.1723 21.8935C32.8068 23.6864 32.1214 25.2493 31.1162 26.5825C30.1567 27.8697 28.7631 28.95 26.9354 29.8234L34.5431 56.8539H21.8636L15.7637 31.8231H12.2683V56.8539H0ZM12.2683 24.7207H15.6952C17.4315 24.7207 18.7794 24.4219 19.7389 23.8243C20.6984 23.1807 21.361 22.2843 21.7265 21.135C22.1377 19.9398 22.3434 18.5147 22.3434 16.8598C22.3434 14.4693 21.9093 12.6075 21.0411 11.2744C20.173 9.94123 18.5738 9.27466 16.2435 9.27466H12.2683V24.7207Z" fill="#F9F6F2"/>
<path d="M107.178 57.4399C103.02 57.4399 99.7304 56.7044 97.3087 55.2333C94.887 53.7623 93.1507 51.6477 92.0998 48.8894C91.0489 46.1312 90.5234 42.8443 90.5234 39.0288V18.2732C90.5234 14.4117 91.0489 11.1248 92.0998 8.41257C93.1507 5.70032 94.887 3.63166 97.3087 2.20658C99.7304 0.735525 103.02 0 107.178 0C111.382 0 114.694 0.735525 117.116 2.20658C119.584 3.63166 121.343 5.70032 122.394 8.41257C123.444 11.1248 123.97 14.4117 123.97 18.2732V39.0288C123.97 42.8443 123.444 46.1312 122.394 48.8894C121.343 51.6477 119.584 53.7623 117.116 55.2333C114.694 56.7044 111.382 57.4399 107.178 57.4399ZM107.178 48.6826C108.458 48.6826 109.394 48.3608 109.988 47.7172C110.582 47.0736 110.971 46.2461 111.153 45.2348C111.336 44.2234 111.427 43.1891 111.427 42.1318V15.2392C111.427 14.1359 111.336 13.1015 111.153 12.1362C110.971 11.1248 110.582 10.2974 109.988 9.65377C109.394 9.01018 108.458 8.68839 107.178 8.68839C105.99 8.68839 105.099 9.01018 104.505 9.65377C103.911 10.2974 103.523 11.1248 103.34 12.1362C103.157 13.1015 103.066 14.1359 103.066 15.2392V42.1318C103.066 43.1891 103.134 44.2234 103.271 45.2348C103.454 46.2461 103.82 47.0736 104.368 47.7172C104.962 48.3608 105.899 48.6826 107.178 48.6826Z" fill="#E60000"/>
<path d="M44.2563 56.8539V28.927V1H56.5246V24.5598H63.961L69.9581 14.7911V1H81.6666V14.7911L76.2407 23.1232V27.4329L82.5233 41.224V56.8539H70.2436V43.5225L63.961 31.7427H56.5246V56.8539H44.2563Z" fill="#F9F6F2"/>
<path d="M44.929 48.549C44.4029 47.9322 44.0856 47.0914 43.7503 46.2015C43.6215 45.8606 43.4887 45.5078 43.3442 45.1729C43.3158 45.1076 43.2817 45.0342 43.2448 44.9546C43.1046 44.6515 42.8967 44.2041 42.8995 43.8933C43.1236 43.5784 43.3473 43.3287 43.5642 43.0868C43.6632 42.9763 43.7647 42.8621 43.8658 42.7438C44.1981 42.3528 44.4977 41.9304 44.8008 41.496C45.2879 40.7968 45.8689 40.1805 46.4305 39.5852C46.5433 39.4653 46.6553 39.346 46.7662 39.2273C47.0059 38.97 47.253 38.7133 47.4917 38.4656C48.0262 37.9116 48.5784 37.3384 49.092 36.7071C49.3142 36.4345 49.5353 36.1529 49.7487 35.8802C50.1825 35.3283 50.6306 34.7573 51.0984 34.2457C51.5891 33.7096 52.0992 33.1832 52.5926 32.6749C52.8075 32.4534 53.0225 32.232 53.2362 32.0092C53.3505 31.8899 53.4656 31.7732 53.5808 31.6567C53.8723 31.3617 54.1737 31.0557 54.455 30.7154C54.4775 30.6886 54.5007 30.6587 54.5246 30.6282L54.809 30.2682L54.4848 30.2306C54.4322 30.2249 54.3786 30.2114 54.3222 30.1969C54.2822 30.1868 54.2417 30.1769 54.2008 30.1692C53.9661 30.1239 53.7281 30.0623 53.4974 30.0023C53.1119 29.9022 52.7129 29.7992 52.3101 29.7669C52.1408 29.7532 51.9549 29.7451 51.7256 29.7416C51.6104 29.7399 51.4955 29.7393 51.3807 29.7391C51.2661 29.7383 51.152 29.7378 51.0375 29.7361C50.818 29.7327 50.5284 29.7243 50.2398 29.6887C49.9177 29.649 49.5926 29.5789 49.2785 29.5108C48.9384 29.4374 48.5865 29.362 48.2334 29.3227C48.0992 29.3083 47.9631 29.3022 47.8318 29.2968C47.6429 29.289 47.4477 29.2811 47.2626 29.2455C47.1397 29.2224 47.0138 29.1853 46.8914 29.1497C46.7123 29.0973 46.5266 29.0432 46.3363 29.0255C46.0422 28.9979 45.7645 28.9721 45.4654 28.9008C45.3602 28.8758 45.2536 28.8606 45.1503 28.8454C45.0004 28.8237 44.8583 28.8033 44.7224 28.7556C44.2727 28.5968 44.2477 28.4072 44.2245 27.7067C44.2089 27.2601 44.2218 26.8003 44.2348 26.3556C44.2405 26.139 44.2472 25.9156 44.2503 25.6943C44.2537 25.4307 44.2527 25.1652 44.2511 24.9077C44.2505 24.7836 44.2498 24.6601 44.2496 24.5357C44.2497 24.3526 44.2705 24.2288 44.312 24.1674C44.3708 24.0819 44.5027 24.0765 44.6556 24.0788L44.8567 24.0819C45.3453 24.0893 45.8499 24.1757 46.3384 24.2591L46.5657 24.298C47.696 24.4872 48.8456 24.6615 49.9577 24.83L50.8459 24.9645C51.2353 25.0238 51.6288 25.1054 52.0092 25.1844C52.2516 25.2353 52.502 25.2873 52.75 25.333C53.089 25.3962 53.4317 25.4879 53.7628 25.5763C54.0968 25.6653 54.4422 25.7576 54.7885 25.8222C55.126 25.8847 55.4922 25.9412 55.9089 25.9927C55.9454 25.9972 55.9946 26.0097 56.0469 26.0225C56.137 26.0449 56.2393 26.0699 56.3332 26.0713C56.4038 26.0724 56.4615 26.0603 56.5104 26.0336C56.5591 26.0078 56.5957 25.959 56.6255 25.9193C56.6361 25.9052 56.6522 25.8842 56.6585 25.879C56.7034 25.8436 56.7457 25.7918 56.7866 25.7414C56.8106 25.7122 56.8354 25.6817 56.8528 25.6643C56.9506 25.5717 57.0392 25.5415 57.1729 25.5022C57.3771 25.4423 57.5877 25.3961 57.7917 25.3514C58.0092 25.3041 58.2337 25.255 58.4544 25.1883L58.4781 25.1812C58.8444 25.071 59.3004 24.9338 59.6468 24.6554C59.8357 24.5033 59.9906 24.4365 60.1489 24.4389C60.2764 24.4408 60.4102 24.4879 60.5699 24.587C60.7357 24.6902 60.8914 24.8176 61.0564 24.9522C61.2241 25.0896 61.3976 25.2318 61.5807 25.3439C61.6969 25.4148 61.8214 25.4698 61.9419 25.5223C62.2088 25.6399 62.4611 25.7506 62.6278 26.0232C62.7601 26.2392 62.8537 26.3724 63.1042 26.3948L63.1701 26.4013C63.2991 26.4132 63.4328 26.4251 63.5661 26.4271C63.5938 26.4275 63.6213 26.4273 63.6488 26.4271C63.8703 26.4228 64.1031 26.3964 64.3609 26.3466C64.6548 26.2893 64.9559 26.2556 65.2476 26.2224C65.3999 26.2049 65.5531 26.1878 65.7056 26.1673C66.2514 26.0944 66.6918 26.0625 67.0915 26.0677C67.4301 26.0719 67.756 25.9654 68.0714 25.8625C68.2487 25.804 68.4319 25.7442 68.6124 25.7065C68.8226 25.6618 69.0333 25.6184 69.2443 25.5747C70.054 25.407 70.8916 25.2345 71.7097 25.0173C71.9061 24.965 72.1044 24.935 72.2965 24.9058C72.594 24.8604 72.9017 24.8135 73.2107 24.6839C73.3419 24.6294 73.5784 24.5404 73.8522 24.4374C74.5563 24.1718 75.5207 23.8086 75.8739 23.588C75.9749 23.5244 76.0568 23.493 76.117 23.4939C76.1788 23.4948 76.2171 23.5281 76.2529 23.6126C76.4072 23.9752 76.4056 24.5652 76.4045 25.0393C76.404 25.1165 76.4039 25.1915 76.4043 25.2628C76.4062 25.5527 76.4024 25.8487 76.3985 26.1352C76.3967 26.2833 76.3949 26.4321 76.3935 26.5799C76.3926 26.6775 76.3945 26.7769 76.3965 26.8776C76.4007 27.112 76.4056 27.3538 76.3722 27.5644C76.3009 28.0144 76.0847 28.1488 75.7379 28.3315C75.6602 28.3726 75.5798 28.4146 75.4993 28.4646C75.3971 28.5276 75.2864 28.5608 75.1699 28.5954C75.0652 28.6269 74.9577 28.6592 74.8492 28.7153C74.4117 28.9423 72.4606 29.606 72.0112 29.7214C71.0281 29.9729 70.0114 30.1812 68.9894 30.3392C68.6317 30.3949 68.2707 30.4687 67.9214 30.5403C67.552 30.6158 67.1694 30.6937 66.7938 30.7497L66.4302 30.8034L66.7323 31.1192L66.7392 31.1255C67.0431 31.4592 67.2813 31.7018 67.5114 31.9121L67.689 32.0738C67.9949 32.3523 68.3114 32.6399 68.5999 32.9456C69.0366 33.4091 69.4914 33.8556 69.9315 34.2871C70.4728 34.8183 71.0324 35.3677 71.559 35.9496C71.8853 36.3102 72.2109 36.697 72.5257 37.0704C73.0899 37.7399 73.6733 38.4323 74.294 39.0175C74.5417 39.2509 74.7981 39.4722 75.0467 39.6862C75.2575 39.8681 75.4753 40.0554 75.6854 40.2491C75.9231 40.4676 76.1725 40.6585 76.4132 40.8421L76.482 40.895C76.5636 40.9571 76.6507 41.0069 76.7352 41.0548C76.8798 41.1378 77.0295 41.2232 77.0787 41.3425C77.2021 41.641 76.9032 42.4481 76.5442 43.0903C76.284 43.5552 76.0392 44.1251 75.7951 44.8314C75.7798 44.8763 75.7641 44.9236 75.7478 44.9718C75.6276 45.3321 75.491 45.7406 75.2644 45.8245C75.2391 45.8343 75.2111 45.8385 75.1817 45.8381C74.9512 45.8346 74.6575 45.5455 74.4214 45.3131C74.344 45.2366 74.2708 45.1645 74.2058 45.1083C73.7709 44.7337 73.4217 44.3517 73.0174 43.9097L72.9524 43.8383C72.7944 43.6661 72.6362 43.4778 72.4831 43.2961C72.2449 43.0131 71.9986 42.7204 71.7417 42.4714C71.4627 42.2001 71.1943 41.8917 70.9351 41.5932C70.7172 41.3423 70.492 41.083 70.2585 40.8442C69.9691 40.548 69.6974 40.208 69.4345 39.8793C69.2347 39.6289 69.0276 39.3708 68.8119 39.1295C68.1265 38.3621 67.4791 37.5024 66.8532 36.6714C66.5452 36.262 66.2266 35.8391 65.9058 35.4295C65.5097 34.9246 65.0837 34.4665 64.6717 34.0237C64.5196 33.8609 64.3677 33.6971 64.2165 33.5312C64.1224 33.4273 64.0288 33.3215 63.9354 33.2154C63.7493 33.0039 63.5566 32.7858 63.3583 32.5868C63.3239 32.552 63.2892 32.5181 63.2553 32.4839C63.1032 32.3334 62.9591 32.1914 62.8293 32.0196L62.7247 31.8813L62.6344 32.0429C62.6025 32.1008 62.5626 32.1591 62.5279 32.2086C62.506 32.2407 62.4836 32.2734 62.4604 32.3079C62.2968 32.5484 62.1115 32.8209 61.9121 32.883C61.6448 32.9663 61.3418 33.0056 61.013 33.0006C60.7389 32.9964 60.4477 32.9599 60.171 32.8948L60.1008 32.8786L60.0513 32.9548C60.0277 32.9908 60.0036 33.0266 59.9789 33.0605C59.7499 33.3759 59.5139 33.5408 59.138 33.6481C59.048 33.6739 58.9549 33.7132 58.8568 33.7553C58.6881 33.8268 58.5141 33.901 58.3616 33.8987C58.3233 33.8981 58.2872 33.8926 58.2546 33.882C58.0691 33.8229 57.9175 33.6549 57.7774 33.3548C57.7066 33.2019 57.6297 33.05 57.5555 32.9044C57.5171 32.8279 57.4782 32.7514 57.44 32.6742L57.3672 32.5271L57.2608 32.6237C57.1071 32.763 56.9528 32.9249 56.8036 33.0816C56.7369 33.1519 56.6709 33.2213 56.6057 33.2879C56.2984 33.6012 56.0411 33.9752 55.8087 34.3325C55.5887 34.6706 55.3675 35.0173 55.1539 35.3527C54.8792 35.7841 54.595 36.2296 54.3111 36.6603C53.9933 37.1423 53.6404 37.5888 53.2986 38.0202C53.1096 38.2593 52.9136 38.507 52.7249 38.7591C52.4519 39.1236 52.1658 39.4804 51.8894 39.8251C51.6616 40.1084 51.4267 40.4018 51.1995 40.6984C50.5968 41.4854 50.015 42.3292 49.4525 43.1452C48.9961 43.8076 48.5236 44.4925 48.0446 45.1406C47.5054 45.8702 46.963 46.5384 46.4324 47.1264C46.1894 47.3953 45.9008 47.7083 45.5968 47.9883C45.4557 48.1186 45.3147 48.2427 45.1837 48.3574C45.167 48.3717 45.1451 48.388 45.1207 48.4062C45.0633 48.45 44.9966 48.5 44.94 48.5612L44.929 48.549Z" fill="#E60000"/>
<path d="M58.6564 31.8128C58.6041 32.0368 58.4021 32.1436 58.264 32.2233C58.0827 32.328 57.8939 32.4622 57.6976 32.4095C57.6636 32.4 57.66 32.3228 57.6937 32.3085C57.8864 32.2262 58.0765 32.1204 58.2593 31.9985C58.3769 31.9194 58.4962 31.7736 58.624 31.749C58.6489 31.7445 58.6642 31.7802 58.6564 31.8128ZM57.9052 31.4325C57.7767 31.4401 57.6527 31.528 57.5318 31.5889C57.4676 31.6212 57.3778 31.6365 57.3216 31.6916C57.2738 31.7387 57.3081 31.8411 57.3619 31.8086C57.3976 31.7866 57.4538 31.8081 57.4927 31.7985C57.5299 31.7895 57.5692 31.7636 57.6048 31.7502C57.7186 31.7081 57.841 31.6383 57.9278 31.5183C57.9491 31.4893 57.9348 31.4308 57.9052 31.4325ZM60.0273 27.5889C59.8699 27.7804 59.7621 28.0482 59.6177 28.2643C59.3445 28.6738 59.1097 29.1342 58.8228 29.525C58.5966 29.834 58.3254 30.0373 58.082 30.3084C57.9371 30.4695 57.7869 30.582 57.6194 30.6724C57.561 30.7033 57.1766 30.8185 57.1535 30.7477C57.1426 30.7149 57.1194 30.7055 57.098 30.7247C57.0909 30.731 57.0839 30.7374 57.0767 30.7438C57.0455 30.7726 57.0426 30.8501 57.0721 30.8823C57.5036 31.3476 58.1462 30.5319 58.4992 30.2267C58.8324 29.9388 59.1056 29.4728 59.3583 29.046C59.6214 28.6018 59.9176 28.1982 60.0727 27.6445C60.0837 27.6052 60.0522 27.5584 60.0273 27.5889ZM58.9151 30.4822C58.7836 30.5283 58.6737 30.6906 58.558 30.7898C58.5158 30.8262 58.547 30.927 58.5909 30.8912C58.7081 30.7952 58.8425 30.6848 58.9377 30.543C58.9529 30.5201 58.936 30.4748 58.9151 30.4822ZM59.1898 31.2297C59.1238 31.2473 59.079 31.3296 59.0349 31.3972C59.0112 31.4345 58.9832 31.4958 58.9484 31.5098C58.9174 31.522 58.9215 31.581 58.9514 31.5889C59.0062 31.6027 59.0486 31.5795 59.0923 31.5283C59.1457 31.4652 59.2121 31.3851 59.2257 31.2815C59.2297 31.251 59.2089 31.2251 59.1898 31.2297ZM59.0788 32.4796C58.9343 32.5728 58.8018 32.6992 58.6603 32.8011C58.5601 32.8727 58.4534 32.9307 58.3484 32.984C58.2342 33.0428 58.1128 33.0283 57.9988 33.0898C57.9637 33.1087 57.9742 33.1981 58.0113 33.1968C58.3993 33.1858 58.8519 33.0256 59.1179 32.5635C59.141 32.5244 59.1127 32.4572 59.0788 32.4796ZM59.1961 33.1979C59.1048 33.2048 59.0225 33.3039 58.945 33.3703C58.8416 33.4586 58.7321 33.4995 58.6238 33.5658C58.6021 33.5794 58.6039 33.6272 58.625 33.6384C58.7384 33.6987 58.8695 33.6257 58.9743 33.5551C59.0665 33.4926 59.1797 33.4165 59.2352 33.2855C59.2525 33.2447 59.2249 33.1958 59.1961 33.1979ZM58.2354 26.5216C58.1333 26.2996 58.0304 25.9529 57.8602 25.8302C57.8097 25.794 57.7652 25.8908 57.8121 25.9416C57.9519 26.0934 58.0446 26.4251 58.1404 26.6328C58.255 26.8787 58.3392 27.1699 58.4661 27.4003C58.4829 27.4308 58.5241 27.4218 58.5206 27.3733C58.4978 27.0618 58.3509 26.7734 58.2354 26.5216ZM58.7402 26.3181C58.7289 26.2516 58.7436 26.1882 58.7242 26.1218C58.706 26.0598 58.6841 26.0048 58.6568 25.9504C58.602 25.8412 58.5325 25.6845 58.4443 25.6375C58.3996 25.6134 58.3726 25.6954 58.3975 25.7442C58.4577 25.8631 58.5357 25.9847 58.5841 26.1157C58.6131 26.1945 58.6629 26.3101 58.7211 26.3453C58.7337 26.3532 58.7433 26.3348 58.7402 26.3181ZM58.8606 26.649C58.8367 26.5764 58.8062 26.513 58.7609 26.4666C58.7379 26.4431 58.6981 26.4734 58.7126 26.5183C58.7339 26.5863 58.7406 26.6654 58.7714 26.7258C58.8106 26.8026 58.8899 26.7387 58.8606 26.649ZM59.2476 25.9285C59.2185 25.8601 59.174 25.798 59.1524 25.7236C59.1233 25.6247 59.0291 25.5868 59.004 25.4941C58.986 25.4284 58.907 25.4479 58.9096 25.5223C58.9116 25.5866 58.9207 25.6185 58.9521 25.6644C58.9751 25.699 59.0018 25.726 59.0235 25.763C59.0369 25.7861 59.062 25.8751 59.0755 25.9049C59.1295 26.0258 59.1766 26.2494 59.2737 26.3006C59.288 26.3082 59.3087 26.303 59.3143 26.2781C59.3449 26.1498 59.2933 26.0351 59.2476 25.9285ZM59.5556 25.2451C59.5444 25.2137 59.5393 25.1763 59.5109 25.1709C59.4839 25.1662 59.4458 25.2172 59.4656 25.2588C59.4759 25.2806 59.4822 25.3292 59.4908 25.3561C59.4996 25.3822 59.5107 25.4058 59.5226 25.4292C59.542 25.4665 59.5683 25.5064 59.6029 25.5029C59.614 25.5013 59.6283 25.4913 59.6303 25.4728C59.6396 25.3893 59.5803 25.3152 59.5556 25.2451ZM49.8981 25.154C49.4624 25.0295 49.0187 24.9477 48.5792 24.8527C48.0518 24.7391 47.504 24.5885 46.9672 24.6572C46.9419 24.6605 46.935 24.7184 46.9618 24.725C47.4535 24.8526 47.9516 24.8932 48.4405 25.0133C48.8981 25.1265 49.4254 25.3287 49.8899 25.2731C49.935 25.2676 49.9448 25.1674 49.8981 25.154ZM54.0393 25.9922C53.7995 25.833 53.5301 25.8397 53.2782 25.7439C52.9458 25.6178 52.6081 25.6179 52.2697 25.5575C51.9536 25.5011 51.6363 25.4173 51.3226 25.3362C51.1363 25.288 50.9486 25.3015 50.7608 25.282C50.5676 25.2624 50.4033 25.1917 50.2061 25.23C50.1748 25.236 50.1797 25.2972 50.2064 25.3063C50.5368 25.4175 50.8505 25.4674 51.1869 25.508C51.5377 25.551 51.8864 25.6912 52.2353 25.7548C52.533 25.8085 52.8332 25.8035 53.1302 25.8777C53.4286 25.9524 53.7199 26.055 54.0246 26.0713C54.0519 26.0724 54.0653 26.0096 54.0393 25.9922ZM54.7532 26.1284C54.7125 26.0802 54.6544 26.0806 54.6037 26.0715C54.5222 26.0567 54.4391 26.0304 54.3566 26.0461C54.3065 26.0555 54.3101 26.159 54.3564 26.1724C54.4292 26.1926 54.5044 26.2009 54.5775 26.219C54.635 26.2328 54.7019 26.2542 54.7525 26.2016C54.769 26.1842 54.7681 26.1465 54.7532 26.1284ZM48.402 25.7203C48.3791 25.7051 48.3588 25.6675 48.3307 25.6686C48.2996 25.6703 48.2719 25.6739 48.2412 25.6786C48.1744 25.6894 48.0877 25.6618 48.0215 25.6457C47.9705 25.6335 47.9591 25.7512 48.0052 25.7742C48.0517 25.7977 48.0979 25.8296 48.1433 25.8578C48.1926 25.8878 48.2374 25.9021 48.2879 25.91C48.291 25.9131 48.2934 25.9162 48.2961 25.9194C48.3185 25.9404 48.3533 25.9511 48.378 25.9286C48.3892 25.9186 48.4 25.9083 48.4114 25.8983C48.456 25.8573 48.448 25.75 48.402 25.7203ZM53.6921 26.7964C53.3067 26.5769 52.8791 26.5485 52.4741 26.4417C52.105 26.3444 51.7271 26.3087 51.3564 26.2098C50.9223 26.0942 50.4831 26.0471 50.046 25.9707C49.6278 25.8973 49.1953 25.796 48.7724 25.8528C48.7152 25.8606 48.7191 25.9789 48.7709 25.9945C49.5328 26.2231 50.325 26.258 51.0987 26.4038C51.576 26.4941 52.0726 26.5328 52.5443 26.6483C52.9158 26.7392 53.2917 26.8425 53.665 26.9114C53.7088 26.9192 53.7382 26.8224 53.6921 26.7964ZM47.4457 42.2564C47.1504 42.4847 46.8928 42.8413 46.6577 43.1881C46.6436 43.2083 46.6296 43.2275 46.616 43.2474C46.1098 43.5944 45.6345 44.1583 45.2227 44.7012C45.1451 44.8038 45.0787 44.9161 45.0123 45.0336C44.9282 45.182 44.849 45.2725 44.7571 45.3449C44.5563 45.3292 44.2355 45.7195 44.2516 45.9908C44.2541 46.0356 44.2867 46.0524 44.3113 46.0377C44.3228 46.0486 44.3352 46.0565 44.3487 46.0598C44.5157 46.1019 44.716 45.9176 44.8131 45.689C44.847 45.6673 44.8803 45.6431 44.9109 45.6127C45.0319 45.4926 45.1363 45.3328 45.2447 45.1902C45.5231 44.8246 45.8355 44.5056 46.1347 44.1798C46.3698 43.924 46.5756 43.6858 46.7867 43.3756C47.021 43.0322 47.3112 42.752 47.5011 42.3508C47.5259 42.2974 47.4847 42.2261 47.4457 42.2564ZM45.8869 42.5114C45.7973 42.599 45.7105 42.6921 45.6247 42.7884C45.4948 42.9204 45.3689 43.0694 45.248 43.2232C45.0905 43.4054 44.9308 43.5833 44.7598 43.7378C44.6166 43.8668 44.4971 44.041 44.3497 44.1637C44.1715 44.312 43.9876 44.4472 43.8388 44.6582C43.7822 44.7383 43.7694 44.8399 43.7919 44.9255C43.7909 44.9326 43.7896 44.9406 43.7893 44.9477C43.7874 44.9887 43.8069 45.0081 43.8287 45.0097C43.8391 45.0256 43.851 45.0403 43.8647 45.0535C44.02 45.1975 44.2851 44.7046 44.3274 44.5382C44.3285 44.536 44.3277 44.5339 44.3285 44.5314C44.3559 44.4979 44.3856 44.4613 44.4204 44.4232C44.645 44.1797 44.8842 43.965 45.1049 43.7134C45.3575 43.4258 45.7004 43.1131 45.8672 42.7044C45.8713 42.6946 45.8727 42.6835 45.8729 42.6718C45.8909 42.6375 45.9083 42.6013 45.9251 42.5651C45.9426 42.5259 45.9119 42.4874 45.8869 42.5114ZM44.5019 42.5212C44.4939 42.5106 44.4865 42.5003 44.4788 42.49C44.4588 42.4629 44.4279 42.4636 44.4036 42.4759C44.2726 42.5434 44.1822 42.7368 44.0848 42.8702C43.9285 43.0836 43.7485 43.2816 43.6297 43.5456C43.5914 43.6308 43.6735 43.7108 43.7227 43.6652C43.904 43.4969 44.0638 43.2441 44.222 43.0307C44.2764 42.9571 44.3284 42.8807 44.3769 42.7993C44.4215 42.7247 44.4838 42.6858 44.5116 42.5927C44.5176 42.5715 44.5133 42.5369 44.5019 42.5212ZM48.1004 42.8761C47.7976 43.0542 47.5572 43.5686 47.3024 43.866C46.9615 44.2634 46.6427 44.6994 46.3019 45.0995C45.99 45.4652 45.6324 45.7401 45.3069 46.0824C45.1924 46.2029 44.7291 46.6648 44.7449 46.9052C44.7502 46.9828 44.8271 46.9642 44.8329 46.8942C44.8299 46.9322 45.0307 46.7639 45.0669 46.7113C45.2008 46.517 45.3617 46.3438 45.5153 46.1853C45.8507 45.8376 46.1971 45.561 46.5186 45.1818C46.846 44.796 47.1501 44.3761 47.4767 43.9915C47.7195 43.7063 48.0071 43.3584 48.1508 42.9466C48.1671 42.8996 48.1284 42.8595 48.1004 42.8761ZM49.6519 41.195C49.4626 41.2146 49.2668 41.5098 49.1202 41.6752C48.9455 41.8733 48.7638 42.0616 48.5847 42.2512C48.5466 42.2914 48.5735 42.3739 48.6117 42.3797C48.6124 42.38 48.613 42.38 48.614 42.3801C48.6157 42.3801 48.6171 42.381 48.6188 42.381C48.7796 42.4119 48.9109 42.1719 49.044 42.0699C49.1759 41.9684 49.2898 41.8195 49.4115 41.693C49.5103 41.5898 49.6337 41.4994 49.7022 41.3485C49.7277 41.2924 49.7046 41.1896 49.6519 41.195ZM46.0141 46.8715C45.8991 46.8709 45.8075 46.9921 45.7172 47.0867C45.5684 47.2422 45.4102 47.4 45.2496 47.5251C45.221 47.5472 45.2237 47.6253 45.2582 47.6327C45.4345 47.6715 45.5736 47.5736 45.7253 47.4459C45.8409 47.3479 46.0583 47.1994 46.0662 46.9692C46.0674 46.9254 46.0483 46.8717 46.0141 46.8715ZM72.6355 24.8084C72.3778 24.8829 72.1468 25.0035 71.8815 25.014C71.6056 25.0249 71.3334 25.0748 71.0625 25.1552C70.486 25.3255 69.8986 25.4006 69.3134 25.4725C68.7602 25.5413 68.2199 25.8189 67.6735 25.9582C67.3737 26.0339 67.0876 26.0706 66.7858 26.1216C66.5841 26.1553 66.2452 26.1575 66.0844 26.3628C66.0566 26.3982 66.0647 26.4835 66.1096 26.474C66.5818 26.3769 67.0709 26.5022 67.5391 26.3244C67.8114 26.2212 68.0952 26.1912 68.3684 26.0975C68.6873 25.9881 68.9997 25.8759 69.3244 25.7953C69.9155 25.6478 70.5143 25.6378 71.1008 25.4303C71.4279 25.3145 71.7651 25.3015 72.0985 25.2778C72.3033 25.263 72.5474 25.1704 72.685 24.9348C72.7197 24.8758 72.6863 24.7937 72.6355 24.8084ZM70.6108 26.3388C70.109 26.4071 69.6121 26.6085 69.12 26.7545C68.5183 26.9327 67.9105 27.0133 67.3045 27.1448C67.2608 27.1544 67.2578 27.2624 67.3015 27.2735C67.8651 27.4158 68.3886 27.1802 68.9468 27.0704C69.238 27.0134 69.5183 26.9075 69.8106 26.8579C70.0608 26.8151 70.4253 26.707 70.6417 26.5115C70.692 26.4656 70.6757 26.3302 70.6108 26.3388ZM71.5654 26.1566C71.5101 26.1215 71.4604 26.1452 71.4038 26.1678C71.3056 26.2067 71.208 26.241 71.1103 26.2818C71.0736 26.2976 71.0699 26.3819 71.1088 26.3954C71.2081 26.4303 71.3082 26.4216 71.4084 26.3941C71.4788 26.3748 71.5531 26.3519 71.5872 26.2496C71.5987 26.2164 71.5886 26.1709 71.5654 26.1566ZM69.6929 27.7217C69.5383 27.7104 69.3834 27.788 69.231 27.8271C69.0765 27.8667 68.9194 27.8779 68.7647 27.9194C68.7199 27.9313 68.7198 28.0372 68.7638 28.0499C69.0431 28.1292 69.4789 28.1312 69.7183 27.8635C69.7591 27.8181 69.7472 27.7259 69.6929 27.7217ZM72.9863 39.1525C73.0105 39.1652 73.0108 39.1587 72.9878 39.1333C72.9709 39.1078 72.9511 39.0967 72.9297 39.0812C72.9055 39.0642 72.8769 39.0563 72.8548 39.0338C72.7897 38.9701 72.7307 38.9155 72.6726 38.8359C72.607 38.7475 72.519 38.8836 72.5758 38.9804C72.6368 39.0839 72.701 39.1861 72.7829 39.2531C72.8103 39.2754 72.8555 39.2869 72.8771 39.3194C72.9059 39.3624 72.9411 39.3845 72.9827 39.3768C73.0163 39.3703 73.0444 39.3315 73.05 39.2806C73.0592 39.1943 73.0169 39.1937 72.9863 39.1525ZM76.3748 42.5075C76.2461 42.2987 76.0874 42.1843 75.9301 42.0324C75.6667 41.7784 75.4415 41.4101 75.1691 41.1824C74.8902 40.9497 74.6461 40.6407 74.3658 40.4145C74.067 40.1728 73.6072 39.9448 73.4009 39.5175C73.3634 39.4388 73.2841 39.5274 73.3092 39.609C73.5024 40.2368 74.1824 40.5611 74.5511 40.9162C74.856 41.2101 75.1587 41.5135 75.4516 41.8325C75.7326 42.1381 76.0601 42.2944 76.3539 42.5529C76.3732 42.5699 76.3876 42.5287 76.3748 42.5075ZM76.0649 43.5716C75.5011 43.1357 74.9874 42.5769 74.43 42.1322C74.1303 41.8927 73.8419 41.7096 73.5729 41.3918C73.314 41.0863 72.9876 40.7964 72.687 40.5927C72.6229 40.5491 72.5872 40.6881 72.644 40.738C72.9963 41.0521 73.3408 41.4408 73.6647 41.8155C73.9251 42.1168 74.2523 42.2554 74.53 42.5147C74.8071 42.7729 75.0671 43.051 75.3595 43.2722C75.5772 43.437 75.7945 43.7814 76.0498 43.692C76.0854 43.6796 76.1011 43.5996 76.0649 43.5716ZM75.544 44.7602C75.5169 44.5977 75.4408 44.5012 75.3481 44.4186C75.0672 44.168 74.7909 43.9094 74.5097 43.6581C74.243 43.4194 73.9418 43.2901 73.6817 43.0263C73.4361 42.7771 73.1657 42.5575 72.898 42.3648C72.8449 42.3263 72.8036 42.4402 72.8539 42.4851C73.1061 42.7106 73.3557 42.9568 73.599 43.2022C73.8369 43.4423 74.0895 43.6101 74.3466 43.8023C74.5688 43.9684 74.7782 44.1589 74.9818 44.3741C75.104 44.5025 75.2633 44.5485 75.3745 44.6999C75.4258 44.7695 75.4446 44.7899 75.5094 44.8168C75.5324 44.8264 75.549 44.7896 75.544 44.7602ZM76.9906 41.324C76.9599 41.2328 76.936 41.2121 76.8732 41.1654C76.6934 41.0315 76.5185 40.8455 76.3261 40.7471C76.061 40.6128 75.794 40.3911 75.5511 40.1849C75.2879 39.9611 74.9986 39.8301 74.7345 39.5961C74.6975 39.5631 74.6567 39.6283 74.6832 39.6796C74.8003 39.9009 74.9475 40.0306 75.1136 40.1637C75.3363 40.3425 75.574 40.5069 75.8032 40.6787C76.0315 40.8495 76.2783 40.9841 76.4939 41.1825C76.5232 41.2098 76.5756 41.2446 76.631 41.2865C76.663 41.3499 76.6812 41.4413 76.6998 41.5067C76.7415 41.6524 76.6823 41.8667 76.7551 41.9836C76.7876 42.0365 76.8333 42.0363 76.8669 41.9843C76.8787 41.966 76.8871 41.9439 76.8937 41.9202C76.912 41.9137 76.9294 41.906 76.9472 41.8963C76.9869 41.8741 77.0007 41.8181 76.9946 41.7659C77.0327 41.6288 77.031 41.4466 76.9906 41.324Z" fill="#E60000"/>
<path d="M59.4323 26.0952C59.5102 26.3007 59.5931 26.4983 59.6653 26.7083C59.7124 26.8455 59.7044 27.0049 59.749 27.1433C59.8135 27.3439 60.0264 27.1984 59.9624 26.9974C59.9047 26.8178 59.8987 26.6184 59.8348 26.4337C59.759 26.2119 59.6768 25.9899 59.5809 25.7854C59.4719 25.5532 59.337 25.1347 59.1488 24.947C59.0748 24.9795 59 25.0098 58.9256 25.0365C59.123 25.334 59.2949 25.7335 59.4323 26.0952Z" fill="#E60000"/>
<path d="M60.884 26.7038C60.6738 26.0291 60.5505 26.8988 60.5579 27.2573C60.5584 27.2755 60.5588 27.294 60.5591 27.3129C60.4588 27.4617 60.406 27.6452 60.331 27.8246C60.2187 28.0915 60.0601 28.3064 59.913 28.5292C59.6208 28.9718 59.3015 29.3612 59.0048 29.7972C58.763 30.1526 58.4629 30.4718 58.1796 30.7503C57.8053 31.1181 57.4033 31.2204 56.9693 31.223C56.9575 30.9969 56.9865 30.7451 56.9152 30.5678C56.7196 30.5882 56.5189 30.6769 56.3083 30.6246C56.0223 30.5536 55.7251 30.4521 55.4347 30.372C55.141 30.2916 54.767 30.1597 54.4498 30.2252C54.4619 30.227 54.4733 30.2296 54.4847 30.2307L54.8089 30.2684L54.5246 30.6283C54.5006 30.6588 54.4774 30.6887 54.4549 30.7156C54.3204 30.8784 54.1809 31.0328 54.0405 31.1831C54.1753 31.2361 54.3165 31.2376 54.4582 31.2592C54.4084 31.3042 54.3577 31.3543 54.3149 31.4145C54.3077 31.4221 54.3009 31.4297 54.2948 31.4374C54.1942 31.5572 54.0755 31.6551 53.9582 31.7524C53.9075 31.7704 53.8588 31.8237 53.8188 31.8691C53.8175 31.8709 53.8162 31.8731 53.8145 31.8746C53.7877 31.8986 53.7611 31.9232 53.7359 31.9481C53.4514 32.2284 53.2085 32.518 52.9486 32.8456C52.3648 33.5819 51.6931 34.1413 51.1099 34.8792C50.5419 35.5985 49.9656 36.3396 49.4236 37.1062C49.4107 37.1205 49.3971 37.1355 49.3848 37.1492C49.2874 37.2576 49.2247 37.3823 49.1446 37.511C48.9393 37.7691 48.7514 38.0808 48.5661 38.337C48.5043 38.3737 48.4525 38.4634 48.4 38.5187C48.3554 38.5665 48.3082 38.618 48.2615 38.6722C48.1506 38.774 48.0361 38.8661 47.9221 38.9711C47.6992 39.1774 47.5115 39.4607 47.2961 39.68C46.9067 40.076 46.5486 40.5917 46.1995 41.0655C46.0164 41.3143 45.7844 41.4475 45.5907 41.6724C45.5654 41.7029 45.5383 41.7327 45.5108 41.7632C45.2567 41.9007 45.003 42.2571 44.8153 42.5262C44.6047 42.829 44.4192 43.1596 44.219 43.477C44.0554 43.7366 43.7734 43.9002 43.6507 44.2336C43.6207 44.3153 43.6661 44.4234 43.7318 44.3784L43.7541 44.363C43.76 44.3591 43.7642 44.3545 43.7683 44.3496C43.7689 44.3524 43.7792 44.3402 43.8125 44.3058C43.9671 44.3279 44.1158 44.207 44.2536 44.1014C44.3493 44.0278 44.593 43.7778 44.6182 43.5942C44.8302 43.3371 45.024 43.0406 45.233 42.7823C45.2356 42.7796 45.2381 42.7766 45.2406 42.7735C45.2734 42.7539 45.3052 42.7306 45.3317 42.703C45.3831 42.6497 45.4357 42.6416 45.485 42.575C45.5331 42.5094 45.5696 42.4642 45.6276 42.4163C45.6639 42.3866 45.6789 42.3418 45.6792 42.2964C45.9202 42.0581 46.169 41.8349 46.4049 41.5872C46.737 41.2376 47.0289 40.9404 47.318 40.5114C47.6344 40.0411 48.0172 39.6814 48.3585 39.2603C48.3702 39.2453 48.3767 39.2241 48.3798 39.2004C48.4247 39.1507 48.4694 39.1005 48.5133 39.0496C48.6409 38.9024 48.7342 38.6831 48.8416 38.5076C48.8854 38.4354 48.9312 38.3648 48.9762 38.2938C49.187 38.0192 49.3939 37.7229 49.5559 37.4074C49.5883 37.3603 49.6211 37.3136 49.654 37.2669C49.7379 37.1734 49.8157 37.0702 49.8917 36.9605C49.9041 36.9428 49.9125 36.9238 49.9184 36.9051C50.0693 36.7048 50.2224 36.5071 50.3768 36.3119C50.5244 36.2234 50.6267 36.1058 50.7436 35.9371C50.8826 35.737 51.0384 35.6166 51.1486 35.3756C51.1626 35.3458 51.1693 35.3179 51.1709 35.2935C51.2119 35.2392 51.2534 35.1855 51.2936 35.1302C51.3503 35.052 51.411 34.9779 51.4721 34.9057C51.4963 34.9187 51.5246 34.9173 51.5485 34.8939C51.7299 34.7139 51.9508 34.6287 52.1074 34.3909C52.1422 34.3377 52.1502 34.2739 52.1413 34.2176C52.2053 34.1556 52.269 34.0939 52.3316 34.0306C52.4504 33.9108 52.5646 33.7856 52.6771 33.6583C52.7034 33.6572 52.7278 33.6359 52.7379 33.5895C52.7871 33.5316 52.8363 33.4737 52.8849 33.4151C52.8895 33.4115 52.8941 33.4079 52.8979 33.4048C52.95 33.3621 52.9953 33.3026 53.0464 33.2577C53.0977 33.2125 53.1557 33.1349 53.1795 33.0448C53.2027 33.0152 53.2254 32.9863 53.2486 32.9557C53.5064 32.6158 53.7941 32.3303 54.0872 32.0563C54.2644 31.8904 54.4801 31.6461 54.6681 31.5153C54.7186 31.4796 54.7632 31.4386 54.8008 31.3883C54.9579 31.4805 55.1149 31.5684 55.2722 31.6535C55.2064 31.7062 55.1425 31.7587 55.0988 31.8204C54.8554 32.163 54.6087 32.5134 54.3238 32.7782C53.7897 33.2742 53.3072 33.8679 52.7764 34.3677C52.2771 34.8377 51.8118 35.3094 51.4042 35.9469C50.9741 36.6204 50.5702 37.3475 50.0763 37.9154C49.6013 38.4617 49.1862 39.1089 48.7297 39.6858C48.2486 40.2931 47.739 40.8728 47.2386 41.4422C46.8328 41.9034 46.4669 42.4115 46.0491 42.8509C45.4912 43.4373 45.0043 44.182 44.4834 44.8316C44.4713 44.8299 44.4584 44.83 44.4444 44.8335C44.3664 44.8536 44.3073 44.9045 44.242 44.9702C44.1618 45.0511 44.0726 45.0973 43.986 45.1605C43.8769 45.2407 43.8001 45.3645 43.72 45.484C43.6652 45.3424 43.6092 45.2017 43.5478 45.064C43.5172 44.9956 43.4738 44.9024 43.4283 44.7952C43.4279 44.7936 43.4271 44.7917 43.4269 44.7902C43.4475 44.7772 43.4675 44.7637 43.4892 44.7516C43.5261 44.7303 43.5547 44.6844 43.5674 44.63C43.5748 44.5983 43.5741 44.5202 43.5496 44.5019C43.4668 44.4395 43.4148 44.4483 43.3584 44.5017C43.357 44.4943 43.355 44.4869 43.3537 44.4791C43.2642 44.0573 43.3418 43.8273 43.5063 43.4877C43.5587 43.3795 43.5183 43.2419 43.4404 43.2249C43.2966 43.3873 43.1507 43.5573 43.0041 43.7514C42.9625 44.0086 43.0132 44.3233 43.106 44.6461C43.1531 44.7567 43.2021 44.8627 43.2447 44.9548C43.2816 45.0343 43.3157 45.1077 43.3441 45.173C43.4886 45.508 43.6214 45.8607 43.7502 46.2016C43.8632 46.5012 43.9742 46.7947 44.0912 47.0761C44.1538 47.2067 44.2198 47.3312 44.2853 47.4261C44.2836 47.4668 44.2866 47.5014 44.2931 47.5302C44.3054 47.556 44.3179 47.5822 44.3307 47.6077C44.3558 47.6368 44.3889 47.6515 44.428 47.6558C44.439 47.6738 44.4496 47.6913 44.4603 47.7094C44.4512 47.7197 44.4419 47.7304 44.4326 47.7407C44.425 47.7496 44.4184 47.7593 44.4126 47.7691C44.4616 47.8616 44.5127 47.9522 44.5658 48.0403C44.5717 48.0352 44.5776 48.03 44.5833 48.023C44.5988 48.0054 44.614 47.988 44.6295 47.97C44.6461 47.9922 44.6628 48.0128 44.6794 48.0325C44.7371 48.1174 44.7976 48.1936 44.868 48.2518C44.8533 48.2713 44.8441 48.3005 44.8436 48.3335C44.8448 48.3657 44.8426 48.3971 44.8378 48.4285C44.8376 48.4313 44.8377 48.4341 44.8377 48.4369C44.8671 48.475 44.8978 48.5125 44.9289 48.5491L44.94 48.5613C44.9965 48.5001 45.0633 48.4502 45.1206 48.4063C45.145 48.3881 45.1669 48.3718 45.1836 48.3575C45.3147 48.2428 45.4557 48.1187 45.5968 47.9884C45.6135 47.9729 45.6299 47.9571 45.6466 47.9416C45.6469 47.8527 45.5814 47.7662 45.5109 47.796C45.3975 47.8431 45.2857 47.8985 45.1715 47.9409C45.1011 47.967 45.0361 47.9586 44.9757 47.9283C44.9206 47.884 44.8662 47.8248 44.8133 47.7564C45.1444 47.3771 45.4888 47.0109 45.8762 46.7618C46.4346 46.4027 46.9013 45.6222 47.3507 45.0305C47.376 44.9969 47.3864 44.956 47.3851 44.9159C47.4463 44.8486 47.5 44.7824 47.555 44.686C47.7617 44.3236 47.9895 43.9764 48.2586 43.7162C48.4993 43.4846 48.7198 43.1348 48.9336 42.8507C49.2044 42.4908 49.5276 42.1571 49.8296 41.8539C50.2763 41.4056 50.687 40.8939 51.0213 40.2624C51.4194 39.5106 51.9319 38.8491 52.3941 38.1859C52.5731 37.929 52.7574 37.6867 52.9362 37.4316C53.158 37.1152 53.4137 36.8826 53.6458 36.5854C54.1247 35.9725 54.6354 35.4925 55.0628 34.7884C55.2608 34.4629 55.4795 34.1588 55.7019 33.8679C55.8834 33.6302 56.1264 33.4823 56.3157 33.2484C56.3949 33.1509 56.6203 32.9092 56.7327 32.6633C56.7778 32.7705 56.826 32.8904 56.8767 33.0051C57.0031 32.873 57.1319 32.7404 57.2607 32.6238L57.3452 32.5467C57.3268 32.4806 57.3082 32.4186 57.2929 32.3665C57.4821 32.3644 57.669 32.2602 57.8422 32.1467C58.2113 31.9063 58.5527 31.5889 58.8907 31.2612C59.458 30.7105 60.0534 30.1635 60.4883 29.3885C60.4589 29.6023 60.4185 29.8113 60.3651 30.0102C60.1121 30.6155 59.5534 31.0435 59.2229 31.4879C59.1212 31.6247 59.019 31.7605 58.9192 31.9007C58.7828 32.0931 58.6106 32.1581 58.4496 32.2822C58.2075 32.4684 57.9037 32.4446 57.6801 32.6484C57.6473 32.6778 57.6404 32.7651 57.6739 32.7983C57.8933 33.0159 58.1758 32.8745 58.4043 32.7486C58.73 32.5686 58.9875 32.3296 59.2484 31.9915C59.3788 31.8225 59.5105 31.6547 59.6434 31.4888C59.6331 31.5365 59.6304 31.5917 59.6403 31.665C59.6583 31.802 59.7075 31.8108 59.6876 31.9553C59.6746 32.0465 59.6097 32.1631 59.5697 32.235C59.5496 32.2718 59.5269 32.3066 59.5031 32.3412C59.5025 32.3415 59.5016 32.3418 59.5008 32.3424C59.4966 32.3441 59.493 32.3463 59.489 32.3487C59.4871 32.3499 59.4857 32.3514 59.484 32.3526C59.4783 32.3565 59.4724 32.3608 59.4669 32.3665C59.4597 32.3732 59.4529 32.3805 59.4468 32.3885C59.2222 32.682 59.0317 32.8841 58.7377 33.0161C58.4634 33.1385 58.1718 33.4693 57.8882 33.2717C57.8436 33.2411 57.7884 33.3131 57.7994 33.3818C57.8012 33.393 57.8037 33.4014 57.8059 33.4116C57.8589 33.5173 57.9142 33.6059 57.9721 33.6762C58.1326 33.7493 58.36 33.6259 58.5039 33.5451C58.8478 33.3527 59.2016 33.2368 59.4719 32.8896C59.5327 32.8535 59.5941 32.8303 59.6589 32.8433C59.6238 32.8363 59.7329 33.0189 59.7786 33.0359C59.8588 33.0649 59.9679 32.9984 60.0472 32.961C60.0485 32.9588 60.0496 32.957 60.0513 32.9549L60.1007 32.8788L60.1632 32.8933C60.3111 32.7853 60.3764 32.6215 60.48 32.3804C60.9449 31.3008 61.0613 30.2258 61.0741 28.9711C61.081 28.2593 61.0881 27.3574 60.884 26.7038ZM56.0013 33.1168C55.8066 33.2904 55.6145 33.4718 55.4435 33.6952C54.9993 34.2746 54.6432 34.9749 54.1695 35.5049C53.2936 36.4868 52.4457 37.4844 51.6804 38.6634C51.2889 39.2662 50.9151 39.8866 50.5385 40.5091C50.3371 40.8413 50.0733 41.1099 49.826 41.3593C49.5993 41.588 49.3965 41.8714 49.1696 42.1013C48.9509 42.3243 48.7597 42.5696 48.5608 42.8311C48.303 43.1711 48.015 43.46 47.7677 43.8134C47.5848 44.0752 47.4258 44.4293 47.2274 44.6538C47.1422 44.7501 46.9965 44.8976 46.9305 45.0636C46.486 45.5767 46.0574 46.1271 45.5551 46.5066C45.5222 46.5314 44.8688 47.1411 44.5497 47.3242C44.5277 47.2779 44.5062 47.2346 44.4862 47.1967C44.4793 47.1836 44.4722 47.1699 44.4653 47.1571C44.431 47.0853 44.3991 47.0172 44.3723 46.9594C44.2117 46.61 44.0155 46.3072 43.8882 45.932C43.9924 45.7938 44.1256 45.702 44.2328 45.569C44.3366 45.4406 44.49 45.2812 44.5553 45.1043C44.5616 45.0862 44.5659 45.0678 44.5687 45.049C44.7189 44.9478 44.862 44.7518 44.9956 44.61C45.2803 44.3069 45.5464 43.9923 45.8018 43.6341C46.2224 43.0441 46.7258 42.5905 47.1588 42.0235C47.635 41.4 48.171 40.8559 48.6685 40.267C49.1558 39.6901 49.5927 39.0333 50.0638 38.4264C50.2898 38.1351 50.5554 37.9156 50.7576 37.5837C50.9816 37.2157 51.1743 36.8288 51.4194 36.487C51.6811 36.1224 51.8977 35.7225 52.1953 35.4159C52.4537 35.1497 52.7219 34.8874 52.9873 34.6373C53.1823 34.4535 53.4415 34.2142 53.6112 33.9825C53.8919 33.5981 54.2151 33.3434 54.5353 33.0451C54.7785 32.8188 55.0127 32.5081 55.2124 32.2033C55.3109 32.0533 55.463 31.9534 55.5856 31.8194C55.6842 31.8703 55.783 31.9209 55.8831 31.9715C55.811 32.0278 55.7398 32.0823 55.6737 32.1406C55.4875 32.3054 55.3127 32.5049 55.1558 32.7273C54.7212 33.3443 54.2052 33.7942 53.7521 34.3659C53.3646 34.8536 53.0182 35.3694 52.675 35.9199C52.3331 36.4676 51.8608 36.8009 51.522 37.3518C51.1612 37.9384 50.8502 38.6029 50.4541 39.1384C50.0574 39.6748 49.6658 40.2254 49.268 40.7642C48.8961 41.2683 48.4541 41.6709 48.044 42.1012C47.8342 42.3221 47.6391 42.6223 47.4631 42.899C47.3469 43.0821 47.2436 43.2862 47.1316 43.4753C47.1201 43.4948 47.1031 43.5304 47.0837 43.573C46.8598 43.8478 46.6905 44.1953 46.4519 44.4472C46.1734 44.7415 45.8964 45.0303 45.5945 45.268C45.3911 45.4273 45.1679 45.602 45.0027 45.8422C44.8283 46.0951 44.5774 46.1852 44.4185 46.4473C44.4075 46.4552 44.3982 46.468 44.3925 46.4846C44.3899 46.4923 44.3871 46.4993 44.3851 46.5067C44.3644 46.5663 44.4 46.6363 44.443 46.6292C44.6709 46.5922 44.8984 46.4312 45.0784 46.2227C45.3141 45.9497 45.5509 45.7196 45.8169 45.511C46.3776 45.0713 46.8663 44.4949 47.2578 43.7563C47.2659 43.7413 47.271 43.7256 47.2747 43.7105C47.307 43.652 47.3383 43.5969 47.3683 43.5511C47.6295 43.1556 47.8702 42.7406 48.1688 42.4019C48.6091 41.9032 49.0896 41.508 49.5018 40.9524C49.9057 40.4078 50.3017 39.8544 50.7046 39.3117C51.1028 38.7753 51.4093 38.0987 51.7729 37.5109C52.1036 36.9753 52.5869 36.6487 52.932 36.1285C53.0946 35.8831 53.2464 35.6106 53.3879 35.339C53.5737 34.9834 53.9097 34.672 54.1588 34.4242C54.605 33.9803 55.0239 33.4384 55.4203 32.9002C55.6529 32.5848 55.9891 32.3911 56.2576 32.1121C56.3508 32.1469 56.4386 32.1939 56.521 32.2825C56.5016 32.3523 56.5077 32.4351 56.5601 32.4924C56.5212 32.4489 56.0887 33.0391 56.0013 33.1168ZM60.5547 28.6319C60.534 28.6483 60.5147 28.6727 60.5 28.7077C60.0986 29.6647 59.4496 30.2025 58.8479 30.8352C58.3273 31.382 57.7908 31.7505 57.2141 32.1075C57.1548 31.9254 57.0863 31.7438 57.0312 31.5531C57.2796 31.6442 57.5987 31.537 57.8151 31.4409C58.245 31.2499 58.5575 30.7709 58.9203 30.4121C59.0772 30.2567 59.2078 30.0374 59.3413 29.8421C59.5289 29.5681 59.7454 29.3448 59.9298 29.0651C60.1359 28.7531 60.3971 28.4036 60.5677 28.003C60.5677 28.2107 60.5641 28.4222 60.5547 28.6319Z" fill="#E60000"/>
<path d="M57.711 25.3701C57.7213 25.5459 57.8438 25.6299 57.9349 25.7205C58.0999 25.8835 58.2397 26.1289 58.3372 26.3835C58.3971 26.5406 58.426 26.7473 58.4972 26.8913C58.6183 27.1367 58.6595 27.527 58.7468 27.8021C58.8429 28.1046 58.9012 28.4515 59.0491 28.71C59.1571 28.8987 59.3079 28.5975 59.2149 28.4773C58.9777 27.9022 58.8256 27.1982 58.66 26.5783C58.562 26.2116 58.425 25.9422 58.2439 25.6603C58.1427 25.5038 58.0126 25.4302 57.8866 25.3311C57.8553 25.3377 57.8233 25.3449 57.7921 25.3515C57.7652 25.3576 57.738 25.364 57.711 25.3701Z" fill="#E60000"/>
<path d="M60.0075 27.3492L59.876 27.5728C59.925 27.4958 59.9688 27.4218 60.0075 27.3492Z" fill="#E60000"/>
<path d="M59.5637 25.027C59.7141 25.4432 59.9497 25.803 60.0961 26.221C60.2572 26.6821 60.1967 26.9991 60.0089 27.3487L60.0677 27.2493C60.2721 26.8419 60.5736 26.3906 60.5299 25.8498C60.5085 25.5862 60.3485 24.6732 60.1747 24.4415C60.1664 24.4411 60.1576 24.4391 60.1495 24.439C60.0635 24.4377 59.9782 24.4577 59.888 24.4998C59.8181 24.5521 59.7517 24.6073 59.7138 24.6293C59.5483 24.7237 59.4727 24.7759 59.5637 25.027Z" fill="#E60000"/>
<path d="M44.2511 24.9078C44.2527 25.1653 44.2537 25.4308 44.2503 25.6944C44.2472 25.9157 44.2405 26.1391 44.2348 26.3557C44.2218 26.8004 44.2089 27.2602 44.2245 27.7068C44.247 28.3826 44.2721 28.5827 44.6774 28.7386C44.6496 28.4696 44.6779 28.2348 44.7598 27.9675C44.8756 27.9825 44.9934 27.9929 45.1172 28.0121C45.2862 28.0378 45.4714 28.1326 45.6413 28.1368C45.7974 28.1404 45.949 28.1442 46.0983 28.2187C46.341 28.3397 46.6224 28.3848 46.8751 28.4463C47.1686 28.5175 47.4978 28.6099 47.7941 28.627C48.345 28.6592 48.8862 28.8085 49.4349 28.8443C49.9974 28.881 50.5783 28.8966 51.1254 29.0988C51.6082 29.2775 52.1484 29.315 52.6417 29.4093C52.9416 29.4663 53.253 29.5198 53.5562 29.5383C53.8463 29.556 54.1256 29.6674 54.4186 29.6768C55.5357 29.7135 56.622 30.0737 57.7368 30.124C57.5857 30.2593 57.3795 30.3115 57.2389 30.5202C57.2516 30.5349 57.2638 30.5536 57.2744 30.5698L57.2401 30.5943C57.4121 30.4447 57.7102 30.5227 57.9073 30.4106C58.089 30.3065 58.2659 30.1382 58.4257 29.9853C58.5654 29.8519 58.6787 29.6845 58.7971 29.5081C58.9226 29.3224 58.9794 29.2751 58.9062 29.0134C58.7951 28.6153 58.5981 28.2561 58.4619 27.8786C58.1858 27.1122 58.0038 25.8351 57.368 25.5071C57.3355 25.4903 57.2879 25.4843 57.2321 25.4868C57.2124 25.4921 57.1921 25.497 57.1729 25.5023C57.0392 25.5416 56.9506 25.5718 56.8528 25.6644C56.8354 25.6818 56.8106 25.7123 56.7866 25.7415C56.7457 25.7919 56.7035 25.8437 56.6586 25.8791C56.6537 25.8831 56.6435 25.8956 56.6344 25.9078C56.6276 25.9429 56.6258 25.9802 56.6306 26.0192C56.6555 26.2218 56.8689 26.175 56.9676 26.1999C57.1129 26.237 57.2263 26.2724 57.324 26.4233C57.3725 26.4972 57.4169 26.5884 57.4583 26.6905C56.966 26.629 56.4715 26.4891 55.9869 26.3971C55.5022 26.3058 55.0046 26.3041 54.5232 26.1918C53.9885 26.0682 53.4272 25.9831 52.887 25.932C52.3423 25.8814 51.8065 25.6917 51.2632 25.6131C50.7437 25.5385 50.2181 25.4616 49.6985 25.359C49.43 25.3058 49.1549 25.3263 48.8975 25.1872C48.6374 25.0471 48.3047 25.1723 48.0306 25.0857C47.7657 25.0014 47.4801 25.0319 47.2116 24.9772C46.8854 24.9108 46.5547 24.8224 46.2258 24.7931C45.8306 24.758 45.4419 24.645 45.0467 24.6235C44.9782 24.6197 44.9107 24.6054 44.8435 24.589C44.813 24.4017 44.7573 24.2261 44.676 24.0792L44.6556 24.0789C44.5027 24.0766 44.3708 24.082 44.312 24.1675C44.295 24.1929 44.2815 24.2294 44.2716 24.2762C44.2687 24.361 44.2668 24.4462 44.2637 24.5304C44.2571 24.5498 44.2541 24.5714 44.2573 24.5949C44.258 24.6044 44.2591 24.6134 44.26 24.623C44.2573 24.6918 44.254 24.7606 44.2508 24.8294C44.2509 24.8553 44.2509 24.8819 44.2511 24.9078ZM57.9316 29.6512C57.9292 29.699 57.9236 29.7412 57.9168 29.7806C57.9062 29.7768 57.8958 29.7735 57.8844 29.7733C57.5268 29.7679 57.1713 29.7538 56.8172 29.6842C56.6745 29.6568 56.5309 29.6036 56.3915 29.5503C56.2787 29.5069 56.1663 29.5675 56.0523 29.5448C55.4922 29.4326 54.9045 29.3338 54.3376 29.3137C54.0432 29.3037 53.7621 29.1886 53.4668 29.1705C53.1698 29.1521 52.8472 29.0824 52.5512 29.0266C52.006 28.9226 51.4608 28.7751 50.9157 28.6622C50.3993 28.5552 49.8811 28.5131 49.3584 28.4789C49.1005 28.4626 48.8481 28.3936 48.5906 28.369C48.268 28.3376 47.9193 28.3249 47.6034 28.233C47.2928 28.1428 46.9767 28.1207 46.6684 28.0215C46.4108 27.9382 46.1458 27.8314 45.8829 27.7901C45.5523 27.7387 45.2209 27.6673 44.8883 27.6354C44.8738 27.6342 44.8592 27.634 44.8448 27.6329C44.8782 27.4374 44.8913 27.2187 44.8973 27.0101C44.9749 27.0202 45.0541 27.0298 45.1351 27.0424C45.4668 27.095 45.7835 27.2106 46.1189 27.2386C46.4326 27.265 46.7484 27.3334 47.0557 27.4232C47.3419 27.5076 47.6343 27.5077 47.918 27.6166C48.2086 27.7285 48.5343 27.6933 48.8316 27.7692C49.0796 27.8322 49.3203 27.8917 49.5731 27.8956C50.1527 27.9044 50.7319 28.0009 51.3034 28.0942C51.9145 28.1936 52.5548 28.3133 53.1493 28.5316C53.6857 28.7287 54.275 28.7089 54.824 28.8232C55.3672 28.9361 55.9273 28.9119 56.4748 29.0156C56.739 29.0663 57.019 29.1128 57.2858 29.119C57.4761 29.1241 57.7238 29.1211 57.9277 29.1742C57.9368 29.3321 57.9399 29.4914 57.9316 29.6512ZM57.7852 28.0171C57.7957 28.0812 57.8051 28.1437 57.8141 28.2012C57.8439 28.4054 57.8741 28.6106 57.8973 28.8178C57.7858 28.8087 57.6746 28.8165 57.5542 28.8045C57.3204 28.7821 57.0884 28.7227 56.8559 28.6837C56.2829 28.5879 55.694 28.4833 55.1167 28.4745C54.5547 28.4659 54.0029 28.2859 53.4426 28.24C53.1252 28.2142 52.821 28.0234 52.5002 27.9836C52.1424 27.939 51.7985 27.8004 51.4389 27.7678C51.177 27.7437 50.9247 27.6334 50.6641 27.6059C50.3711 27.5756 50.0797 27.6057 49.7866 27.5512C49.5178 27.5014 49.2461 27.4769 48.9775 27.4315C48.6798 27.3813 48.3822 27.3335 48.084 27.2895C47.5012 27.2034 46.9126 27.0373 46.3322 26.9174C45.861 26.8201 45.3778 26.7892 44.9033 26.7107C44.9037 26.6851 44.904 26.6589 44.9044 26.6348C44.9087 26.3768 44.9068 26.1168 44.9017 25.8565C44.9276 25.8553 44.9532 25.8542 44.9795 25.8524C45.2082 25.8361 45.4403 25.915 45.6675 25.9509C46.1899 26.0326 46.7091 26.1032 47.233 26.1704C47.5018 26.2051 47.7713 26.2897 48.0397 26.3414C48.3562 26.4017 48.6732 26.4606 48.9892 26.5315C49.2981 26.6004 49.6064 26.665 49.9163 26.7357C50.2319 26.8075 50.559 26.8125 50.8697 26.8984C50.9853 26.9301 51.1076 26.9153 51.2242 26.9171C51.3877 26.9196 51.5384 27.021 51.6996 27.0253C51.96 27.0317 52.2111 27.1544 52.4667 27.2052C52.7566 27.2633 53.0526 27.2934 53.3433 27.3371C53.6613 27.3839 53.9935 27.5109 54.3081 27.5157C54.8975 27.524 55.4807 27.7638 56.0685 27.7922C56.654 27.8209 57.2013 28.0351 57.7852 28.0171ZM45.8517 25.1146C46.1533 25.184 46.4527 25.1617 46.7561 25.2531C47.0445 25.3396 47.3479 25.3176 47.6392 25.3699C48.2181 25.4735 48.7939 25.536 49.3702 25.6698C49.6637 25.7385 49.9719 25.7651 50.2684 25.8004C50.5329 25.8316 50.8581 25.8282 51.1135 25.9217C51.6432 26.1156 52.2191 26.1456 52.7605 26.2563C53.3336 26.3728 53.9163 26.4088 54.4887 26.5321C55.0001 26.6427 55.5213 26.6549 56.0341 26.751C56.5426 26.847 57.0609 26.9923 57.5773 27.0427C57.6349 27.2443 57.6833 27.4611 57.7233 27.6679C57.5445 27.6621 57.3646 27.6687 57.1857 27.6533C56.8845 27.6277 56.5935 27.4912 56.2922 27.4569C55.7166 27.392 55.1407 27.2968 54.57 27.1665C54.3438 27.1143 54.0887 27.0823 53.8589 27.0541C53.5464 27.0157 53.235 26.9508 52.9228 26.9053C52.4053 26.8292 51.859 26.7551 51.3574 26.5625C51.2242 26.5117 51.0449 26.568 50.9074 26.543C50.7962 26.5225 50.6951 26.5025 50.5822 26.5007C50.2753 26.4961 49.9324 26.3982 49.6346 26.2857C49.4809 26.2275 49.3056 26.2504 49.1481 26.2221C49.0021 26.1961 48.8536 26.138 48.707 26.1067C48.4326 26.0488 48.1559 25.9835 47.8786 25.9577C47.6043 25.9325 47.3383 25.8219 47.0621 25.7893C46.8039 25.7585 46.5485 25.7065 46.2914 25.6692C45.8233 25.6022 45.3587 25.5566 44.8933 25.5186C44.8875 25.3207 44.8805 25.123 44.8728 24.9262C45.1881 25.0245 45.5326 25.0412 45.8517 25.1146Z" fill="#E60000"/>
<path d="M58.3477 25.2185C58.3401 25.2694 58.3534 25.327 58.3917 25.3433C58.6207 25.5014 58.8915 26.209 58.9904 26.5265C59.1446 27.0224 59.2689 27.5503 59.4163 28.0535C59.474 28.2507 59.6919 28.1524 59.6349 27.9503C59.4736 27.3765 59.361 26.7211 59.14 26.1918C59.0222 25.9097 58.8014 25.2977 58.541 25.1622C58.5205 25.1687 58.4987 25.1752 58.4784 25.1813L58.4548 25.1884C58.419 25.199 58.3833 25.2086 58.3477 25.2185Z" fill="#E60000"/>
<path d="M61.4246 26.9927C61.3732 26.6813 61.3201 26.3665 61.2607 26.0582C61.1971 25.7306 61.1371 25.2737 60.9821 25.0318C60.9096 24.9186 60.7631 25.0652 60.8277 25.1983C60.9004 25.3491 60.9084 25.6073 60.952 25.783C61.02 26.0557 61.0683 26.3204 61.1178 26.6021C61.2358 27.276 61.3527 27.9486 61.4303 28.6351C61.5938 30.0802 61.2722 31.6716 60.6177 32.7857C60.5591 32.8848 60.6537 33.0187 60.7225 32.9444C61.449 32.1618 61.7133 30.5123 61.7268 29.2558C61.7351 28.507 61.5424 27.706 61.4246 26.9927Z" fill="#E60000"/>
<path d="M61.9773 26.9609C61.9334 26.5826 61.9135 26.1582 61.8021 25.8073C61.7528 25.6525 61.6441 25.4116 61.6382 25.2411C61.6315 25.0493 61.4316 25.0426 61.4349 25.238C61.4421 25.6444 61.6491 26.0807 61.6967 26.4861C61.7922 27.301 61.8578 28.1025 61.8351 28.9341C61.7978 30.3067 61.6567 31.6425 61.0793 32.751C61.0161 32.8723 61.1225 33.0508 61.2064 32.9477C61.9578 32.0222 62.021 30.3163 62.0655 28.975C62.0882 28.2996 62.055 27.6224 61.9773 26.9609Z" fill="#E60000"/>
<path d="M62.5364 27.2296C62.5171 26.9734 62.4671 26.6682 62.4062 26.4268C62.3582 26.2378 62.2464 25.8999 62.2429 25.7007C62.2404 25.5244 62.038 25.5337 62.0343 25.7084C62.0307 25.8775 62.0894 26.0358 62.1241 26.1929C62.1832 26.4614 62.224 26.738 62.263 27.014C62.3564 27.6727 62.3214 28.3105 62.3086 28.9799C62.294 29.7608 62.1198 30.4289 62.0086 31.179C61.9207 31.7697 61.7254 32.3453 61.4864 32.8365C61.4407 32.9312 61.5229 33.0309 61.5824 32.9676C61.9191 32.6109 62.1003 31.9932 62.2161 31.4211C62.3601 30.7098 62.5064 30.0008 62.5392 29.2557C62.5697 28.573 62.5869 27.9102 62.5364 27.2296Z" fill="#E60000"/>
<path d="M76.5379 41.8508C76.1288 41.4133 75.7509 40.9167 75.334 40.4927C74.8829 40.0329 74.4251 39.6382 73.9478 39.242C73.4996 38.8693 73.0886 38.4571 72.6575 38.0474C72.1946 37.6075 71.8218 37.0206 71.39 36.5222C70.9961 36.0677 70.5444 35.757 70.1291 35.354C69.6612 34.899 69.2116 34.409 68.7789 33.8835C68.3999 33.423 68.0381 32.9624 67.619 32.576C67.4308 32.4034 67.2411 32.2356 67.0473 32.0774C66.9487 31.9969 66.8284 31.9074 66.714 31.8025C66.8586 31.7535 66.9817 31.6575 67.1112 31.5221C67.0667 31.4763 67.0212 31.4287 66.9738 31.3786C66.973 31.378 66.9722 31.377 66.9716 31.3761C66.8982 31.2984 66.8213 31.2158 66.7395 31.1256L66.7326 31.1193L66.6075 30.9887C66.5284 30.9375 66.45 30.9196 66.3445 30.9081C66.1208 30.8847 65.9193 30.7763 65.6905 30.7731C65.4516 30.7695 65.2277 30.6997 64.9944 30.6607C64.7014 30.6118 64.3882 30.645 64.0899 30.6469C64.125 30.6135 64.1394 30.5727 64.1162 30.5229C64.1097 30.5092 64.102 30.4971 64.0938 30.4861C64.3664 30.4492 64.6391 30.4034 64.9154 30.3875C65.4882 30.3539 66.1042 30.2994 66.6711 30.1642C67.2069 30.0371 67.748 30.0759 68.2838 29.9368C68.6006 29.8545 68.884 29.594 69.1882 29.4544C69.5309 29.2982 69.8728 29.3287 70.2244 29.2874C70.4946 29.2567 70.7886 29.2272 71.0525 29.1312C71.2835 29.0473 71.5329 29.1082 71.7645 29.0272C72.3056 28.8387 72.8975 28.7184 73.4528 28.6629C73.6735 28.6407 73.9069 28.5609 74.1176 28.4594C74.4264 28.3104 74.7394 28.2614 75.0605 28.1981C75.3148 28.1486 75.4971 28.0596 75.7406 27.9488C75.8459 27.9007 75.9681 27.8791 76.0798 27.8311C76.0819 27.9253 76.0853 28.0189 76.0897 28.1125C76.2342 27.9909 76.3297 27.8346 76.3725 27.5645C76.4059 27.3539 76.401 27.1121 76.3968 26.8777C76.3947 26.777 76.3929 26.6776 76.3938 26.58C76.3951 26.4322 76.397 26.2834 76.3988 26.1353C76.4027 25.8488 76.4065 25.5528 76.4046 25.2629C76.4042 25.1916 76.4043 25.1166 76.4048 25.0394C76.4055 24.7147 76.4056 24.3371 76.3563 24.0141C76.3529 24.0156 76.3492 24.0161 76.3458 24.0179C76.3432 23.9963 76.3408 23.974 76.3376 23.9521C76.3094 23.763 76.0536 23.3087 75.9426 23.6565C75.877 23.8632 75.899 24.1331 75.9155 24.3889C75.3025 24.4744 74.6836 24.7018 74.0832 24.8883C73.7061 25.0049 73.3298 25.1047 72.9503 25.2039C72.6623 25.2792 72.3853 25.4034 72.103 25.505C72.0712 25.4712 72.0293 25.4631 71.9884 25.5054C71.9085 25.5891 71.7009 25.5662 71.6089 25.5648C71.4727 25.5627 71.3843 25.6364 71.2477 25.6602C70.9457 25.7146 70.5869 25.7669 70.3 25.9094C69.9619 26.0772 69.6 25.9886 69.2694 26.1948C68.9418 26.3997 68.5298 26.39 68.1816 26.5042C67.9943 26.565 67.8051 26.5574 67.6152 26.565C67.436 26.5725 67.2491 26.6567 67.0715 26.6976C66.6743 26.7897 66.285 26.89 65.883 26.9249C65.4914 26.9588 65.1264 27.0461 64.739 27.127C64.6174 27.1529 64.4871 27.1448 64.3591 27.1366C64.3621 27.1296 64.3658 27.1225 64.3674 27.1149C64.4056 26.9231 63.8705 26.9551 63.7801 26.9287C63.519 26.8503 63.5231 26.7464 63.517 26.4252C63.4002 26.4216 63.2838 26.4115 63.1704 26.4014L63.1045 26.3949C63.0111 26.3867 62.9398 26.363 62.8799 26.3251C62.873 26.3299 62.8661 26.3332 62.8595 26.3384C63.0255 26.836 62.9994 27.5651 63.073 28.1158C63.1317 28.5615 63.1144 29.0289 63.0945 29.4843C63.0762 29.8971 63.0584 30.4602 62.9409 30.8502C62.9294 30.8651 62.9191 30.8829 62.9086 30.9006C62.9122 30.8855 62.916 30.8714 62.9195 30.8566C62.9978 30.5093 62.9883 30.1452 62.9935 29.7856C63.0005 29.3057 63.0158 28.8172 62.9602 28.344C62.9591 28.3335 62.9557 28.3245 62.9529 28.3155C62.9494 28.1361 62.9444 27.9557 62.943 27.7702C62.9415 27.4809 62.8316 27.1569 62.7717 26.885C62.6986 26.5548 62.6229 26.1869 62.6019 25.8393C62.5927 25.6863 62.423 25.6794 62.4173 25.8377C62.4016 26.2598 62.5343 26.748 62.6206 27.1438C62.7722 27.8383 62.7828 28.5886 62.6959 29.3084C62.6178 29.9602 62.5309 30.5883 62.4041 31.2251C62.3493 31.4987 62.2938 31.7736 62.219 32.0367C62.1442 32.2976 62.0028 32.4946 61.911 32.7396C61.8793 32.8237 61.955 32.8844 62 32.8443C62.0313 32.8167 62.0604 32.7869 62.088 32.7561C62.1115 32.7849 62.148 32.7713 62.1638 32.7267C62.1614 32.7338 62.1863 32.7132 62.2188 32.6847C62.4237 32.605 62.5605 32.2614 62.6771 32.0183C62.6958 31.98 62.7174 31.9402 62.7395 31.9004L62.8295 32.0197C62.9594 32.1915 63.1035 32.3335 63.2556 32.484C63.2774 32.506 63.3001 32.5285 63.3225 32.5511C63.3598 32.4816 63.3514 32.3324 63.4031 32.2066C63.4911 32.3123 63.5743 32.4311 63.6553 32.5278C63.9545 32.8849 64.3074 33.1804 64.5891 33.5666C64.8105 33.8703 65.0731 34.0852 65.2891 34.3993C65.5215 34.7378 65.8169 34.9862 66.09 35.2469C66.6986 35.8294 67.2198 36.5215 67.7607 37.2305C68.2847 37.917 68.8699 38.4782 69.4296 39.0973C69.9386 39.6601 70.3203 40.4142 70.7782 41.0575C71.0098 41.3824 71.2783 41.6408 71.51 41.9716C71.7239 42.2771 72.1056 42.4468 72.3615 42.6337C72.9374 43.0553 73.401 43.6822 73.9532 44.1515C74.2138 44.3731 74.4831 44.635 74.7292 44.8916C74.9616 45.1343 75.2215 45.2914 75.4591 45.5124C75.4848 45.5359 75.5108 45.5379 75.5339 45.5255C75.5608 45.4732 75.586 45.4164 75.6102 45.3575C75.6093 45.3217 75.5988 45.2873 75.5758 45.2613C75.4112 45.072 75.2115 44.943 75.0299 44.7884C74.7555 44.5549 74.5072 44.2538 74.2395 44.0055C73.6688 43.4764 73.1534 42.793 72.5385 42.3734C72.2381 42.1679 71.8432 41.9612 71.6057 41.6211C71.3722 41.286 71.1028 41.0278 70.8692 40.6986C70.3748 40.002 69.9566 39.2523 69.4114 38.6321C68.8466 37.9897 68.2616 37.4113 67.726 36.7094C67.5931 36.5352 67.4603 36.3612 67.3275 36.1869C67.2146 36.0389 67.1103 35.7971 66.9699 35.7027C66.6671 35.5002 66.3844 35.106 66.1024 34.8368C65.7876 34.5353 65.5232 34.18 65.2293 33.8465C65.1437 33.7491 65.0451 33.6739 64.9524 33.5925C64.8134 33.4703 64.72 33.2525 64.5816 33.121C64.3099 32.8637 64.0622 32.5509 63.7975 32.279C63.7245 32.2044 63.6522 32.1116 63.5774 32.0255C63.7403 31.9425 63.9636 31.9268 64.1445 31.911C64.2432 32.1172 64.4035 32.2792 64.5267 32.4259C64.8467 32.8061 65.1484 33.1722 65.4859 33.521C65.9697 34.0223 66.5288 34.4089 66.9909 34.954C67.486 35.5367 67.9486 36.1871 68.4274 36.8029C68.6318 37.0656 68.812 37.3517 69.0333 37.5829C69.3079 37.8699 69.5853 38.1522 69.8534 38.4518C70.3842 39.0452 70.9196 39.6649 71.3946 40.3519C71.8316 40.9843 72.4157 41.4013 72.9287 41.8879C73.4415 42.3751 73.9588 42.8658 74.4507 43.3987C74.6784 43.6454 74.8923 43.913 75.1296 44.1413C75.2809 44.2865 75.4989 44.5035 75.6899 44.5453C75.7042 44.5517 75.7187 44.5553 75.7341 44.5537C75.7366 44.5537 75.7401 44.555 75.742 44.555C75.7427 44.5541 75.7427 44.5538 75.7427 44.5532C75.8737 44.5509 75.84 44.4367 75.7644 44.3143C75.7681 44.2754 75.7716 44.236 75.7753 44.1968C75.7484 44.197 75.7205 44.2019 75.6949 44.2123C75.6151 44.1049 75.53 44.0137 75.5304 44.0137C75.4077 43.9035 75.2711 43.8338 75.1491 43.7168C74.9625 43.5371 74.7985 43.3151 74.6203 43.1204C74.3741 42.8518 74.1272 42.5794 73.863 42.3513C73.2465 41.8183 72.6932 41.1209 72.0496 40.6458C71.7459 40.422 71.5107 39.9971 71.2701 39.6535C71.0219 39.3006 70.7241 39.0475 70.4605 38.7222C69.9431 38.0833 69.331 37.5686 68.8483 36.8778C68.6114 36.5383 68.3553 36.2254 68.1021 35.9134C67.8481 35.6006 67.6343 35.2207 67.3625 34.9412C67.1506 34.7237 66.9538 34.4842 66.7402 34.2698C66.4418 33.9714 66.1322 33.7006 65.8351 33.3991C65.5421 33.1026 65.2223 32.8739 64.9483 32.5354C64.8515 32.4163 64.7675 32.2854 64.6667 32.1733C64.588 32.0857 64.4798 31.9942 64.3835 31.8906C64.7233 31.8726 65.0713 31.9464 65.4138 31.9689C65.5162 32.0841 65.6146 32.206 65.7215 32.3138C65.9656 32.5592 66.1326 32.9131 66.3388 33.219C66.548 33.5297 66.8139 33.7569 67.0583 34.0015C67.3089 34.2526 67.5618 34.516 67.8333 34.7153C68.3374 35.0841 68.8692 35.5133 69.302 36.0413C69.5228 36.3095 69.7515 36.5285 69.9544 36.8319C70.1486 37.122 70.3638 37.3824 70.5788 37.6379C71.0137 38.1548 71.4344 38.7132 71.9015 39.1649C72.3805 39.6284 72.89 40.0255 73.3722 40.4838C73.8141 40.9045 74.2201 41.35 74.6424 41.8142C75.0903 42.3076 75.5976 42.6462 76.0045 43.2257C76.1089 43.3749 76.2749 43.1224 76.1849 42.9608C76.1553 42.9076 76.1254 42.854 76.096 42.8008C76.0776 42.7671 76.0562 42.7517 76.0352 42.748C75.6914 42.2951 75.2779 41.9641 74.8901 41.6031C74.6543 41.3841 74.4299 41.1059 74.2169 40.8421C74.0032 40.5768 73.7569 40.4008 73.5249 40.1771C73.0135 39.6844 72.4711 39.2631 71.9607 38.7706C71.4676 38.2948 71.0152 37.6801 70.5594 37.1283C70.3438 36.8669 70.1469 36.579 69.9471 36.2916C69.7291 35.9789 69.4557 35.7291 69.214 35.4565C68.7668 34.952 68.2117 34.6374 67.7314 34.2056C67.2155 33.7418 66.6713 33.2658 66.2705 32.5901C66.1176 32.3328 65.9412 32.1646 65.7667 31.9625C65.9867 31.935 66.2013 31.8716 66.4223 31.8475C66.5805 32.0478 66.7813 32.1993 66.947 32.3435C67.511 32.8349 68.0351 33.3739 68.5262 34.013C68.961 34.5774 69.4301 35.0708 69.9059 35.555C70.3683 36.0257 70.875 36.3773 71.3187 36.8922C71.7048 37.3411 72.0293 37.8782 72.4401 38.2809C72.8714 38.7027 73.2796 39.1204 73.7329 39.4897C74.207 39.876 74.6657 40.2609 75.1117 40.7153C75.5828 41.1945 76.0107 41.7539 76.4769 42.2413C76.5585 42.3268 76.6612 42.2009 76.6631 42.0744L76.6639 42.0237C76.6657 41.9021 76.6015 41.8456 76.5379 41.8508ZM76.0647 25.2757C76.0654 25.3087 76.0664 25.3418 76.0669 25.3748C76.0511 25.3628 76.0341 25.3524 76.0153 25.345C76.0325 25.3237 76.0491 25.3007 76.0647 25.2757ZM63.6795 27.3686C63.8643 27.4601 64.0923 27.4431 64.2692 27.4492C64.466 27.4559 64.6635 27.4768 64.8596 27.444C65.1158 27.4004 65.3607 27.2939 65.6202 27.2836C66.0825 27.2657 66.524 27.1838 66.9811 27.0814C67.3907 26.9901 67.8064 26.9662 68.2121 26.8612C68.5611 26.7708 68.9309 26.7385 69.2668 26.5769C69.4535 26.4868 69.6197 26.4106 69.8161 26.3972C70.0427 26.3812 70.241 26.2827 70.4622 26.2305C70.7943 26.1537 71.146 26.0933 71.4695 25.9562C71.672 25.8701 71.9625 26.0122 72.1249 25.7671C72.133 25.7549 72.139 25.7417 72.1434 25.7276C72.3474 25.709 72.5459 25.6374 72.7552 25.6001C73.1769 25.5263 73.6131 25.4387 74.025 25.282C74.4312 25.1267 74.8571 25.0292 75.2705 24.9234C75.4823 24.8695 75.707 24.7374 75.9241 24.7496C75.9093 25.0094 75.824 25.1995 75.5207 25.1995C75.484 25.1995 75.4536 25.2309 75.4342 25.2741C75.2044 25.3067 74.9576 25.4394 74.7642 25.5192C74.5931 25.5898 74.4265 25.6867 74.2561 25.76C74.2102 25.7797 74.1701 25.8124 74.1319 25.8476C73.7219 25.963 73.3055 26.0178 72.9027 26.1648C72.6657 26.2507 72.4068 26.3193 72.163 26.39C71.9113 26.4634 71.6627 26.5541 71.4112 26.6314C71.3001 26.6656 71.2013 26.6282 71.0941 26.6538C70.981 26.6802 70.8328 26.7943 70.7193 26.8339C70.4878 26.9147 70.2513 26.9336 70.016 26.9807C69.4678 27.0903 68.9196 27.2418 68.3771 27.4151C67.7984 27.6008 67.2264 27.6544 66.6387 27.7054C66.1677 27.7455 65.7158 27.8142 65.2423 27.8259C64.782 27.8377 64.311 27.8978 63.8484 27.9917C63.7869 27.9142 63.5831 27.9908 63.53 27.9764C63.5024 27.7324 63.5527 27.4902 63.6795 27.3686ZM63.5664 28.3523C63.6926 28.3397 63.8185 28.3099 63.9478 28.3094C64.234 28.3078 64.524 28.3089 64.8097 28.2678C65.317 28.1947 65.8336 28.2454 66.3365 28.1339C66.9104 28.0059 67.4903 28.0178 68.0666 27.8839C68.6631 27.7458 69.2556 27.5572 69.8502 27.4085C70.0599 27.3564 70.2727 27.3387 70.4828 27.2872C70.705 27.2335 70.9793 27.0265 71.1994 27.0305C71.4335 27.034 71.6526 26.9364 71.8784 26.8509C72.1487 26.7482 72.4234 26.708 72.6917 26.5842C72.8872 26.4943 73.1091 26.5254 73.3091 26.4584C73.6252 26.3527 73.9453 26.3011 74.2624 26.1966C74.5324 26.1081 74.803 26.011 75.0706 25.9051C75.2835 25.8207 75.5001 25.6854 75.7187 25.648C75.8374 25.7081 75.9454 25.7826 75.9433 25.9098C75.9421 25.9721 75.9504 26.4069 75.9439 26.4087C75.8026 26.4414 75.6787 26.4003 75.538 26.4639C75.4989 26.4812 75.4782 26.5309 75.4734 26.5849C75.1726 26.6689 74.8733 26.7959 74.5749 26.8719C74.0884 26.9941 73.5931 27.1042 73.1009 27.2394C72.5071 27.4023 71.9485 27.7744 71.3473 27.8885C70.7775 27.9965 70.2021 28.001 69.6352 28.1511C69.1692 28.2743 68.7255 28.4885 68.2519 28.5545C67.9375 28.5988 67.6246 28.5761 67.3107 28.6038C67.1138 28.6212 66.8799 28.6049 66.6888 28.6777C66.2803 28.8332 65.8561 28.8542 65.4445 29.0125C64.8183 29.2531 64.2022 29.1764 63.5708 29.1936C63.5467 29.1479 63.5343 29.0779 63.5294 28.9587C63.5226 28.786 63.5147 28.5105 63.5664 28.3523ZM63.5427 30.2079C63.4614 29.9903 63.5269 29.6749 63.6512 29.5014C64.1547 29.5702 64.6584 29.6344 65.1661 29.5044C65.4371 29.4347 65.6849 29.2718 65.9634 29.2572C66.1387 29.2481 66.355 29.2027 66.5261 29.1395C67.0374 28.9516 67.5548 29.0172 68.0776 28.951C68.5989 28.8855 69.0904 28.7349 69.5965 28.5586C70.1665 28.3604 70.7686 28.3495 71.3497 28.2744C71.9073 28.2026 72.4197 27.8399 72.9653 27.6859C73.2496 27.6056 73.5343 27.5324 73.8209 27.464C74.0384 27.412 74.283 27.2654 74.4982 27.2619C74.9606 27.2544 75.4095 27.0142 75.8625 26.8751C75.9835 26.9328 76.08 27.0303 76.0771 27.2655C76.0762 27.3235 76.0763 27.3819 76.0763 27.4399C75.8951 27.552 75.6649 27.5642 75.4833 27.676C75.206 27.8465 74.8729 27.8461 74.5771 27.9039C74.0738 28.0025 73.6096 28.251 73.0973 28.3115C72.5992 28.3709 72.1132 28.5969 71.6184 28.6616C71.0609 28.7346 70.5078 28.879 69.9476 28.9264C69.6961 28.9475 69.464 28.952 69.2169 29.0403C68.9107 29.1508 68.6326 29.387 68.331 29.5235C67.8271 29.7514 67.2788 29.6174 66.765 29.7609C66.2143 29.9158 65.6464 29.8923 65.0912 30.0074C64.5806 30.1129 64.0596 30.1568 63.5427 30.2079Z" fill="#E60000"/>
<path d="M56.7126 31.3394C56.6492 31.3714 56.6149 31.4459 56.5765 31.5234C56.5604 31.5553 56.5389 31.5716 56.5216 31.6001C56.4945 31.6432 56.4599 31.7025 56.4201 31.7158C56.3824 31.7288 56.3885 31.8098 56.4257 31.8134C56.5827 31.8285 56.6853 31.6436 56.7751 31.478C56.807 31.4189 56.7632 31.3136 56.7126 31.3394Z" fill="#900C0C"/>
<path d="M56.3534 30.7591C56.2918 30.7825 56.2356 30.8607 56.1913 30.9264C56.17 30.9578 56.1529 30.9915 56.1359 31.0274C56.1178 31.0654 56.1106 31.1261 56.084 31.1519C56.0643 31.1711 56.0731 31.2088 56.0926 31.2175C56.1452 31.2408 56.1867 31.1541 56.2208 31.1105C56.2593 31.0614 56.2973 31.0129 56.3367 30.9659C56.3664 30.9309 56.3922 30.8942 56.4069 30.842C56.4201 30.7947 56.3838 30.7472 56.3534 30.7591Z" fill="#900C0C"/>
<path d="M60.806 26.8302C60.8047 26.8064 60.7813 26.7971 60.7702 26.8127C60.7295 26.8735 60.6859 26.9608 60.6656 27.0414C60.647 27.1139 60.6371 27.1869 60.6103 27.2553C60.5851 27.3192 60.6459 27.3787 60.6747 27.3178C60.7092 27.2439 60.7308 27.1615 60.7514 27.0785C60.7738 26.9878 60.8117 26.9328 60.806 26.8302Z" fill="#900C0C"/>
<path d="M57.4141 32.0357C57.3455 31.9909 57.2705 32.0095 57.2016 32.0519C57.1687 32.0721 57.1771 32.1377 57.205 32.1557C57.267 32.1962 57.3412 32.2183 57.4059 32.1791C57.4457 32.1544 57.4594 32.0651 57.4141 32.0357Z" fill="#900C0C"/>
<path d="M44.8798 25.5125C44.7648 25.4268 44.6289 25.4364 44.502 25.4095C44.409 25.3902 44.3214 25.3824 44.2276 25.3908C44.1865 25.3948 44.1844 25.4908 44.2251 25.4982C44.3396 25.5191 44.4523 25.5584 44.5656 25.5898C44.6703 25.6185 44.7759 25.6621 44.8773 25.5979C44.8993 25.5844 44.9014 25.5288 44.8798 25.5125Z" fill="#900C0C"/>
<path d="M54.9684 31.2043C54.9311 31.1365 54.8854 31.0725 54.8447 31.0083C54.7955 30.9301 54.7414 30.8718 54.6668 30.8741C54.6088 30.8766 54.6037 30.9818 54.644 31.016C54.6436 31.017 54.6432 31.0179 54.6427 31.0185C54.7442 31.0994 54.7838 31.2762 54.8836 31.3608C54.9535 31.4195 55.015 31.2902 54.9684 31.2043Z" fill="#900C0C"/>
<path d="M55.7113 31.681C55.6261 31.4217 55.4392 31.2423 55.2982 31.0503C55.1267 30.8183 54.9939 30.5317 54.8173 30.3078C54.7846 30.2662 54.726 30.3264 54.755 30.3824C54.8851 30.635 55.0138 30.9021 55.1658 31.1264C55.3109 31.3406 55.471 31.6202 55.6541 31.7591C55.6846 31.7815 55.7275 31.7297 55.7113 31.681Z" fill="#900C0C"/>
<path d="M56.1759 31.6421C56.0452 31.3864 55.844 31.2433 55.7037 31.0016C55.5817 30.7914 55.4089 30.6317 55.2947 30.4151C55.2692 30.3663 55.2071 30.4082 55.2185 30.4704C55.2398 30.5868 55.3189 30.663 55.3713 30.7493C55.4644 30.902 55.5656 31.0446 55.654 31.2027C55.7281 31.3356 55.8303 31.4341 55.9197 31.5426C56.0032 31.6435 56.0406 31.7318 56.151 31.73C56.1802 31.7299 56.1911 31.6717 56.1759 31.6421Z" fill="#900C0C"/>
<path d="M56.5885 31.8631C56.5097 31.5625 56.3089 31.3288 56.1589 31.1074C56.0752 30.9836 55.973 30.8802 55.8935 30.75C55.8549 30.6864 55.8218 30.6439 55.7639 30.6316C55.7095 30.6203 55.6879 30.7252 55.7342 30.763C55.7887 30.8079 55.8616 30.9473 55.903 31.0094C55.97 31.1095 56.0389 31.209 56.1042 31.3124C56.1777 31.4284 56.253 31.5422 56.3275 31.6569C56.3957 31.762 56.442 31.8716 56.5312 31.9378C56.5623 31.9608 56.6018 31.913 56.5885 31.8631Z" fill="#900C0C"/>
<path d="M56.8161 31.7347C56.7862 31.579 56.6777 31.4635 56.6045 31.3481C56.5046 31.1917 56.4123 31.0264 56.3338 30.8452C56.3032 30.7756 56.2265 30.8306 56.2543 30.9057C56.3204 31.0864 56.3968 31.2558 56.4835 31.4157C56.5585 31.553 56.6502 31.7578 56.7679 31.8114C56.7985 31.8252 56.8239 31.7756 56.8161 31.7347Z" fill="#900C0C"/>
<path d="M60.344 32.0645C60.2814 31.9499 60.1332 31.9418 60.0409 31.8991C59.9396 31.8518 59.8643 31.7454 59.7598 31.7247C59.7007 31.713 59.6911 31.8379 59.7402 31.8679C59.7773 31.891 59.803 31.9266 59.8333 31.9641C59.8789 32.0198 59.9393 32.0478 59.9926 32.0817C60.0893 32.143 60.235 32.232 60.3368 32.1585C60.3627 32.1395 60.3586 32.0913 60.344 32.0645Z" fill="#900C0C"/>
<path d="M60.0524 32.2037C60.0005 32.181 59.9534 32.1411 59.9008 32.1209C59.8304 32.0926 59.8011 32.2524 59.8708 32.2831C59.93 32.309 60.0942 32.4704 60.1401 32.3396C60.17 32.2546 60.0932 32.2222 60.0524 32.2037Z" fill="#900C0C"/>
<path d="M60.5784 31.6198C60.4932 31.5417 60.3904 31.5441 60.296 31.4951C60.1612 31.4252 60.0039 31.2626 59.8533 31.2628C59.8081 31.263 59.7904 31.3618 59.832 31.3912C59.9736 31.4912 60.105 31.6169 60.2516 31.7019C60.3503 31.7589 60.4661 31.8184 60.5662 31.7428C60.5955 31.7204 60.6123 31.6506 60.5784 31.6198Z" fill="#900C0C"/>
<path d="M60.738 31.2143C60.6745 31.1168 60.5734 31.1226 60.4874 31.0942C60.3728 31.0563 60.2654 30.98 60.1651 30.8926C60.0982 30.8348 60.0296 30.9782 60.0957 31.0419C60.1957 31.1388 60.3 31.2166 60.4132 31.2748C60.5075 31.3226 60.6494 31.3905 60.7327 31.2803C60.7448 31.2644 60.7502 31.2334 60.738 31.2143Z" fill="#900C0C"/>
<path d="M60.9098 30.8371C60.8525 30.7251 60.7417 30.7101 60.6556 30.6644C60.5349 30.6002 60.4224 30.5596 60.3193 30.446C60.2855 30.4084 60.2305 30.4779 60.2556 30.532C60.3264 30.6847 60.404 30.7312 60.5188 30.8002C60.629 30.8667 60.7741 31.0217 60.8941 30.9368C60.9202 30.9184 60.9272 30.8703 60.9098 30.8371Z" fill="#900C0C"/>
<path d="M60.9655 30.1335C60.8941 30.0383 60.7794 30.0322 60.6902 29.9803C60.5972 29.9276 60.5087 29.859 60.4154 29.8054C60.3344 29.7591 60.2955 29.9465 60.374 29.9955C60.5225 30.0885 60.8007 30.4026 60.961 30.2251C60.9786 30.206 60.9823 30.1557 60.9655 30.1335Z" fill="#900C0C"/>
<path d="M60.8603 29.433C60.7614 29.3757 60.6925 29.2876 60.5781 29.3068C60.505 29.3193 60.5004 29.4705 60.5705 29.495C60.6243 29.514 60.6684 29.532 60.7161 29.5781C60.7571 29.6173 60.7946 29.6586 60.8431 29.6766C60.8953 29.6962 61.0379 29.7018 61.0287 29.568C61.0207 29.4484 60.9142 29.4644 60.8603 29.433Z" fill="#900C0C"/>
<path d="M61.088 29.1664C61.0634 29.1252 61.0562 29.1205 61.0205 29.099C60.9342 29.0461 60.8495 28.9886 60.7652 28.929C60.7089 28.8896 60.6535 28.8619 60.5908 28.8582C60.5336 28.8545 60.5185 28.9889 60.5755 29.0061C60.7262 29.0513 60.9311 29.4467 61.0874 29.2497C61.1048 29.2274 61.1012 29.1891 61.088 29.1664Z" fill="#900C0C"/>
<path d="M61.0801 28.5552C61.0559 28.445 60.9845 28.3961 60.9175 28.3515C60.8262 28.2906 60.7336 28.2268 60.6442 28.1582C60.5903 28.1169 60.5422 28.2393 60.5889 28.2931C60.6501 28.3632 60.7261 28.4496 60.7983 28.4923C60.8799 28.5399 60.9574 28.6358 61.0482 28.6248C61.0711 28.6218 61.0873 28.5878 61.0801 28.5552Z" fill="#900C0C"/>
<path d="M60.8571 27.7527C60.7888 27.6816 60.7128 27.6385 60.6287 27.6353C60.5821 27.6328 60.5762 27.749 60.6225 27.7556C60.6882 27.7659 60.7408 27.825 60.7918 27.8829C60.8447 27.942 60.8949 28.0527 60.9659 28.0537C60.9849 28.054 61.0001 28.0271 60.9996 28.0002C60.9992 27.89 60.9113 27.8085 60.8571 27.7527Z" fill="#900C0C"/>
<path d="M60.9307 27.407C60.8792 27.2621 60.7582 27.1618 60.6524 27.1312C60.5973 27.1158 60.5684 27.2339 60.6245 27.2573C60.7293 27.2996 60.7968 27.4359 60.8999 27.4766C60.9279 27.4876 60.9417 27.4378 60.9307 27.407Z" fill="#900C0C"/>
<path d="M58.163 27.5355C58.0485 27.5585 57.9895 27.7925 57.9356 27.9195C57.8842 28.0406 57.8053 28.1712 57.8058 28.3206C57.8059 28.3854 57.8685 28.4043 57.8822 28.3397C57.9019 28.2474 57.9456 28.1928 57.9875 28.1246C58.0204 28.0701 58.0472 28.0057 58.0766 27.9475C58.1277 27.8464 58.2018 27.7216 58.211 27.5934C58.2139 27.553 58.1868 27.5304 58.163 27.5355Z" fill="#900C0C"/>
<path d="M58.0413 27.2823C58.0313 27.2673 58.0097 27.2636 57.9983 27.2779C57.9064 27.392 57.8288 27.5528 57.7607 27.7C57.7168 27.7947 57.8104 27.9007 57.8554 27.807C57.9051 27.7012 57.9584 27.603 58.0175 27.5085C58.0512 27.455 58.0792 27.3397 58.0413 27.2823Z" fill="#900C0C"/>
<path d="M57.8518 26.8815C57.8227 26.9045 57.7978 26.9393 57.774 26.9729C57.7412 27.019 57.674 27.0856 57.6552 27.1412C57.6339 27.2038 57.6059 27.2617 57.5815 27.3225C57.5698 27.3504 57.5607 27.4308 57.5343 27.4409C57.5024 27.4528 57.5091 27.5254 57.5418 27.524C57.5749 27.5227 57.5966 27.5063 57.6182 27.4684C57.658 27.3971 57.7001 27.3286 57.7389 27.2566C57.774 27.1914 57.8204 27.1539 57.8536 27.0815C57.8734 27.038 57.8891 26.9802 57.8938 26.9284C57.8966 26.893 57.876 26.8621 57.8518 26.8815Z" fill="#900C0C"/>
<path d="M57.7375 26.4222C57.6481 26.4134 57.5906 26.5795 57.5479 26.6746C57.5232 26.7298 57.5041 26.789 57.4829 26.8474C57.4635 26.8998 57.4542 26.9688 57.4313 27.0176C57.4113 27.0617 57.451 27.1216 57.4781 27.0819C57.5409 26.9893 57.5943 26.8889 57.6475 26.7841C57.6915 26.6965 57.7801 26.5975 57.7766 26.4814C57.7757 26.4481 57.7606 26.4241 57.7375 26.4222Z" fill="#900C0C"/>
<path d="M58.3623 27.9826C58.2575 28.0255 58.196 28.1659 58.137 28.2931C58.0561 28.4669 57.9508 28.6005 57.8561 28.7568C57.8294 28.8008 57.869 28.8724 57.9018 28.8352C58.0074 28.7158 58.1206 28.6386 58.206 28.4834C58.2767 28.3539 58.3693 28.2102 58.3982 28.0461C58.4037 28.0144 58.3887 27.9716 58.3623 27.9826Z" fill="#900C0C"/>
<path d="M58.4369 28.4822C58.3207 28.5628 58.2408 28.7597 58.1481 28.8889C58.0834 28.9787 58.0166 29.0456 57.9588 29.1471C57.931 29.1958 57.8923 29.2511 57.8579 29.2901C57.8323 29.3193 57.8522 29.3921 57.8849 29.3689C58.0097 29.2791 58.1481 29.1263 58.2509 28.9889C58.3406 28.8687 58.457 28.7186 58.4874 28.5403C58.4945 28.4991 58.4604 28.4659 58.4369 28.4822Z" fill="#900C0C"/>
<path d="M58.5286 28.8382C58.3663 28.8965 58.3063 29.1898 58.162 29.2941C58.0708 29.36 57.961 29.5432 57.9639 29.6991C57.9655 29.7713 58.0299 29.7723 58.0445 29.7099C58.0831 29.5444 58.2373 29.4717 58.3184 29.3659C58.4091 29.2484 58.5471 29.1014 58.5773 28.9229C58.5849 28.8789 58.5632 28.8251 58.5286 28.8382Z" fill="#900C0C"/>
<path d="M58.5477 29.3426C58.4634 29.366 58.3976 29.4838 58.3374 29.5687C58.2655 29.6695 58.1991 29.7808 58.1468 29.905C58.1267 29.9535 58.1704 30.0227 58.2022 29.9846C58.2773 29.8956 58.3479 29.7988 58.4213 29.7083C58.4844 29.6315 58.5716 29.5352 58.592 29.4146C58.5982 29.3782 58.5738 29.3353 58.5477 29.3426Z" fill="#900C0C"/>
<path d="M60.3639 25.7318C60.3322 25.7335 60.3062 25.7507 60.2848 25.7868C60.2337 25.8731 60.1835 25.9862 60.1472 26.0832C60.1151 26.1679 60.0665 26.2054 60.0657 26.3131C60.0654 26.385 60.1398 26.4118 60.1522 26.3357C60.1636 26.2695 60.2034 26.2519 60.231 26.2079C60.2596 26.1624 60.2875 26.1171 60.3129 26.0672C60.3526 25.9884 60.4029 25.8809 60.4024 25.7799C60.4022 25.7503 60.3823 25.7309 60.3639 25.7318Z" fill="#900C0C"/>
<path d="M60.3291 25.3488C60.3223 25.3357 60.308 25.33 60.2971 25.3347C60.2333 25.3619 60.1776 25.4839 60.14 25.5589C60.0893 25.6603 60.048 25.7739 59.9994 25.879C59.9781 25.9244 60.0097 25.9962 60.0451 25.9572C60.0917 25.9054 60.1327 25.8468 60.1753 25.7885C60.2091 25.7411 60.2303 25.6862 60.2635 25.6389C60.3138 25.5671 60.3837 25.4503 60.3291 25.3488Z" fill="#900C0C"/>
<path d="M60.2063 25.1292C60.2038 25.1116 60.1911 25.0984 60.1803 25.0946C60.1121 25.0738 60.0662 25.1774 60.024 25.2428C59.9427 25.3687 59.8717 25.5078 59.7976 25.6422C59.7715 25.6902 59.8142 25.7582 59.8477 25.7195C59.9271 25.6281 60.0005 25.5289 60.0717 25.4235C60.1243 25.3456 60.223 25.2502 60.2063 25.1292Z" fill="#900C0C"/>
<path d="M60.0201 24.8362C59.9647 24.7681 59.895 24.8445 59.8576 24.9057C59.8219 24.9647 59.7951 25.0338 59.7594 25.0922C59.7212 25.1546 59.7756 25.2474 59.8192 25.1888C59.8547 25.1399 59.8886 25.0877 59.9248 25.0388C59.956 24.9958 59.9959 24.96 60.0227 24.9107C60.0345 24.8886 60.0354 24.8556 60.0201 24.8362Z" fill="#900C0C"/>
<path d="M63.8358 30.9803C63.7282 31.0565 63.6472 31.1926 63.5637 31.3151C63.4906 31.422 63.4189 31.5259 63.335 31.6166C63.2652 31.692 63.2159 31.8095 63.1459 31.8797C63.1205 31.905 63.136 31.9694 63.1663 31.9615C63.2456 31.9427 63.2989 31.8611 63.3646 31.7951C63.4274 31.7325 63.4895 31.6806 63.5478 31.6087C63.673 31.4535 63.8102 31.2648 63.8847 31.0483C63.9017 30.9986 63.8663 30.9589 63.8358 30.9803Z" fill="#900C0C"/>
<path d="M63.3748 31.1307C63.3219 31.1567 63.2677 31.1701 63.224 31.2253C63.2 31.2552 63.1781 31.2975 63.1581 31.3157C63.1342 31.3375 63.1161 31.3746 63.0911 31.3893C63.0514 31.4119 63.0455 31.4754 63.0476 31.5294C63.0502 31.6076 63.1327 31.6162 63.151 31.5486C63.1519 31.5483 63.1521 31.5483 63.1531 31.5477C63.1709 31.5415 63.1866 31.5201 63.2006 31.504C63.2138 31.4881 63.235 31.4795 63.2503 31.4692C63.2657 31.4581 63.2761 31.4307 63.287 31.4133C63.3303 31.3424 63.3965 31.2931 63.413 31.1933C63.4176 31.165 63.3974 31.1199 63.3748 31.1307Z" fill="#900C0C"/>
<path d="M64.2076 31.0586C64.0871 31.1068 63.9958 31.2356 63.9038 31.3565C63.8547 31.4205 63.8059 31.4849 63.7582 31.5505C63.711 31.6159 63.6834 31.705 63.6224 31.7463C63.5955 31.7644 63.6028 31.8322 63.6308 31.8394C63.7455 31.8695 63.818 31.732 63.9028 31.6333C64.0213 31.4959 64.1657 31.3552 64.2534 31.1726C64.2758 31.1257 64.2506 31.0417 64.2076 31.0586Z" fill="#900C0C"/>
<path d="M64.7841 30.8049C64.651 30.9205 64.5461 31.1195 64.4295 31.2693C64.3066 31.427 64.1407 31.5433 64.0463 31.7413C64.0103 31.8163 64.0706 31.9379 64.1241 31.8678C64.2506 31.7011 64.4125 31.5959 64.5431 31.4324C64.6586 31.2873 64.808 31.1192 64.8507 30.8954C64.8611 30.8412 64.8249 30.7703 64.7841 30.8049Z" fill="#900C0C"/>
<path d="M65.2057 30.8146C65.0666 30.8646 64.9681 31.0604 64.8675 31.2008C64.7577 31.3538 64.666 31.5324 64.5504 31.6766C64.5022 31.7376 64.5605 31.8629 64.6144 31.8106C64.7482 31.6811 64.8514 31.5092 64.9705 31.3543C65.0693 31.2255 65.1942 31.0783 65.2504 30.9005C65.2631 30.8599 65.2367 30.803 65.2057 30.8146Z" fill="#900C0C"/>
<path d="M65.6804 30.7371C65.5318 30.7848 65.4352 30.9627 65.3313 31.1154C65.2107 31.2935 65.0732 31.4451 64.9555 31.6267C64.914 31.6903 64.9796 31.7996 65.025 31.7416C65.152 31.5794 65.2948 31.4482 65.419 31.2797C65.5174 31.1466 65.6691 30.9906 65.7163 30.8009C65.7243 30.7673 65.7051 30.7294 65.6804 30.7371Z" fill="#900C0C"/>
<path d="M66.0105 30.7798C65.8742 30.8549 65.7674 31.0555 65.6664 31.2064C65.6164 31.281 65.576 31.3631 65.5292 31.442C65.486 31.5148 65.4247 31.6559 65.362 31.6833C65.3102 31.7066 65.3291 31.834 65.3823 31.82C65.5013 31.7885 65.6041 31.5817 65.6796 31.4532C65.798 31.2507 65.9829 31.093 66.0542 30.8392C66.066 30.7974 66.0357 30.766 66.0105 30.7798Z" fill="#900C0C"/>
<path d="M66.199 31.1672C66.118 31.1789 66.0545 31.2897 66.0013 31.3722C65.9482 31.4547 65.9175 31.5067 65.8819 31.6034C65.8658 31.6473 65.8324 31.7181 65.7993 31.7336C65.7594 31.7522 65.7583 31.8432 65.804 31.847C65.9249 31.8559 65.9707 31.6785 66.0483 31.5769C66.1152 31.4887 66.2301 31.3707 66.2393 31.2258C66.2415 31.1953 66.2192 31.1641 66.199 31.1672Z" fill="#900C0C"/>
<path d="M66.4985 31.3292C66.4175 31.3968 66.3556 31.5125 66.2913 31.6109C66.2447 31.6821 66.3155 31.7829 66.3643 31.7167C66.4339 31.6227 66.524 31.52 66.5416 31.3755C66.5464 31.3382 66.5213 31.3095 66.4985 31.3292Z" fill="#900C0C"/>
<path d="M63.5482 29.8234C63.4213 29.7301 63.3211 29.6187 63.2198 29.4715C63.1609 29.3863 63.0791 29.524 63.1336 29.6112C63.2357 29.7748 63.3501 29.9812 63.5094 30.008C63.5753 30.0192 63.6067 29.866 63.5482 29.8234Z" fill="#900C0C"/>
<path d="M63.6541 29.3989C63.6089 29.2729 63.509 29.1976 63.4413 29.0984C63.4126 29.0563 63.384 29.0157 63.3546 28.9764C63.3076 28.9155 63.2286 28.8785 63.1939 28.8048C63.1663 28.7454 63.1117 28.814 63.1352 28.8724C63.1529 28.9165 63.1746 28.9415 63.2052 28.9655C63.2549 29.0039 63.2978 29.0703 63.3369 29.1295C63.4157 29.2489 63.5126 29.4155 63.6268 29.4525C63.6452 29.4586 63.6624 29.4237 63.6541 29.3989Z" fill="#900C0C"/>
<path d="M63.6138 28.7765C63.5916 28.7444 63.5704 28.7292 63.5422 28.7084C63.4779 28.6605 63.4286 28.5829 63.3792 28.5069C63.3012 28.3865 63.1931 28.3022 63.1105 28.187C63.0766 28.1399 63.0175 28.2199 63.0494 28.2713C63.1528 28.4374 63.2729 28.5772 63.3796 28.7384C63.4381 28.8272 63.529 28.9301 63.6121 28.8484C63.6297 28.831 63.6275 28.7958 63.6138 28.7765Z" fill="#900C0C"/>
<path d="M63.5593 28.2219C63.511 28.1132 63.4194 28.0392 63.3491 27.9622C63.3133 27.9231 63.2724 27.8956 63.2385 27.8522C63.1956 27.7985 63.1618 27.7449 63.1116 27.7049C63.0585 27.6634 63.0179 27.784 63.0691 27.8287C63.1147 27.8685 63.1465 27.928 63.1845 27.982C63.2185 28.03 63.2635 28.0622 63.3012 28.1029C63.3702 28.1786 63.4474 28.3085 63.5411 28.2825C63.5579 28.2775 63.569 28.2437 63.5593 28.2219Z" fill="#900C0C"/>
<path d="M63.3738 27.443C63.3126 27.3868 63.2518 27.3288 63.1983 27.2564C63.1579 27.2017 63.0926 27.2804 63.1316 27.3427C63.1821 27.4222 63.239 27.4872 63.297 27.552C63.3513 27.6127 63.4232 27.7197 63.4951 27.7205C63.5149 27.7205 63.5352 27.6961 63.5301 27.6636C63.5134 27.5559 63.4324 27.4976 63.3738 27.443Z" fill="#900C0C"/>
<path d="M63.4875 27.2551C63.4491 27.1311 63.3601 27.0421 63.2853 26.9684C63.2303 26.9139 63.1818 27.0422 63.2334 27.0985C63.3018 27.1736 63.3618 27.3029 63.453 27.3145C63.4736 27.317 63.4978 27.2889 63.4875 27.2551Z" fill="#900C0C"/>
<path d="M63.4035 30.3527C63.3678 30.3262 63.3313 30.3034 63.2972 30.2736C63.2501 30.2327 63.21 30.1827 63.1577 30.1582C63.1285 30.1442 63.0922 30.1887 63.1097 30.2343L63.1152 30.2523C63.1172 30.2637 63.1233 30.2706 63.1301 30.2754C63.1903 30.3896 63.2843 30.4965 63.3842 30.4854C63.4259 30.4811 63.4414 30.3804 63.4035 30.3527Z" fill="#900C0C"/>
<path d="M76.3272 26.2042C76.1807 26.3057 76.1075 26.55 76.001 26.7178C75.9357 26.8205 75.8571 26.9505 75.8578 27.099C75.8583 27.1607 75.9254 27.175 75.9386 27.1163C75.9703 26.9748 76.0711 26.8874 76.1369 26.7822C76.2278 26.637 76.3478 26.4678 76.3822 26.2727C76.3899 26.2286 76.3552 26.1846 76.3272 26.2042Z" fill="#900C0C"/>
<path d="M76.1999 25.9431C76.1264 25.979 76.0707 26.0726 76.017 26.1514C75.9524 26.2461 75.9049 26.35 75.8534 26.4591C75.8319 26.5048 75.8727 26.5749 75.9053 26.5402C75.9701 26.4705 76.0232 26.3762 76.0815 26.2947C76.1425 26.2098 76.214 26.1239 76.2441 26.0046C76.2535 25.9661 76.2232 25.9323 76.1999 25.9431Z" fill="#900C0C"/>
<path d="M76.1733 25.4993C76.0899 25.5033 76.009 25.6345 75.9505 25.7138C75.9005 25.7819 75.8259 25.8709 75.8277 25.9827C75.8288 26.0518 75.8968 26.084 75.9126 26.008C75.9208 25.9705 75.962 25.9353 75.9834 25.9125C76.0119 25.8821 76.0379 25.8466 76.0656 25.8147C76.1224 25.7498 76.2036 25.6726 76.2105 25.5588C76.2124 25.5289 76.1935 25.4978 76.1733 25.4993Z" fill="#900C0C"/>
<path d="M76.1967 24.773C76.1243 24.7935 76.0642 24.9114 76.0154 24.9856C75.9789 25.04 75.9553 25.1008 75.9253 25.1608C75.9051 25.1698 75.8938 25.189 75.8777 25.2178C75.8518 25.2637 75.8918 25.3325 75.9255 25.2951C75.9404 25.2783 75.9533 25.2881 75.9689 25.2775C75.9832 25.2676 75.9946 25.2458 76.0052 25.2296C76.0321 25.1881 76.0538 25.143 76.0823 25.1046C76.1353 25.0322 76.2218 24.9446 76.2374 24.8353C76.243 24.7968 76.223 24.7653 76.1967 24.773Z" fill="#900C0C"/>
<path d="M76.1108 24.4441C76.0342 24.471 75.965 24.5594 75.9369 24.6686C75.9185 24.7408 76.0019 24.7878 76.022 24.7159C76.0328 24.6784 76.0479 24.6536 76.0699 24.6292C76.1038 24.5915 76.1358 24.5559 76.1488 24.4943C76.1566 24.4602 76.1305 24.4366 76.1108 24.4441Z" fill="#900C0C"/>
<path d="M76.2476 26.939C76.1935 26.9493 76.1373 27.0031 76.0949 27.0518C76.0542 27.0981 76.028 27.1536 76.0268 27.2295C76.0255 27.3172 76.1124 27.329 76.128 27.2462C76.135 27.2077 76.1773 27.1846 76.1979 27.1667C76.2364 27.1324 76.2765 27.0987 76.2965 27.0373C76.3123 26.9888 76.2825 26.9322 76.2476 26.939Z" fill="#900C0C"/>
<path d="M44.8232 27.8547C44.7946 27.8167 44.7636 27.7977 44.729 27.7721C44.6542 27.7182 44.592 27.6305 44.5258 27.557C44.4295 27.45 44.3169 27.3776 44.2202 27.2693C44.1874 27.2324 44.1563 27.3063 44.178 27.3474C44.2752 27.5294 44.4202 27.6267 44.5354 27.7791C44.6101 27.8777 44.7189 28.0143 44.821 27.9269C44.839 27.9115 44.8364 27.8729 44.8232 27.8547Z" fill="#900C0C"/>
<path d="M44.7303 27.5002C44.7094 27.3761 44.6181 27.2976 44.5519 27.2281C44.4719 27.1441 44.3871 27.0524 44.3159 26.9535C44.263 26.8801 44.1826 26.9946 44.2339 27.0714C44.3018 27.1718 44.3847 27.278 44.4629 27.3597C44.5326 27.433 44.6061 27.5428 44.69 27.574C44.7203 27.585 44.736 27.5358 44.7303 27.5002Z" fill="#900C0C"/>
<path d="M44.7952 27.0344C44.7553 26.9317 44.6893 26.8726 44.6255 26.8053C44.5638 26.7405 44.5068 26.6705 44.448 26.5998C44.4038 26.5467 44.3462 26.6254 44.3831 26.6933C44.4735 26.8579 44.6215 27.0608 44.7691 27.0939C44.7896 27.0986 44.8046 27.0593 44.7952 27.0344Z" fill="#900C0C"/>
<path d="M44.8039 26.4952C44.7366 26.3417 44.6102 26.2823 44.5215 26.1609C44.477 26.1001 44.4184 26.2004 44.4587 26.2643C44.5441 26.3986 44.6523 26.5061 44.7721 26.5601C44.7961 26.571 44.817 26.5259 44.8039 26.4952Z" fill="#900C0C"/>
<path d="M44.8316 26.1583C44.8141 26.1135 44.7812 26.097 44.7553 26.0648C44.7295 26.0323 44.7056 25.9986 44.6822 25.9625C44.6405 25.8992 44.5783 26.0025 44.6197 26.0658C44.6663 26.1369 44.7416 26.2643 44.8164 26.2259C44.8357 26.216 44.841 26.1828 44.8316 26.1583Z" fill="#900C0C"/>
<path d="M44.589 28.1569C44.5465 28.113 44.5034 28.0729 44.4686 28.0153C44.4357 27.9595 44.3751 28.0416 44.4105 28.0891C44.4554 28.1496 44.5057 28.1933 44.5632 28.2235C44.5901 28.2375 44.6136 28.1823 44.589 28.1569Z" fill="#900C0C"/>
<path d="M44.8812 25.5522C44.8262 25.4551 44.7451 25.3918 44.6719 25.3284C44.6072 25.2718 44.4501 25.1447 44.4239 25.0502C44.4088 24.9956 44.3564 25.0328 44.3619 25.0847C44.3773 25.2365 44.4957 25.2982 44.5626 25.3965C44.6005 25.4526 44.669 25.4944 44.714 25.5389C44.7591 25.5831 44.807 25.6153 44.8608 25.6245C44.888 25.6292 44.895 25.5768 44.8812 25.5522Z" fill="#900C0C"/>
<path d="M44.89 25.2573C44.8036 25.0618 44.6384 24.9362 44.5086 24.8126C44.4645 24.7706 44.4145 24.8791 44.4561 24.926C44.5788 25.0634 44.7031 25.2721 44.8586 25.3244C44.8836 25.3331 44.9039 25.2887 44.89 25.2573Z" fill="#900C0C"/>
<path d="M77.1942 41.2502C77.0869 40.9903 76.7781 40.9089 76.545 40.7309C76.2779 40.5275 76.0124 40.3283 75.7575 40.0939C75.2989 39.6725 74.823 39.2945 74.3674 38.866C73.4064 37.9616 72.5513 36.8164 71.6405 35.8114C70.6824 34.754 69.6514 33.8403 68.6793 32.8104C68.3306 32.4411 67.9478 32.1043 67.5826 31.7711C67.3188 31.5304 67.0645 31.2634 66.816 30.9912C66.8123 30.9868 66.8086 30.9849 66.8051 30.9812C67.5382 30.8724 68.2668 30.6854 69.001 30.5711C70.0128 30.4145 71.028 30.209 72.0319 29.9528C72.4908 29.8356 74.4517 29.1677 74.892 28.9398C75.1094 28.827 75.3379 28.8157 75.5494 28.6857C75.9545 28.4364 76.3897 28.3611 76.5034 27.6454C76.5556 27.3173 76.5257 26.9529 76.5284 26.6195C76.5319 26.1798 76.5418 25.7402 76.5391 25.3007C76.5362 24.7699 76.5691 24.0222 76.3671 23.5488C76.2584 23.2942 76.0859 23.2835 75.8218 23.4478C75.3405 23.7483 73.6388 24.3403 73.1747 24.5342C72.6803 24.7406 72.1929 24.7276 71.6864 24.862C70.6618 25.1333 69.6247 25.332 68.5945 25.5484C68.0895 25.6547 67.6051 25.9136 67.0934 25.9071C66.6327 25.9016 66.1549 25.9455 65.6942 26.0075C65.244 26.0679 64.7932 26.1001 64.3441 26.187C64.1126 26.2319 63.8814 26.2616 63.6482 26.2658C63.4695 26.2695 63.2919 26.2502 63.1132 26.2342C62.912 26.2164 62.8503 26.1267 62.7283 25.9276C62.4526 25.479 61.9956 25.4209 61.633 25.1993C61.2841 24.9866 60.9716 24.6601 60.6228 24.4447C60.2367 24.2055 59.9498 24.227 59.5827 24.5213C59.2471 24.7908 58.7996 24.9214 58.4281 25.0335C58.0034 25.1608 57.5719 25.222 57.1472 25.3468C57.0066 25.3878 56.8988 25.4244 56.7803 25.5366C56.7241 25.59 56.6529 25.6965 56.5953 25.7425C56.5509 25.7772 56.5079 25.8622 56.4655 25.8853C56.3276 25.9587 56.0669 25.8515 55.9212 25.833C55.5488 25.7866 55.1772 25.7323 54.8066 25.6638C54.1202 25.5359 53.453 25.3023 52.7675 25.1751C52.13 25.0569 51.5006 24.9038 50.8605 24.8065C49.4322 24.5888 48.007 24.3797 46.5819 24.1414C45.9979 24.0434 45.3952 23.9258 44.8072 23.9239C44.4202 23.9224 44.1131 23.8471 44.1135 24.58C44.114 24.9643 44.1195 25.3477 44.1141 25.7326C44.1044 26.4067 44.0655 27.082 44.0883 27.7557C44.1134 28.5065 44.1632 28.8 44.689 28.9852C44.9325 29.0709 45.1926 29.0736 45.4419 29.1332C45.7435 29.2046 46.0193 29.231 46.3256 29.26C46.6354 29.2885 46.9363 29.4197 47.2432 29.4783C47.565 29.5396 47.8968 29.5209 48.2212 29.5567C48.8952 29.631 49.5511 29.8385 50.2264 29.9215C50.9161 30.0069 51.6102 29.9444 52.3003 30.0002C52.9356 30.0515 53.5525 30.2794 54.1812 30.3999C54.2794 30.419 54.3741 30.4518 54.4723 30.4632C54.4366 30.5083 54.402 30.5536 54.3695 30.5926C53.9841 31.0579 53.5659 31.4516 53.1586 31.8753C52.4453 32.617 51.721 33.3441 51.0181 34.1109C50.3157 34.8772 49.6777 35.7507 49.0062 36.5744C48.2678 37.4809 47.4628 38.2502 46.6871 39.0825C46.0207 39.7966 45.2996 40.5166 44.7067 41.3653C44.4078 41.7934 44.1078 42.2154 43.7821 42.5981C43.4492 42.989 43.1152 43.3146 42.7693 43.8105C42.7166 44.2818 43.0711 44.9217 43.2297 45.2884C43.7376 46.4623 44.0838 47.8183 44.8444 48.7072C44.8431 48.7155 44.8427 48.7245 44.8418 48.7331C44.8844 48.7501 44.927 48.7692 44.9688 48.7908C45.027 48.6853 45.1816 48.5906 45.2512 48.5304C45.3907 48.4086 45.5298 48.2865 45.6677 48.1595C45.9588 47.8909 46.2376 47.5934 46.5125 47.2897C47.076 46.6662 47.6157 45.9961 48.1351 45.2943C49.206 43.8486 50.1994 42.2818 51.288 40.8626C51.7913 40.207 52.3157 39.5897 52.8146 38.9249C53.3443 38.2186 53.9082 37.5757 54.4074 36.8202C54.9127 36.0553 55.403 35.2664 55.9049 34.4959C56.1476 34.1239 56.3928 33.7733 56.6807 33.4796C56.8918 33.265 57.1123 33.0193 57.3298 32.8226C57.4418 33.0487 57.5591 33.2693 57.6654 33.4971C57.8059 33.7978 57.9787 34.0257 58.2239 34.1044C58.5181 34.1982 58.8786 33.9525 59.1618 33.8718C59.5229 33.7682 59.7978 33.6078 60.07 33.2344C60.0968 33.1975 60.1226 33.1597 60.1475 33.121C60.7198 33.2548 61.3795 33.2805 61.9378 33.1072C62.2082 33.0235 62.4327 32.6525 62.6217 32.3804C62.6624 32.3219 62.7026 32.2621 62.738 32.1995C62.905 32.4205 63.0928 32.5932 63.281 32.7819C63.5734 33.0748 63.851 33.4081 64.1344 33.7194C64.7006 34.341 65.2813 34.9255 65.8164 35.6064C66.7903 36.8459 67.7018 38.1593 68.7292 39.3066C69.2268 39.8627 69.6651 40.4971 70.1804 41.0239C70.6885 41.5435 71.1472 42.1487 71.6667 42.6512C72.082 43.0535 72.4661 43.5679 72.8708 44.0098C73.3077 44.487 73.6722 44.8898 74.1366 45.2892C74.4288 45.5408 74.9249 46.1625 75.2959 46.0249C75.6195 45.9047 75.7773 45.3289 75.9156 44.9292C76.1203 44.3369 76.3598 43.7414 76.6479 43.2278C76.8577 42.8528 77.4048 41.7597 77.1942 41.2502ZM64.3705 26.5489C64.8176 26.4725 65.265 26.4586 65.7115 26.3795C65.9281 26.3405 66.1495 26.3679 66.3679 26.3509C66.6411 26.3301 66.9053 26.2787 67.1804 26.2835C67.6725 26.2919 68.1456 26.0266 68.6333 25.9216C69.62 25.7092 70.6082 25.5026 71.593 25.2658C72.0814 25.1478 72.5577 24.9714 73.049 24.8787C73.4615 24.8008 76.1583 23.427 76.1968 23.8618C76.3563 24.5154 76.2684 25.0987 76.3076 26.0805C76.3258 26.5329 76.4242 27.0515 76.3072 27.492C76.1811 27.9653 75.927 28.2039 75.6446 28.3121C75.274 28.4538 73.9519 29.038 73.4762 29.1303C73.19 29.187 72.5067 29.4456 72.2226 29.5236C71.7424 29.655 71.2592 29.7934 70.7729 29.8569C70.2117 29.9297 69.666 30.1057 69.1058 30.1819C68.5659 30.256 68.027 30.3785 67.4908 30.4976C66.975 30.6124 66.4577 30.6323 65.9383 30.6983C65.403 30.7657 64.8612 30.6138 64.3234 30.667C64.0432 30.6945 63.7672 30.7553 63.4862 30.7713C63.437 30.774 63.1971 30.8064 63.0516 30.8184C63.1331 30.1869 63.1595 29.5417 63.1402 28.8979C63.1181 28.1407 63.0882 27.2869 62.9413 26.5438C63.3966 26.6959 63.9115 26.6273 64.3705 26.5489ZM57.9005 25.6199C58.1198 25.6042 58.3512 25.4582 58.5678 25.3996C58.8565 25.3211 59.1425 25.0554 59.4367 24.9816C59.4584 25.0063 59.4872 25.0111 59.5178 24.9767C59.5209 24.9734 59.5247 24.9688 59.5279 24.9652C59.5467 24.9633 59.5659 24.9617 59.5846 24.9614C59.7867 24.9617 59.8995 24.814 60.0582 24.6647C60.0962 24.7094 60.1329 24.7784 60.1676 24.8806C60.2533 25.1368 60.3254 25.4112 60.4063 25.6707C60.4198 25.7143 60.4325 25.7568 60.4456 25.7998C60.428 25.8365 60.4186 25.8823 60.424 25.9372C60.4683 26.3727 60.1216 26.8766 59.9879 27.2354C59.7849 27.7803 59.543 28.2302 59.2464 28.6741C59.1718 28.7852 59.0958 28.8946 59.019 29.0026C58.8491 28.497 58.6542 28.0093 58.5071 27.4875C58.3528 26.9403 58.1337 26.5776 57.8816 26.1297C57.7822 25.9528 57.6865 25.7729 57.5763 25.6246C57.6848 25.6284 57.7929 25.6282 57.9005 25.6199ZM56.7857 25.921C56.8003 25.7403 57.1429 25.773 57.2302 25.7965C57.3132 25.8181 57.4245 25.9813 57.4888 25.986C57.3373 25.975 56.7857 25.9223 56.7857 25.921ZM54.2782 29.9779C53.5954 29.8378 52.9208 29.6075 52.2478 29.7098C51.8049 29.6824 51.3494 29.6982 50.9047 29.6795C50.2613 29.6524 49.6168 29.5569 48.9888 29.3939C48.3823 29.2355 47.7674 29.2758 47.1595 29.1599C46.8918 29.1096 46.6363 29.0043 46.3665 28.966C46.0778 28.9247 45.7929 28.9074 45.504 28.85C45.2985 28.8089 45.1146 28.7738 44.9058 28.7527C44.6088 28.722 44.3412 28.5426 44.3077 28.0675C44.2618 27.4233 44.3489 26.6693 44.3602 26.0149C44.3702 25.4637 44.279 24.6959 44.4341 24.1781C44.53 24.1959 44.6278 24.2035 44.7248 24.205C45.0224 24.2114 45.3095 24.2875 45.6063 24.3059C46.3405 24.3516 47.0766 24.5317 47.7998 24.6801C49.0871 24.9447 50.4316 24.9008 51.702 25.28C52.2774 25.4518 52.8708 25.483 53.4504 25.6413C54.0754 25.812 54.6955 25.9626 55.3313 26.0656C56.1157 26.1928 56.8952 26.2771 57.6789 26.3097C57.6785 26.3084 57.6783 26.3072 57.6781 26.3059C57.8334 26.565 57.9939 26.8297 58.122 27.1106C58.2545 27.4017 58.3163 27.7789 58.42 28.0951C58.5491 28.4909 58.6979 28.8719 58.8282 29.2668C58.6872 29.4604 58.5441 29.6505 58.4025 29.8422C58.0704 30.2923 57.6774 30.5126 57.2254 30.4533C56.686 30.3828 56.5833 30.3166 56.0425 30.2618C55.7655 30.2342 55.4966 30.1521 55.2188 30.1285C54.9085 30.1025 54.594 30.0425 54.2782 29.9779ZM57.0613 32.6025C56.9083 32.7777 56.6343 33.0583 56.6113 33.0804C56.3399 33.3413 56.1062 33.6447 55.8777 33.9821C55.3668 34.7374 54.8719 35.5175 54.3804 36.2999C53.8934 37.0734 53.3358 37.7143 52.8061 38.4181C52.2127 39.2066 51.595 39.9507 50.9969 40.7306C49.9187 42.1355 48.9327 43.6885 47.8783 45.1304C47.33 45.8796 46.7509 46.5778 46.1523 47.2365C45.9889 47.4158 45.8249 47.5948 45.6598 47.7717C45.5235 47.9175 45.2154 48.3335 45.043 48.3873C45.0074 48.3984 44.9765 48.4192 44.9508 48.4463C44.8586 48.1552 44.6594 47.8255 44.5067 47.6435C44.2319 47.3163 44.0078 46.6072 43.8468 46.1517C43.6704 45.6532 43.4688 45.1931 43.2725 44.7106C43.1731 44.4675 43.0003 44.25 43.0807 43.9314C43.1355 43.7134 43.2797 43.5276 43.4131 43.4101C43.4167 43.4073 43.4195 43.4025 43.4224 43.3985C43.4239 43.4001 43.4253 43.4019 43.4265 43.4032C43.6133 43.1835 43.8372 43.0054 44.0132 42.7991C44.2935 42.4703 44.5517 42.1007 44.8091 41.7339C45.4187 40.8636 46.145 40.1273 46.8272 39.3901C47.4698 38.696 48.1387 38.0553 48.766 37.3304C49.4532 36.5371 50.0789 35.6348 50.7675 34.8461C51.5216 33.9815 52.3353 33.2431 53.0917 32.3874C53.4386 31.9954 53.8073 31.6451 54.1639 31.2721C54.351 31.0755 54.485 30.7817 54.667 30.5759C54.7776 30.45 54.8782 30.4823 55.0007 30.5322C55.1243 30.5822 55.242 30.5825 55.3662 30.6182C55.5962 30.6846 55.8342 30.6916 56.0687 30.6976C56.325 30.7043 56.5772 30.7738 56.8304 30.7946C56.8099 30.8248 56.793 30.856 56.7836 30.8888C56.6694 31.2781 56.8906 31.7105 56.9987 32.0425C57.0465 32.1884 57.1023 32.3288 57.1623 32.4654C57.1669 32.4759 57.1247 32.5301 57.0613 32.6025ZM59.9102 32.9602C59.5579 33.488 58.6537 33.9725 58.1636 33.7111C57.9156 33.5792 57.7445 33.0446 57.5915 32.748C57.3867 32.3513 56.7213 31.3017 57.1102 30.8032C57.3871 31.0897 58.0591 30.6882 58.3127 30.4144C58.705 29.9907 59.0682 29.4462 59.4132 28.942C59.7559 28.4399 60.0123 27.9239 60.2433 27.3037C60.3531 27.008 60.5228 26.7181 60.6122 26.3977C60.7056 26.7696 60.7793 27.1473 60.8277 27.557C61.0092 29.0914 61.0312 30.5759 60.4144 31.9133C60.2453 32.2799 60.1254 32.6377 59.9102 32.9602ZM62.6623 31.5203C62.4608 32.2335 62.1049 32.7815 61.5021 32.8389C61.0997 32.8772 60.6972 32.8264 60.2959 32.868C60.411 32.8559 61.1493 31.0511 61.177 30.8133C61.3502 29.3348 61.1735 27.2097 60.7424 25.8752C60.6309 25.5299 60.507 25.1918 60.4097 24.8365C60.3985 24.7941 60.3859 24.7542 60.373 24.7154C60.7072 24.9011 61.026 25.147 61.3435 25.3903C61.5459 25.545 61.752 25.664 61.9683 25.7703C62.344 25.9538 62.5913 26.0756 62.7063 26.6687C62.8519 27.4198 62.8723 28.3028 62.895 29.0828C62.9168 29.8218 62.8762 30.7639 62.6623 31.5203ZM76.6341 42.4525C76.2623 43.4669 75.8789 44.4892 75.4508 45.4362C75.1692 46.0572 74.1977 44.744 73.9026 44.5189C73.266 44.0321 72.7907 43.2834 72.1974 42.7098C71.138 41.6854 70.1075 40.5676 69.1564 39.3353C68.675 38.7113 68.1401 38.182 67.6563 37.5583C67.1524 36.9084 66.669 36.224 66.1688 35.5683C65.6769 34.9241 65.1467 34.3758 64.6179 33.8038C64.3264 33.4884 64.0352 33.1718 63.7435 32.857C63.4488 32.5388 63.1193 32.2718 62.8333 31.9365C62.8366 31.9165 62.8387 31.8968 62.8401 31.8759C62.8579 31.8524 62.8718 31.8206 62.8809 31.7825C62.9341 31.5525 62.9786 31.3196 63.0149 31.0841C63.4311 31.206 63.9066 31.0724 64.3171 31.0173C64.8539 30.9453 65.3899 31.0783 65.9265 31.0636C66.112 31.0581 66.2972 31.0437 66.4816 31.0234C66.5611 31.0718 66.642 31.1171 66.7136 31.2081C66.918 31.467 67.1324 31.7122 67.3518 31.9427C67.8267 32.4427 68.317 32.9136 68.8031 33.3879C69.7782 34.3393 70.7662 35.3084 71.6961 36.3528C72.6382 37.4106 73.5367 38.576 74.5497 39.4879C74.9439 39.8427 75.365 40.2075 75.7786 40.5427C76.1309 40.8285 76.5951 41.3462 76.9943 41.4678C76.8746 41.793 76.7551 42.1224 76.6341 42.4525Z" fill="#900C0C"/>
</svg>
