<svg width="70" height="102" viewBox="0 0 70 102" fill="none" xmlns="http://www.w3.org/2000/svg">
<path d="M2.99994 97.2V48.6V0H24.4799V41H37.4999L47.9999 24V0H68.4999V24L58.9999 38.5V46L69.9999 70V97.2H48.4999V74L37.4999 53.5H24.4799V97.2H2.99994Z" fill="#F9F6F2"/>
<path d="M4.17732 82.7473C3.25629 81.6739 2.70074 80.2107 2.11366 78.6621C1.88813 78.0688 1.65562 77.455 1.40259 76.872C1.35288 76.7584 1.29318 76.6307 1.22853 76.4922C0.983048 75.9647 0.619187 75.1861 0.624083 74.6452C1.01639 74.0973 1.40808 73.6626 1.78789 73.2418C1.96111 73.0494 2.1388 72.8506 2.31587 72.6449C2.89763 71.9644 3.42223 71.2293 3.95299 70.4734C4.8058 69.2566 5.8231 68.184 6.80629 67.1481C7.00383 66.9394 7.19989 66.7318 7.39412 66.5252C7.81372 66.0776 8.24643 65.6307 8.66432 65.1997C9.60012 64.2355 10.567 63.238 11.4662 62.1395C11.8552 61.6651 12.2423 61.1751 12.616 60.7004C13.3756 59.7401 14.1601 58.7462 14.9792 57.8561C15.8383 56.923 16.7314 56.0071 17.5952 55.1224C17.9716 54.737 18.3479 54.3516 18.7221 53.964C18.9222 53.7564 19.1237 53.5531 19.3255 53.3504C19.8358 52.837 20.3635 52.3045 20.8561 51.7124C20.8954 51.6658 20.936 51.6137 20.978 51.5606L21.4758 50.9342L20.9082 50.8687C20.8161 50.8587 20.7224 50.8353 20.6235 50.8101C20.5534 50.7924 20.4826 50.7752 20.4109 50.7618C20 50.683 19.5833 50.5757 19.1794 50.4713C18.5044 50.2973 17.8058 50.118 17.1006 50.0617C16.8041 50.0378 16.4787 50.0238 16.0772 50.0177C15.8756 50.0147 15.6743 50.0138 15.4734 50.0134C15.2728 50.012 15.073 50.0111 14.8724 50.0081C14.4881 50.0023 13.9811 49.9876 13.4758 49.9257C12.9119 49.8565 12.3427 49.7345 11.7927 49.6161C11.1973 49.4884 10.5811 49.3571 9.96287 49.2887C9.72802 49.2636 9.48967 49.253 9.25969 49.2436C8.92912 49.23 8.58725 49.2163 8.26324 49.1544C8.04796 49.1141 7.82756 49.0495 7.61333 48.9877C7.29961 48.8965 6.97464 48.8024 6.64141 48.7716C6.12646 48.7235 5.64027 48.6785 5.11663 48.5546C4.93239 48.511 4.7457 48.4845 4.56484 48.4581C4.30247 48.4203 4.05356 48.3849 3.81558 48.3017C3.02837 48.0255 2.98449 47.6955 2.94384 46.4765C2.91657 45.6992 2.93925 44.8991 2.96189 44.1253C2.97196 43.7483 2.98368 43.3595 2.98913 42.9744C2.99498 42.5157 2.99321 42.0536 2.9905 41.6055C2.98939 41.3895 2.98827 41.1746 2.98789 40.9581C2.98797 40.6395 3.02441 40.4241 3.09714 40.3172C3.20005 40.1684 3.43104 40.159 3.69867 40.163L4.05088 40.1683C4.90625 40.1813 5.78982 40.3316 6.64502 40.4767L7.04297 40.5445C9.02192 40.8737 11.0348 41.177 12.9819 41.4702L14.537 41.7043C15.2189 41.8076 15.9078 41.9496 16.5739 42.087C16.9981 42.1756 17.4366 42.2661 17.8708 42.3457C18.4643 42.4557 19.0644 42.6152 19.6441 42.769C20.2289 42.924 20.8337 43.0846 21.44 43.1969C22.0309 43.3058 22.672 43.4041 23.4015 43.4936C23.4656 43.5016 23.5517 43.5233 23.6433 43.5456C23.801 43.5845 23.9801 43.6281 24.1445 43.6305C24.2681 43.6324 24.3691 43.6114 24.4548 43.5649C24.5401 43.5199 24.6041 43.435 24.6562 43.3659C24.6748 43.3415 24.7031 43.3048 24.7141 43.2959C24.7928 43.2342 24.8667 43.144 24.9384 43.0564C24.9804 43.0055 25.0239 42.9524 25.0542 42.9223C25.2255 42.761 25.3806 42.7085 25.6146 42.6401C25.9722 42.5359 26.341 42.4555 26.6981 42.3776C27.079 42.2953 27.472 42.2099 27.8585 42.0938L27.8999 42.0815C28.5413 41.8898 29.3396 41.6509 29.9461 41.1664C30.2769 40.9017 30.5482 40.7855 30.8253 40.7897C31.0484 40.793 31.2828 40.875 31.5624 41.0474C31.8526 41.2269 32.1253 41.4486 32.4142 41.6829C32.7078 41.9221 33.0115 42.1696 33.3321 42.3646C33.5355 42.488 33.7536 42.5837 33.9645 42.675C34.4318 42.8798 34.8735 43.0723 35.1654 43.5468C35.3971 43.9226 35.561 44.1545 35.9995 44.1934L36.1149 44.2048C36.3407 44.2254 36.5749 44.2461 36.8083 44.2497C36.8567 44.2504 36.9049 44.25 36.953 44.2497C37.3408 44.2421 37.7485 44.1962 38.1999 44.1095C38.7145 44.0099 39.2416 43.9512 39.7523 43.8934C40.019 43.863 40.2872 43.8333 40.5543 43.7975C41.5099 43.6707 42.2809 43.6152 42.9807 43.6242C43.5735 43.6315 44.1442 43.4462 44.6965 43.2671C45.0069 43.1654 45.3276 43.0612 45.6437 42.9956C46.0117 42.9179 46.3805 42.8423 46.75 42.7662C48.1676 42.4745 49.6342 42.1743 51.0666 41.7963C51.4104 41.7053 51.7576 41.6531 52.0939 41.6023C52.6148 41.5231 53.1536 41.4415 53.6945 41.216C53.9243 41.1212 54.3384 40.9663 54.8177 40.7871C56.0504 40.3249 57.739 39.6929 58.3575 39.309C58.5343 39.1983 58.6777 39.1435 58.7831 39.1451C58.8913 39.1467 58.9583 39.2047 59.021 39.3518C59.2912 39.9828 59.2884 41.0094 59.2865 41.8346C59.2856 41.9689 59.2854 42.0994 59.2861 42.2235C59.2894 42.7281 59.2827 43.2432 59.2759 43.7416C59.2727 43.9994 59.2696 44.2583 59.2671 44.5156C59.2657 44.6854 59.2689 44.8584 59.2724 45.0336C59.2798 45.4415 59.2883 45.8623 59.2299 46.2289C59.105 47.0119 58.7266 47.2458 58.1193 47.5638C57.9833 47.6353 57.8425 47.7084 57.7015 47.7954C57.5226 47.905 57.3288 47.9628 57.1248 48.0231C56.9416 48.0778 56.7533 48.1341 56.5633 48.2316C55.7973 48.6268 52.3812 49.7817 51.5945 49.9826C49.8731 50.4202 48.093 50.7828 46.3037 51.0576C45.6775 51.1546 45.0454 51.2831 44.4337 51.4076C43.7869 51.5391 43.1171 51.6746 42.4596 51.7721L41.8229 51.8656L42.3518 52.4151L42.364 52.4261C42.896 53.0068 43.3131 53.4289 43.716 53.795L44.0268 54.0763C44.5625 54.561 45.1166 55.0614 45.6217 55.5934C46.3863 56.4001 47.1827 57.1772 47.9532 57.928C48.901 58.8525 49.8807 59.8085 50.8026 60.8212C51.3741 61.4487 51.9441 62.1219 52.4952 62.7717C53.483 63.9368 54.5046 65.1417 55.5913 66.1601C56.0249 66.5664 56.4739 66.9514 56.9092 67.3238C57.2782 67.6404 57.6595 67.9664 58.0275 68.3034C58.4437 68.6836 58.8803 69.0158 59.3018 69.3354L59.4222 69.4275C59.565 69.5355 59.7176 69.6221 59.8655 69.7055C60.1186 69.8501 60.3807 69.9985 60.4669 70.2061C60.683 70.7257 60.1596 72.1302 59.5311 73.2478C59.0754 74.057 58.6468 75.0487 58.2194 76.2778C58.1927 76.3559 58.1652 76.4382 58.1366 76.5221C57.9262 77.1491 57.6871 77.86 57.2903 78.0061C57.2459 78.0231 57.197 78.0304 57.1455 78.0297C56.7419 78.0236 56.2276 77.5204 55.8144 77.1161C55.6789 76.983 55.5506 76.8575 55.4368 76.7596C54.6754 76.1077 54.064 75.443 53.3561 74.6737L53.2423 74.5495C52.9657 74.2499 52.6887 73.9223 52.4207 73.6061C52.0037 73.1136 51.5723 72.6042 51.1226 72.1708C50.6341 71.6987 50.1641 71.1619 49.7103 70.6425C49.3288 70.2059 48.9345 69.7546 48.5258 69.339C48.019 68.8237 47.5432 68.2319 47.0829 67.6598C46.7332 67.2242 46.3705 66.775 45.9929 66.355C44.7928 65.0196 43.6593 63.5234 42.5634 62.0773C42.0242 61.3648 41.4665 60.629 40.9047 59.9162C40.2112 59.0375 39.4654 58.2402 38.744 57.4697C38.4777 57.1863 38.2118 56.9013 37.947 56.6126C37.7823 56.4317 37.6184 56.2477 37.4549 56.0631C37.129 55.695 36.7916 55.3154 36.4445 54.969C36.3841 54.9085 36.3234 54.8495 36.2641 54.7901C35.9979 54.5282 35.7456 54.281 35.5182 53.9821L35.3351 53.7413L35.1769 54.0226C35.1211 54.1233 35.0513 54.2248 34.9906 54.3109C34.9522 54.3668 34.913 54.4237 34.8724 54.4837C34.5859 54.9022 34.2615 55.3765 33.9123 55.4846C33.4444 55.6296 32.9138 55.6978 32.3381 55.6891C31.8583 55.6819 31.3483 55.6183 30.8639 55.5051L30.741 55.477L30.6544 55.6094C30.613 55.6722 30.5709 55.7344 30.5277 55.7934C30.1266 56.3423 29.7134 56.6294 29.0552 56.816C28.8978 56.8609 28.7348 56.9294 28.563 57.0025C28.2676 57.127 27.9629 57.2562 27.696 57.2521C27.6289 57.2511 27.5656 57.2416 27.5086 57.223C27.1838 57.1203 26.9183 56.8278 26.6731 56.3056C26.5491 56.0395 26.4146 55.7752 26.2846 55.5219C26.2173 55.3887 26.1493 55.2555 26.0824 55.1212L25.9549 54.8652L25.7686 55.0332C25.4994 55.2757 25.2293 55.5575 24.9681 55.8302C24.8514 55.9525 24.7357 56.0733 24.6217 56.1892C24.0835 56.7344 23.6331 57.3852 23.2262 58.0071C22.841 58.5954 22.4537 59.1988 22.0798 59.7825C21.5987 60.5333 21.1012 61.3085 20.6041 62.0579C20.0477 62.8967 19.4298 63.6739 18.8313 64.4245C18.5004 64.8407 18.1573 65.2718 17.8268 65.7105C17.3489 66.3448 16.848 66.9657 16.3641 67.5655C15.9653 68.0586 15.5539 68.5692 15.1562 69.0853C14.1008 70.4549 13.0823 71.9234 12.0973 73.3434C11.2983 74.4961 10.4711 75.6881 9.63237 76.8159C8.68831 78.0856 7.73857 79.2484 6.80954 80.2717C6.38416 80.7397 5.87885 81.2843 5.34669 81.7716C5.09965 81.9983 4.85277 82.2143 4.62327 82.4139C4.59409 82.4388 4.55573 82.4672 4.51295 82.4988C4.4126 82.5751 4.29568 82.662 4.19669 82.7685L4.17732 82.7473Z" fill="#E60000"/>
<path d="M28.2121 53.6221C28.1205 54.0118 27.7669 54.1977 27.5252 54.3364C27.2077 54.5186 26.877 54.7521 26.5334 54.6604C26.4738 54.6439 26.4675 54.5095 26.5266 54.4846C26.8639 54.3415 27.1967 54.1574 27.5168 53.9452C27.7228 53.8075 27.9316 53.5539 28.1554 53.5111C28.1989 53.5031 28.2257 53.5653 28.2121 53.6221ZM26.8968 52.9602C26.672 52.9734 26.4548 53.1265 26.2432 53.2323C26.1307 53.2887 25.9735 53.3153 25.8751 53.411C25.7914 53.4931 25.8514 53.6713 25.9456 53.6147C26.0082 53.5764 26.1065 53.6139 26.1746 53.5972C26.2397 53.5815 26.3086 53.5363 26.3709 53.5131C26.5701 53.4398 26.7845 53.3184 26.9365 53.1096C26.9737 53.0591 26.9486 52.9572 26.8968 52.9602ZM30.6124 46.2714C30.3368 46.6046 30.1481 47.0707 29.8952 47.4467C29.4168 48.1594 29.0058 48.9606 28.5035 49.6407C28.1073 50.1784 27.6326 50.5323 27.2065 51.0039C26.9528 51.2843 26.6898 51.4802 26.3964 51.6375C26.2942 51.6912 25.6212 51.8917 25.5808 51.7686C25.5616 51.7113 25.521 51.6951 25.4836 51.7284C25.4711 51.7395 25.4589 51.7506 25.4463 51.7617C25.3916 51.8119 25.3866 51.9467 25.4383 52.0028C26.1937 52.8126 27.3187 51.393 27.9369 50.8619C28.5203 50.3609 28.9987 49.5499 29.441 48.8071C29.9016 48.034 30.4202 47.3316 30.6919 46.3682C30.7112 46.2997 30.6559 46.2183 30.6124 46.2714ZM28.665 51.3064C28.4348 51.3868 28.2424 51.6691 28.0399 51.8417C27.966 51.9051 28.0206 52.0805 28.0974 52.0183C28.3027 51.8511 28.5379 51.6591 28.7047 51.4123C28.7311 51.3724 28.7017 51.2936 28.665 51.3064ZM29.1461 52.6074C29.0304 52.6379 28.952 52.7812 28.8747 52.8988C28.8333 52.9637 28.7843 53.0704 28.7233 53.0947C28.669 53.1159 28.6762 53.2186 28.7286 53.2323C28.8245 53.2563 28.8987 53.2161 28.9752 53.127C29.0688 53.0172 29.185 52.8777 29.2089 52.6975C29.2159 52.6444 29.1794 52.5993 29.1461 52.6074ZM28.9517 54.7824C28.6987 54.9446 28.4667 55.1646 28.2189 55.3419C28.0434 55.4665 27.8566 55.5674 27.6729 55.6602C27.473 55.7625 27.2604 55.7373 27.0607 55.8444C26.9993 55.8773 27.0177 56.0328 27.0827 56.0306C27.762 56.0113 28.5544 55.7327 29.0202 54.9285C29.0606 54.8603 29.011 54.7435 28.9517 54.7824ZM29.157 56.0324C28.9971 56.0445 28.853 56.2169 28.7174 56.3325C28.5364 56.4861 28.3446 56.5574 28.155 56.6727C28.1171 56.6963 28.1202 56.7796 28.1571 56.799C28.3558 56.9041 28.5852 56.777 28.7687 56.654C28.9301 56.5453 29.1283 56.4129 29.2255 56.185C29.2557 56.114 29.2074 56.0289 29.157 56.0324ZM27.475 44.414C27.2963 44.0277 27.1161 43.4243 26.8181 43.2108C26.7297 43.1477 26.6517 43.3163 26.7339 43.4046C26.9786 43.6688 27.1409 44.2461 27.3087 44.6075C27.5093 45.0355 27.6567 45.5422 27.8789 45.9431C27.9084 45.9962 27.9804 45.9807 27.9744 45.8962C27.9345 45.3541 27.6773 44.8522 27.475 44.414ZM28.3589 44.0599C28.3391 43.9441 28.3648 43.8338 28.3308 43.7183C28.2989 43.6104 28.2606 43.5147 28.2128 43.42C28.1169 43.2299 27.9952 42.9573 27.8407 42.8755C27.7625 42.8335 27.7152 42.9762 27.7587 43.0612C27.8643 43.268 28.0008 43.4796 28.0856 43.7076C28.1364 43.8448 28.2234 44.046 28.3253 44.1072C28.3474 44.1209 28.3643 44.089 28.3589 44.0599ZM28.5697 44.6357C28.5278 44.5094 28.4744 44.399 28.3951 44.3183C28.3548 44.2774 28.2851 44.3301 28.3106 44.4083C28.3478 44.5266 28.3596 44.6643 28.4134 44.7693C28.4821 44.903 28.6209 44.7918 28.5697 44.6357ZM29.2473 43.3819C29.1962 43.2629 29.1183 43.1548 29.0805 43.0253C29.0295 42.8532 28.8646 42.7873 28.8207 42.626C28.7893 42.5116 28.6509 42.5455 28.6555 42.6751C28.6589 42.7869 28.6749 42.8424 28.7298 42.9222C28.7701 42.9825 28.8168 43.0294 28.8549 43.0939C28.8783 43.134 28.9223 43.2889 28.9459 43.3408C29.0405 43.5512 29.1229 43.9403 29.2929 44.0294C29.3179 44.0427 29.3541 44.0335 29.3639 43.9902C29.4176 43.767 29.3273 43.5674 29.2473 43.3819ZM29.7864 42.1925C29.7668 42.138 29.758 42.0728 29.7081 42.0635C29.6609 42.0552 29.5942 42.144 29.6289 42.2165C29.6469 42.2544 29.658 42.3389 29.673 42.3858C29.6884 42.4312 29.7078 42.4723 29.7287 42.5129C29.7627 42.5779 29.8087 42.6474 29.8694 42.6413C29.8887 42.6384 29.9138 42.621 29.9172 42.5888C29.9336 42.4435 29.8298 42.3146 29.7864 42.1925ZM12.8776 42.0341C12.1147 41.8174 11.3379 41.6751 10.5683 41.5098C9.64498 41.3121 8.68579 41.0499 7.74599 41.1695C7.70178 41.1752 7.68968 41.2761 7.73655 41.2875C8.59751 41.5095 9.46952 41.5802 10.3256 41.7892C11.1267 41.9861 12.0499 42.338 12.8632 42.2413C12.9421 42.2317 12.9593 42.0574 12.8776 42.0341ZM20.1283 43.4927C19.7083 43.2156 19.2366 43.2273 18.7957 43.0605C18.2137 42.8411 17.6225 42.8413 17.03 42.7362C16.4764 42.6381 15.921 42.4922 15.3717 42.3512C15.0455 42.2673 14.7169 42.2908 14.3881 42.2568C14.0498 42.2227 13.7621 42.0996 13.4168 42.1664C13.362 42.1768 13.3706 42.2833 13.4174 42.2991C13.9958 42.4926 14.5452 42.5794 15.1342 42.6501C15.7483 42.7249 16.3587 42.9689 16.9697 43.0797C17.4909 43.173 18.0166 43.1643 18.5365 43.2935C19.059 43.4234 19.569 43.6019 20.1025 43.6304C20.1503 43.6322 20.1738 43.523 20.1283 43.4927ZM21.3782 43.7298C21.3069 43.6459 21.2051 43.6466 21.1163 43.6307C20.9738 43.6049 20.8282 43.5592 20.6838 43.5866C20.596 43.603 20.6024 43.783 20.6834 43.8063C20.8108 43.8415 20.9426 43.8559 21.0705 43.8873C21.1712 43.9114 21.2884 43.9487 21.377 43.8571C21.4059 43.8269 21.4043 43.7613 21.3782 43.7298ZM10.2581 43.0195C10.218 42.9932 10.1825 42.9276 10.1333 42.9296C10.0789 42.9325 10.0303 42.9387 9.97656 42.9471C9.85958 42.9657 9.70786 42.9178 9.59195 42.8897C9.50256 42.8684 9.48268 43.0734 9.56341 43.1133C9.64484 43.1543 9.72569 43.2097 9.80519 43.2588C9.89156 43.3111 9.96995 43.3359 10.0584 43.3496C10.0638 43.3551 10.068 43.3605 10.0727 43.3659C10.1119 43.4025 10.1729 43.4212 10.2162 43.3821C10.2357 43.3647 10.2546 43.3467 10.2746 43.3292C10.3526 43.2579 10.3386 43.0713 10.2581 43.0195ZM19.5203 44.8922C18.8456 44.5102 18.0969 44.4607 17.3878 44.2749C16.7416 44.1056 16.0799 44.0434 15.4308 43.8714C14.6709 43.6702 13.9019 43.5882 13.1366 43.4553C12.4044 43.3276 11.6471 43.1512 10.9067 43.2502C10.8066 43.2637 10.8133 43.4696 10.9041 43.4967C12.2379 43.8946 13.625 43.9553 14.9797 44.2089C15.8154 44.3661 16.6849 44.4335 17.5108 44.6345C18.1612 44.7927 18.8193 44.9724 19.4728 45.0924C19.5496 45.1059 19.601 44.9375 19.5203 44.8922ZM8.58377 71.7965C8.06683 72.1938 7.6158 72.8145 7.20406 73.418C7.17946 73.4531 7.15488 73.4866 7.13102 73.5211C6.2448 74.125 5.41269 75.1063 4.69163 76.0512C4.55582 76.2296 4.43944 76.425 4.32329 76.6296C4.17606 76.8879 4.03729 77.0454 3.87638 77.1713C3.52486 77.144 2.96318 77.8231 2.99141 78.2953C2.99571 78.3732 3.05288 78.4026 3.09594 78.3769C3.11607 78.396 3.13775 78.4098 3.16137 78.4155C3.45384 78.4887 3.80442 78.1679 3.97454 77.7702C4.03383 77.7324 4.09209 77.6903 4.14577 77.6374C4.35753 77.4284 4.54044 77.1502 4.73018 76.9022C5.21755 76.2659 5.7646 75.7106 6.28848 75.1437C6.70002 74.6987 7.0604 74.284 7.42997 73.7443C7.84017 73.1466 8.34827 72.659 8.68085 71.9608C8.72419 71.868 8.65204 71.7438 8.58377 71.7965ZM5.85463 72.2404C5.6977 72.3927 5.54572 72.5548 5.39549 72.7223C5.16809 72.9521 4.94754 73.2114 4.73599 73.479C4.46023 73.7961 4.18057 74.1056 3.8811 74.3745C3.63044 74.5991 3.42127 74.9021 3.16312 75.1158C2.85105 75.3738 2.52912 75.6091 2.26864 75.9764C2.16953 76.1156 2.14716 76.2926 2.18648 76.4415C2.18484 76.4538 2.18244 76.4677 2.18189 76.4801C2.17862 76.5515 2.21276 76.5853 2.25101 76.588C2.26919 76.6157 2.28995 76.6413 2.31404 76.6642C2.58596 76.9149 3.05006 76.057 3.12409 75.7674C3.12597 75.7637 3.12457 75.7599 3.12609 75.7556C3.17402 75.6973 3.22604 75.6336 3.28685 75.5674C3.6802 75.1435 4.09904 74.77 4.48531 74.3321C4.92759 73.8316 5.52808 73.2874 5.82001 72.5762C5.8272 72.5591 5.82968 72.5398 5.82999 72.5194C5.86153 72.4597 5.89202 72.3968 5.92141 72.3338C5.95199 72.2655 5.89829 72.1986 5.85463 72.2404ZM3.42953 72.2574C3.41558 72.239 3.40273 72.221 3.38914 72.2031C3.35411 72.1558 3.30012 72.1572 3.25749 72.1786C3.02815 72.296 2.86989 72.6326 2.69935 72.8648C2.42568 73.2362 2.11049 73.5806 1.90259 74.04C1.83544 74.1883 1.97921 74.3275 2.06538 74.2482C2.38272 73.9554 2.66252 73.5153 2.93947 73.144C3.03477 73.016 3.12576 72.883 3.21069 72.7414C3.28887 72.6115 3.39785 72.5439 3.44661 72.3818C3.45702 72.3449 3.44954 72.2846 3.42953 72.2574ZM9.73011 72.8749C9.1999 73.1849 8.779 74.0801 8.33282 74.5976C7.73593 75.2892 7.17779 76.0479 6.5812 76.7443C6.03511 77.3807 5.40899 77.8591 4.83909 78.4548C4.63862 78.6645 3.82742 79.4683 3.85501 79.8867C3.86428 80.0217 3.99897 79.9894 4.0092 79.8676C4.00383 79.9336 4.35545 79.6407 4.41883 79.5493C4.65333 79.2111 4.93505 78.9097 5.20399 78.6339C5.79118 78.0287 6.39765 77.5474 6.9605 76.8876C7.53374 76.2161 8.0663 75.4854 8.63804 74.8161C9.06312 74.3197 9.5668 73.7143 9.81833 72.9977C9.84692 72.9159 9.77905 72.8461 9.73011 72.8749ZM12.4464 69.9494C12.1152 69.9836 11.7722 70.4974 11.5155 70.7852C11.2098 71.1298 10.8916 71.4575 10.5781 71.7875C10.5113 71.8574 10.5584 72.001 10.6254 72.0111C10.6264 72.0117 10.6275 72.0117 10.6294 72.0117C10.6323 72.0118 10.6348 72.0134 10.6377 72.0135C10.9192 72.0672 11.1491 71.6494 11.3822 71.4719C11.6132 71.2954 11.8126 71.0363 12.0256 70.816C12.1986 70.6365 12.4147 70.4791 12.5347 70.2166C12.5792 70.119 12.5389 69.94 12.4464 69.9494ZM6.07725 79.8279C5.87595 79.827 5.71558 80.0379 5.55737 80.2026C5.2969 80.4732 5.01995 80.7478 4.73877 80.9654C4.68859 81.0039 4.69346 81.1399 4.75381 81.1526C5.06241 81.2201 5.30605 81.0498 5.57162 80.8276C5.77405 80.6571 6.15469 80.3986 6.1684 79.998C6.17065 79.9217 6.13705 79.8283 6.07725 79.8279ZM52.6875 41.4326C52.2362 41.5623 51.8319 41.7721 51.3674 41.7903C50.8842 41.8094 50.4077 41.8962 49.9333 42.0362C48.9241 42.3325 47.8955 42.4631 46.871 42.5884C45.9024 42.708 44.9564 43.1912 43.9998 43.4336C43.4748 43.5653 42.9739 43.6292 42.4456 43.7179C42.0924 43.7765 41.499 43.7804 41.2175 44.1377C41.1688 44.1993 41.1829 44.3478 41.2616 44.3312C42.0884 44.1622 42.9447 44.3803 43.7644 44.0709C44.2412 43.8912 44.738 43.839 45.2164 43.676C45.7747 43.4856 46.3218 43.2903 46.8903 43.1501C47.9251 42.8933 48.9735 42.8759 50.0005 42.5148C50.5732 42.3134 51.1636 42.2906 51.7474 42.2495C52.1059 42.2238 52.5332 42.0626 52.7743 41.6526C52.8349 41.5498 52.7765 41.4071 52.6875 41.4326ZM49.1425 44.0958C48.264 44.2147 47.394 44.5653 46.5324 44.8192C45.4789 45.1294 44.4148 45.2697 43.3537 45.4986C43.2772 45.5152 43.2718 45.7031 43.3485 45.7225C44.3353 45.9701 45.2517 45.5601 46.2291 45.3691C46.739 45.2699 47.2297 45.0855 47.7416 44.9992C48.1796 44.9247 48.8177 44.7367 49.1967 44.3964C49.2847 44.3166 49.2562 44.0809 49.1425 44.0958ZM50.814 43.7789C50.7172 43.7178 50.6301 43.7589 50.531 43.7982C50.359 43.866 50.1881 43.9258 50.0171 43.9968C49.9529 44.0243 49.9463 44.1708 50.0145 44.1944C50.1883 44.2551 50.3635 44.24 50.5389 44.1922C50.6624 44.1586 50.7924 44.1186 50.852 43.9406C50.8722 43.8829 50.8544 43.8037 50.814 43.7789ZM47.5354 46.5025C47.2647 46.4828 46.9936 46.6179 46.7267 46.6858C46.4561 46.7548 46.1812 46.7743 45.9102 46.8465C45.8319 46.8673 45.8317 47.0516 45.9086 47.0737C46.3978 47.2117 47.1607 47.2151 47.5798 46.7492C47.6514 46.6703 47.6305 46.5099 47.5354 46.5025ZM53.3017 66.3949C53.344 66.417 53.3445 66.4058 53.3044 66.3616C53.2748 66.3171 53.24 66.2978 53.2025 66.2709C53.1603 66.2413 53.1102 66.2276 53.0714 66.1884C52.9575 66.0776 52.8542 65.9825 52.7524 65.844C52.6376 65.6902 52.4834 65.927 52.583 66.0955C52.6897 66.2755 52.8023 66.4534 52.9456 66.57C52.9936 66.6089 53.0728 66.6289 53.1106 66.6854C53.1608 66.7603 53.2226 66.7988 53.2954 66.7854C53.3543 66.7739 53.4035 66.7064 53.4132 66.6179C53.4293 66.4678 53.3553 66.4666 53.3017 66.3949ZM59.2345 72.2336C59.0091 71.8702 58.7313 71.671 58.456 71.4068C57.9947 70.9647 57.6004 70.3237 57.1235 69.9275C56.6351 69.5226 56.2078 68.9848 55.717 68.5911C55.1938 68.1706 54.3888 67.7738 54.0277 67.0302C53.9619 66.8932 53.8232 67.0475 53.867 67.1894C54.2053 68.2819 55.3959 68.8463 56.0415 69.4642C56.5754 69.9757 57.1053 70.5037 57.618 71.0589C58.11 71.5907 58.6836 71.8626 59.1979 72.3125C59.2317 72.3421 59.2569 72.2704 59.2345 72.2336ZM58.6919 74.0853C57.7048 73.3268 56.8053 72.3543 55.8294 71.5804C55.3047 71.1636 54.7997 70.8449 54.3288 70.292C53.8755 69.7602 53.304 69.2557 52.7776 68.9013C52.6654 68.8254 52.603 69.0673 52.7023 69.1542C53.3192 69.7008 53.9223 70.3772 54.4894 71.0293C54.9454 71.5536 55.5183 71.7949 56.0046 72.246C56.4897 72.6955 56.9449 73.1794 57.4569 73.5643C57.838 73.851 58.2185 74.4504 58.6654 74.2949C58.7277 74.2733 58.7553 74.1341 58.6919 74.0853ZM57.7799 76.1538C57.7324 75.8711 57.5992 75.703 57.4369 75.5593C56.945 75.1231 56.4613 74.6731 55.969 74.2359C55.5019 73.8205 54.9747 73.5955 54.5192 73.1363C54.0892 72.7027 53.6158 72.3205 53.1471 71.9852C53.054 71.9183 52.9818 72.1165 53.0699 72.1946C53.5115 72.587 53.9485 73.0154 54.3745 73.4425C54.7909 73.8603 55.2332 74.1523 55.6833 74.4868C56.0724 74.7758 56.439 75.1074 56.7955 75.4819C57.0095 75.7054 57.2884 75.7854 57.4832 76.0489C57.5729 76.17 57.6059 76.2055 57.7193 76.2523C57.7595 76.269 57.7886 76.205 57.7799 76.1538ZM60.3126 70.174C60.2589 70.0152 60.2171 69.9791 60.1071 69.898C59.7923 69.6649 59.4861 69.3411 59.1491 69.17C58.6851 68.9363 58.2176 68.5505 57.7923 68.1916C57.3314 67.8022 56.825 67.5742 56.3625 67.167C56.2978 67.1096 56.2264 67.223 56.2728 67.3123C56.4778 67.6974 56.7355 67.9232 57.0263 68.1548C57.4162 68.4658 57.8324 68.752 58.2337 69.0509C58.6333 69.3481 59.0656 69.5825 59.4429 69.9277C59.4944 69.9752 59.5861 70.0357 59.6831 70.1086C59.739 70.219 59.7709 70.378 59.8035 70.4919C59.8766 70.7455 59.7728 71.1184 59.9003 71.3217C59.9573 71.4139 60.0372 71.4135 60.0962 71.3231C60.1167 71.2912 60.1315 71.2527 60.1431 71.2115C60.175 71.2002 60.2054 71.1867 60.2367 71.17C60.3062 71.1313 60.3303 71.0338 60.3196 70.9429C60.3863 70.7043 60.3835 70.3873 60.3126 70.174Z" fill="#E60000"/>
<path d="M29.5704 43.672C29.7069 44.0297 29.852 44.3735 29.9784 44.739C30.0609 44.9777 30.0469 45.2552 30.1249 45.4959C30.2378 45.8452 30.6107 45.5919 30.4986 45.2421C30.3975 44.9296 30.3871 44.5825 30.2752 44.2612C30.1425 43.8751 29.9984 43.4889 29.8306 43.1329C29.6398 42.7288 29.4035 42.0006 29.074 41.6738C28.9444 41.7304 28.8135 41.7832 28.6833 41.8296C29.0288 42.3473 29.3298 43.0426 29.5704 43.672Z" fill="#E60000"/>
<path d="M32.1123 44.7311C31.7442 43.5571 31.5284 45.0704 31.5412 45.6943C31.5422 45.726 31.5428 45.7583 31.5434 45.7911C31.3677 46.05 31.2753 46.3694 31.1441 46.6817C30.9474 47.1461 30.6697 47.5201 30.4122 47.9079C29.9005 48.678 29.3414 49.3556 28.8219 50.1144C28.3987 50.7328 27.8731 51.2884 27.3771 51.7731C26.7219 52.4132 26.0179 52.5911 25.2582 52.5958C25.2375 52.2022 25.2883 51.764 25.1635 51.4554C24.8209 51.491 24.4695 51.6453 24.1007 51.5543C23.6001 51.4307 23.0798 51.2541 22.5713 51.1148C22.057 50.9749 21.4022 50.7452 20.8469 50.8593C20.868 50.8623 20.888 50.8669 20.908 50.8689L21.4756 50.9344L20.9778 51.5608C20.9358 51.6139 20.8952 51.6659 20.8559 51.7126C20.6204 51.9959 20.376 52.2646 20.1302 52.5263C20.3662 52.6185 20.6135 52.6212 20.8616 52.6588C20.7744 52.737 20.6855 52.8243 20.6106 52.929C20.598 52.9422 20.5862 52.9554 20.5754 52.9687C20.3994 53.1772 20.1915 53.3476 19.9861 53.5169C19.8974 53.5483 19.8121 53.6411 19.742 53.7201C19.7398 53.7233 19.7375 53.727 19.7346 53.7296C19.6876 53.7714 19.641 53.8142 19.597 53.8576C19.0987 54.3453 18.6735 54.8493 18.2185 55.4194C17.1962 56.7008 16.0203 57.6743 14.9991 58.9584C14.0046 60.2102 12.9957 61.4999 12.0467 62.834C12.024 62.8589 12.0003 62.8848 11.9788 62.9087C11.8082 63.0974 11.6984 63.3144 11.5583 63.5384C11.1988 63.9875 10.8697 64.53 10.5453 64.9758C10.4371 65.0397 10.3465 65.1957 10.2546 65.2921C10.1764 65.3753 10.0937 65.4648 10.012 65.5592C9.8179 65.7363 9.61745 65.8965 9.41775 66.0794C9.02758 66.4383 8.69883 66.9313 8.3218 67.313C7.63998 68.0022 7.013 68.8995 6.4017 69.7241C6.08116 70.1571 5.67503 70.3889 5.33578 70.7803C5.29158 70.8333 5.24412 70.8853 5.1959 70.9383C4.75101 71.1776 4.30692 71.7978 3.97818 72.2662C3.60953 72.793 3.28464 73.3683 2.93421 73.9207C2.64766 74.3724 2.15393 74.6572 1.93911 75.2374C1.88663 75.3795 1.96621 75.5677 2.08118 75.4894L2.12024 75.4626C2.13055 75.4557 2.13797 75.4478 2.14503 75.4393C2.14605 75.4442 2.16424 75.4229 2.2224 75.3631C2.49315 75.4016 2.75344 75.1912 2.99473 75.0073C3.16223 74.8793 3.58894 74.4442 3.63316 74.1246C4.00425 73.6774 4.34356 73.1614 4.70958 72.7119C4.71402 72.7071 4.71848 72.7018 4.72294 72.6965C4.78034 72.6624 4.83603 72.6219 4.88234 72.5737C4.97236 72.4811 5.06448 72.4669 5.15084 72.3511C5.23499 72.2368 5.2989 72.1583 5.40045 72.0749C5.46396 72.0232 5.4903 71.9452 5.49077 71.8662C5.91279 71.4514 6.34827 71.0631 6.76142 70.6321C7.34282 70.0236 7.85392 69.5064 8.3601 68.7598C8.91404 67.9414 9.58433 67.3154 10.1818 66.5825C10.2023 66.5565 10.2138 66.5196 10.2192 66.4783C10.2978 66.392 10.376 66.3045 10.4529 66.2159C10.6763 65.9598 10.8396 65.5782 11.0277 65.2727C11.1043 65.147 11.1846 65.0241 11.2634 64.9007C11.6324 64.4228 11.9947 63.9071 12.2783 63.358C12.335 63.2762 12.3924 63.1948 12.4502 63.1135C12.597 62.9508 12.7332 62.7713 12.8663 62.5804C12.8879 62.5496 12.9027 62.5165 12.913 62.4839C13.1772 62.1355 13.4453 61.7914 13.7156 61.4516C13.974 61.2976 14.1532 61.0929 14.3578 60.7995C14.6013 60.4513 14.8739 60.2416 15.067 59.8222C15.0915 59.7705 15.1032 59.7218 15.106 59.6794C15.1778 59.5848 15.2503 59.4914 15.3207 59.3952C15.4201 59.2592 15.5264 59.1302 15.6333 59.0045C15.6757 59.0272 15.7253 59.0247 15.7671 58.984C16.0848 58.6707 16.4714 58.5224 16.7457 58.1086C16.8065 58.016 16.8206 57.905 16.805 57.807C16.9171 57.6991 17.0285 57.5917 17.1381 57.4816C17.3462 57.2731 17.5461 57.0553 17.7431 56.8337C17.7891 56.8318 17.8319 56.7948 17.8496 56.7139C17.9357 56.6132 18.0218 56.5124 18.1069 56.4105C18.115 56.4042 18.1231 56.3979 18.1298 56.3926C18.221 56.3182 18.3002 56.2147 18.3896 56.1365C18.4795 56.0578 18.5811 55.9229 18.6228 55.7661C18.6633 55.7146 18.7031 55.6642 18.7437 55.6111C19.195 55.0194 19.6989 54.5226 20.2119 54.0457C20.5222 53.7571 20.8999 53.332 21.229 53.1043C21.3175 53.0423 21.3955 52.9709 21.4614 52.8833C21.7365 53.0438 22.0114 53.1967 22.2867 53.3449C22.1715 53.4366 22.0596 53.5279 21.9832 53.6352C21.557 54.2316 21.1251 54.8412 20.6262 55.3022C19.6912 56.1653 18.8462 57.1986 17.917 58.0683C17.0428 58.8861 16.2281 59.7071 15.5144 60.8164C14.7615 61.9886 14.0541 63.2538 13.1895 64.2421C12.3578 65.1928 11.6311 66.3192 10.8318 67.323C9.98945 68.3799 9.09711 69.3888 8.22109 70.3796C7.51057 71.1823 6.86993 72.0665 6.13846 72.8312C5.1617 73.8517 4.30915 75.1475 3.3971 76.2781C3.37599 76.2751 3.35338 76.2753 3.32885 76.2813C3.19229 76.3163 3.08884 76.405 2.97442 76.5193C2.83407 76.6601 2.67786 76.7405 2.52631 76.8505C2.33529 76.99 2.20074 77.2055 2.06047 77.4135C1.96464 77.167 1.86659 76.9222 1.75898 76.6825C1.70535 76.5635 1.62939 76.4012 1.54979 76.2147C1.5491 76.212 1.54769 76.2087 1.54737 76.206C1.58345 76.1835 1.61846 76.1598 1.65633 76.1389C1.72108 76.1018 1.77116 76.0219 1.79338 75.9272C1.80625 75.872 1.80502 75.7361 1.7621 75.7043C1.61714 75.5957 1.5261 75.611 1.42732 75.7041C1.42496 75.6911 1.42151 75.6782 1.41916 75.6647C1.2625 74.9306 1.39838 74.5303 1.68631 73.9394C1.77814 73.7511 1.70737 73.5115 1.57105 73.4821C1.31915 73.7646 1.06377 74.0605 0.807025 74.3983C0.734249 74.8458 0.822976 75.3935 0.985524 75.9553C1.06795 76.1478 1.15378 76.3323 1.22831 76.4924C1.29296 76.6309 1.35266 76.7586 1.40236 76.8722C1.6554 77.4551 1.88791 78.069 2.11344 78.6622C2.31124 79.1837 2.50556 79.6943 2.7104 80.1841C2.82002 80.4114 2.93564 80.6281 3.05021 80.7931C3.04731 80.864 3.0526 80.9242 3.06388 80.9744C3.08544 81.0193 3.10737 81.0648 3.12967 81.1091C3.17376 81.1598 3.23173 81.1854 3.30018 81.1928C3.31939 81.2243 3.3379 81.2547 3.35675 81.2861C3.3408 81.3041 3.32447 81.3227 3.30815 81.3407C3.29479 81.3561 3.28323 81.3731 3.27312 81.3901C3.35895 81.551 3.44847 81.7087 3.54133 81.8621C3.55168 81.8532 3.56203 81.8442 3.57206 81.832C3.59914 81.8012 3.62586 81.771 3.65295 81.7397C3.68191 81.7783 3.71127 81.8142 3.7403 81.8485C3.84127 81.9961 3.94721 82.1288 4.07041 82.2301C4.04473 82.2641 4.02864 82.3149 4.02778 82.3723C4.02985 82.4282 4.0261 82.483 4.01762 82.5376C4.01718 82.5425 4.01747 82.5473 4.0174 82.5522C4.06891 82.6185 4.12263 82.6838 4.1771 82.7474L4.19647 82.7687C4.29545 82.6622 4.41238 82.5753 4.51273 82.4989C4.55551 82.4673 4.59387 82.4389 4.62305 82.4141C4.85254 82.2145 5.09943 81.9985 5.34647 81.7718C5.37569 81.7448 5.40455 81.7173 5.43377 81.6904C5.43428 81.5356 5.31949 81.3851 5.19617 81.4369C4.99764 81.5188 4.8018 81.6153 4.60192 81.6891C4.4787 81.7345 4.36477 81.7199 4.25908 81.6672C4.16251 81.59 4.06742 81.487 3.97476 81.368C4.5544 80.7079 5.15738 80.0707 5.8357 79.6372C6.81341 79.0121 7.63044 77.654 8.41733 76.6242C8.46162 76.5658 8.47983 76.4946 8.47761 76.4247C8.58477 76.3076 8.67878 76.1925 8.77505 76.0247C9.13687 75.3941 9.53587 74.7898 10.007 74.337C10.4284 73.934 10.8144 73.3253 11.1887 72.8308C11.6628 72.2045 12.2289 71.6238 12.7576 71.0961C13.5396 70.3161 14.2588 69.4255 14.844 68.3265C15.541 67.0181 16.4384 65.867 17.2476 64.7129C17.5611 64.2658 17.8836 63.8441 18.1967 63.4003C18.585 62.8496 19.0328 62.4448 19.4392 61.9277C20.2777 60.861 21.1718 60.0257 21.9201 58.8003C22.2667 58.234 22.6496 57.7047 23.0391 57.1986C23.3568 56.7849 23.7823 56.5275 24.1137 56.1205C24.2523 55.9506 24.6471 55.53 24.8439 55.1022C24.9228 55.2887 25.0072 55.4973 25.0961 55.6969C25.3173 55.4671 25.5429 55.2363 25.7684 55.0334L25.9163 54.8992C25.8841 54.7843 25.8515 54.6763 25.8247 54.5857C26.1559 54.5821 26.4833 54.4006 26.7864 54.2032C27.4328 53.7848 28.0305 53.2324 28.6222 52.6622C29.6155 51.7038 30.658 50.752 31.4195 49.4032C31.3679 49.7752 31.2971 50.139 31.2036 50.4851C30.7606 51.5384 29.7826 52.2833 29.2038 53.0567C29.0259 53.2947 28.8469 53.5311 28.6721 53.775C28.4333 54.1099 28.1318 54.223 27.8499 54.439C27.426 54.763 26.8942 54.7216 26.5026 55.0762C26.4453 55.1274 26.4331 55.2793 26.4917 55.3371C26.8758 55.7158 27.3704 55.4697 27.7705 55.2506C28.3409 54.9374 28.7918 54.5215 29.2485 53.9331C29.4769 53.6389 29.7074 53.3469 29.9401 53.0582C29.922 53.1412 29.9173 53.2373 29.9347 53.3649C29.9661 53.6033 30.0523 53.6186 30.0175 53.8701C29.9947 54.0287 29.8811 54.2317 29.811 54.3569C29.7758 54.4208 29.7362 54.4815 29.6944 54.5416C29.6933 54.5421 29.6919 54.5426 29.6904 54.5436C29.6831 54.5468 29.6768 54.5504 29.6698 54.5546C29.6665 54.5567 29.6639 54.5594 29.661 54.5615C29.651 54.5683 29.6407 54.5757 29.631 54.5857C29.6185 54.5974 29.6066 54.6101 29.5958 54.6239C29.2026 55.1347 28.8691 55.4864 28.3543 55.7161C27.8741 55.9291 27.3635 56.5048 26.8669 56.161C26.789 56.1077 26.6922 56.233 26.7116 56.3526C26.7146 56.372 26.7191 56.3866 26.7228 56.4043C26.8156 56.5884 26.9125 56.7424 27.0138 56.8649C27.2949 56.9921 27.6931 56.7774 27.9451 56.6366C28.5471 56.3019 29.1665 56.1001 29.6399 55.4959C29.7462 55.4331 29.8537 55.3928 29.9672 55.4155C29.9057 55.4032 30.0967 55.721 30.1769 55.7506C30.3173 55.8011 30.5083 55.6853 30.6471 55.6202C30.6494 55.6165 30.6512 55.6133 30.6542 55.6096L30.7408 55.4771L30.8502 55.5024C31.1091 55.3145 31.2235 55.0294 31.4049 54.6099C32.2189 52.7311 32.4226 50.8603 32.445 48.6768C32.4572 47.4381 32.4696 45.8685 32.1123 44.7311ZM23.5632 55.8913C23.2224 56.1935 22.8861 56.5091 22.5867 56.8978C21.8089 57.9063 21.1854 59.125 20.356 60.0472C18.8225 61.7561 17.3379 63.492 15.998 65.5439C15.3125 66.593 14.658 67.6726 13.9987 68.7559C13.646 69.334 13.1842 69.8014 12.7513 70.2354C12.3543 70.6334 11.9993 71.1266 11.602 71.5267C11.219 71.9147 10.8843 72.3416 10.5361 72.7967C10.0848 73.3884 9.58045 73.8911 9.14738 74.5062C8.82722 74.9617 8.54876 75.578 8.2015 75.9687C8.05236 76.1362 7.79721 76.3929 7.68161 76.6818C6.90334 77.5748 6.15291 78.5326 5.2735 79.193C5.21595 79.2362 4.07192 80.2971 3.51313 80.6159C3.4746 80.5352 3.43708 80.46 3.40197 80.3939C3.38992 80.3712 3.37751 80.3473 3.36545 80.3251C3.30534 80.2001 3.24951 80.0816 3.20253 79.981C2.92143 79.3729 2.57783 78.846 2.35503 78.1931C2.53736 77.9525 2.77063 77.7927 2.9583 77.5613C3.14001 77.3379 3.40861 77.0605 3.52303 76.7527C3.53409 76.7212 3.5415 76.6891 3.54637 76.6564C3.80943 76.4804 4.06002 76.1393 4.29387 75.8925C4.79236 75.3649 5.25833 74.8175 5.70539 74.1941C6.44191 73.1673 7.32327 72.378 8.08144 71.3913C8.91512 70.3063 9.85357 69.3594 10.7246 68.3346C11.5779 67.3305 12.3428 66.1876 13.1676 65.1315C13.5633 64.6244 14.0283 64.2425 14.3824 63.6649C14.7746 63.0246 15.1119 62.3511 15.541 61.7565C15.9992 61.1219 16.3784 60.426 16.8996 59.8924C17.3519 59.4291 17.8216 58.9726 18.2862 58.5375C18.6277 58.2176 19.0815 57.8011 19.3786 57.3979C19.8701 56.7289 20.4359 56.2856 20.9966 55.7666C21.4223 55.3728 21.8324 54.8321 22.1821 54.3017C22.3546 54.0405 22.6209 53.8667 22.8355 53.6336C23.0082 53.7222 23.1811 53.8102 23.3563 53.8983C23.2301 53.9963 23.1054 54.0911 22.9897 54.1925C22.6637 54.4793 22.3576 54.8266 22.083 55.2135C21.3221 56.2872 20.4185 57.0703 19.6252 58.0651C18.9468 58.9139 18.3403 59.8115 17.7394 60.7695C17.1407 61.7226 16.3139 62.3027 15.7207 63.2613C15.0889 64.2821 14.5444 65.4386 13.8509 66.3705C13.1563 67.3039 12.4708 68.2622 11.7743 69.1999C11.1232 70.077 10.3493 70.7777 9.63116 71.5265C9.26394 71.9109 8.92234 72.4333 8.61419 72.9149C8.41061 73.2336 8.22983 73.5887 8.03375 73.9177C8.01354 73.9518 7.9838 74.0137 7.94986 74.0878C7.55787 74.5659 7.26135 75.1707 6.84371 75.6092C6.35603 76.1213 5.87105 76.6238 5.34256 77.0376C4.98644 77.3148 4.59563 77.6189 4.30631 78.0368C4.00097 78.477 3.5617 78.6336 3.28347 79.0898C3.2643 79.1035 3.24792 79.1258 3.238 79.1547C3.23342 79.1681 3.22849 79.1803 3.22502 79.1932C3.1888 79.2969 3.25115 79.4187 3.32646 79.4064C3.72531 79.342 4.12378 79.0617 4.43889 78.699C4.85161 78.2239 5.26612 77.8235 5.73186 77.4604C6.71351 76.6951 7.56929 75.6922 8.25466 74.4067C8.26891 74.3806 8.27771 74.3533 8.28431 74.3271C8.34091 74.2254 8.39561 74.1295 8.44824 74.0497C8.90539 73.3614 9.32696 72.6393 9.84972 72.0498C10.6207 71.182 11.4618 70.4942 12.1836 69.5273C12.8909 68.5796 13.5841 67.6166 14.2895 66.672C14.9867 65.7387 15.5234 64.5611 16.16 63.5382C16.739 62.6062 17.5853 62.0377 18.1894 61.1325C18.4741 60.7054 18.7398 60.2313 18.9877 59.7585C19.3129 59.1397 19.9013 58.5979 20.3374 58.1666C21.1186 57.3941 21.852 56.451 22.546 55.5144C22.9533 54.9656 23.5419 54.6285 24.012 54.143C24.1752 54.2035 24.3289 54.2853 24.4732 54.4395C24.4393 54.5609 24.4499 54.7051 24.5417 54.8048C24.4736 54.7291 23.7163 55.7561 23.5632 55.8913ZM31.5356 48.0866C31.4995 48.115 31.4656 48.1575 31.4399 48.2183C30.7371 49.8839 29.6008 50.8198 28.5474 51.9208C27.6358 52.8724 26.6965 53.5136 25.6868 54.135C25.5829 53.818 25.4629 53.502 25.3666 53.1701C25.8015 53.3287 26.3601 53.1421 26.739 52.9749C27.4916 52.6424 28.0388 51.8088 28.6741 51.1845C28.9488 50.9141 29.1774 50.5324 29.4112 50.1926C29.7397 49.7157 30.1187 49.3271 30.4415 48.8404C30.8023 48.2974 31.2597 47.6891 31.5584 46.992C31.5584 47.3536 31.5521 47.7215 31.5356 48.0866Z" fill="#E60000"/>
<path d="M26.5568 42.41C26.5748 42.716 26.7892 42.8621 26.9488 43.0198C27.2377 43.3035 27.4825 43.7306 27.653 44.1737C27.758 44.4471 27.8087 44.8068 27.9333 45.0574C28.1453 45.4845 28.2174 46.1636 28.3703 46.6424C28.5385 47.1687 28.6406 47.7725 28.8996 48.2224C29.0887 48.5508 29.3526 48.0267 29.1898 47.8174C28.7746 46.8167 28.5083 45.5915 28.2183 44.5126C28.0467 43.8745 27.8069 43.4056 27.4897 42.9152C27.3126 42.6428 27.0848 42.5147 26.8642 42.3422C26.8093 42.3537 26.7533 42.3663 26.6988 42.3778C26.6516 42.3884 26.604 42.3995 26.5568 42.41Z" fill="#E60000"/>
<path d="M30.5792 45.8544L30.3476 46.2435C30.4339 46.1095 30.5109 45.9806 30.5792 45.8544Z" fill="#E60000"/>
<path d="M29.8002 41.8131C30.0635 42.5374 30.476 43.1635 30.7323 43.8909C31.0145 44.6934 30.9084 45.2451 30.5798 45.8535L30.6827 45.6805C31.0406 44.9715 31.5685 44.1861 31.4919 43.245C31.4544 42.7862 31.1742 41.1974 30.87 40.7942C30.8554 40.7935 30.8401 40.79 30.8259 40.7898C30.6753 40.7875 30.526 40.8223 30.3681 40.8957C30.2456 40.9868 30.1293 41.0828 30.0631 41.121C29.7732 41.2853 29.6409 41.3762 29.8002 41.8131Z" fill="#E60000"/>
<path d="M2.99053 41.6056C2.99324 42.0537 2.99501 42.5158 2.98917 42.9745C2.98371 43.3596 2.97199 43.7484 2.96192 44.1254C2.93928 44.8992 2.9166 45.6993 2.94387 46.4766C2.98335 47.6527 3.02732 48.0009 3.73692 48.2722C3.6882 47.8041 3.73777 47.3954 3.8812 46.9302C4.08394 46.9564 4.29008 46.9745 4.50694 47.0079C4.80275 47.0527 5.12702 47.2177 5.42451 47.2249C5.69793 47.2311 5.96333 47.2378 6.22467 47.3675C6.64964 47.5781 7.14225 47.6564 7.58482 47.7636C8.09863 47.8874 8.67497 48.0482 9.19384 48.078C10.1583 48.134 11.1059 48.3938 12.0666 48.4562C13.0514 48.52 14.0685 48.5471 15.0264 48.899C15.8718 49.21 16.8175 49.2753 17.6812 49.4393C18.2063 49.5386 18.7516 49.6317 19.2824 49.6639C19.7903 49.6947 20.2794 49.8885 20.7923 49.9049C22.7482 49.9688 24.6501 50.5955 26.6021 50.6831C26.3374 50.9187 25.9764 51.0094 25.7303 51.3726C25.7525 51.3982 25.7739 51.4307 25.7924 51.4589L25.7323 51.5016C26.0335 51.2412 26.5555 51.377 26.9005 51.1818C27.2187 51.0008 27.5284 50.7078 27.8081 50.4418C28.0527 50.2097 28.2511 49.9183 28.4585 49.6114C28.6782 49.2881 28.7776 49.2058 28.6495 48.7504C28.455 48.0577 28.11 47.4325 27.8716 46.7756C27.3881 45.4419 27.0694 43.2193 25.9563 42.6486C25.8994 42.6193 25.8161 42.6089 25.7183 42.6133C25.6839 42.6225 25.6484 42.6311 25.6147 42.6402C25.3806 42.7087 25.2255 42.7611 25.0542 42.9224C25.0239 42.9525 24.9804 43.0056 24.9384 43.0566C24.8667 43.1441 24.7928 43.2343 24.7142 43.296C24.7057 43.3028 24.6878 43.3246 24.6718 43.3459C24.66 43.4069 24.6568 43.4719 24.6653 43.5397C24.7088 43.8922 25.0824 43.8109 25.2553 43.8543C25.5096 43.9189 25.7082 43.9804 25.8793 44.243C25.9641 44.3716 26.042 44.5302 26.1144 44.7081C25.2524 44.601 24.3867 44.3575 23.5383 44.1974C22.6895 44.0385 21.8183 44.0355 20.9755 43.8401C20.0393 43.625 19.0565 43.4769 18.1107 43.3879C17.1569 43.2999 16.2188 42.9698 15.2676 42.833C14.3582 42.7032 13.4379 42.5695 12.5281 42.3908C12.058 42.2982 11.5764 42.3339 11.1257 42.0918C10.6702 41.848 10.0878 42.0659 9.60795 41.9152C9.14409 41.7685 8.64402 41.8217 8.17391 41.7265C7.60273 41.6109 7.02373 41.4571 6.44792 41.406C5.75593 41.345 5.07547 41.1483 4.38348 41.111C4.2636 41.1043 4.14545 41.0794 4.02772 41.0508C3.9743 40.7249 3.8768 40.4194 3.73443 40.1637L3.6987 40.1631C3.43107 40.1591 3.20008 40.1685 3.09717 40.3173C3.06733 40.3615 3.04376 40.4251 3.02648 40.5065C3.02133 40.6541 3.018 40.8024 3.0125 40.9489C3.00105 40.9826 2.99574 41.0201 3.00132 41.061C3.00253 41.0777 3.00448 41.0933 3.00605 41.11C3.00132 41.2297 2.9955 41.3495 2.99004 41.4692C2.99009 41.5143 2.99012 41.5605 2.99053 41.6056ZM26.9431 49.8603C26.9389 49.9435 26.9291 50.017 26.9171 50.0856C26.8986 50.0789 26.8805 50.0732 26.8604 50.0729C26.2344 50.0634 25.6118 50.039 24.9919 49.9179C24.742 49.87 24.4907 49.7776 24.2467 49.6847C24.0491 49.6092 23.8524 49.7148 23.6527 49.6752C22.6721 49.4799 21.643 49.308 20.6505 49.2731C20.1351 49.2556 19.6428 49.0553 19.1258 49.0239C18.6059 48.9918 18.041 48.8705 17.5228 48.7734C16.5682 48.5925 15.6136 48.3357 14.6593 48.1392C13.7551 47.9531 12.8478 47.8797 11.9326 47.8202C11.4811 47.7919 11.0391 47.6719 10.5883 47.629C10.0235 47.5743 9.41294 47.5522 8.85993 47.3923C8.316 47.2353 7.76261 47.1968 7.22292 47.0243C6.7718 46.8794 6.3078 46.6935 5.84755 46.6215C5.26868 46.5322 4.68851 46.4079 4.1062 46.3523C4.08071 46.3503 4.05518 46.35 4.03005 46.348C4.08844 46.0077 4.11133 45.6271 4.12193 45.2641C4.25769 45.2818 4.39639 45.2984 4.53829 45.3204C5.11895 45.4119 5.67353 45.6132 6.26067 45.6618C6.80994 45.7077 7.36284 45.8267 7.90095 45.9831C8.402 46.1299 8.91403 46.1301 9.41079 46.3197C9.91951 46.5144 10.4897 46.4532 11.0103 46.5851C11.4445 46.6948 11.866 46.7985 12.3086 46.8051C13.3233 46.8205 14.3375 46.9884 15.338 47.1507C16.4079 47.3238 17.5291 47.532 18.5701 47.912C19.5091 48.255 20.5409 48.2206 21.5022 48.4194C22.4532 48.6159 23.4338 48.5738 24.3924 48.7543C24.855 48.8424 25.3453 48.9234 25.8123 48.9342C26.1455 48.943 26.5792 48.9378 26.9363 49.0302C26.9522 49.305 26.9575 49.5823 26.9431 49.8603ZM26.6867 47.0166C26.7051 47.1281 26.7217 47.2369 26.7373 47.337C26.7895 47.6924 26.8425 48.0494 26.883 48.41C26.6878 48.3941 26.4932 48.4078 26.2823 48.3869C25.873 48.348 25.4668 48.2446 25.0598 48.1766C24.0565 48.01 23.0253 47.8278 22.0146 47.8125C21.0305 47.7977 20.0645 47.4844 19.0836 47.4045C18.5277 47.3596 17.9952 47.0276 17.4335 46.9584C16.807 46.8807 16.2049 46.6395 15.5752 46.5827C15.1167 46.5408 14.6751 46.3488 14.2188 46.3011C13.7058 46.2482 13.1955 46.3007 12.6824 46.2059C12.2117 46.1192 11.7361 46.0766 11.2658 45.9975C10.7445 45.9101 10.2235 45.827 9.70131 45.7503C8.68097 45.6006 7.65034 45.3116 6.63418 45.1028C5.80926 44.9335 4.96325 44.8798 4.13236 44.7432C4.13303 44.6986 4.13372 44.6529 4.13436 44.611C4.14187 44.162 4.1385 43.7096 4.12967 43.2566C4.17492 43.2546 4.21981 43.2526 4.26581 43.2495C4.6663 43.2212 5.07269 43.3584 5.47035 43.4208C6.38504 43.5631 7.29419 43.6859 8.21144 43.8029C8.68208 43.8632 9.15395 44.0106 9.62378 44.1004C10.178 44.2055 10.733 44.3079 11.2862 44.4312C11.827 44.5511 12.3669 44.6635 12.9095 44.7867C13.4619 44.9116 14.0347 44.9203 14.5788 45.0698C14.7811 45.125 14.9952 45.0992 15.1994 45.1023C15.4856 45.1066 15.7495 45.2831 16.0317 45.2906C16.4877 45.3018 16.9272 45.5152 17.3748 45.6037C17.8824 45.7048 18.4006 45.7572 18.9096 45.8332C19.4664 45.9146 20.048 46.1356 20.5989 46.144C21.6308 46.1585 22.6518 46.5758 23.681 46.6252C24.7061 46.6751 25.6644 47.0479 26.6867 47.0166ZM5.79286 41.9655C6.32094 42.0863 6.84522 42.0475 7.37636 42.2065C7.88138 42.357 8.41258 42.3189 8.9225 42.4099C9.93618 42.5901 10.9444 42.6988 11.9532 42.9317C12.4671 43.0512 13.0069 43.0975 13.526 43.1591C13.9891 43.2133 14.5584 43.2074 15.0057 43.37C15.9331 43.7074 16.9414 43.7598 17.8892 43.9525C18.8927 44.1551 19.9129 44.2178 20.9151 44.4323C21.8105 44.6247 22.723 44.646 23.6209 44.8133C24.5111 44.9804 25.4186 45.2332 26.3228 45.321C26.4237 45.6717 26.5084 46.0491 26.5785 46.409C26.2653 46.3989 25.9504 46.4102 25.6372 46.3835C25.1098 46.339 24.6003 46.1013 24.0727 46.0418C23.065 45.9288 22.0565 45.7631 21.0574 45.5363C20.6613 45.4454 20.2147 45.3898 19.8124 45.3407C19.2653 45.2739 18.72 45.1609 18.1734 45.0817C17.2673 44.9493 16.3108 44.8204 15.4326 44.4853C15.1995 44.3969 14.8854 44.4948 14.6447 44.4514C14.4501 44.4157 14.273 44.3808 14.0754 44.3778C13.538 44.3696 12.9377 44.1994 12.4162 44.0035C12.1472 43.9022 11.8402 43.9421 11.5645 43.8928C11.3088 43.8476 11.0489 43.7464 10.7922 43.692C10.3116 43.5913 9.82721 43.4776 9.34175 43.4326C8.86139 43.3888 8.39566 43.1965 7.91221 43.1397C7.46007 43.0861 7.01287 42.9956 6.56272 42.9308C5.7432 42.8141 4.92968 42.7347 4.11486 42.6686C4.10475 42.3241 4.09244 41.9801 4.07902 41.6377C4.63113 41.8088 5.23426 41.8378 5.79286 41.9655Z" fill="#E60000"/>
<path d="M27.6711 42.1465C27.6577 42.2349 27.681 42.3352 27.7481 42.3636C28.1491 42.6388 28.6231 43.8701 28.7964 44.4227C29.0664 45.2857 29.2841 46.2043 29.5421 47.08C29.6431 47.4231 30.0246 47.2522 29.9249 46.9005C29.6424 45.9019 29.4452 44.7613 29.0583 43.8401C28.852 43.3493 28.4655 42.2842 28.0096 42.0485C27.9737 42.0597 27.9356 42.071 27.9 42.0817L27.8586 42.094C27.796 42.1124 27.7334 42.1292 27.6711 42.1465Z" fill="#E60000"/>
<path d="M33.0591 45.2338C32.9692 44.692 32.8761 44.1443 32.7723 43.6076C32.6609 43.0375 32.5558 42.2424 32.2843 41.8214C32.1575 41.6245 31.9009 41.8796 32.0141 42.1112C32.1414 42.3737 32.1554 42.823 32.2317 43.1288C32.3507 43.6034 32.4353 44.064 32.522 44.5542C32.7285 45.7269 32.9333 46.8974 33.0691 48.0921C33.3553 50.6069 32.7923 53.3765 31.6463 55.3152C31.5438 55.4877 31.7095 55.7207 31.8299 55.5914C33.1018 54.2294 33.5646 51.359 33.5882 49.1723C33.6028 47.8692 33.2654 46.4753 33.0591 45.2338Z" fill="#E60000"/>
<path d="M34.0265 45.1785C33.9496 44.5203 33.9149 43.7817 33.7199 43.1711C33.6335 42.9017 33.4433 42.4825 33.4328 42.1858C33.4211 41.852 33.0711 41.8402 33.0769 42.1804C33.0896 42.8876 33.4519 43.6468 33.5353 44.3524C33.7024 45.7705 33.8174 47.1653 33.7776 48.6126C33.7123 51.0012 33.4653 53.3258 32.4544 55.2548C32.3436 55.4659 32.53 55.7765 32.6768 55.5972C33.9925 53.9866 34.103 51.0178 34.181 48.6837C34.2207 47.5083 34.1626 46.3298 34.0265 45.1785Z" fill="#E60000"/>
<path d="M35.0054 45.6462C34.9716 45.2003 34.8841 44.6693 34.7774 44.2491C34.6934 43.9202 34.4977 43.3322 34.4916 42.9855C34.4871 42.6787 34.1328 42.6948 34.1264 42.9988C34.1201 43.2931 34.2228 43.5687 34.2836 43.842C34.387 44.3093 34.4585 44.7907 34.5267 45.2709C34.6903 46.4172 34.629 47.5273 34.6066 48.6922C34.581 50.051 34.276 51.2138 34.0812 52.519C33.9275 53.5471 33.5856 54.5487 33.1671 55.4036C33.0869 55.5684 33.2309 55.742 33.3351 55.6318C33.9247 55.0111 34.2418 53.936 34.4447 52.9404C34.6968 51.7026 34.9529 50.4687 35.0104 49.1721C35.0637 47.984 35.0939 46.8305 35.0054 45.6462Z" fill="#E60000"/>
<path d="M59.5203 71.0908C58.8038 70.3294 58.1422 69.4652 57.4123 68.7273C56.6225 67.9272 55.821 67.2404 54.9854 66.5508C54.2005 65.9023 53.4809 65.185 52.7262 64.4719C51.9157 63.7065 51.2631 62.685 50.507 61.8177C49.8173 61.0267 49.0265 60.4861 48.2993 59.7848C47.4801 58.9929 46.6929 58.1402 45.9354 57.2256C45.2717 56.4242 44.6383 55.6228 43.9045 54.9503C43.575 54.6499 43.2428 54.358 42.9034 54.0826C42.7309 53.9425 42.5203 53.7867 42.3199 53.6043C42.5732 53.5189 42.7887 53.3519 43.0154 53.1162C42.9375 53.0366 42.8578 52.9537 42.7749 52.8665C42.7734 52.8654 42.772 52.8638 42.7709 52.8622C42.6424 52.727 42.5078 52.5831 42.3647 52.4262L42.3524 52.4153L42.1334 52.188C41.9951 52.0988 41.8577 52.0678 41.6731 52.0478C41.2813 52.0069 40.9286 51.8184 40.5279 51.8129C40.1097 51.8065 39.7176 51.6851 39.3091 51.6172C38.7962 51.532 38.2479 51.5898 37.7256 51.5932C37.787 51.535 37.8122 51.464 37.7715 51.3774C37.7602 51.3536 37.7467 51.3324 37.7324 51.3134C38.2097 51.2492 38.6872 51.1694 39.1708 51.1418C40.1738 51.0833 41.2522 50.9884 42.2448 50.7531C43.1829 50.532 44.1304 50.5995 45.0684 50.3574C45.6231 50.2143 46.1194 49.7608 46.6519 49.518C47.2519 49.2461 47.8506 49.2992 48.4662 49.2274C48.9393 49.1738 49.4539 49.1225 49.916 48.9554C50.3204 48.8095 50.7572 48.9155 51.1627 48.7744C52.11 48.4465 53.1463 48.2371 54.1186 48.1406C54.505 48.1018 54.9138 47.963 55.2826 47.7864C55.8233 47.5271 56.3713 47.4419 56.9335 47.3316C57.3786 47.2454 57.6979 47.0907 58.1242 46.8978C58.3086 46.8141 58.5225 46.7765 58.7181 46.693C58.7218 46.8569 58.7278 47.0198 58.7355 47.1827C58.9885 46.9711 59.1557 46.6991 59.2306 46.229C59.289 45.8625 59.2804 45.4417 59.2731 45.0338C59.2696 44.8586 59.2663 44.6856 59.2678 44.5158C59.2702 44.2585 59.2734 43.9996 59.2766 43.7418C59.2834 43.2433 59.2901 42.7282 59.2868 42.2237C59.2861 42.0996 59.2863 41.9691 59.2872 41.8348C59.2885 41.2696 59.2885 40.6126 59.2022 40.0504C59.1963 40.053 59.1898 40.054 59.1839 40.0571C59.1793 40.0194 59.1752 39.9807 59.1696 39.9425C59.1202 39.6135 58.6723 38.8229 58.4779 39.4281C58.363 39.7879 58.4015 40.2575 58.4305 40.7028C57.3572 40.8515 56.2735 41.2471 55.2223 41.5718C54.5621 41.7746 53.9033 41.9484 53.2388 42.121C52.7347 42.252 52.2496 42.4681 51.7553 42.6449C51.6997 42.5861 51.6263 42.5721 51.5548 42.6457C51.4147 42.7913 51.0513 42.7514 50.8902 42.749C50.6517 42.7454 50.497 42.8736 50.2578 42.9151C49.7291 43.0097 49.1008 43.1007 48.5985 43.3488C48.0066 43.6407 47.3729 43.4866 46.7941 43.8453C46.2206 44.202 45.4991 44.1851 44.8896 44.3838C44.5616 44.4896 44.2303 44.4765 43.8979 44.4897C43.584 44.5027 43.2569 44.6493 42.9458 44.7203C42.2505 44.8806 41.5688 45.0551 40.8651 45.116C40.1793 45.1749 39.5403 45.3269 38.862 45.4676C38.6491 45.5128 38.421 45.4986 38.1969 45.4844C38.2022 45.4722 38.2086 45.4599 38.2113 45.4465C38.2784 45.1128 37.3414 45.1685 37.183 45.1226C36.726 44.9862 36.7331 44.8053 36.7226 44.2464C36.5181 44.2401 36.3141 44.2225 36.1156 44.205L36.0002 44.1936C35.8366 44.1793 35.7118 44.1382 35.607 44.0721C35.5949 44.0805 35.5828 44.0863 35.5713 44.0952C35.862 44.9613 35.8162 46.2301 35.945 47.1884C36.0478 47.9641 36.0177 48.7775 35.9827 49.57C35.9507 50.2883 35.9195 51.2683 35.7137 51.9469C35.6936 51.9729 35.6757 52.0038 35.6573 52.0347C35.6636 52.0085 35.6701 51.9839 35.6764 51.9582C35.8135 51.3537 35.7968 50.7201 35.8059 50.0943C35.8182 49.2591 35.8449 48.4091 35.7476 47.5856C35.7457 47.5673 35.7397 47.5516 35.7348 47.536C35.7286 47.2238 35.7199 46.9099 35.7175 46.587C35.7149 46.0835 35.5224 45.5198 35.4176 45.0465C35.2896 44.4719 35.157 43.8316 35.1202 43.2267C35.1042 42.9605 34.8071 42.9485 34.7971 43.2239C34.7696 43.9585 35.0018 44.8081 35.153 45.497C35.4184 46.7055 35.437 48.0112 35.2849 49.2639C35.1482 50.3981 34.996 51.4912 34.7739 52.5994C34.6781 53.0756 34.5808 53.5539 34.4498 54.0117C34.319 54.4659 34.0713 54.8087 33.9106 55.2349C33.8551 55.3813 33.9877 55.487 34.0665 55.4173C34.1212 55.3692 34.1723 55.3173 34.2205 55.2638C34.2617 55.3138 34.3255 55.2901 34.3533 55.2126C34.3491 55.2249 34.3927 55.189 34.4496 55.1394C34.8083 55.0008 35.0479 54.4028 35.2519 53.9798C35.2847 53.9132 35.3225 53.8439 35.3611 53.7746L35.5188 53.9822C35.7463 54.2812 35.9985 54.5283 36.2648 54.7902C36.3029 54.8284 36.3428 54.8677 36.3819 54.907C36.4472 54.786 36.4326 54.5263 36.523 54.3074C36.6771 54.4913 36.8227 54.6982 36.9646 54.8664C37.4884 55.4878 38.1064 56.0022 38.5995 56.6742C38.9872 57.2028 39.4469 57.5766 39.8252 58.1234C40.2321 58.7124 40.7493 59.1447 41.2274 59.5983C42.2931 60.6121 43.2055 61.8164 44.1526 63.0502C45.07 64.245 46.0946 65.2216 47.0746 66.299C47.9657 67.2785 48.634 68.5908 49.4359 69.7102C49.8412 70.2756 50.3115 70.7254 50.717 71.301C51.0916 71.8326 51.76 72.128 52.208 72.4533C53.2162 73.1869 54.0279 74.2779 54.9948 75.0946C55.451 75.4803 55.9226 75.936 56.3535 76.3825C56.7603 76.805 57.2153 77.0784 57.6315 77.4629C57.6764 77.5038 57.722 77.5072 57.7624 77.4858C57.8094 77.3946 57.8535 77.2959 57.8959 77.1934C57.8943 77.1311 57.8759 77.0711 57.8357 77.026C57.5475 76.6966 57.1979 76.4721 56.8799 76.203C56.3996 75.7965 55.9647 75.2726 55.4961 74.8406C54.4969 73.9197 53.5944 72.7306 52.5179 72.0003C51.992 71.6426 51.3005 71.2829 50.8845 70.6911C50.4758 70.1079 50.0041 69.6586 49.5952 69.0856C48.7295 67.8734 47.9972 66.5687 47.0427 65.4895C46.0538 64.3716 45.0297 63.3649 44.0919 62.1435C43.8591 61.8402 43.6266 61.5375 43.3941 61.2342C43.1964 60.9766 43.0138 60.5558 42.7679 60.3915C42.2379 60.0391 41.7428 59.3531 41.2492 58.8847C40.698 58.3601 40.2351 57.7417 39.7205 57.1612C39.5707 56.9919 39.398 56.8608 39.2356 56.7192C38.9923 56.5066 38.8288 56.1275 38.5865 55.8987C38.1108 55.451 37.677 54.9067 37.2137 54.4334C37.0858 54.3036 36.9591 54.1421 36.8283 53.9924C37.1135 53.8479 37.5045 53.8205 37.8211 53.793C37.994 54.1518 38.2746 54.4338 38.4902 54.689C39.0506 55.3508 39.5789 55.9879 40.1697 56.5948C41.0168 57.4672 41.9956 58.1401 42.8048 59.0887C43.6716 60.1027 44.4817 61.2345 45.3199 62.3061C45.6777 62.7633 45.9933 63.2613 46.3807 63.6636C46.8615 64.163 47.3471 64.6544 47.8166 65.1756C48.7459 66.2083 49.6833 67.2867 50.515 68.4823C51.2802 69.5828 52.3028 70.3085 53.201 71.1553C54.0988 72.0032 55.0046 72.8572 55.8658 73.7846C56.2645 74.2139 56.6389 74.6795 57.0545 75.0769C57.3194 75.3296 57.701 75.7072 58.0355 75.7799C58.0604 75.791 58.0859 75.7973 58.1129 75.7945C58.1173 75.7946 58.1235 75.7968 58.1267 75.7969C58.1278 75.7953 58.1279 75.7947 58.1279 75.7937C58.3573 75.7896 58.2983 75.591 58.1659 75.3779C58.1724 75.3103 58.1785 75.2416 58.185 75.1735C58.138 75.1738 58.089 75.1822 58.0442 75.2004C57.9044 75.0134 57.7555 74.8548 57.7562 74.8549C57.5414 74.663 57.3022 74.5418 57.0886 74.3381C56.7618 74.0254 56.4748 73.6391 56.1627 73.3002C55.7318 72.8327 55.2995 72.3588 54.8368 71.9618C53.7575 71.0343 52.7886 69.8205 51.6618 68.9939C51.1302 68.6044 50.7183 67.8648 50.297 67.267C49.8625 66.6528 49.341 66.2124 48.8795 65.6462C47.9737 64.5344 46.9019 63.6387 46.0568 62.4365C45.642 61.8457 45.1936 61.3012 44.7503 60.7583C44.3056 60.2138 43.9312 59.5527 43.4554 59.0663C43.0844 58.6879 42.7398 58.2711 42.3658 57.898C41.8434 57.3786 41.3013 56.9074 40.7812 56.3827C40.2682 55.8667 39.7082 55.4687 39.2284 54.8796C39.0591 54.6724 38.9119 54.4445 38.7354 54.2495C38.5977 54.097 38.4082 53.9378 38.2396 53.7575C38.8345 53.7262 39.4438 53.8546 40.0435 53.8938C40.2228 54.0942 40.395 54.3063 40.5822 54.494C41.0097 54.9211 41.302 55.5369 41.663 56.0694C42.0294 56.61 42.4949 57.0055 42.9228 57.431C43.3615 57.8679 43.8043 58.3264 44.2797 58.6732C45.1624 59.3151 46.0935 60.0619 46.8513 60.9808C47.2377 61.4476 47.6382 61.8286 47.9935 62.3567C48.3334 62.8615 48.7102 63.3147 49.0867 63.7593C49.8481 64.6589 50.5847 65.6306 51.4025 66.4166C52.2411 67.2233 53.1333 67.9142 53.9775 68.7119C54.7513 69.444 55.462 70.2193 56.2014 71.0272C56.9857 71.8857 57.8739 72.4751 58.5862 73.4835C58.769 73.7431 59.0598 73.3037 58.9021 73.0225C58.8502 72.9298 58.798 72.8366 58.7466 72.744C58.7143 72.6855 58.6767 72.6586 58.64 72.6521C58.0381 71.864 57.3142 71.2879 56.6351 70.6598C56.2222 70.2786 55.8295 69.7945 55.4564 69.3354C55.0823 68.8737 54.6511 68.5674 54.2449 68.1782C53.3494 67.3206 52.3999 66.5875 51.5062 65.7305C50.6427 64.9025 49.8508 63.8327 49.0527 62.8724C48.6752 62.4175 48.3305 61.9165 47.9807 61.4164C47.5991 60.8723 47.1202 60.4374 46.6971 59.9631C45.9142 59.0852 44.9422 58.5376 44.1013 57.7862C43.1981 56.979 42.2453 56.1507 41.5435 54.9748C41.2757 54.527 40.9668 54.2344 40.6614 53.8827C41.0465 53.8348 41.4224 53.7245 41.8092 53.6825C42.0862 54.031 42.4378 54.2948 42.728 54.5457C43.7154 55.4009 44.633 56.3388 45.4929 57.451C46.2541 58.4333 47.0755 59.2919 47.9085 60.1345C48.7182 60.9537 49.6053 61.5656 50.3821 62.4616C51.0581 63.2428 51.6263 64.1775 52.3455 64.8782C53.1006 65.6122 53.8154 66.3392 54.6091 66.9819C55.4392 67.6542 56.2423 68.3239 57.0232 69.1147C57.8479 69.9486 58.5972 70.9221 59.4133 71.7704C59.5562 71.9192 59.7361 71.7001 59.7394 71.4798L59.7407 71.3918C59.7439 71.1801 59.6316 71.0817 59.5203 71.0908ZM58.6916 42.2459C58.693 42.3034 58.6946 42.3609 58.6956 42.4184C58.6678 42.3976 58.6382 42.3794 58.6052 42.3665C58.6353 42.3294 58.6644 42.2895 58.6916 42.2459ZM37.007 45.8882C37.3306 46.0473 37.7297 46.0178 38.0395 46.0284C38.384 46.0401 38.7299 46.0765 39.0732 46.0194C39.5218 45.9434 39.9506 45.7581 40.4049 45.7402C41.2143 45.709 41.9874 45.5665 42.7876 45.3884C43.5048 45.2295 44.2327 45.1878 44.9429 45.0052C45.554 44.8479 46.2014 44.7916 46.7896 44.5103C47.1165 44.3536 47.4074 44.221 47.7512 44.1977C48.1481 44.1699 48.4953 43.9984 48.8825 43.9075C49.4641 43.7739 50.0798 43.6688 50.6461 43.4303C51.0007 43.2804 51.5093 43.5277 51.7937 43.1011C51.8079 43.0798 51.8184 43.0569 51.8261 43.0323C52.1832 43.0001 52.5308 42.8753 52.8972 42.8105C53.6355 42.682 54.3993 42.5296 55.1204 42.2569C55.8316 41.9867 56.5774 41.8169 57.3012 41.6328C57.6721 41.539 58.0654 41.3091 58.4455 41.3305C58.4197 41.7824 58.2702 42.1133 57.7392 42.1133C57.6751 42.1134 57.6217 42.1679 57.5878 42.2432C57.1854 42.2999 56.7534 42.5309 56.4147 42.6697C56.1152 42.7925 55.8235 42.9611 55.525 43.0887C55.4446 43.123 55.3745 43.1799 55.3076 43.2412C54.5897 43.4421 53.8607 43.5374 53.1555 43.7932C52.7405 43.9427 52.2872 44.0621 51.8604 44.1852C51.4198 44.3128 50.9845 44.4706 50.5441 44.6053C50.3496 44.6646 50.1766 44.5997 49.9888 44.6441C49.7908 44.69 49.5314 44.8886 49.3327 44.9576C48.9273 45.0982 48.5132 45.1311 48.1013 45.213C47.1415 45.4037 46.1816 45.6675 45.2318 45.969C44.2185 46.2922 43.2171 46.3855 42.1881 46.4742C41.3635 46.5439 40.5722 46.6636 39.7433 46.6838C38.9374 46.7044 38.1127 46.8091 37.3028 46.9725C37.195 46.8376 36.8382 46.9708 36.7452 46.9458C36.6969 46.5212 36.785 46.0997 37.007 45.8882ZM36.809 47.6C37.0299 47.5781 37.2503 47.5261 37.4768 47.5253C37.9779 47.5226 38.4855 47.5244 38.9859 47.453C39.874 47.3257 40.7786 47.414 41.6589 47.22C42.6638 46.9971 43.6791 47.0179 44.6881 46.7849C45.7326 46.5445 46.77 46.2163 47.8111 45.9575C48.1782 45.8669 48.5507 45.836 48.9186 45.7465C49.3076 45.653 49.7879 45.2928 50.1733 45.2997C50.5831 45.3059 50.9668 45.136 51.3622 44.9872C51.8353 44.8085 52.3163 44.7384 52.786 44.5231C53.1283 44.3666 53.5169 44.4208 53.867 44.3041C54.4205 44.1202 54.9809 44.0303 55.5362 43.8486C56.0089 43.6945 56.4827 43.5255 56.9512 43.3413C57.3239 43.1944 57.7031 42.9589 58.0859 42.8938C58.2937 42.9984 58.4828 43.1281 58.4791 43.3494C58.4771 43.4579 58.4916 44.2145 58.4802 44.2176C58.2328 44.2745 58.0158 44.203 57.7694 44.3137C57.7011 44.3439 57.6648 44.4303 57.6565 44.5242C57.1298 44.6705 56.6057 44.8914 56.0833 45.0237C55.2314 45.2365 54.3642 45.428 53.5025 45.6632C52.4629 45.9467 51.4848 46.5944 50.4323 46.7928C49.4345 46.9808 48.4271 46.9887 47.4345 47.2498C46.6187 47.4642 45.8418 47.8371 45.0125 47.9519C44.4621 48.029 43.9142 47.9895 43.3646 48.0376C43.0199 48.0679 42.6104 48.0397 42.2759 48.1662C41.5607 48.4369 40.818 48.4735 40.0972 48.749C39.0008 49.1675 37.9222 49.0341 36.8167 49.0641C36.7746 48.9845 36.7527 48.8628 36.7442 48.6553C36.7323 48.3548 36.7184 47.8754 36.809 47.6ZM36.7674 50.8293C36.6251 50.4505 36.7399 49.9016 36.9574 49.5997C37.8389 49.7194 38.7209 49.8311 39.6098 49.6049C40.0843 49.4837 40.5181 49.2001 41.0058 49.1747C41.3127 49.159 41.6914 49.0798 41.991 48.9699C42.8861 48.6428 43.7921 48.757 44.7074 48.6419C45.6202 48.5278 46.4808 48.2658 47.3669 47.959C48.3648 47.6141 49.419 47.5952 50.4363 47.4644C51.4127 47.3395 52.3099 46.7084 53.265 46.4402C53.7628 46.3006 54.2614 46.1732 54.7632 46.054C55.1439 45.9636 55.5722 45.7085 55.949 45.7024C56.7585 45.6893 57.5445 45.2714 58.3377 45.0293C58.5496 45.1298 58.7184 45.2994 58.7133 45.7087C58.7118 45.8097 58.7121 45.9112 58.712 46.0122C58.3947 46.2073 57.9917 46.2286 57.6737 46.4231C57.1882 46.7198 56.6051 46.7191 56.0871 46.8197C55.206 46.9912 54.3931 47.4238 53.4962 47.5289C52.6241 47.6323 51.7732 48.0256 50.9068 48.1382C49.9308 48.2653 48.9624 48.5166 47.9816 48.599C47.5412 48.6359 47.1348 48.6437 46.7021 48.7972C46.166 48.9895 45.6792 49.4007 45.1511 49.6382C44.2688 50.0348 43.3088 49.8016 42.4093 50.0513C41.445 50.3209 40.4508 50.28 39.4787 50.4802C38.5847 50.6639 37.6725 50.7404 36.7674 50.8293Z" fill="#E60000"/>
<path d="M24.8085 52.7983C24.6976 52.8541 24.6376 52.9837 24.5703 53.1186C24.5421 53.1741 24.5045 53.2025 24.4742 53.252C24.4267 53.327 24.3661 53.4303 24.2965 53.4534C24.2305 53.4761 24.2411 53.6169 24.3063 53.6233C24.5812 53.6495 24.7608 53.3278 24.9179 53.0395C24.9738 52.9367 24.8971 52.7535 24.8085 52.7983Z" fill="#900C0C"/>
<path d="M24.18 51.7883C24.0721 51.8291 23.9738 51.9652 23.8962 52.0795C23.8589 52.1342 23.8288 52.1929 23.7991 52.2553C23.7675 52.3214 23.7549 52.427 23.7083 52.472C23.6739 52.5053 23.6893 52.571 23.7233 52.5861C23.8154 52.6267 23.888 52.4758 23.9479 52.3998C24.0152 52.3144 24.0817 52.23 24.1508 52.1483C24.2028 52.0873 24.2479 52.0235 24.2737 51.9326C24.2968 51.8503 24.2331 51.7676 24.18 51.7883Z" fill="#900C0C"/>
<path d="M31.9755 44.9511C31.9732 44.9097 31.9323 44.8935 31.9129 44.9206C31.8416 45.0264 31.7653 45.1784 31.7296 45.3186C31.6971 45.4448 31.6799 45.5719 31.6328 45.691C31.5889 45.802 31.6952 45.9057 31.7457 45.7996C31.806 45.671 31.8439 45.5276 31.88 45.3831C31.9192 45.2253 31.9856 45.1296 31.9755 44.9511Z" fill="#900C0C"/>
<path d="M26.0368 54.0101C25.9166 53.932 25.7853 53.9644 25.6646 54.0383C25.6071 54.0734 25.6218 54.1875 25.6707 54.2189C25.7793 54.2893 25.9092 54.3277 26.0224 54.2596C26.0922 54.2166 26.1161 54.0612 26.0368 54.0101Z" fill="#900C0C"/>
<path d="M4.09118 42.6579C3.88993 42.5088 3.6519 42.5256 3.42978 42.4787C3.26691 42.4451 3.11358 42.4315 2.94924 42.4462C2.87729 42.4532 2.87367 42.6202 2.94496 42.6331C3.14536 42.6694 3.34271 42.7379 3.54101 42.7925C3.72442 42.8426 3.90927 42.9184 4.08674 42.8067C4.12539 42.7831 4.12904 42.6865 4.09118 42.6579Z" fill="#900C0C"/>
<path d="M21.7547 52.5633C21.6894 52.4452 21.6094 52.3338 21.5382 52.2221C21.452 52.086 21.3572 51.9846 21.2266 51.9886C21.1251 51.993 21.1162 52.176 21.1867 52.2356C21.186 52.2372 21.1852 52.2388 21.1845 52.2399C21.3622 52.3806 21.4315 52.6884 21.6062 52.8355C21.7286 52.9378 21.8363 52.7127 21.7547 52.5633Z" fill="#900C0C"/>
<path d="M23.0558 53.3926C22.9066 52.9413 22.5794 52.6291 22.3325 52.2951C22.0322 51.8914 21.7998 51.3927 21.4906 51.0029C21.4333 50.9305 21.3307 51.0354 21.3814 51.1328C21.6093 51.5724 21.8345 52.0372 22.1007 52.4275C22.3547 52.8003 22.6351 53.2869 22.9557 53.5286C23.009 53.5676 23.0841 53.4774 23.0558 53.3926Z" fill="#900C0C"/>
<path d="M23.8688 53.3253C23.64 52.8803 23.2878 52.6311 23.0422 52.2105C22.8285 51.8447 22.526 51.5668 22.326 51.1899C22.2814 51.1049 22.1727 51.1779 22.1925 51.2862C22.23 51.4887 22.3684 51.6213 22.4602 51.7715C22.6232 52.0372 22.8003 52.2853 22.9552 52.5605C23.0848 52.7918 23.2638 52.9632 23.4203 53.152C23.5665 53.3277 23.632 53.4812 23.8253 53.4782C23.8764 53.4779 23.8954 53.3767 23.8688 53.3253Z" fill="#900C0C"/>
<path d="M24.5916 53.7096C24.4536 53.1864 24.102 52.7799 23.8394 52.3945C23.6928 52.1791 23.5139 51.9991 23.3747 51.7725C23.3071 51.6619 23.2491 51.588 23.1477 51.5665C23.0524 51.5468 23.0147 51.7294 23.0957 51.7951C23.1912 51.8734 23.3188 52.1159 23.3912 52.2239C23.5086 52.3981 23.6292 52.5713 23.7436 52.7514C23.8722 52.9531 24.0041 53.1512 24.1346 53.3508C24.254 53.5336 24.335 53.7245 24.4911 53.8396C24.5456 53.8797 24.6147 53.7964 24.5916 53.7096Z" fill="#900C0C"/>
<path d="M24.9899 53.4862C24.9375 53.2153 24.7476 53.0142 24.6193 52.8135C24.4444 52.5412 24.2828 52.2535 24.1453 51.9383C24.0917 51.8172 23.9575 51.9129 24.0062 52.0436C24.1218 52.358 24.2556 52.6528 24.4075 52.9312C24.5388 53.17 24.6994 53.5264 24.9055 53.6198C24.9591 53.6437 25.0034 53.5573 24.9899 53.4862Z" fill="#900C0C"/>
<path d="M31.1672 54.0602C31.0576 53.8609 30.7981 53.8467 30.6366 53.7723C30.4591 53.6901 30.3274 53.505 30.1445 53.4689C30.0408 53.4485 30.0241 53.6658 30.1101 53.7182C30.1751 53.7584 30.2201 53.8203 30.2731 53.8855C30.353 53.9823 30.4587 54.0312 30.5519 54.0901C30.7213 54.1969 30.9765 54.3517 31.1546 54.2238C31.1999 54.1907 31.1928 54.1068 31.1672 54.0602Z" fill="#900C0C"/>
<path d="M30.6564 54.3024C30.5655 54.2629 30.483 54.1934 30.3909 54.1582C30.2677 54.1091 30.2164 54.3871 30.3385 54.4405C30.4421 54.4855 30.7296 54.7665 30.81 54.5389C30.8622 54.3909 30.7278 54.3346 30.6564 54.3024Z" fill="#900C0C"/>
<path d="M31.5767 53.2862C31.4274 53.1502 31.2475 53.1545 31.0822 53.0693C30.8462 52.9475 30.5708 52.6646 30.3071 52.6649C30.228 52.6653 30.1969 52.8373 30.2698 52.8883C30.5177 53.0624 30.7478 53.2812 31.0045 53.4291C31.1773 53.5284 31.38 53.6319 31.5552 53.5002C31.6065 53.4613 31.6361 53.3398 31.5767 53.2862Z" fill="#900C0C"/>
<path d="M31.8564 52.5808C31.7452 52.4109 31.5682 52.4212 31.4176 52.3716C31.2169 52.3057 31.0289 52.1729 30.8532 52.0209C30.7362 51.9203 30.6161 52.1699 30.7319 52.2807C30.9069 52.4493 31.0894 52.5847 31.2877 52.686C31.4528 52.7691 31.7012 52.8873 31.847 52.6956C31.8682 52.6679 31.8778 52.6138 31.8564 52.5808Z" fill="#900C0C"/>
<path d="M32.1574 51.9241C32.0572 51.7292 31.8632 51.7031 31.7123 51.6235C31.501 51.5118 31.304 51.4412 31.1236 51.2434C31.0644 51.1781 30.9681 51.2991 31.0119 51.3932C31.1359 51.6588 31.2718 51.7399 31.4728 51.86C31.6658 51.9757 31.9199 52.2454 32.13 52.0977C32.1757 52.0656 32.1879 51.982 32.1574 51.9241Z" fill="#900C0C"/>
<path d="M32.2551 50.6997C32.13 50.5339 31.9292 50.5234 31.773 50.4329C31.6103 50.3413 31.4553 50.2219 31.2919 50.1286C31.1501 50.048 31.0821 50.3741 31.2194 50.4595C31.4795 50.6213 31.9665 51.168 32.2473 50.8591C32.278 50.8257 32.2845 50.7382 32.2551 50.6997Z" fill="#900C0C"/>
<path d="M32.0707 49.4807C31.8975 49.3809 31.7769 49.2276 31.5766 49.2611C31.4486 49.2828 31.4406 49.5459 31.5632 49.5885C31.6575 49.6217 31.7348 49.6529 31.8182 49.7331C31.8901 49.8014 31.9557 49.8733 32.0406 49.9046C32.132 49.9388 32.3816 49.9484 32.3655 49.7156C32.3515 49.5075 32.165 49.5353 32.0707 49.4807Z" fill="#900C0C"/>
<path d="M32.4694 49.0166C32.4263 48.9451 32.4137 48.9368 32.3512 48.8993C32.2001 48.8074 32.0518 48.7074 31.9042 48.6036C31.8056 48.535 31.7086 48.4868 31.599 48.4803C31.4988 48.4739 31.4722 48.7077 31.5721 48.7377C31.836 48.8164 32.1947 49.5045 32.4683 49.1616C32.4988 49.1229 32.4925 49.0562 32.4694 49.0166Z" fill="#900C0C"/>
<path d="M32.4557 47.9531C32.4134 47.7612 32.2885 47.6761 32.1711 47.5986C32.0112 47.4925 31.8491 47.3815 31.6926 47.2621C31.5982 47.1903 31.514 47.4033 31.5957 47.497C31.7029 47.6189 31.836 47.7692 31.9625 47.8436C32.1053 47.9263 32.241 48.0933 32.3999 48.0742C32.4401 48.0689 32.4684 48.0097 32.4557 47.9531Z" fill="#900C0C"/>
<path d="M32.0654 46.5565C31.9459 46.4327 31.8128 46.3577 31.6655 46.3522C31.5839 46.3478 31.5736 46.5501 31.6547 46.5615C31.7697 46.5794 31.8619 46.6823 31.9511 46.783C32.0437 46.8859 32.1316 47.0785 32.2559 47.0804C32.2891 47.0809 32.3157 47.034 32.3149 46.9873C32.3142 46.7955 32.1602 46.6535 32.0654 46.5565Z" fill="#900C0C"/>
<path d="M32.1944 45.955C32.1042 45.7028 31.8924 45.5283 31.7072 45.475C31.6106 45.4483 31.56 45.6538 31.6583 45.6945C31.8417 45.7681 31.9599 46.0052 32.1404 46.0761C32.1894 46.0951 32.2137 46.0085 32.1944 45.955Z" fill="#900C0C"/>
<path d="M27.3482 46.1786C27.1477 46.2185 27.0445 46.6257 26.95 46.8467C26.86 47.0575 26.722 47.2848 26.7228 47.5448C26.723 47.6576 26.8326 47.6904 26.8565 47.5779C26.8911 47.4173 26.9676 47.3223 27.0409 47.2036C27.0985 47.1089 27.1454 46.9968 27.1969 46.8955C27.2864 46.7196 27.4162 46.5024 27.4323 46.2792C27.4374 46.2089 27.3899 46.1695 27.3482 46.1786Z" fill="#900C0C"/>
<path d="M27.1354 45.7378C27.118 45.7118 27.0801 45.7053 27.0601 45.7302C26.8991 45.9287 26.7633 46.2086 26.6441 46.4647C26.5673 46.6295 26.7311 46.814 26.8098 46.6509C26.8968 46.4669 26.9902 46.2959 27.0937 46.1314C27.1528 46.0383 27.2018 45.8377 27.1354 45.7378Z" fill="#900C0C"/>
<path d="M26.803 45.0404C26.7521 45.0805 26.7085 45.141 26.6668 45.1995C26.6094 45.2797 26.4917 45.3956 26.4588 45.4923C26.4214 45.6013 26.3725 45.7021 26.3297 45.8078C26.3093 45.8564 26.2933 45.9963 26.2471 46.0139C26.1913 46.0345 26.2029 46.1609 26.2602 46.1586C26.3182 46.1562 26.3562 46.1278 26.3941 46.0618C26.4638 45.9377 26.5374 45.8185 26.6053 45.6933C26.6668 45.5798 26.7481 45.5144 26.8061 45.3885C26.8408 45.3128 26.8682 45.2122 26.8765 45.1221C26.8815 45.0604 26.8454 45.0067 26.803 45.0404Z" fill="#900C0C"/>
<path d="M26.6033 44.2411C26.4467 44.2258 26.346 44.5149 26.2713 44.6803C26.2279 44.7763 26.1946 44.8795 26.1573 44.981C26.1235 45.0723 26.1071 45.1924 26.0672 45.2772C26.0321 45.354 26.1016 45.4582 26.149 45.3891C26.259 45.228 26.3525 45.0532 26.4457 44.8709C26.5227 44.7185 26.6778 44.5462 26.6717 44.3442C26.67 44.2861 26.6437 44.2444 26.6033 44.2411Z" fill="#900C0C"/>
<path d="M27.6975 46.9567C27.514 47.0312 27.4064 47.2756 27.3031 47.497C27.1614 47.7994 26.977 48.0319 26.8114 48.3039C26.7646 48.3805 26.8339 48.5051 26.8914 48.4404C27.0761 48.2327 27.2744 48.0981 27.424 47.8281C27.5477 47.6027 27.7098 47.3527 27.7604 47.0672C27.77 47.012 27.7438 46.9375 27.6975 46.9567Z" fill="#900C0C"/>
<path d="M27.8278 47.826C27.6244 47.9663 27.4847 48.3091 27.3223 48.5338C27.209 48.69 27.092 48.8064 26.9909 48.9832C26.9422 49.0679 26.8744 49.1641 26.8143 49.232C26.7694 49.2828 26.8043 49.4096 26.8614 49.3691C27.08 49.2129 27.3222 48.9469 27.5023 48.7079C27.6594 48.4986 27.8632 48.2374 27.9164 47.9272C27.9288 47.8555 27.8691 47.7976 27.8278 47.826Z" fill="#900C0C"/>
<path d="M27.988 48.4455C27.7038 48.547 27.5987 49.0573 27.3461 49.2388C27.1865 49.3535 26.9942 49.6723 26.9992 49.9437C27.0021 50.0694 27.1147 50.0711 27.1405 49.9625C27.2079 49.6745 27.4779 49.548 27.62 49.3638C27.7788 49.1594 28.0204 48.9036 28.0733 48.5929C28.0865 48.5163 28.0485 48.4228 27.988 48.4455Z" fill="#900C0C"/>
<path d="M28.0214 49.3233C27.8738 49.364 27.7587 49.5691 27.6533 49.7168C27.5274 49.8921 27.411 50.0859 27.3195 50.3021C27.2843 50.3864 27.3609 50.5068 27.4166 50.4405C27.548 50.2856 27.6716 50.1172 27.8002 49.9597C27.9106 49.826 28.0633 49.6585 28.099 49.4485C28.1098 49.3853 28.0671 49.3105 28.0214 49.3233Z" fill="#900C0C"/>
<path d="M31.2014 43.0397C31.1459 43.0427 31.1003 43.0726 31.0628 43.1354C30.9734 43.2855 30.8855 43.4824 30.822 43.6512C30.7658 43.7986 30.6806 43.8639 30.6792 44.0513C30.6788 44.1765 30.809 44.223 30.8307 44.0907C30.8506 43.9755 30.9204 43.9449 30.9686 43.8683C31.0187 43.789 31.0676 43.7102 31.112 43.6233C31.1815 43.4863 31.2697 43.2991 31.2687 43.1235C31.2684 43.0719 31.2335 43.0381 31.2014 43.0397Z" fill="#900C0C"/>
<path d="M31.1407 42.3732C31.1287 42.3504 31.1037 42.3404 31.0846 42.3487C30.973 42.3959 30.8753 42.6082 30.8095 42.7388C30.7208 42.9153 30.6485 43.1129 30.5633 43.2959C30.526 43.3748 30.5814 43.4997 30.6433 43.4319C30.7249 43.3418 30.7969 43.2398 30.8713 43.1383C30.9306 43.0559 30.9677 42.9604 31.0259 42.878C31.1138 42.7531 31.2362 42.5497 31.1407 42.3732Z" fill="#900C0C"/>
<path d="M30.9259 41.9911C30.9216 41.9604 30.8993 41.9375 30.8805 41.9308C30.761 41.8946 30.6806 42.0749 30.6067 42.1887C30.4644 42.4079 30.3401 42.6499 30.2104 42.8837C30.1646 42.9674 30.2394 43.0856 30.298 43.0183C30.4372 42.8592 30.5656 42.6866 30.6902 42.5032C30.7823 42.3676 30.9552 42.2015 30.9259 41.9911Z" fill="#900C0C"/>
<path d="M30.5993 41.4811C30.5023 41.3625 30.3803 41.4955 30.3149 41.6019C30.2524 41.7047 30.2054 41.8248 30.1429 41.9265C30.076 42.035 30.1713 42.1965 30.2476 42.0946C30.3098 42.0096 30.3692 41.9186 30.4324 41.8336C30.4872 41.7587 30.5571 41.6964 30.6039 41.6106C30.6246 41.5722 30.6262 41.5148 30.5993 41.4811Z" fill="#900C0C"/>
<path d="M37.2802 52.1735C37.0919 52.306 36.9501 52.5429 36.8039 52.756C36.676 52.9421 36.5503 53.1228 36.4035 53.2807C36.2812 53.412 36.195 53.6165 36.0724 53.7387C36.028 53.7826 36.0551 53.8947 36.1082 53.881C36.2469 53.8482 36.3402 53.7062 36.4554 53.5914C36.5653 53.4824 36.6739 53.3922 36.7761 53.267C36.9954 52.9969 37.2355 52.6686 37.366 52.2919C37.3957 52.2053 37.3337 52.1361 37.2802 52.1735Z" fill="#900C0C"/>
<path d="M36.4731 52.4351C36.3805 52.4805 36.2857 52.5037 36.2091 52.5998C36.1671 52.6518 36.1288 52.7253 36.0937 52.757C36.0519 52.7951 36.0203 52.8596 35.9765 52.8853C35.907 52.9245 35.8966 53.035 35.9003 53.129C35.9048 53.265 36.0493 53.2801 36.0814 53.1624C36.0828 53.1619 36.0832 53.1619 36.0851 53.1608C36.1162 53.15 36.1438 53.1129 36.1683 53.0848C36.1913 53.0572 36.2283 53.0422 36.2552 53.0243C36.2822 53.0048 36.3004 52.9573 36.3194 52.927C36.3953 52.8035 36.5111 52.7177 36.54 52.5441C36.5481 52.4948 36.5128 52.4164 36.4731 52.4351Z" fill="#900C0C"/>
<path d="M37.9312 52.3096C37.7202 52.3934 37.5604 52.6177 37.3993 52.828C37.3133 52.9395 37.2278 53.0515 37.1443 53.1657C37.0617 53.2794 37.0134 53.4345 36.9065 53.5064C36.8594 53.538 36.8722 53.6558 36.9212 53.6683C37.1221 53.7208 37.249 53.4815 37.3974 53.3098C37.6049 53.0706 37.8577 52.8258 38.0113 52.5079C38.0505 52.4264 38.0064 52.2801 37.9312 52.3096Z" fill="#900C0C"/>
<path d="M38.9412 51.868C38.708 52.0692 38.5245 52.4155 38.3203 52.6762C38.105 52.9506 37.8146 53.153 37.6492 53.4975C37.5864 53.6282 37.6918 53.8398 37.7856 53.7177C38.007 53.4277 38.2906 53.2446 38.5191 52.9601C38.7214 52.7075 38.9829 52.4149 39.0577 52.0256C39.0759 51.9313 39.0125 51.8079 38.9412 51.868Z" fill="#900C0C"/>
<path d="M39.6786 51.8851C39.4352 51.9722 39.2626 52.3128 39.0864 52.5572C38.8942 52.8234 38.7338 53.1341 38.5313 53.3852C38.4469 53.4913 38.549 53.7093 38.6433 53.6184C38.8776 53.3931 39.0583 53.0939 39.2669 52.8242C39.4399 52.6002 39.6586 52.344 39.757 52.0345C39.7792 51.9639 39.7329 51.8649 39.6786 51.8851Z" fill="#900C0C"/>
<path d="M40.51 51.7501C40.2498 51.8332 40.0807 52.1427 39.8987 52.4085C39.6876 52.7185 39.4469 52.9823 39.2408 53.2983C39.168 53.4089 39.283 53.5992 39.3625 53.4983C39.5849 53.2159 39.8349 52.9876 40.0523 52.6944C40.2246 52.4628 40.4902 52.1913 40.5729 51.8611C40.5869 51.8028 40.5533 51.7368 40.51 51.7501Z" fill="#900C0C"/>
<path d="M41.0881 51.8246C40.8494 51.9553 40.6625 52.3043 40.4857 52.5669C40.398 52.6967 40.3273 52.8396 40.2453 52.9769C40.1698 53.1036 40.0625 53.3491 39.9527 53.3968C39.862 53.4374 39.8951 53.6592 39.9881 53.6348C40.1965 53.5799 40.3766 53.2201 40.5087 52.9965C40.7161 52.644 41.0397 52.3696 41.1646 51.9278C41.1853 51.8551 41.1322 51.8005 41.0881 51.8246Z" fill="#900C0C"/>
<path d="M41.4177 52.4986C41.2758 52.519 41.1646 52.7118 41.0716 52.8554C40.9787 52.9991 40.9248 53.0896 40.8624 53.2578C40.8343 53.3342 40.7759 53.4574 40.7179 53.4844C40.6481 53.5167 40.646 53.6751 40.7262 53.6817C40.9378 53.6973 41.018 53.3885 41.1538 53.2117C41.271 53.0583 41.4721 52.8529 41.4883 52.6007C41.492 52.5476 41.4531 52.4933 41.4177 52.4986Z" fill="#900C0C"/>
<path d="M41.9423 52.7806C41.8005 52.8982 41.6922 53.0996 41.5796 53.2709C41.498 53.3948 41.6219 53.5702 41.7073 53.4549C41.8293 53.2913 41.987 53.1127 42.0178 52.8612C42.0261 52.7964 41.9823 52.7463 41.9423 52.7806Z" fill="#900C0C"/>
<path d="M36.777 50.1601C36.5548 49.9977 36.3794 49.8038 36.202 49.5476C36.0988 49.3994 35.9555 49.639 36.051 49.7908C36.2297 50.0755 36.43 50.4347 36.709 50.4813C36.8243 50.5008 36.8794 50.2341 36.777 50.1601Z" fill="#900C0C"/>
<path d="M36.9626 49.4212C36.8834 49.2019 36.7086 49.0709 36.5901 48.8983C36.5398 48.825 36.4898 48.7545 36.4383 48.686C36.356 48.58 36.2177 48.5156 36.1569 48.3874C36.1085 48.2841 36.013 48.4035 36.0541 48.5051C36.085 48.5818 36.123 48.6254 36.1767 48.667C36.2636 48.7338 36.3388 48.8494 36.4073 48.9525C36.5453 49.1603 36.7149 49.4502 36.9148 49.5145C36.9471 49.5252 36.9772 49.4644 36.9626 49.4212Z" fill="#900C0C"/>
<path d="M36.8917 48.3382C36.8528 48.2823 36.8156 48.256 36.7662 48.2198C36.6537 48.1364 36.5675 48.0014 36.4809 47.869C36.3443 47.6596 36.1551 47.5128 36.0104 47.3124C35.9511 47.2304 35.8476 47.3695 35.9035 47.459C36.0844 47.748 36.2948 47.9913 36.4817 48.2719C36.584 48.4265 36.7432 48.6056 36.8887 48.4633C36.9194 48.4332 36.9156 48.3719 36.8917 48.3382Z" fill="#900C0C"/>
<path d="M36.7963 47.3731C36.7116 47.1838 36.5513 47.0552 36.4282 46.9212C36.3654 46.8531 36.294 46.8053 36.2346 46.7297C36.1594 46.6362 36.1003 46.5429 36.0123 46.4733C35.9193 46.401 35.8483 46.6111 35.938 46.6887C36.0179 46.7581 36.0736 46.8615 36.14 46.9555C36.1996 47.0391 36.2783 47.0951 36.3443 47.1659C36.4652 47.2977 36.6004 47.5238 36.7644 47.4784C36.7937 47.4697 36.8132 47.4109 36.7963 47.3731Z" fill="#900C0C"/>
<path d="M36.4716 46.0176C36.3644 45.9198 36.258 45.8188 36.1644 45.6928C36.0936 45.5977 35.9792 45.7345 36.0476 45.843C36.1359 45.9813 36.2356 46.0946 36.3371 46.2073C36.4322 46.3129 36.5581 46.4991 36.6839 46.5004C36.7185 46.5004 36.7542 46.458 36.7452 46.4014C36.7159 46.2141 36.5741 46.1126 36.4716 46.0176Z" fill="#900C0C"/>
<path d="M36.6708 45.6907C36.6037 45.4748 36.4478 45.3199 36.317 45.1917C36.2207 45.0968 36.1356 45.32 36.226 45.4181C36.3459 45.5488 36.4508 45.7738 36.6106 45.794C36.6466 45.7983 36.6889 45.7495 36.6708 45.6907Z" fill="#900C0C"/>
<path d="M36.5235 51.081C36.4611 51.035 36.3972 50.9953 36.3374 50.9434C36.255 50.8723 36.1848 50.7853 36.0932 50.7426C36.0422 50.7182 35.9786 50.7956 36.0092 50.8751L36.0189 50.9064C36.0222 50.9263 36.033 50.9383 36.0449 50.9465C36.1502 51.1452 36.3148 51.3314 36.4898 51.312C36.5628 51.3046 36.5899 51.1293 36.5235 51.081Z" fill="#900C0C"/>
<path d="M59.1514 43.8618C58.8949 44.0384 58.7667 44.4635 58.5803 44.7555C58.466 44.9343 58.3284 45.1605 58.3296 45.4189C58.3305 45.5263 58.4479 45.5512 58.471 45.4489C58.5265 45.2027 58.7031 45.0507 58.8182 44.8676C58.9774 44.6149 59.1875 44.3205 59.2477 43.9809C59.2613 43.9042 59.2004 43.8276 59.1514 43.8618Z" fill="#900C0C"/>
<path d="M58.9283 43.4073C58.7997 43.4698 58.7021 43.6327 58.6081 43.7699C58.4951 43.9347 58.4118 44.1155 58.3217 44.3054C58.2841 44.3848 58.3555 44.5068 58.4126 44.4464C58.526 44.3251 58.619 44.1611 58.721 44.0192C58.8279 43.8715 58.9531 43.7219 59.0058 43.5143C59.0222 43.4474 58.9691 43.3886 58.9283 43.4073Z" fill="#900C0C"/>
<path d="M58.8818 42.6351C58.7358 42.642 58.5941 42.8703 58.4917 43.0084C58.4042 43.1269 58.2735 43.2817 58.2768 43.4762C58.2786 43.5966 58.3978 43.6526 58.4253 43.5204C58.4398 43.4551 58.5118 43.3938 58.5492 43.3541C58.5993 43.3012 58.6447 43.2395 58.6933 43.1839C58.7928 43.071 58.9348 42.9367 58.9469 42.7387C58.9503 42.6866 58.9172 42.6324 58.8818 42.6351Z" fill="#900C0C"/>
<path d="M58.9229 41.371C58.7961 41.4067 58.6909 41.6119 58.6054 41.7412C58.5417 41.8358 58.5003 41.9415 58.4477 42.046C58.4124 42.0616 58.3926 42.0951 58.3645 42.1452C58.3191 42.2251 58.3892 42.3449 58.4481 42.2797C58.4741 42.2505 58.4968 42.2675 58.5241 42.2491C58.5492 42.2318 58.5691 42.194 58.5877 42.1658C58.6348 42.0934 58.6728 42.015 58.7227 41.9481C58.8154 41.8222 58.9668 41.6698 58.9942 41.4795C59.0039 41.4125 58.969 41.3578 58.9229 41.371Z" fill="#900C0C"/>
<path d="M58.7722 40.7987C58.6381 40.8455 58.5168 40.9995 58.4677 41.1894C58.4355 41.3151 58.5816 41.3969 58.6167 41.2717C58.6355 41.2064 58.6621 41.1633 58.7006 41.1209C58.76 41.0552 58.816 40.9932 58.8388 40.8862C58.8524 40.8267 58.8067 40.7858 58.7722 40.7987Z" fill="#900C0C"/>
<path d="M59.0121 45.1405C58.9174 45.1585 58.819 45.252 58.7447 45.3369C58.6735 45.4174 58.6276 45.514 58.6256 45.6461C58.6232 45.7986 58.7754 45.8191 58.8027 45.6751C58.815 45.6081 58.889 45.5679 58.9252 45.5367C58.9924 45.477 59.0626 45.4185 59.0978 45.3116C59.1253 45.2271 59.0732 45.1286 59.0121 45.1405Z" fill="#900C0C"/>
<path d="M3.99168 46.7341C3.94163 46.6678 3.88742 46.6348 3.82683 46.5903C3.69586 46.4965 3.58694 46.3439 3.47108 46.2159C3.30249 46.0297 3.10527 45.9037 2.93598 45.7153C2.8786 45.651 2.82414 45.7797 2.86208 45.8511C3.03235 46.1679 3.28617 46.3372 3.48784 46.6024C3.61873 46.7741 3.80915 47.0117 3.98796 46.8597C4.01937 46.8328 4.01491 46.7656 3.99168 46.7341Z" fill="#900C0C"/>
<path d="M3.82921 46.1171C3.79272 45.9011 3.63287 45.7644 3.5169 45.6434C3.37688 45.4974 3.22831 45.3377 3.10363 45.1656C3.01111 45.038 2.87024 45.2373 2.96012 45.3708C3.07892 45.5455 3.2242 45.7303 3.36099 45.8726C3.48306 46.0001 3.61183 46.1912 3.75871 46.2455C3.81166 46.2645 3.83921 46.179 3.82921 46.1171Z" fill="#900C0C"/>
<path d="M3.94322 45.3065C3.87335 45.1277 3.75784 45.0249 3.64619 44.9077C3.53812 44.7949 3.43822 44.6731 3.33541 44.5501C3.25803 44.4577 3.15713 44.5947 3.22172 44.7128C3.38004 44.9993 3.6391 45.3524 3.89753 45.41C3.93351 45.4181 3.95971 45.3497 3.94322 45.3065Z" fill="#900C0C"/>
<path d="M3.95807 44.3682C3.8403 44.101 3.61903 43.9978 3.46359 43.7865C3.38568 43.6806 3.28312 43.8552 3.35365 43.9664C3.50328 44.2001 3.69265 44.3873 3.90238 44.4812C3.9444 44.5001 3.98096 44.4217 3.95807 44.3682Z" fill="#900C0C"/>
<path d="M4.00686 43.7818C3.97631 43.704 3.91876 43.6752 3.87329 43.6191C3.82819 43.5626 3.78641 43.504 3.74542 43.441C3.67233 43.3309 3.56348 43.5108 3.63585 43.6209C3.71749 43.7446 3.84944 43.9663 3.98028 43.8995C4.01409 43.8823 4.02335 43.8245 4.00686 43.7818Z" fill="#900C0C"/>
<path d="M3.58196 47.2599C3.50763 47.1836 3.4321 47.1137 3.37126 47.0134C3.31364 46.9164 3.20755 47.0593 3.26939 47.1418C3.34803 47.2472 3.43623 47.3232 3.53682 47.3758C3.58386 47.4001 3.62506 47.3041 3.58196 47.2599Z" fill="#900C0C"/>
<path d="M4.09343 42.7272C3.99716 42.5582 3.85513 42.448 3.72697 42.3376C3.61358 42.2392 3.33866 42.018 3.29265 41.8535C3.26637 41.7586 3.17458 41.8233 3.18415 41.9136C3.21116 42.1778 3.41851 42.2851 3.53554 42.4561C3.6019 42.5538 3.72187 42.6265 3.80057 42.704C3.87964 42.7809 3.9634 42.837 4.05762 42.8529C4.10527 42.8611 4.11758 42.77 4.09343 42.7272Z" fill="#900C0C"/>
<path d="M4.1093 42.214C3.95799 41.8739 3.66881 41.6552 3.44157 41.4401C3.36427 41.367 3.27681 41.5558 3.34961 41.6375C3.56444 41.8765 3.78214 42.2397 4.05429 42.3308C4.09818 42.346 4.13363 42.2686 4.1093 42.214Z" fill="#900C0C"/>
<path d="M60.6691 70.0456C60.4812 69.5934 59.9407 69.4517 59.5326 69.1419C59.0649 68.7879 58.6001 68.4414 58.1536 68.0334C57.3507 67.3 56.5175 66.6422 55.7199 65.8965C54.0373 64.3227 52.5401 62.3297 50.9455 60.5808C49.268 58.7406 47.4627 57.1505 45.7608 55.3582C45.1502 54.7156 44.48 54.1294 43.8407 53.5497C43.3788 53.1308 42.9336 52.6661 42.4984 52.1924C42.4919 52.1847 42.4854 52.1814 42.4793 52.1749C43.763 51.9857 45.0385 51.6601 46.3241 51.4613C48.0955 51.1888 49.873 50.8312 51.6306 50.3852C52.4342 50.1813 55.8675 49.019 56.6383 48.6225C57.019 48.4261 57.4191 48.4064 57.7894 48.1803C58.4987 47.7464 59.2607 47.6153 59.4597 46.3698C59.5511 45.7989 59.4987 45.1647 59.5034 44.5845C59.5095 43.8193 59.5269 43.0543 59.5221 42.2894C59.5171 41.3658 59.5747 40.0645 59.221 39.2408C59.0308 38.7976 58.7287 38.7791 58.2663 39.0649C57.4237 39.5879 54.4442 40.6182 53.6317 40.9556C52.7659 41.3147 51.9125 41.2921 51.0257 41.526C49.2319 41.9981 47.416 42.344 45.6124 42.7205C44.7281 42.9056 43.88 43.3561 42.9841 43.3447C42.1775 43.3352 41.3409 43.4116 40.5344 43.5195C39.7461 43.6245 38.9568 43.6807 38.1704 43.8319C37.7652 43.9099 37.3603 43.9617 36.9521 43.969C36.6391 43.9755 36.3282 43.9418 36.0153 43.914C35.6631 43.883 35.555 43.7269 35.3414 43.3804C34.8587 42.5998 34.0586 42.4986 33.4237 42.1131C32.8129 41.7429 32.2657 41.1747 31.6551 40.7997C30.979 40.3835 30.4767 40.421 29.834 40.9331C29.2463 41.4021 28.4628 41.6294 27.8125 41.8244C27.0688 42.046 26.3134 42.1525 25.5698 42.3698C25.3236 42.4411 25.1349 42.5048 24.9273 42.7001C24.8289 42.793 24.7043 42.9782 24.6035 43.0582C24.5257 43.1187 24.4505 43.2667 24.3762 43.3069C24.1347 43.4346 23.6783 43.248 23.4232 43.2158C22.7712 43.1351 22.1206 43.0405 21.4718 42.9213C20.2698 42.6988 19.1017 42.2923 17.9015 42.0709C16.7854 41.8653 15.6833 41.5987 14.5626 41.4294C12.0618 41.0505 9.56661 40.6867 7.07146 40.272C6.04888 40.1015 4.99364 39.8968 3.96416 39.8936C3.2866 39.8908 2.74883 39.7599 2.74961 41.0352C2.75044 41.704 2.76004 42.3713 2.75065 43.041C2.73364 44.2142 2.66554 45.3893 2.70544 46.5617C2.7495 47.8683 2.8366 48.3791 3.75732 48.7014C4.18358 48.8505 4.63901 48.8553 5.07543 48.9589C5.60345 49.0833 6.08634 49.1292 6.62277 49.1797C7.16505 49.2292 7.69186 49.4576 8.22934 49.5596C8.79263 49.6662 9.37371 49.6337 9.9417 49.6959C11.1217 49.8253 12.2701 50.1865 13.4525 50.3309C14.6599 50.4795 15.8753 50.3707 17.0835 50.4679C18.1959 50.5571 19.276 50.9536 20.3767 51.1634C20.5487 51.1965 20.7145 51.2537 20.8863 51.2735C20.8239 51.3519 20.7633 51.4309 20.7064 51.4987C20.0315 52.3085 19.2995 52.9936 18.5863 53.7309C17.3374 55.0217 16.0692 56.287 14.8386 57.6215C13.6087 58.9549 12.4917 60.4751 11.3161 61.9086C10.0231 63.4861 8.61376 64.8249 7.25563 66.2733C6.08878 67.516 4.82624 68.769 3.78824 70.2459C3.26494 70.9909 2.73962 71.7252 2.16938 72.3913C1.58653 73.0716 1.00175 73.6383 0.396074 74.5011C0.303804 75.3214 0.924449 76.435 1.20218 77.0731C2.09141 79.1159 2.69759 81.4757 4.0294 83.0228C4.02699 83.0372 4.02639 83.0527 4.02471 83.0677C4.09939 83.0973 4.17401 83.1306 4.24711 83.1682C4.34908 82.9847 4.61962 82.8198 4.74156 82.715C4.98582 82.503 5.22937 82.2906 5.47086 82.0695C5.98047 81.6021 6.4686 81.0844 6.94996 80.5559C7.93645 79.4709 8.8815 78.3047 9.79091 77.0834C11.6659 74.5675 13.4051 71.8409 15.3112 69.3711C16.1924 68.2303 17.1105 67.156 17.9839 65.999C18.9113 64.7698 19.8987 63.651 20.7727 62.3363C21.6575 61.0052 22.516 59.6324 23.3947 58.2915C23.8195 57.6441 24.2489 57.0339 24.753 56.5229C25.1226 56.1493 25.5087 55.7218 25.8895 55.3795C26.0856 55.7729 26.2909 56.1568 26.4771 56.5532C26.723 57.0766 27.0256 57.4733 27.4549 57.6101C27.97 57.7734 28.6012 57.3458 29.0971 57.2053C29.7293 57.025 30.2105 56.7459 30.6871 56.0961C30.734 56.032 30.7792 55.9661 30.8229 55.8987C31.8248 56.1316 32.9798 56.1764 33.9574 55.8747C34.4308 55.7291 34.8238 55.0834 35.1548 54.61C35.226 54.5081 35.2965 54.4041 35.3584 54.2951C35.6509 54.6797 35.9796 54.9802 36.3091 55.3086C36.8211 55.8183 37.3072 56.3984 37.8034 56.9401C38.7947 58.0218 39.8114 59.039 40.7482 60.2239C42.4534 62.381 44.0494 64.6667 45.8481 66.6632C46.7193 67.631 47.4867 68.7351 48.389 69.6519C49.2786 70.5561 50.0818 71.6092 50.9913 72.4838C51.7184 73.1839 52.3909 74.079 53.0995 74.848C53.8645 75.6786 54.5027 76.3795 55.3157 77.0745C55.8273 77.5124 56.696 78.5944 57.3455 78.3548C57.9121 78.1456 58.1884 77.1437 58.4305 76.448C58.7889 75.4173 59.2083 74.381 59.7127 73.4871C60.0799 72.8346 61.0379 70.9324 60.6691 70.0456ZM38.2167 44.4616C38.9995 44.3287 39.7829 44.3046 40.5647 44.1668C40.9439 44.099 41.3316 44.1467 41.7139 44.1171C42.1921 44.0809 42.6548 43.9914 43.1365 43.9997C43.998 44.0144 44.8263 43.5528 45.6802 43.3699C47.4079 43.0003 49.138 42.6408 50.8623 42.2287C51.7173 42.0234 52.5513 41.7164 53.4115 41.5551C54.1338 41.4196 58.8555 39.0288 58.9228 39.7855C59.2021 40.9229 59.0482 41.9379 59.1168 43.6466C59.1487 44.4338 59.321 45.3364 59.1161 46.1029C58.8955 46.9265 58.4505 47.3418 57.956 47.5301C57.3071 47.7767 54.9924 48.7934 54.1595 48.954C53.6584 49.0526 52.462 49.5027 51.9647 49.6384C51.1239 49.867 50.2778 50.1079 49.4264 50.2184C48.4438 50.3451 47.4884 50.6514 46.5076 50.784C45.5622 50.9129 44.6188 51.1261 43.6798 51.3334C42.7768 51.5332 41.8711 51.5677 40.9616 51.6827C40.0244 51.7999 39.0758 51.5357 38.1342 51.6281C37.6437 51.676 37.1604 51.7818 36.6684 51.8098C36.5822 51.8144 36.1623 51.8708 35.9075 51.8916C36.0503 50.7927 36.0964 49.6698 36.0627 48.5495C36.0239 47.2318 35.9716 45.7459 35.7143 44.4528C36.5115 44.7174 37.4131 44.598 38.2167 44.4616ZM26.8886 42.845C27.2727 42.8176 27.6777 42.5636 28.0571 42.4615C28.5624 42.3249 29.0632 41.8627 29.5783 41.7342C29.6163 41.7772 29.6668 41.7854 29.7202 41.7257C29.7258 41.7198 29.7325 41.7119 29.7381 41.7055C29.7709 41.7023 29.8045 41.6996 29.8374 41.699C30.1911 41.6995 30.3886 41.4424 30.6664 41.1827C30.7331 41.2604 30.7973 41.3805 30.8581 41.5584C31.0081 42.0042 31.1344 42.4818 31.276 42.9333C31.2997 43.0093 31.3219 43.0831 31.3448 43.158C31.3139 43.2219 31.2974 43.3016 31.3069 43.3972C31.3844 44.1551 30.7775 45.0319 30.5434 45.6564C30.1881 46.6045 29.7645 47.3876 29.2451 48.1601C29.1146 48.3533 28.9815 48.5438 28.847 48.7316C28.5496 47.8519 28.2083 47.0031 27.9507 46.095C27.6806 45.1427 27.297 44.5116 26.8555 43.7321C26.6815 43.4243 26.5141 43.1113 26.321 42.8531C26.5109 42.8597 26.7002 42.8593 26.8886 42.845ZM24.9369 43.369C24.9624 43.0545 25.5622 43.1113 25.7151 43.1523C25.8604 43.1899 26.0553 43.4738 26.1678 43.482C25.9026 43.463 24.9369 43.3711 24.9369 43.369ZM20.5465 50.429C19.351 50.1852 18.17 49.7844 16.9916 49.9623C16.2162 49.9147 15.4186 49.9423 14.6401 49.9096C13.5135 49.8626 12.3851 49.6964 11.2855 49.4127C10.2237 49.1371 9.14713 49.2071 8.08272 49.0055C7.61395 48.9179 7.16669 48.7347 6.69433 48.6681C6.18886 48.5961 5.69005 48.566 5.18427 48.4661C4.8243 48.3947 4.50248 48.3335 4.13688 48.2969C3.6169 48.2434 3.14825 47.9312 3.08964 47.1044C3.00922 45.9834 3.16181 44.6712 3.18158 43.5324C3.199 42.5732 3.03941 41.237 3.31087 40.3358C3.47889 40.3668 3.65009 40.3801 3.82 40.3826C4.34098 40.3937 4.84371 40.5263 5.36328 40.5583C6.64872 40.6378 7.93754 40.9512 9.20386 41.2095C11.4576 41.6699 13.8118 41.5935 16.0359 42.2535C17.0434 42.5524 18.0823 42.6068 19.0971 42.8822C20.1915 43.1792 21.2772 43.4413 22.3904 43.6206C23.7638 43.842 25.1285 43.9886 26.5007 44.0453C26.5 44.0431 26.4996 44.041 26.4993 44.0388C26.7711 44.4897 27.0523 44.9504 27.2765 45.4391C27.5084 45.9457 27.6166 46.6021 27.7983 47.1524C28.0242 47.8413 28.2848 48.5043 28.5129 49.1916C28.266 49.5284 28.0156 49.8593 27.7677 50.1928C27.1862 50.9762 26.498 51.3594 25.7068 51.2563C24.7622 51.1337 24.5824 51.0183 23.6356 50.923C23.1506 50.8749 22.6797 50.7321 22.1935 50.691C21.65 50.6458 21.0995 50.5414 20.5465 50.429ZM25.4194 54.9964C25.1514 55.3013 24.6718 55.7896 24.6314 55.8281C24.1563 56.2822 23.7472 56.8101 23.347 57.3973C22.4526 58.7116 21.5859 60.0693 20.7255 61.4309C19.8729 62.777 18.8965 63.8922 17.9692 65.1171C16.9302 66.4893 15.8487 67.7842 14.8015 69.1413C12.9137 71.5863 11.1873 74.2889 9.34118 76.7982C8.38129 78.102 7.3673 79.3169 6.31935 80.4633C6.03309 80.7754 5.7461 81.0869 5.45699 81.3947C5.21829 81.6485 4.67891 82.3724 4.37698 82.466C4.31469 82.4854 4.26053 82.5216 4.2157 82.5686C4.05414 82.0621 3.70541 81.4883 3.43814 81.1716C2.95697 80.6023 2.56462 79.3682 2.28266 78.5756C1.97375 77.708 1.6208 76.9073 1.27719 76.0676C1.10307 75.6445 0.800622 75.2661 0.94139 74.7116C1.0372 74.3322 1.28972 74.0089 1.5233 73.8044C1.52957 73.7996 1.53444 73.7911 1.53965 73.7842C1.54216 73.7869 1.54467 73.7902 1.54682 73.7924C1.87389 73.4101 2.26589 73.1001 2.57401 72.7412C3.06479 72.1689 3.51688 71.5257 3.96745 70.8873C5.03483 69.3728 6.30656 68.0915 7.501 66.8085C8.6261 65.6006 9.79721 64.4856 10.8954 63.2242C12.0986 61.8437 13.1942 60.2733 14.3998 58.9009C15.7202 57.3962 17.1448 56.1113 18.4692 54.6221C19.0765 53.94 19.7221 53.3303 20.3465 52.6812C20.674 52.3391 20.9086 51.8278 21.2273 51.4696C21.421 51.2505 21.597 51.3068 21.8116 51.3937C22.028 51.4806 22.234 51.481 22.4515 51.5433C22.8542 51.6588 23.2709 51.671 23.6814 51.6815C24.1301 51.6931 24.5718 51.814 25.0151 51.8502C24.9793 51.9028 24.9496 51.9571 24.9331 52.0142C24.7332 52.6917 25.1204 53.4441 25.3097 54.0219C25.3934 54.2758 25.4911 54.5202 25.5962 54.7578C25.6043 54.7761 25.5303 54.8705 25.4194 54.9964ZM30.4073 55.6189C29.7906 56.5374 28.2075 57.3806 27.3493 56.9258C26.9152 56.6961 26.6156 55.7659 26.3477 55.2497C25.989 54.5594 24.8241 52.7328 25.505 51.8652C25.9898 52.3637 27.1663 51.665 27.6104 51.1885C28.2973 50.4513 28.9331 49.5036 29.5371 48.6262C30.1371 47.7525 30.5862 46.8546 30.9905 45.7752C31.1828 45.2606 31.48 44.7561 31.6365 44.1986C31.8 44.8457 31.929 45.503 32.0137 46.216C32.3315 48.8862 32.3701 51.4697 31.2901 53.797C30.9941 54.435 30.7842 55.0577 30.4073 55.6189ZM35.226 53.1132C34.8732 54.3542 34.2501 55.308 33.1946 55.4079C32.4901 55.4745 31.7854 55.386 31.0826 55.4585C31.2842 55.4375 32.5768 52.2966 32.6254 51.8827C32.9287 49.3098 32.6192 45.6116 31.8643 43.2892C31.6692 42.6883 31.4524 42.0999 31.2819 41.4816C31.2622 41.4079 31.2403 41.3384 31.2176 41.271C31.8028 41.5941 32.3609 42.0219 32.9168 42.4454C33.2713 42.7147 33.6321 42.9218 34.0108 43.1066C34.6686 43.426 35.1016 43.638 35.3029 44.6702C35.5578 45.9773 35.5936 47.5138 35.6333 48.8712C35.6715 50.1574 35.6004 51.7968 35.226 53.1132ZM59.6886 72.138C59.0375 73.9033 58.3662 75.6823 57.6167 77.3303C57.1237 78.411 55.4226 76.1258 54.906 75.734C53.7915 74.8869 52.9593 73.584 51.9204 72.5858C50.0656 70.8029 48.2613 68.8578 46.5961 66.7132C45.7533 65.6273 44.8168 64.7062 43.9696 63.6208C43.0874 62.4898 42.2411 61.2987 41.3652 60.1576C40.504 59.0366 39.5757 58.0824 38.6498 57.087C38.1395 56.5381 37.6296 55.9871 37.1189 55.4393C36.6029 54.8856 36.026 54.421 35.5254 53.8374C35.531 53.8027 35.5348 53.7684 35.5372 53.732C35.5684 53.6911 35.5926 53.6357 35.6086 53.5695C35.7018 53.1692 35.7798 52.7638 35.8432 52.354C36.5719 52.5661 37.4044 52.3336 38.1232 52.2378C39.0631 52.1125 40.0016 52.3439 40.9411 52.3184C41.2658 52.3089 41.59 52.2837 41.9129 52.2484C42.0521 52.3326 42.1938 52.4114 42.3191 52.5699C42.677 53.0204 43.0523 53.4471 43.4365 53.8482C44.268 54.7183 45.1265 55.5379 45.9776 56.3633C47.6848 58.0189 49.4146 59.7055 51.0428 61.523C52.6922 63.3638 54.2655 65.3918 56.0391 66.9787C56.7292 67.5963 57.4665 68.2311 58.1907 68.8143C58.8075 69.3117 59.6203 70.2127 60.3191 70.4243C60.1096 70.9902 59.9004 71.5636 59.6886 72.138Z" fill="#900C0C"/>
</svg>
